<svg xmlns="http://www.w3.org/2000/svg" xmlns:xlink="http://www.w3.org/1999/xlink" width="50" zoomAndPan="magnify" viewBox="0 0 37.5 37.499999" height="50" preserveAspectRatio="xMidYMid meet" version="1.0"><defs><clipPath id="027534e7c9"><path d="M 3 0 L 34.949219 0 L 34.949219 15 L 3 15 Z M 3 0 " clip-rule="nonzero"/></clipPath><clipPath id="b7deb67b3f"><path d="M 2.382812 10 L 28 10 L 28 29 L 2.382812 29 Z M 2.382812 10 " clip-rule="nonzero"/></clipPath><clipPath id="0cf3b81f72"><path d="M 2.382812 21 L 34 21 L 34 37 L 2.382812 37 Z M 2.382812 21 " clip-rule="nonzero"/></clipPath><clipPath id="ec127a045a"><path d="M 9 8 L 34.949219 8 L 34.949219 27 L 9 27 Z M 9 8 " clip-rule="nonzero"/></clipPath></defs><g clip-path="url(#027534e7c9)"><path fill="#003d60" d="M 3.484375 8.867188 L 18.730469 0.00390625 L 34.691406 9.253906 L 34.753906 14.96875 L 18.472656 5.65625 L 8.285156 11.695312 Z M 3.484375 8.867188 " fill-opacity="1" fill-rule="evenodd"/></g><g clip-path="url(#b7deb67b3f)"><path fill="#ffa914" d="M 2.382812 10.410156 L 2.445312 19.789062 L 18.601562 28.910156 L 27.8125 23.769531 L 27.8125 21.265625 L 24.960938 19.851562 L 18.535156 23.320312 L 7.503906 17.089844 L 7.503906 13.558594 Z M 2.382812 10.410156 " fill-opacity="1" fill-rule="evenodd"/></g><g clip-path="url(#0cf3b81f72)"><path fill="#ff6a0c" d="M 29.046875 25.570312 L 33.652344 28.460938 L 18.535156 37 L 2.445312 27.6875 L 2.574219 21.90625 L 18.664062 31.285156 Z M 29.046875 25.570312 " fill-opacity="1" fill-rule="evenodd"/></g><g clip-path="url(#ec127a045a)"><path fill="#0061a9" d="M 9.648438 13.492188 L 9.453125 15.742188 L 12.371094 17.28125 L 18.46875 13.6875 L 29.628906 20.171875 L 29.953125 24.027344 L 34.949219 26.789062 L 34.625 17.15625 L 18.925781 8.289062 Z M 9.648438 13.492188 " fill-opacity="1" fill-rule="evenodd"/></g></svg>