<svg xmlns="http://www.w3.org/2000/svg" xmlns:xlink="http://www.w3.org/1999/xlink" width="50" zoomAndPan="magnify" viewBox="0 0 37.5 37.499999" height="50" preserveAspectRatio="xMidYMid meet" version="1.0"><defs><clipPath id="031cdb00eb"><path d="M 1.15625 0 L 35.941406 0 L 35.941406 18 L 1.15625 18 Z M 1.15625 0 " clip-rule="nonzero"/></clipPath><clipPath id="68694866a7"><path d="M 1.15625 16 L 35.941406 16 L 35.941406 28 L 1.15625 28 Z M 1.15625 16 " clip-rule="nonzero"/></clipPath><clipPath id="303fe52db3"><path d="M 1.15625 26 L 35.941406 26 L 35.941406 37 L 1.15625 37 Z M 1.15625 26 " clip-rule="nonzero"/></clipPath></defs><g clip-path="url(#031cdb00eb)"><path fill="#0795ff" d="M 1.527344 9.441406 L 18.199219 17.445312 C 18.40625 17.542969 18.613281 17.542969 18.820312 17.445312 L 35.492188 9.441406 C 35.757812 9.308594 35.890625 9.097656 35.890625 8.800781 C 35.890625 8.507812 35.757812 8.296875 35.492188 8.164062 L 18.820312 0.160156 C 18.613281 0.0625 18.40625 0.0625 18.199219 0.160156 L 1.527344 8.164062 C 1.261719 8.296875 1.132812 8.507812 1.132812 8.800781 C 1.132812 9.097656 1.261719 9.308594 1.527344 9.441406 Z M 1.527344 9.441406 " fill-opacity="1" fill-rule="nonzero"/></g><g clip-path="url(#68694866a7)"><path fill="#156cdd" d="M 1.527344 19.160156 L 18.199219 27.148438 C 18.40625 27.246094 18.613281 27.246094 18.820312 27.148438 L 35.492188 19.160156 C 35.757812 19.03125 35.894531 18.820312 35.894531 18.527344 C 35.894531 18.230469 35.757812 18.019531 35.492188 17.894531 L 32.84375 16.609375 C 32.265625 16.324219 31.6875 16.324219 31.109375 16.609375 L 20.835938 21.554688 C 20.109375 21.902344 19.34375 22.074219 18.542969 22.074219 C 17.738281 22.074219 16.972656 21.902344 16.25 21.554688 L 5.921875 16.601562 C 5.339844 16.324219 4.757812 16.324219 4.179688 16.601562 L 1.527344 17.878906 C 1.261719 18.003906 1.128906 18.214844 1.128906 18.511719 C 1.128906 18.804688 1.261719 19.015625 1.527344 19.144531 Z M 1.527344 19.160156 " fill-opacity="1" fill-rule="nonzero"/></g><g clip-path="url(#303fe52db3)"><path fill="#156cdd" d="M 35.492188 27.589844 L 32.84375 26.316406 C 32.265625 26.039062 31.6875 26.039062 31.109375 26.316406 L 20.835938 31.261719 C 20.109375 31.609375 19.347656 31.785156 18.542969 31.785156 C 17.738281 31.785156 16.972656 31.609375 16.25 31.261719 L 5.953125 26.316406 C 5.371094 26.039062 4.789062 26.039062 4.207031 26.316406 L 1.558594 27.589844 C 1.292969 27.71875 1.160156 27.929688 1.160156 28.222656 C 1.160156 28.519531 1.292969 28.730469 1.558594 28.855469 L 18.199219 36.863281 C 18.40625 36.960938 18.613281 36.960938 18.820312 36.863281 L 35.492188 28.855469 C 35.757812 28.730469 35.894531 28.519531 35.894531 28.222656 C 35.894531 27.929688 35.757812 27.71875 35.492188 27.589844 Z M 35.492188 27.589844 " fill-opacity="1" fill-rule="nonzero"/></g></svg>