<svg xmlns="http://www.w3.org/2000/svg" xmlns:xlink="http://www.w3.org/1999/xlink" width="50" zoomAndPan="magnify" viewBox="0 0 37.5 37.499999" height="50" preserveAspectRatio="xMidYMid meet" version="1.0"><defs><clipPath id="751e237baa"><path d="M 5 7 L 34 7 L 34 33.304688 L 5 33.304688 Z M 5 7 " clip-rule="nonzero"/></clipPath><clipPath id="4a0eb685d0"><path d="M 0 3.699219 L 37.007812 3.699219 L 37.007812 23 L 0 23 Z M 0 3.699219 " clip-rule="nonzero"/></clipPath></defs><g clip-path="url(#751e237baa)"><path fill="#07bcd4" d="M 33.832031 25.582031 L 30.707031 23.175781 C 30.53125 23.042969 30.28125 23.078125 30.152344 23.257812 C 29.652344 23.957031 29.085938 24.601562 28.460938 25.183594 C 28.210938 25.417969 27.808594 25.238281 27.808594 24.894531 L 27.808594 18.160156 C 27.257812 18.566406 26.6875 18.953125 26.101562 19.3125 C 25.828125 19.480469 25.546875 19.644531 25.265625 19.800781 C 24.648438 20.144531 24.015625 20.460938 23.371094 20.746094 L 23.371094 27.785156 C 23.371094 27.964844 23.253906 28.121094 23.082031 28.167969 C 22.984375 28.191406 22.886719 28.21875 22.789062 28.242188 C 22.542969 28.300781 22.308594 28.109375 22.308594 27.855469 L 22.308594 21.191406 C 22.222656 21.226562 22.132812 21.261719 22.042969 21.292969 C 21.789062 21.390625 21.53125 21.480469 21.273438 21.570312 C 21.273438 21.570312 21.269531 21.570312 21.269531 21.570312 C 20.214844 21.929688 19.136719 22.21875 18.046875 22.4375 C 17.988281 22.449219 17.933594 22.460938 17.875 22.472656 L 17.875 27.964844 C 17.875 28.214844 17.652344 28.402344 17.410156 28.351562 C 17.136719 28.300781 16.867188 28.238281 16.601562 28.167969 C 16.429688 28.121094 16.308594 27.964844 16.308594 27.785156 L 16.308594 22.726562 C 16.242188 22.738281 16.175781 22.746094 16.105469 22.753906 C 15.890625 22.785156 15.667969 22.804688 15.449219 22.828125 L 15.121094 22.863281 L 14.464844 22.917969 C 14.410156 22.921875 14.355469 22.925781 14.300781 22.929688 L 14.136719 22.9375 C 13.917969 22.949219 13.695312 22.960938 13.476562 22.972656 C 12.941406 22.992188 12.40625 22.996094 11.875 22.992188 L 11.875 24.894531 C 11.875 25.238281 11.46875 25.417969 11.21875 25.183594 C 11.046875 25.023438 10.878906 24.859375 10.71875 24.691406 C 10.289062 24.242188 9.890625 23.765625 9.527344 23.257812 C 9.398438 23.082031 9.148438 23.042969 8.976562 23.175781 L 6.78125 24.863281 L 5.847656 25.582031 C 5.679688 25.714844 5.644531 25.957031 5.773438 26.132812 C 5.851562 26.238281 5.929688 26.347656 6.011719 26.453125 C 9.214844 30.621094 14.21875 33.304688 19.839844 33.304688 C 25.609375 33.304688 30.722656 30.484375 33.910156 26.132812 C 34.035156 25.957031 34.003906 25.714844 33.832031 25.582031 Z M 12.441406 21.621094 C 12.546875 21.613281 12.652344 21.609375 12.757812 21.597656 L 12.84375 21.589844 L 13.386719 21.542969 C 13.484375 21.535156 13.585938 21.523438 13.683594 21.515625 C 13.792969 21.503906 13.90625 21.492188 14.015625 21.480469 L 14.171875 21.460938 C 14.222656 21.457031 14.273438 21.449219 14.328125 21.441406 L 14.953125 21.363281 L 15.265625 21.316406 C 15.472656 21.285156 15.679688 21.257812 15.886719 21.21875 C 16.027344 21.195312 16.167969 21.171875 16.308594 21.144531 L 16.308594 12.582031 C 16.308594 12.292969 16.011719 12.105469 15.753906 12.226562 L 12.097656 13.964844 C 11.960938 14.03125 11.875 14.171875 11.875 14.324219 L 11.875 21.65625 C 11.957031 21.652344 12.039062 21.644531 12.125 21.640625 Z M 21.753906 8.003906 L 18.097656 9.746094 C 17.960938 9.808594 17.875 9.949219 17.875 10.101562 L 17.875 20.820312 C 17.933594 20.804688 17.988281 20.792969 18.046875 20.777344 C 18.957031 20.558594 19.855469 20.292969 20.738281 19.984375 C 20.917969 19.921875 21.09375 19.859375 21.269531 19.792969 C 21.527344 19.695312 21.785156 19.59375 22.042969 19.488281 C 22.132812 19.453125 22.222656 19.414062 22.308594 19.378906 L 22.308594 8.359375 C 22.308594 8.074219 22.011719 7.882812 21.753906 8.003906 Z M 27.808594 14.949219 L 27.808594 16.191406 L 27.617188 16.335938 C 27.53125 16.398438 27.445312 16.457031 27.363281 16.519531 C 26.6875 17.011719 25.988281 17.46875 25.269531 17.894531 C 25.269531 17.894531 25.265625 17.894531 25.265625 17.894531 C 24.648438 18.257812 24.015625 18.589844 23.371094 18.898438 L 23.371094 16.183594 C 23.371094 16.011719 23.480469 15.863281 23.640625 15.808594 L 27.296875 14.578125 C 27.546875 14.492188 27.808594 14.683594 27.808594 14.949219 " fill-opacity="1" fill-rule="nonzero"/></g><g clip-path="url(#4a0eb685d0)"><path fill="#ffa000" d="M 37.007812 3.703125 L 32.921875 7.019531 L 34.765625 7.191406 C 34.679688 7.320312 34.59375 7.445312 34.507812 7.570312 C 34.265625 7.925781 34.019531 8.277344 33.769531 8.625 C 33.644531 8.800781 33.515625 8.972656 33.390625 9.144531 C 33.261719 9.316406 33.132812 9.484375 33 9.65625 C 32.9375 9.742188 32.871094 9.824219 32.804688 9.910156 L 32.707031 10.035156 C 32.675781 10.078125 32.640625 10.117188 32.605469 10.160156 L 32.40625 10.410156 L 32.207031 10.65625 L 32.105469 10.78125 L 32 10.902344 L 31.796875 11.148438 L 31.589844 11.386719 L 31.484375 11.507812 C 31.449219 11.546875 31.414062 11.585938 31.378906 11.625 L 31.167969 11.863281 C 31.09375 11.941406 31.023438 12.019531 30.953125 12.097656 C 30.808594 12.253906 30.660156 12.40625 30.515625 12.5625 C 29.933594 13.171875 29.324219 13.753906 28.691406 14.3125 C 28.613281 14.382812 28.535156 14.449219 28.453125 14.515625 L 28.214844 14.722656 L 27.972656 14.921875 C 27.890625 14.988281 27.8125 15.054688 27.730469 15.121094 L 27.484375 15.316406 C 27.441406 15.347656 27.402344 15.378906 27.359375 15.410156 L 27.234375 15.507812 L 26.984375 15.695312 C 26.898438 15.757812 26.816406 15.820312 26.730469 15.882812 C 26.054688 16.371094 25.355469 16.828125 24.636719 17.253906 C 23.199219 18.09375 21.679688 18.792969 20.105469 19.34375 C 18.535156 19.894531 16.90625 20.304688 15.253906 20.578125 C 15.046875 20.617188 14.839844 20.644531 14.632812 20.675781 L 14.320312 20.722656 L 14.007812 20.761719 L 13.695312 20.804688 C 13.640625 20.808594 13.589844 20.816406 13.539062 20.824219 L 13.382812 20.839844 C 13.171875 20.859375 12.964844 20.886719 12.753906 20.90625 L 12.125 20.957031 C 12.019531 20.96875 11.914062 20.972656 11.808594 20.980469 L 11.492188 21 C 11.386719 21.007812 11.28125 21.015625 11.175781 21.019531 L 10.859375 21.035156 L 10.542969 21.046875 L 10.382812 21.054688 L 10.226562 21.058594 L 9.589844 21.074219 C 9.378906 21.078125 9.167969 21.078125 8.953125 21.078125 L 8.796875 21.082031 C 8.742188 21.082031 8.6875 21.082031 8.636719 21.082031 L 8.316406 21.078125 L 8 21.074219 L 7.839844 21.070312 C 7.785156 21.070312 7.734375 21.066406 7.679688 21.066406 L 7.042969 21.046875 C 6.988281 21.046875 6.9375 21.046875 6.882812 21.042969 L 6.722656 21.035156 L 6.40625 21.019531 C 6.191406 21.007812 5.976562 21.003906 5.765625 20.984375 L 5.125 20.945312 C 4.273438 20.882812 3.421875 20.8125 2.566406 20.71875 L 2.246094 20.683594 L 2.085938 20.667969 L 1.925781 20.648438 C 1.714844 20.621094 1.5 20.597656 1.285156 20.574219 C 1.179688 20.558594 1.070312 20.550781 0.964844 20.535156 L 0.644531 20.496094 C 0.429688 20.46875 0.214844 20.441406 0 20.417969 C 0.207031 20.484375 0.410156 20.550781 0.617188 20.617188 C 0.824219 20.679688 1.03125 20.746094 1.238281 20.804688 C 1.445312 20.863281 1.65625 20.925781 1.863281 20.984375 L 2.019531 21.027344 L 2.175781 21.066406 L 2.492188 21.148438 L 2.804688 21.230469 C 2.910156 21.253906 3.015625 21.285156 3.121094 21.308594 L 3.753906 21.453125 L 3.914062 21.488281 L 3.992188 21.507812 L 4.070312 21.523438 L 4.390625 21.589844 L 4.710938 21.652344 L 4.871094 21.6875 L 4.949219 21.703125 L 5.027344 21.714844 C 5.457031 21.792969 5.882812 21.871094 6.3125 21.933594 L 6.636719 21.984375 L 6.796875 22.007812 C 6.851562 22.015625 6.90625 22.023438 6.960938 22.03125 L 7.609375 22.113281 C 7.660156 22.117188 7.714844 22.125 7.769531 22.132812 L 7.933594 22.148438 L 8.257812 22.179688 L 8.582031 22.214844 C 8.691406 22.226562 8.800781 22.234375 8.910156 22.242188 C 9.125 22.257812 9.34375 22.273438 9.5625 22.289062 L 10.21875 22.324219 C 11.089844 22.359375 11.96875 22.363281 12.84375 22.332031 C 13.0625 22.324219 13.285156 22.308594 13.503906 22.296875 L 13.667969 22.289062 C 13.722656 22.285156 13.777344 22.28125 13.832031 22.277344 L 14.160156 22.25 L 14.488281 22.226562 L 14.816406 22.191406 C 15.035156 22.167969 15.257812 22.144531 15.472656 22.113281 C 17.222656 21.894531 18.960938 21.5 20.640625 20.929688 C 22.324219 20.359375 23.949219 19.601562 25.46875 18.671875 C 26.230469 18.207031 26.960938 17.695312 27.664062 17.148438 C 28.367188 16.601562 29.039062 16.015625 29.675781 15.398438 C 29.832031 15.238281 29.992188 15.085938 30.148438 14.925781 L 30.378906 14.6875 L 30.605469 14.441406 L 30.71875 14.320312 C 30.757812 14.28125 30.792969 14.238281 30.832031 14.199219 L 31.050781 13.949219 C 31.089844 13.910156 31.125 13.867188 31.160156 13.824219 L 31.378906 13.574219 L 31.429688 13.507812 L 31.484375 13.445312 C 32.050781 12.765625 32.585938 12.0625 33.085938 11.332031 C 33.929688 10.105469 34.671875 8.816406 35.335938 7.492188 L 36.503906 8.972656 L 37.007812 3.703125 " fill-opacity="1" fill-rule="nonzero"/></g></svg>