<svg xmlns="http://www.w3.org/2000/svg" xmlns:xlink="http://www.w3.org/1999/xlink" width="50" zoomAndPan="magnify" viewBox="0 0 37.5 37.499999" height="50" preserveAspectRatio="xMidYMid meet" version="1.0"><defs><clipPath id="f9e4132d70"><path d="M 0 2.792969 L 37.007812 2.792969 L 37.007812 33.878906 L 0 33.878906 Z M 0 2.792969 " clip-rule="nonzero"/></clipPath><clipPath id="7de0ef4850"><path d="M 37.007812 16.609375 L 37.007812 15.882812 L 36.277344 15.800781 C 36.078125 15.78125 33.972656 15.574219 31.246094 15.980469 L 31.246094 10.675781 L 30.324219 10.792969 C 28.796875 10.988281 27.378906 11.28125 26.070312 11.652344 C 24.644531 8.664062 22.292969 5.84375 19.019531 3.21875 L 18.503906 2.804688 L 17.988281 3.21875 C 14.714844 5.84375 12.359375 8.664062 10.9375 11.652344 C 9.628906 11.28125 8.210938 10.988281 6.683594 10.792969 L 5.757812 10.675781 L 5.757812 15.980469 C 3.03125 15.574219 0.925781 15.78125 0.730469 15.800781 L 0 15.882812 L 0 16.609375 C 0 22.570312 1.621094 27.109375 4.816406 30.101562 C 7.460938 32.578125 11.101562 33.871094 15.394531 33.871094 C 15.730469 33.871094 16.074219 33.859375 16.421875 33.84375 L 17.597656 33.84375 L 17.367188 32.847656 C 16.785156 30.355469 15.820312 24.34375 18.503906 19.441406 C 21.183594 24.34375 20.222656 30.355469 19.640625 32.847656 L 19.40625 33.84375 L 20.582031 33.84375 C 20.929688 33.859375 21.273438 33.871094 21.613281 33.871094 C 25.90625 33.871094 29.542969 32.578125 32.1875 30.101562 C 35.386719 27.109375 37.007812 22.570312 37.007812 16.609375 Z M 29.613281 12.53125 L 29.613281 16.289062 C 28.949219 16.441406 28.265625 16.628906 27.582031 16.871094 C 27.4375 15.609375 27.140625 14.371094 26.699219 13.160156 C 27.613281 12.90625 28.582031 12.695312 29.613281 12.53125 Z M 7.394531 12.53125 C 8.425781 12.695312 9.394531 12.90625 10.308594 13.160156 C 9.867188 14.371094 9.570312 15.609375 9.425781 16.871094 C 8.742188 16.632812 8.058594 16.441406 7.394531 16.289062 Z M 5.941406 28.925781 C 3.21875 26.378906 1.777344 22.492188 1.648438 17.371094 C 2.496094 17.34375 4.003906 17.359375 5.757812 17.648438 L 5.757812 22.457031 C 5.757812 26.132812 9.441406 29.808594 13.066406 32.101562 C 10.671875 31.789062 8.070312 30.921875 5.941406 28.925781 Z M 7.394531 22.457031 L 7.394531 17.988281 C 8.027344 18.152344 8.675781 18.351562 9.324219 18.597656 C 9.289062 23.460938 11.414062 27.613281 13.277344 30.308594 C 10.078125 28.117188 7.394531 25.023438 7.394531 22.457031 Z M 15.253906 30.234375 C 13.515625 27.917969 11.179688 23.972656 10.972656 19.351562 C 12.652344 20.246094 14.230469 21.535156 15.421875 23.390625 C 14.957031 25.867188 15.027344 28.289062 15.253906 30.234375 Z M 15.9375 21.316406 C 14.515625 19.5625 12.785156 18.351562 11.007812 17.515625 C 11.113281 16.207031 11.402344 14.917969 11.867188 13.65625 C 14.359375 14.5625 16.328125 15.859375 17.753906 17.539062 C 16.9375 18.742188 16.351562 20.023438 15.9375 21.316406 Z M 18.503906 15.9375 C 16.964844 14.324219 14.960938 13.066406 12.511719 12.167969 C 13.761719 9.617188 15.761719 7.1875 18.503906 4.898438 C 21.246094 7.1875 23.246094 9.617188 24.496094 12.167969 C 22.046875 13.066406 20.042969 14.324219 18.503906 15.9375 Z M 19.253906 17.539062 C 20.675781 15.859375 22.648438 14.5625 25.136719 13.65625 C 25.605469 14.917969 25.890625 16.207031 26 17.515625 C 24.21875 18.351562 22.488281 19.5625 21.066406 21.316406 C 20.65625 20.023438 20.066406 18.742188 19.253906 17.539062 Z M 21.585938 23.390625 C 22.777344 21.535156 24.351562 20.246094 26.03125 19.351562 C 25.828125 23.972656 23.492188 27.917969 21.75 30.234375 C 21.980469 28.289062 22.046875 25.867188 21.585938 23.390625 Z M 27.683594 18.597656 C 28.328125 18.351562 28.976562 18.152344 29.613281 17.988281 L 29.613281 22.457031 C 29.613281 25.023438 26.929688 28.117188 23.726562 30.308594 C 25.59375 27.613281 27.714844 23.460938 27.683594 18.597656 Z M 31.0625 28.925781 C 28.933594 30.921875 26.335938 31.789062 23.941406 32.101562 C 27.566406 29.808594 31.246094 26.132812 31.246094 22.457031 L 31.246094 17.648438 C 33.003906 17.359375 34.511719 17.34375 35.359375 17.371094 C 35.230469 22.492188 33.789062 26.378906 31.0625 28.925781 Z M 31.0625 28.925781 " clip-rule="nonzero"/></clipPath><linearGradient x1="3025" gradientTransform="matrix(0.067629, 0, 0, 0.0669071, -186.074363, -163.635619)" y1="2487.630044" x2="3025" gradientUnits="userSpaceOnUse" y2="2951.930034" id="4142f4c631"><stop stop-opacity="1" stop-color="rgb(85.899353%, 74.899292%, 54.499817%)" offset="0"/><stop stop-opacity="1" stop-color="rgb(85.899353%, 74.899292%, 54.499817%)" offset="0.125"/><stop stop-opacity="1" stop-color="rgb(85.768127%, 74.771118%, 54.423523%)" offset="0.1875"/><stop stop-opacity="1" stop-color="rgb(85.494995%, 74.504089%, 54.264832%)" offset="0.21875"/><stop stop-opacity="1" stop-color="rgb(85.211182%, 74.226379%, 54.101562%)" offset="0.25"/><stop stop-opacity="1" stop-color="rgb(84.927368%, 73.950195%, 53.938293%)" offset="0.28125"/><stop stop-opacity="1" stop-color="rgb(84.645081%, 73.672485%, 53.775024%)" offset="0.3125"/><stop stop-opacity="1" stop-color="rgb(84.361267%, 73.396301%, 53.611755%)" offset="0.34375"/><stop stop-opacity="1" stop-color="rgb(84.077454%, 73.118591%, 53.448486%)" offset="0.375"/><stop stop-opacity="1" stop-color="rgb(83.79364%, 72.842407%, 53.285217%)" offset="0.40625"/><stop stop-opacity="1" stop-color="rgb(83.511353%, 72.564697%, 53.121948%)" offset="0.4375"/><stop stop-opacity="1" stop-color="rgb(83.227539%, 72.288513%, 52.958679%)" offset="0.46875"/><stop stop-opacity="1" stop-color="rgb(82.943726%, 72.010803%, 52.79541%)" offset="0.5"/><stop stop-opacity="1" stop-color="rgb(82.661438%, 71.734619%, 52.632141%)" offset="0.53125"/><stop stop-opacity="1" stop-color="rgb(82.377625%, 71.456909%, 52.468872%)" offset="0.5625"/><stop stop-opacity="1" stop-color="rgb(82.093811%, 71.180725%, 52.305603%)" offset="0.59375"/><stop stop-opacity="1" stop-color="rgb(81.811523%, 70.903015%, 52.142334%)" offset="0.625"/><stop stop-opacity="1" stop-color="rgb(81.52771%, 70.626831%, 51.979065%)" offset="0.65625"/><stop stop-opacity="1" stop-color="rgb(81.243896%, 70.349121%, 51.815796%)" offset="0.6875"/><stop stop-opacity="1" stop-color="rgb(80.961609%, 70.072937%, 51.652527%)" offset="0.71875"/><stop stop-opacity="1" stop-color="rgb(80.677795%, 69.795227%, 51.489258%)" offset="0.75"/><stop stop-opacity="1" stop-color="rgb(80.393982%, 69.519043%, 51.325989%)" offset="0.78125"/><stop stop-opacity="1" stop-color="rgb(80.111694%, 69.241333%, 51.16272%)" offset="0.8125"/><stop stop-opacity="1" stop-color="rgb(79.827881%, 68.965149%, 50.999451%)" offset="0.84375"/><stop stop-opacity="1" stop-color="rgb(79.544067%, 68.687439%, 50.836182%)" offset="0.875"/><stop stop-opacity="1" stop-color="rgb(79.26178%, 68.411255%, 50.672913%)" offset="0.90625"/><stop stop-opacity="1" stop-color="rgb(78.977966%, 68.133545%, 50.509644%)" offset="0.9375"/><stop stop-opacity="1" stop-color="rgb(78.694153%, 67.857361%, 50.346375%)" offset="0.96875"/><stop stop-opacity="1" stop-color="rgb(78.410339%, 67.579651%, 50.183105%)" offset="1"/></linearGradient></defs><g clip-path="url(#f9e4132d70)"><g clip-path="url(#7de0ef4850)"><path fill="url(#4142f4c631)" d="M 0 2.804688 L 0 33.871094 L 37.007812 33.871094 L 37.007812 2.804688 Z M 0 2.804688 " fill-rule="nonzero"/></g></g></svg>