<svg xmlns="http://www.w3.org/2000/svg" xmlns:xlink="http://www.w3.org/1999/xlink" width="50" zoomAndPan="magnify" viewBox="0 0 37.5 37.499999" height="50" preserveAspectRatio="xMidYMid meet" version="1.0"><defs><clipPath id="1b75675d17"><path d="M 0 0 L 37.007812 0 L 37.007812 37.007812 L 0 37.007812 Z M 0 0 " clip-rule="nonzero"/></clipPath></defs><g clip-path="url(#1b75675d17)"><path fill="#1a4789" d="M 37.007812 31.378906 C 37.007812 34.484375 34.488281 37.003906 31.382812 37.003906 L 5.625 37.003906 C 2.519531 37.003906 0 34.484375 0 31.378906 L 0 5.621094 C 0 2.515625 2.519531 -0.00390625 5.625 -0.00390625 L 31.382812 -0.00390625 C 34.488281 -0.00390625 37.007812 2.515625 37.007812 5.621094 Z M 37.007812 31.378906 " fill-opacity="1" fill-rule="nonzero"/></g><path fill="#ffffff" d="M 24.519531 21.375 L 25.121094 16.734375 L 20.523438 16.734375 L 20.523438 13.773438 C 20.523438 12.429688 20.898438 11.511719 22.824219 11.511719 L 25.28125 11.511719 L 25.28125 7.363281 C 24.855469 7.304688 23.398438 7.179688 21.699219 7.179688 C 18.160156 7.179688 15.734375 9.34375 15.734375 13.3125 L 15.734375 16.734375 L 11.726562 16.734375 L 11.726562 21.375 L 15.734375 21.375 L 15.734375 33.28125 L 20.523438 33.28125 L 20.523438 21.375 Z M 24.519531 21.375 " fill-opacity="1" fill-rule="nonzero"/></svg>