<svg xmlns="http://www.w3.org/2000/svg" xmlns:xlink="http://www.w3.org/1999/xlink" width="50" zoomAndPan="magnify" viewBox="0 0 37.5 37.499999" height="50" preserveAspectRatio="xMidYMid meet" version="1.0"><defs><clipPath id="3438297474"><path d="M 0.507812 13 L 2 13 L 2 19 L 0.507812 19 Z M 0.507812 13 " clip-rule="nonzero"/></clipPath><clipPath id="88f0a8d34d"><path d="M 17 36 L 18 36 L 18 37.007812 L 17 37.007812 Z M 17 36 " clip-rule="nonzero"/></clipPath><clipPath id="fbca036407"><path d="M 31 9 L 36.773438 9 L 36.773438 15 L 31 15 Z M 31 9 " clip-rule="nonzero"/></clipPath><clipPath id="e2f1389cfc"><path d="M 0.507812 17 L 3 17 L 3 23 L 0.507812 23 Z M 0.507812 17 " clip-rule="nonzero"/></clipPath><clipPath id="edd37d9ba5"><path d="M 33 19 L 36.773438 19 L 36.773438 25 L 33 25 Z M 33 19 " clip-rule="nonzero"/></clipPath></defs><path fill="#689ac5" d="M 18.402344 1.046875 C 18.792969 1.140625 19.3125 1.265625 19.707031 1.359375 C 19.851562 1.214844 20.046875 1.019531 20.175781 0.863281 C 19.824219 0.621094 19.464844 0.429688 19.101562 0.292969 C 18.792969 0.257812 18.378906 0.210938 18.066406 0.179688 C 18.007812 0.261719 17.914062 0.359375 17.84375 0.425781 C 18.027344 0.582031 18.210938 0.789062 18.402344 1.046875 " fill-opacity="1" fill-rule="nonzero"/><path fill="#274082" d="M 16.128906 1.347656 C 16.425781 1.445312 16.824219 1.578125 17.125 1.671875 C 17.367188 1.503906 17.695312 1.277344 17.9375 1.105469 C 17.792969 0.839844 17.648438 0.625 17.511719 0.464844 C 17.300781 0.425781 17.015625 0.371094 16.804688 0.332031 C 16.632812 0.421875 16.402344 0.546875 16.230469 0.636719 C 16.1875 0.824219 16.152344 1.058594 16.128906 1.347656 " fill-opacity="1" fill-rule="nonzero"/><path fill="#69a2cd" d="M 13.941406 1.691406 C 14.128906 1.804688 14.382812 1.949219 14.578125 2.046875 C 14.90625 1.855469 15.339844 1.601562 15.667969 1.414062 C 15.738281 1.121094 15.816406 0.878906 15.90625 0.6875 C 15.800781 0.640625 15.660156 0.574219 15.558594 0.515625 C 15.296875 0.621094 14.945312 0.769531 14.683594 0.882812 C 14.417969 1.101562 14.171875 1.375 13.941406 1.691406 " fill-opacity="1" fill-rule="nonzero"/><path fill="#69a2cd" d="M 11.988281 2.0625 C 12.046875 2.1875 12.140625 2.351562 12.230469 2.460938 C 12.617188 2.25 13.132812 1.972656 13.519531 1.765625 C 13.789062 1.441406 14.078125 1.164062 14.382812 0.933594 C 14.371094 0.871094 14.378906 0.773438 14.410156 0.714844 C 14.074219 0.84375 13.628906 1.011719 13.296875 1.144531 C 12.839844 1.402344 12.402344 1.707031 11.988281 2.0625 " fill-opacity="1" fill-rule="nonzero"/><path fill="#69a2cd" d="M 10.40625 2.433594 C 10.339844 2.5625 10.265625 2.742188 10.238281 2.886719 C 10.65625 2.65625 11.210938 2.359375 11.628906 2.140625 C 12.078125 1.777344 12.546875 1.464844 13.042969 1.199219 C 13.152344 1.109375 13.3125 0.996094 13.4375 0.925781 C 13.058594 1.066406 12.550781 1.257812 12.175781 1.410156 C 11.558594 1.703125 10.96875 2.046875 10.40625 2.433594 " fill-opacity="1" fill-rule="nonzero"/><path fill="#69a2cd" d="M 9.363281 2.777344 C 9.179688 2.921875 8.941406 3.128906 8.777344 3.296875 C 9.183594 3.054688 9.726562 2.738281 10.140625 2.507812 C 10.726562 2.113281 11.34375 1.761719 11.988281 1.460938 C 12.203125 1.355469 12.5 1.21875 12.722656 1.125 C 12.335938 1.277344 11.816406 1.484375 11.433594 1.652344 C 10.714844 1.980469 10.023438 2.355469 9.363281 2.777344 " fill-opacity="1" fill-rule="nonzero"/><path fill="#69a2cd" d="M 9.234375 2.835938 C 9.617188 2.59375 10.007812 2.363281 10.414062 2.152344 C 9.847656 2.476562 9.101562 2.921875 8.554688 3.277344 L 8.460938 3.339844 C 8.691406 3.1875 9 2.984375 9.234375 2.835938 " fill-opacity="1" fill-rule="nonzero"/><path fill="#3a6ab9" d="M 25.671875 3.636719 C 26.277344 3.84375 27.082031 4.121094 27.6875 4.332031 C 28.074219 4.019531 28.585938 3.605469 28.96875 3.289062 C 28.675781 2.726562 28.367188 2.199219 28.050781 1.71875 C 27.5 1.550781 26.769531 1.328125 26.21875 1.160156 C 25.890625 1.425781 25.453125 1.773438 25.121094 2.027344 C 25.304688 2.523438 25.492188 3.058594 25.671875 3.636719 " fill-opacity="1" fill-rule="nonzero"/><path fill="#274082" d="M 16.207031 6.164062 C 16.75 6.367188 17.476562 6.636719 18.023438 6.839844 C 18.484375 6.503906 19.097656 6.054688 19.558594 5.714844 C 19.40625 5.136719 19.25 4.597656 19.097656 4.097656 C 18.609375 3.9375 17.960938 3.722656 17.476562 3.558594 C 17.066406 3.839844 16.523438 4.214844 16.113281 4.496094 C 16.136719 5.011719 16.167969 5.570312 16.207031 6.164062 " fill-opacity="1" fill-rule="nonzero"/><path fill="#3881b6" d="M 12.152344 6.804688 C 12.609375 7.011719 13.214844 7.28125 13.671875 7.480469 C 14.175781 7.121094 14.847656 6.644531 15.355469 6.289062 C 15.34375 5.691406 15.347656 5.128906 15.359375 4.609375 C 14.960938 4.449219 14.429688 4.230469 14.035156 4.0625 C 13.578125 4.363281 12.964844 4.765625 12.507812 5.066406 C 12.371094 5.609375 12.253906 6.191406 12.152344 6.804688 " fill-opacity="1" fill-rule="nonzero"/><path fill="#3a6ab9" d="M 8.53125 7.492188 C 8.863281 7.707031 9.316406 7.988281 9.660156 8.183594 C 10.171875 7.808594 10.855469 7.3125 11.371094 6.945312 C 11.496094 6.324219 11.640625 5.738281 11.808594 5.191406 C 11.523438 5.027344 11.140625 4.800781 10.863281 4.621094 C 10.386719 4.9375 9.753906 5.359375 9.28125 5.679688 C 9.003906 6.246094 8.75 6.855469 8.53125 7.492188 " fill-opacity="1" fill-rule="nonzero"/><path fill="#689ac5" d="M 5.59375 8.183594 C 5.785156 8.410156 6.046875 8.707031 6.261719 8.914062 C 6.738281 8.523438 7.378906 8.011719 7.863281 7.636719 C 8.109375 6.992188 8.382812 6.378906 8.691406 5.804688 C 8.527344 5.632812 8.3125 5.394531 8.175781 5.199219 C 7.71875 5.523438 7.117188 5.957031 6.671875 6.292969 C 6.273438 6.890625 5.914062 7.519531 5.59375 8.183594 " fill-opacity="1" fill-rule="nonzero"/><path fill="#689ac5" d="M 3.660156 8.816406 C 3.667969 9.058594 3.703125 9.378906 3.761719 9.613281 C 4.15625 9.21875 4.691406 8.699219 5.101562 8.320312 C 5.441406 7.652344 5.816406 7.015625 6.234375 6.414062 C 6.203125 6.21875 6.179688 5.949219 6.199219 5.753906 C 5.816406 6.078125 5.3125 6.515625 4.949219 6.855469 C 4.476562 7.476562 4.046875 8.132812 3.660156 8.816406 " fill-opacity="1" fill-rule="nonzero"/><path fill="#274082" d="M 2.539062 10.1875 C 2.792969 9.800781 3.144531 9.292969 3.421875 8.925781 C 3.816406 8.238281 4.257812 7.582031 4.738281 6.953125 C 4.875 6.722656 5.066406 6.417969 5.234375 6.203125 L 4.96875 6.5 L 4.355469 7.253906 C 3.273438 8.777344 3.25 8.804688 2.78125 9.660156 C 2.707031 9.820312 2.597656 10.023438 2.539062 10.1875 " fill-opacity="1" fill-rule="nonzero"/><path fill="#69a2cd" d="M 22.191406 13.101562 C 22.882812 13.394531 23.800781 13.789062 24.488281 14.089844 C 25.027344 13.664062 25.75 13.097656 26.289062 12.667969 C 26.113281 11.871094 25.917969 11.097656 25.703125 10.355469 C 25.027344 10.082031 24.128906 9.722656 23.453125 9.457031 C 22.941406 9.851562 22.257812 10.378906 21.742188 10.773438 C 21.898438 11.519531 22.050781 12.296875 22.191406 13.101562 " fill-opacity="1" fill-rule="nonzero"/><path fill="#4186b9" d="M 16.949219 13.789062 C 17.625 14.066406 18.527344 14.441406 19.203125 14.722656 C 19.777344 14.273438 20.542969 13.675781 21.117188 13.230469 C 20.984375 12.425781 20.847656 11.648438 20.707031 10.898438 C 20.050781 10.640625 19.175781 10.300781 18.519531 10.046875 C 17.964844 10.464844 17.226562 11.019531 16.675781 11.4375 C 16.757812 12.195312 16.847656 12.980469 16.949219 13.789062 " fill-opacity="1" fill-rule="nonzero"/><path fill="#69a2cd" d="M 7.398438 15.4375 C 7.933594 15.714844 8.644531 16.074219 9.183594 16.339844 C 9.703125 15.859375 10.402344 15.222656 10.933594 14.757812 C 10.882812 13.941406 10.859375 13.144531 10.863281 12.371094 C 10.351562 12.132812 9.671875 11.804688 9.167969 11.554688 C 8.648438 11.992188 7.960938 12.582031 7.449219 13.03125 C 7.398438 13.8125 7.378906 14.617188 7.398438 15.4375 " fill-opacity="1" fill-rule="nonzero"/><path fill="#3881b6" d="M 3.75 16.296875 C 4.152344 16.578125 4.695312 16.945312 5.113281 17.210938 C 5.542969 16.726562 6.125 16.085938 6.574219 15.617188 C 6.558594 14.792969 6.585938 13.988281 6.652344 13.203125 C 6.261719 12.960938 5.742188 12.628906 5.363281 12.367188 C 4.925781 12.808594 4.34375 13.40625 3.921875 13.863281 C 3.816406 14.65625 3.757812 15.46875 3.75 16.296875 " fill-opacity="1" fill-rule="nonzero"/><path fill="#3881b6" d="M 1.34375 17.085938 C 1.558594 17.386719 1.867188 17.777344 2.117188 18.050781 C 2.410156 17.566406 2.8125 16.929688 3.136719 16.46875 C 3.152344 15.636719 3.21875 14.824219 3.332031 14.027344 C 3.089844 13.777344 2.777344 13.429688 2.566406 13.152344 C 2.265625 13.585938 1.871094 14.167969 1.597656 14.621094 C 1.457031 15.425781 1.375 16.25 1.34375 17.085938 " fill-opacity="1" fill-rule="nonzero"/><g clip-path="url(#3438297474)"><path fill="#69a2cd" d="M 0.523438 17.683594 C 0.542969 18 0.585938 18.425781 0.652344 18.738281 C 0.75 18.277344 0.902344 17.667969 1.046875 17.222656 C 1.082031 16.386719 1.167969 15.5625 1.3125 14.757812 C 1.257812 14.46875 1.207031 14.082031 1.203125 13.792969 C 1.078125 14.175781 0.917969 14.6875 0.828125 15.078125 L 0.828125 15.085938 C 0.746094 15.640625 0.628906 16.378906 0.574219 16.933594 L 0.523438 17.683594 " fill-opacity="1" fill-rule="nonzero"/></g><path fill="#69a2cd" d="M 18.246094 22.773438 C 18.894531 23.042969 19.761719 23.410156 20.410156 23.683594 C 20.96875 23.246094 21.714844 22.667969 22.277344 22.234375 C 22.203125 21.425781 22.117188 20.601562 22.023438 19.765625 C 21.347656 19.464844 20.441406 19.066406 19.761719 18.773438 C 19.1875 19.234375 18.425781 19.855469 17.851562 20.324219 C 17.980469 21.15625 18.113281 21.972656 18.246094 22.773438 " fill-opacity="1" fill-rule="nonzero"/><path fill="#274082" d="M 25.398438 19.488281 C 26.050781 19.746094 26.914062 20.089844 27.566406 20.34375 C 28.066406 19.898438 28.738281 19.304688 29.25 18.867188 C 29.101562 18.070312 28.957031 17.253906 28.820312 16.421875 C 28.148438 16.140625 27.25 15.765625 26.578125 15.484375 C 26.050781 15.953125 25.355469 16.585938 24.835938 17.066406 C 25.007812 17.890625 25.195312 18.699219 25.398438 19.488281 " fill-opacity="1" fill-rule="nonzero"/><path fill="#69a2cd" d="M 9.011719 24.371094 C 9.621094 24.621094 10.4375 24.949219 11.046875 25.191406 C 11.457031 24.742188 12.007812 24.148438 12.429688 23.710938 C 12.210938 22.925781 12.011719 22.117188 11.835938 21.292969 C 11.207031 21.023438 10.367188 20.664062 9.742188 20.386719 C 9.304688 20.855469 8.722656 21.492188 8.300781 21.976562 C 8.507812 22.792969 8.746094 23.59375 9.011719 24.371094 " fill-opacity="1" fill-rule="nonzero"/><path fill="#3881b6" d="M 5.484375 25.199219 C 6.007812 25.449219 6.710938 25.773438 7.242188 26.007812 C 7.523438 25.5625 7.910156 24.972656 8.214844 24.542969 C 7.933594 23.769531 7.6875 22.96875 7.472656 22.152344 C 6.929688 21.890625 6.207031 21.535156 5.667969 21.257812 C 5.351562 21.726562 4.9375 22.351562 4.648438 22.835938 C 4.886719 23.648438 5.164062 24.4375 5.484375 25.199219 " fill-opacity="1" fill-rule="nonzero"/><path fill="#69a2cd" d="M 3.15625 25.960938 C 3.535156 26.222656 4.046875 26.558594 4.445312 26.792969 C 4.558594 26.359375 4.734375 25.785156 4.890625 25.367188 C 4.566406 24.605469 4.277344 23.816406 4.039062 23.007812 C 3.621094 22.746094 3.070312 22.386719 2.671875 22.097656 C 2.523438 22.550781 2.34375 23.15625 2.242188 23.621094 C 2.496094 24.425781 2.804688 25.207031 3.15625 25.960938 " fill-opacity="1" fill-rule="nonzero"/><path fill="#69a2cd" d="M 2.363281 26.539062 C 2.566406 26.820312 2.84375 27.179688 3.078125 27.433594 C 2.996094 27.035156 2.902344 26.5 2.871094 26.097656 C 2.515625 25.34375 2.203125 24.566406 1.945312 23.761719 C 1.710938 23.480469 1.40625 23.09375 1.207031 22.785156 C 1.253906 23.21875 1.328125 23.796875 1.421875 24.222656 C 1.6875 25.023438 2 25.796875 2.363281 26.539062 " fill-opacity="1" fill-rule="nonzero"/><path fill="#3881b6" d="M 23.464844 29.957031 C 23.867188 30.179688 24.398438 30.484375 24.792969 30.726562 C 25.277344 30.398438 25.917969 29.96875 26.402344 29.648438 C 26.5625 29 26.703125 28.324219 26.820312 27.621094 C 26.359375 27.34375 25.738281 26.976562 25.265625 26.714844 C 24.742188 27.089844 24.042969 27.589844 23.519531 27.96875 C 23.515625 28.660156 23.496094 29.324219 23.464844 29.957031 " fill-opacity="1" fill-rule="nonzero"/><path fill="#274082" d="M 19.707031 30.449219 C 20.183594 30.652344 20.820312 30.929688 21.296875 31.144531 C 21.714844 30.8125 22.273438 30.371094 22.695312 30.046875 C 22.691406 29.421875 22.679688 28.761719 22.65625 28.070312 C 22.117188 27.820312 21.394531 27.488281 20.847656 27.246094 C 20.382812 27.625 19.757812 28.132812 19.300781 28.519531 C 19.4375 29.195312 19.570312 29.839844 19.707031 30.449219 " fill-opacity="1" fill-rule="nonzero"/><path fill="#3881b6" d="M 16.09375 31.019531 C 16.621094 31.207031 17.324219 31.460938 17.847656 31.652344 C 18.171875 31.320312 18.613281 30.878906 18.949219 30.558594 C 18.78125 29.957031 18.613281 29.316406 18.449219 28.648438 C 17.863281 28.417969 17.082031 28.109375 16.492188 27.886719 C 16.113281 28.265625 15.609375 28.773438 15.242188 29.164062 C 15.515625 29.816406 15.800781 30.433594 16.09375 31.019531 " fill-opacity="1" fill-rule="nonzero"/><path fill="#3881b6" d="M 10.242188 32.25 C 10.761719 32.414062 11.453125 32.628906 11.976562 32.789062 C 12.046875 32.476562 12.160156 32.0625 12.269531 31.761719 C 11.804688 31.207031 11.363281 30.617188 10.945312 29.992188 C 10.382812 29.792969 9.632812 29.527344 9.074219 29.320312 C 8.9375 29.683594 8.769531 30.167969 8.671875 30.542969 C 9.167969 31.148438 9.691406 31.71875 10.242188 32.25 " fill-opacity="1" fill-rule="nonzero"/><path fill="#69a2cd" d="M 8.519531 32.8125 C 8.957031 32.976562 9.546875 33.191406 9.992188 33.34375 C 9.917969 33.058594 9.832031 32.667969 9.804688 32.371094 C 9.234375 31.847656 8.691406 31.28125 8.179688 30.679688 C 7.695312 30.488281 7.046875 30.230469 6.570312 30.023438 C 6.597656 30.371094 6.65625 30.835938 6.734375 31.175781 C 7.296875 31.761719 7.890625 32.308594 8.519531 32.8125 " fill-opacity="1" fill-rule="nonzero"/><path fill="#69a2cd" d="M 7.929688 33.242188 C 8.253906 33.417969 8.691406 33.644531 9.023438 33.796875 C 8.796875 33.542969 8.503906 33.191406 8.304688 32.914062 C 7.671875 32.410156 7.066406 31.867188 6.496094 31.289062 C 6.144531 31.089844 5.683594 30.816406 5.347656 30.597656 C 5.550781 30.925781 5.835938 31.355469 6.078125 31.65625 C 6.660156 32.226562 7.28125 32.753906 7.929688 33.242188 " fill-opacity="1" fill-rule="nonzero"/><path fill="#274082" d="M 21.964844 33.574219 C 22.167969 33.675781 22.4375 33.816406 22.632812 33.933594 C 22.8125 33.769531 23.058594 33.554688 23.246094 33.402344 C 23.316406 33.066406 23.375 32.683594 23.421875 32.257812 C 23.136719 32.089844 22.75 31.871094 22.457031 31.714844 C 22.199219 31.945312 21.859375 32.257812 21.617188 32.5 C 21.734375 32.902344 21.851562 33.261719 21.964844 33.574219 " fill-opacity="1" fill-rule="nonzero"/><path fill="#69a2cd" d="M 19.261719 35.117188 C 19.625 35.1875 20.105469 35.285156 20.46875 35.355469 C 20.414062 35.226562 20.359375 35.046875 20.347656 34.910156 C 19.972656 34.640625 19.605469 34.320312 19.238281 33.957031 C 18.804688 33.832031 18.226562 33.664062 17.792969 33.542969 C 17.753906 33.753906 17.707031 34.039062 17.707031 34.253906 C 18.214844 34.589844 18.734375 34.878906 19.261719 35.117188 " fill-opacity="1" fill-rule="nonzero"/><path fill="#3881b6" d="M 16.265625 36.53125 C 16.679688 36.574219 17.230469 36.632812 17.644531 36.671875 C 17.394531 36.582031 17.058594 36.457031 16.816406 36.34375 C 16.105469 36.148438 15.40625 35.902344 14.722656 35.605469 C 14.269531 35.511719 13.660156 35.386719 13.207031 35.285156 C 13.417969 35.472656 13.710938 35.710938 13.945312 35.871094 C 14.699219 36.144531 15.476562 36.363281 16.265625 36.53125 " fill-opacity="1" fill-rule="nonzero"/><path fill="#274082" d="M 16.015625 36.714844 C 16.398438 36.753906 16.910156 36.804688 17.296875 36.835938 C 16.957031 36.765625 16.507812 36.664062 16.175781 36.574219 C 15.371094 36.414062 14.585938 36.199219 13.816406 35.933594 C 13.417969 35.84375 12.886719 35.722656 12.492188 35.621094 C 12.816406 35.785156 13.253906 35.992188 13.589844 36.132812 C 14.378906 36.378906 15.1875 36.574219 16.015625 36.714844 " fill-opacity="1" fill-rule="nonzero"/><g clip-path="url(#88f0a8d34d)"><path fill="#69a2cd" d="M 17.699219 37.007812 L 17.476562 36.988281 L 17.632812 37.003906 L 17.699219 37.007812 " fill-opacity="1" fill-rule="nonzero"/></g><path fill="#3881b6" d="M 21.03125 2.699219 C 21.570312 2.851562 22.289062 3.0625 22.828125 3.222656 C 23.046875 3.003906 23.332031 2.707031 23.53125 2.472656 C 23.117188 2.070312 22.6875 1.710938 22.25 1.402344 C 21.78125 1.292969 21.15625 1.148438 20.6875 1.046875 C 20.542969 1.214844 20.339844 1.429688 20.183594 1.585938 C 20.46875 1.910156 20.753906 2.28125 21.03125 2.699219 " fill-opacity="1" fill-rule="nonzero"/><path fill="#274082" d="M 17.71875 3.085938 C 18.195312 3.238281 18.824219 3.441406 19.300781 3.59375 C 19.621094 3.347656 20.046875 3.019531 20.363281 2.769531 C 20.121094 2.347656 19.875 1.972656 19.628906 1.644531 C 19.226562 1.542969 18.691406 1.402344 18.289062 1.300781 C 18.035156 1.484375 17.699219 1.726562 17.441406 1.90625 C 17.53125 2.253906 17.621094 2.648438 17.71875 3.085938 " fill-opacity="1" fill-rule="nonzero"/><path fill="#69a2cd" d="M 14.433594 3.5625 C 14.816406 3.71875 15.328125 3.925781 15.710938 4.074219 C 16.109375 3.804688 16.640625 3.445312 17.039062 3.175781 C 16.980469 2.734375 16.925781 2.335938 16.878906 1.984375 C 16.570312 1.878906 16.15625 1.738281 15.847656 1.628906 C 15.511719 1.828125 15.0625 2.097656 14.722656 2.300781 C 14.613281 2.675781 14.515625 3.097656 14.433594 3.5625 " fill-opacity="1" fill-rule="nonzero"/><path fill="#3881b6" d="M 11.382812 4.089844 C 11.648438 4.257812 12.011719 4.472656 12.289062 4.625 C 12.738281 4.335938 13.332031 3.953125 13.78125 3.664062 C 13.902344 3.195312 14.035156 2.769531 14.1875 2.386719 C 13.984375 2.277344 13.714844 2.128906 13.519531 2.003906 C 13.121094 2.222656 12.59375 2.515625 12.199219 2.738281 C 11.90625 3.144531 11.632812 3.597656 11.382812 4.089844 " fill-opacity="1" fill-rule="nonzero"/><path fill="#3a6ab9" d="M 8.769531 4.636719 C 8.902344 4.820312 9.09375 5.050781 9.253906 5.214844 C 9.714844 4.90625 10.335938 4.5 10.804688 4.199219 C 11.085938 3.703125 11.394531 3.242188 11.722656 2.828125 C 11.628906 2.710938 11.511719 2.542969 11.453125 2.402344 C 11.027344 2.636719 10.460938 2.949219 10.039062 3.191406 C 9.589844 3.632812 9.164062 4.113281 8.769531 4.636719 " fill-opacity="1" fill-rule="nonzero"/><path fill="#3881b6" d="M 6.8125 5.167969 C 6.796875 5.359375 6.796875 5.613281 6.828125 5.800781 C 7.269531 5.480469 7.859375 5.058594 8.308594 4.75 C 8.726562 4.21875 9.179688 3.730469 9.660156 3.28125 C 9.683594 3.132812 9.738281 2.9375 9.804688 2.800781 C 9.386719 3.042969 8.832031 3.375 8.417969 3.628906 C 7.847656 4.101562 7.3125 4.617188 6.8125 5.167969 " fill-opacity="1" fill-rule="nonzero"/><path fill="#3a6ab9" d="M 5.792969 5.613281 C 5.632812 5.820312 5.425781 6.101562 5.292969 6.328125 C 5.65625 6.003906 6.144531 5.578125 6.519531 5.269531 C 7.035156 4.710938 7.589844 4.191406 8.179688 3.714844 C 8.34375 3.539062 8.574219 3.316406 8.757812 3.160156 C 8.402344 3.40625 7.925781 3.738281 7.578125 3.996094 C 6.945312 4.496094 6.351562 5.035156 5.792969 5.613281 " fill-opacity="1" fill-rule="nonzero"/><path fill="#3881b6" d="M 23.730469 8.773438 C 24.402344 9.035156 25.296875 9.386719 25.964844 9.652344 C 26.394531 9.296875 26.964844 8.816406 27.386719 8.445312 C 27.097656 7.757812 26.789062 7.105469 26.460938 6.488281 C 25.832031 6.253906 24.992188 5.945312 24.359375 5.71875 C 23.972656 6.042969 23.449219 6.472656 23.054688 6.792969 C 23.292969 7.417969 23.519531 8.078125 23.730469 8.773438 " fill-opacity="1" fill-rule="nonzero"/><path fill="#274082" d="M 31.027344 3.171875 C 31.679688 3.421875 32.546875 3.753906 33.195312 4.003906 C 33.703125 3.617188 34.382812 3.097656 34.890625 2.710938 C 34.695312 2.011719 34.492188 1.347656 34.28125 0.71875 C 33.667969 0.503906 32.855469 0.214844 32.242188 0 C 31.773438 0.347656 31.152344 0.808594 30.679688 1.152344 C 30.796875 1.792969 30.910156 2.46875 31.027344 3.171875 " fill-opacity="1" fill-rule="nonzero"/><path fill="#69a2cd" d="M 14.085938 10.035156 C 14.679688 10.277344 15.472656 10.601562 16.070312 10.839844 C 16.617188 10.429688 17.347656 9.882812 17.894531 9.472656 C 17.796875 8.765625 17.707031 8.085938 17.617188 7.445312 C 17.0625 7.238281 16.328125 6.960938 15.777344 6.75 C 15.261719 7.113281 14.582031 7.601562 14.070312 7.96875 C 14.0625 8.625 14.066406 9.316406 14.085938 10.035156 " fill-opacity="1" fill-rule="nonzero"/><path fill="#4186b9" d="M 9.625 10.808594 C 10.128906 11.050781 10.800781 11.371094 11.308594 11.605469 C 11.855469 11.179688 12.585938 10.609375 13.136719 10.1875 C 13.136719 9.464844 13.152344 8.773438 13.183594 8.109375 C 12.722656 7.90625 12.105469 7.628906 11.644531 7.414062 C 11.125 7.792969 10.429688 8.300781 9.914062 8.6875 C 9.789062 9.363281 9.695312 10.070312 9.625 10.808594 " fill-opacity="1" fill-rule="nonzero"/><path fill="#274082" d="M 5.8125 11.609375 C 6.1875 11.859375 6.695312 12.1875 7.085938 12.425781 C 7.589844 11.984375 8.269531 11.398438 8.785156 10.96875 C 8.867188 10.230469 8.984375 9.519531 9.128906 8.839844 C 8.78125 8.628906 8.320312 8.347656 7.980469 8.125 C 7.492188 8.511719 6.839844 9.03125 6.359375 9.433594 C 6.140625 10.128906 5.957031 10.855469 5.8125 11.609375 " fill-opacity="1" fill-rule="nonzero"/><path fill="#274082" d="M 2.949219 12.386719 C 3.167969 12.652344 3.46875 12.996094 3.714844 13.238281 C 4.132812 12.792969 4.703125 12.203125 5.136719 11.769531 C 5.296875 11.015625 5.496094 10.285156 5.730469 9.582031 C 5.519531 9.367188 5.242188 9.070312 5.058594 8.832031 C 4.640625 9.222656 4.089844 9.75 3.691406 10.15625 C 3.398438 10.875 3.148438 11.617188 2.949219 12.386719 " fill-opacity="1" fill-rule="nonzero"/><path fill="#69a2cd" d="M 1.460938 13.03125 C 1.476562 13.316406 1.515625 13.695312 1.578125 13.972656 C 1.847656 13.53125 2.222656 12.953125 2.523438 12.53125 C 2.730469 11.761719 2.992188 11.015625 3.292969 10.292969 C 3.246094 10.050781 3.203125 9.71875 3.203125 9.46875 C 2.921875 9.847656 2.558594 10.359375 2.304688 10.761719 C 1.976562 11.492188 1.691406 12.253906 1.460938 13.03125 " fill-opacity="1" fill-rule="nonzero"/><g clip-path="url(#fbca036407)"><path fill="#3a6ab9" d="M 32.238281 13.691406 C 32.890625 14.011719 33.753906 14.441406 34.398438 14.773438 C 34.953125 14.347656 35.691406 13.773438 36.234375 13.335938 C 36.195312 12.90625 36.140625 12.476562 36.082031 12.042969 C 36.023438 11.613281 35.957031 11.1875 35.878906 10.765625 C 35.230469 10.433594 34.355469 10 33.695312 9.6875 C 33.152344 10.117188 32.429688 10.691406 31.882812 11.125 C 31.953125 11.542969 32.015625 11.96875 32.078125 12.402344 C 32.136719 12.832031 32.191406 13.261719 32.238281 13.691406 " fill-opacity="1" fill-rule="nonzero"/></g><path fill="#3a6ab9" d="M 14.925781 18.734375 C 15.601562 19.023438 16.5 19.40625 17.179688 19.691406 C 17.75 19.21875 18.511719 18.589844 19.089844 18.121094 C 19.027344 17.695312 18.96875 17.265625 18.910156 16.835938 C 18.851562 16.402344 18.789062 15.976562 18.734375 15.554688 C 18.054688 15.269531 17.152344 14.886719 16.472656 14.601562 C 15.898438 15.070312 15.136719 15.695312 14.566406 16.167969 C 14.621094 16.589844 14.675781 17.019531 14.734375 17.449219 C 14.796875 17.882812 14.859375 18.308594 14.925781 18.734375 " fill-opacity="1" fill-rule="nonzero"/><path fill="#69a2cd" d="M 10.046875 19.582031 C 10.675781 19.859375 11.515625 20.230469 12.148438 20.5 C 12.664062 20.019531 13.359375 19.378906 13.882812 18.902344 C 13.816406 18.476562 13.753906 18.050781 13.695312 17.617188 C 13.632812 17.1875 13.578125 16.757812 13.527344 16.335938 C 12.902344 16.0625 12.066406 15.691406 11.441406 15.414062 C 10.914062 15.890625 10.210938 16.527344 9.691406 17.011719 C 9.734375 17.4375 9.785156 17.863281 9.84375 18.296875 C 9.90625 18.726562 9.972656 19.15625 10.046875 19.582031 " fill-opacity="1" fill-rule="nonzero"/><path fill="#689ac5" d="M 5.871094 20.457031 C 6.414062 20.734375 7.136719 21.101562 7.6875 21.363281 C 8.113281 20.878906 8.683594 20.234375 9.125 19.757812 C 9.046875 19.335938 8.980469 18.90625 8.921875 18.476562 C 8.859375 18.042969 8.808594 17.613281 8.769531 17.191406 C 8.230469 16.921875 7.515625 16.558594 6.980469 16.277344 C 6.535156 16.753906 5.945312 17.394531 5.515625 17.886719 C 5.554688 18.3125 5.601562 18.742188 5.660156 19.171875 C 5.722656 19.605469 5.792969 20.03125 5.871094 20.457031 " fill-opacity="1" fill-rule="nonzero"/><path fill="#689ac5" d="M 2.742188 21.304688 C 3.148438 21.59375 3.703125 21.964844 4.125 22.226562 C 4.417969 21.742188 4.816406 21.101562 5.136719 20.632812 C 5.054688 20.210938 4.984375 19.785156 4.921875 19.351562 C 4.863281 18.921875 4.816406 18.492188 4.78125 18.066406 C 4.367188 17.796875 3.820312 17.429688 3.421875 17.140625 C 3.097656 17.609375 2.675781 18.246094 2.386719 18.738281 C 2.417969 19.164062 2.464844 19.59375 2.523438 20.027344 C 2.582031 20.457031 2.65625 20.886719 2.742188 21.304688 " fill-opacity="1" fill-rule="nonzero"/><g clip-path="url(#e2f1389cfc)"><path fill="#274082" d="M 1.117188 22.011719 C 1.324219 22.320312 1.625 22.722656 1.867188 23 C 1.972656 22.535156 2.128906 21.917969 2.273438 21.46875 C 2.1875 21.046875 2.117188 20.617188 2.054688 20.1875 C 1.996094 19.753906 1.949219 19.324219 1.917969 18.898438 C 1.679688 18.613281 1.371094 18.226562 1.164062 17.914062 C 1.023438 18.367188 0.855469 18.980469 0.761719 19.445312 C 0.789062 19.875 0.832031 20.304688 0.894531 20.734375 C 0.953125 21.167969 1.027344 21.59375 1.117188 22.011719 " fill-opacity="1" fill-rule="nonzero"/></g><g clip-path="url(#edd37d9ba5)"><path fill="#69a2cd" d="M 33.019531 23.335938 C 33.5 23.609375 34.132812 23.976562 34.601562 24.265625 C 35.148438 23.898438 35.878906 23.40625 36.425781 23.03125 C 36.566406 22.285156 36.675781 21.511719 36.757812 20.722656 C 36.246094 20.398438 35.550781 19.976562 35.023438 19.671875 C 34.449219 20.085938 33.679688 20.636719 33.105469 21.046875 C 33.097656 21.832031 33.066406 22.597656 33.019531 23.335938 " fill-opacity="1" fill-rule="nonzero"/></g><path fill="#689ac5" d="M 27.871094 24.992188 C 28.425781 25.246094 29.160156 25.582031 29.710938 25.84375 C 30.238281 25.457031 30.941406 24.945312 31.472656 24.5625 C 31.492188 23.824219 31.5 23.0625 31.488281 22.28125 C 30.890625 21.988281 30.085938 21.601562 29.484375 21.320312 C 28.925781 21.746094 28.179688 22.316406 27.625 22.746094 C 27.714844 23.515625 27.796875 24.269531 27.871094 24.992188 " fill-opacity="1" fill-rule="nonzero"/><path fill="#3a6ab9" d="M 16.742188 27.253906 C 17.335938 27.488281 18.128906 27.800781 18.722656 28.035156 C 19.191406 27.640625 19.816406 27.117188 20.289062 26.730469 C 20.1875 26.007812 20.082031 25.261719 19.976562 24.492188 C 19.332031 24.222656 18.480469 23.867188 17.835938 23.601562 C 17.332031 24.03125 16.664062 24.613281 16.167969 25.050781 C 16.351562 25.8125 16.542969 26.546875 16.742188 27.253906 " fill-opacity="1" fill-rule="nonzero"/><path fill="#3881b6" d="M 12.582031 27.972656 C 13.1875 28.191406 13.988281 28.484375 14.59375 28.703125 C 14.964844 28.304688 15.46875 27.78125 15.855469 27.398438 C 15.632812 26.691406 15.417969 25.960938 15.214844 25.207031 C 14.574219 24.953125 13.71875 24.621094 13.074219 24.367188 C 12.660156 24.800781 12.109375 25.378906 11.707031 25.824219 C 11.980469 26.566406 12.273438 27.285156 12.582031 27.972656 " fill-opacity="1" fill-rule="nonzero"/><path fill="#3881b6" d="M 9.027344 28.71875 C 9.597656 28.929688 10.359375 29.207031 10.929688 29.414062 C 11.179688 29.019531 11.523438 28.503906 11.796875 28.125 C 11.464844 27.441406 11.152344 26.726562 10.863281 25.988281 C 10.257812 25.75 9.453125 25.429688 8.851562 25.1875 C 8.554688 25.609375 8.164062 26.183594 7.890625 26.625 C 8.238281 27.351562 8.621094 28.050781 9.027344 28.71875 " fill-opacity="1" fill-rule="nonzero"/><path fill="#69a2cd" d="M 4.976562 30.046875 C 5.324219 30.269531 5.792969 30.554688 6.152344 30.757812 C 6.074219 30.40625 5.992188 29.9375 5.964844 29.582031 C 5.472656 28.9375 5.015625 28.257812 4.601562 27.550781 C 4.21875 27.316406 3.710938 26.996094 3.34375 26.734375 C 3.382812 27.132812 3.453125 27.660156 3.542969 28.050781 C 3.976562 28.746094 4.457031 29.414062 4.976562 30.046875 " fill-opacity="1" fill-rule="nonzero"/><path fill="#3881b6" d="M 5.617188 31.234375 C 5.375 30.917969 5.066406 30.488281 4.863281 30.148438 C 4.339844 29.519531 3.855469 28.855469 3.417969 28.160156 C 3.199219 27.90625 2.914062 27.5625 2.726562 27.285156 L 2.878906 27.570312 L 2.921875 27.644531 C 3.9375 29.277344 3.9375 29.277344 4.546875 30.042969 L 5.273438 30.894531 L 5.617188 31.234375 " fill-opacity="1" fill-rule="nonzero"/><path fill="#69a2cd" d="M 14.378906 34.527344 C 14.851562 34.644531 15.480469 34.800781 15.957031 34.917969 C 15.96875 34.691406 16.007812 34.386719 16.0625 34.164062 C 15.617188 33.75 15.183594 33.285156 14.761719 32.785156 C 14.230469 32.621094 13.523438 32.402344 12.996094 32.238281 C 12.902344 32.527344 12.785156 32.921875 12.726562 33.222656 C 13.261719 33.699219 13.8125 34.136719 14.378906 34.527344 " fill-opacity="1" fill-rule="nonzero"/><path fill="#689ac5" d="M 12.757812 34.96875 C 13.222656 35.074219 13.839844 35.214844 14.304688 35.320312 C 14.199219 35.117188 14.066406 34.835938 13.996094 34.617188 C 13.402344 34.234375 12.824219 33.804688 12.265625 33.332031 C 11.757812 33.183594 11.078125 32.980469 10.570312 32.824219 C 10.613281 33.105469 10.683594 33.480469 10.769531 33.753906 C 11.410156 34.203125 12.074219 34.609375 12.757812 34.96875 " fill-opacity="1" fill-rule="nonzero"/><path fill="#69a2cd" d="M 11.917969 35.332031 C 12.320312 35.441406 12.855469 35.582031 13.261719 35.675781 C 13.027344 35.5 12.726562 35.253906 12.515625 35.050781 C 11.8125 34.695312 11.132812 34.296875 10.476562 33.851562 C 10.042969 33.707031 9.464844 33.511719 9.035156 33.351562 C 9.238281 33.613281 9.519531 33.957031 9.75 34.195312 C 10.445312 34.621094 11.171875 35 11.917969 35.332031 " fill-opacity="1" fill-rule="nonzero"/><path fill="#689ac5" d="M 11.898438 35.59375 C 12.210938 35.707031 12.636719 35.851562 12.957031 35.945312 C 12.621094 35.789062 12.171875 35.574219 11.847656 35.394531 C 11.097656 35.066406 10.367188 34.691406 9.667969 34.269531 C 9.339844 34.121094 8.90625 33.914062 8.589844 33.746094 C 8.902344 33.96875 9.320312 34.261719 9.648438 34.460938 L 10.128906 34.738281 C 10.703125 35.054688 11.292969 35.339844 11.898438 35.59375 " fill-opacity="1" fill-rule="nonzero"/></svg>