<svg xmlns="http://www.w3.org/2000/svg" xmlns:xlink="http://www.w3.org/1999/xlink" width="50" zoomAndPan="magnify" viewBox="0 0 37.5 37.499999" height="50" preserveAspectRatio="xMidYMid meet" version="1.0"><defs><clipPath id="45bdc5aee1"><path d="M 2.429688 0.015625 L 34.25 0.015625 L 34.25 36.996094 L 2.429688 36.996094 Z M 2.429688 0.015625 " clip-rule="nonzero"/></clipPath></defs><path fill="#3f383b" d="M 23.191406 18.679688 L 19.25 8.757812 L 16.53125 1.925781 C 16.464844 1.765625 16.261719 1.726562 16.128906 1.8125 L 16.128906 1.765625 L 16.101562 1.832031 C 16.074219 1.855469 16.050781 1.886719 16.035156 1.925781 L 13.320312 8.757812 L 13.332031 8.785156 L 4.984375 29.714844 C 6.089844 28.558594 7.453125 27.496094 9.066406 26.539062 C 10.214844 25.859375 11.507812 25.222656 12.9375 24.628906 L 16.292969 16.234375 L 18.695312 22.28125 C 23.128906 20.546875 28.523438 17.574219 30.265625 11.851562 C 30.351562 11.566406 30.429688 11.289062 30.496094 11.015625 C 28.972656 14.789062 25.316406 17.414062 23.191406 18.679688 " fill-opacity="1" fill-rule="nonzero"/><g clip-path="url(#45bdc5aee1)"><path fill="#e9202a" d="M 34.242188 11.96875 C 34.109375 15.3125 32.425781 18.625 29.753906 20.953125 C 28.429688 22.105469 26.917969 23.113281 25.304688 23.996094 C 24.710938 24.320312 24.101562 24.628906 23.480469 24.921875 C 23.472656 24.925781 23.46875 24.925781 23.460938 24.929688 C 22.425781 25.417969 21.359375 25.863281 20.285156 26.269531 C 18.808594 26.828125 17.316406 27.3125 15.84375 27.742188 C 12.226562 28.796875 8.332031 30.742188 5.320312 33.222656 C 8.304688 30.484375 12.355469 28.285156 16.125 27.078125 C 21.019531 25.515625 26.171875 23.304688 29.824219 19.941406 C 33.257812 16.785156 34.914062 11.957031 33.578125 7.675781 C 32.242188 3.394531 27.734375 -0.015625 22.863281 0.015625 C 22.863281 0.015625 27.402344 1.007812 29.398438 4.570312 C 31.175781 7.75 31.332031 9.667969 30.609375 12.328125 C 28.65625 19.511719 20.898438 22.574219 16.363281 24.195312 C 11.828125 25.820312 7.25 28.308594 4.65625 32.078125 C 3.40625 33.890625 2.632812 36.441406 2.429688 36.996094 C 5.441406 33.140625 9.875 30.671875 15.84375 28.597656 C 17.382812 28.0625 19.007812 27.617188 20.578125 27.011719 L 23.9375 35.457031 L 29.867188 35.457031 L 25.585938 24.695312 C 27.09375 23.847656 28.503906 22.894531 29.753906 21.804688 C 32.65625 19.28125 34.386719 15.597656 34.242188 11.96875 " fill-opacity="1" fill-rule="nonzero"/></g></svg>