<svg xmlns="http://www.w3.org/2000/svg" xmlns:xlink="http://www.w3.org/1999/xlink" width="50" zoomAndPan="magnify" viewBox="0 0 37.5 37.499999" height="50" preserveAspectRatio="xMidYMid meet" version="1.0"><defs><clipPath id="8d55d48d23"><path d="M 3.195312 0 L 33.535156 0 L 33.535156 37.007812 L 3.195312 37.007812 Z M 3.195312 0 " clip-rule="nonzero"/></clipPath><clipPath id="a09f0b6a58"><path d="M 3.191406 1 L 33 1 L 33 37 L 3.191406 37 Z M 3.191406 1 " clip-rule="nonzero"/></clipPath></defs><g clip-path="url(#8d55d48d23)"><path fill="#3e5eb4" d="M 32.914062 18.566406 C 33.375 17.855469 33.09375 17.035156 32.941406 16.601562 C 32.261719 14.628906 31.140625 12.804688 29.609375 11.171875 C 29.21875 10.757812 29.0625 10.355469 29.046875 9.742188 C 28.96875 6.777344 28.027344 4.070312 26.242188 1.703125 C 25.910156 1.261719 25.179688 0.6875 25.039062 0.578125 L 24.480469 0.148438 L 24 0.664062 C 23.921875 0.75 23.234375 1.492188 22.929688 1.976562 C 22.71875 2.308594 22.53125 2.652344 22.351562 2.984375 C 22.160156 3.332031 21.976562 3.660156 21.777344 3.972656 C 21.066406 5.074219 19.785156 5.761719 18.429688 5.761719 C 17.96875 5.761719 17.519531 5.683594 17.089844 5.53125 C 16.007812 5.144531 15.257812 4.503906 14.730469 3.515625 C 14.199219 2.527344 12.933594 0.761719 12.878906 0.6875 L 12.382812 0 L 11.742188 0.554688 C 11.460938 0.800781 10.777344 1.402344 10.558594 1.695312 C 8.796875 4.003906 7.863281 6.628906 7.777344 9.484375 C 7.753906 10.273438 7.542969 10.800781 7.027344 11.359375 C 5.199219 13.339844 4.007812 15.5625 3.484375 17.96875 L 3.441406 18.175781 L 3.503906 18.375 C 3.546875 18.507812 3.632812 18.691406 3.816406 18.835938 C 3.714844 19.175781 3.609375 19.523438 3.480469 19.851562 C 3.066406 20.898438 3.101562 21.945312 3.589844 23.152344 C 5.046875 26.761719 7.164062 29.832031 9.878906 32.28125 C 10.789062 33.101562 11.789062 33.9375 12.9375 34.476562 L 13.109375 34.558594 L 13.304688 34.550781 C 13.636719 34.53125 13.871094 34.390625 14.03125 34.253906 C 14.140625 34.335938 14.253906 34.417969 14.363281 34.496094 C 15.511719 35.328125 16.699219 36.1875 18.078125 36.847656 L 18.410156 37.007812 L 18.742188 36.851562 C 19.894531 36.304688 20.914062 35.582031 21.898438 34.878906 C 22.160156 34.691406 22.429688 34.5 22.699219 34.3125 C 22.855469 34.457031 23.082031 34.585938 23.394531 34.605469 L 23.550781 34.613281 L 23.699219 34.558594 C 24.3125 34.335938 24.804688 33.960938 25.28125 33.601562 C 25.355469 33.542969 25.429688 33.488281 25.503906 33.429688 C 28.3125 31.335938 30.597656 28.523438 32.488281 24.832031 C 33.328125 23.1875 34.128906 21 32.914062 18.566406 " fill-opacity="1" fill-rule="nonzero"/></g><path fill="#ffffff" d="M 28.652344 14.832031 C 28.652344 14.832031 28.722656 15.617188 28.992188 15.941406 C 29.265625 16.261719 29.652344 16.703125 29.652344 16.703125 C 29.652344 16.703125 29.183594 15.183594 28.652344 14.832031 Z M 19.460938 27.28125 C 19.460938 27.28125 20.566406 27.027344 20.683594 26.839844 C 20.800781 26.65625 20.683594 26.398438 20.683594 26.398438 Z M 28.972656 20.210938 C 28.972656 20.230469 28.976562 20.253906 28.976562 20.277344 L 29 20.265625 C 28.984375 20.230469 28.972656 20.210938 28.972656 20.210938 Z M 24.199219 27.28125 C 24.003906 27.628906 22.820312 29.011719 22.820312 29.011719 C 22.820312 29.011719 25.296875 27.296875 26.152344 25.382812 C 26.152344 25.382812 24.390625 26.9375 24.199219 27.28125 Z M 25.195312 10.632812 C 24.773438 10.160156 24.273438 10.207031 24.273438 10.207031 C 24.664062 10.46875 25.039062 11.445312 25.039062 11.445312 C 25.648438 11.445312 26.421875 11.980469 26.421875 11.980469 L 26.628906 11.367188 L 26.058594 11.199219 C 25.722656 11.097656 25.429688 10.894531 25.195312 10.632812 Z M 24.199219 15.269531 C 24.199219 15.269531 23.886719 15.113281 23.265625 15.015625 C 22.644531 14.914062 21.441406 15.941406 21.441406 15.941406 C 21.441406 15.941406 22.625 16.289062 23.109375 16.109375 C 23.597656 15.933594 24.199219 15.269531 24.199219 15.269531 Z M 28.972656 20.78125 C 28.960938 20.742188 28.953125 20.699219 28.945312 20.660156 C 28.820312 21.441406 28.351562 22.382812 28.351562 22.382812 C 28.351562 22.382812 28.851562 21.894531 29.0625 21.382812 C 29.0625 21.335938 29.058594 21.289062 29.054688 21.242188 C 29.039062 21.085938 29.011719 20.933594 28.972656 20.78125 Z M 13.558594 15.015625 C 12.9375 15.113281 12.628906 15.269531 12.628906 15.269531 C 12.628906 15.269531 13.230469 15.933594 13.714844 16.109375 C 14.199219 16.289062 15.382812 15.941406 15.382812 15.941406 C 15.382812 15.941406 14.179688 14.914062 13.558594 15.015625 Z M 18.363281 22.144531 C 17.324219 22.144531 17.117188 22.625 17.117188 22.625 C 17.742188 22.382812 18.363281 22.382812 18.363281 22.382812 C 18.363281 22.382812 18.988281 22.382812 19.613281 22.625 C 19.613281 22.625 19.40625 22.144531 18.363281 22.144531 Z M 32.175781 24.4375 C 32.023438 24.828125 30.664062 27 30.664062 27 C 30.664062 27 30.667969 26.988281 30.671875 26.960938 C 30.679688 26.925781 30.691406 26.871094 30.707031 26.800781 C 30.746094 26.640625 30.800781 26.402344 30.875 26.148438 C 30.921875 25.976562 30.976562 25.796875 31.035156 25.625 C 31.054688 25.570312 31.078125 25.511719 31.097656 25.457031 C 31.144531 25.332031 31.195312 25.214844 31.25 25.109375 C 31.277344 25.058594 31.300781 25.011719 31.328125 24.96875 C 31.371094 24.902344 31.414062 24.851562 31.457031 24.808594 C 31.882812 24.398438 32.175781 23.046875 32.175781 23.046875 C 32.175781 23.046875 32.210938 23.261719 32.230469 23.53125 C 32.253906 23.84375 32.261719 24.226562 32.175781 24.4375 " fill-opacity="1" fill-rule="nonzero"/><path fill="#6cc0ed" d="M 10.824219 23.8125 L 10.933594 24.886719 C 10.933594 24.886719 10.855469 25.511719 11.191406 26.242188 C 11.527344 26.976562 13.882812 28.882812 13.882812 28.882812 C 13.882812 28.882812 12.210938 26.816406 11.933594 26.085938 C 11.65625 25.355469 10.824219 23.8125 10.824219 23.8125 Z M 22.53125 33.480469 C 22.644531 33.40625 22.753906 33.332031 22.871094 33.257812 C 22.894531 33.277344 22.921875 33.300781 22.941406 33.324219 C 23.007812 33.398438 23.050781 33.480469 23.09375 33.558594 L 23.191406 33.496094 L 23.382812 33.359375 L 23.570312 33.214844 C 23.683594 33.125 23.796875 33.03125 23.90625 32.9375 C 24.46875 32.300781 25.070312 31.453125 25.246094 30.59375 C 25.246094 30.59375 23.230469 32.957031 22.53125 33.480469 Z M 10.308594 11.980469 C 10.308594 11.980469 11.082031 11.445312 11.691406 11.445312 C 11.691406 11.445312 12.066406 10.46875 12.457031 10.207031 C 12.457031 10.207031 11.957031 10.160156 11.535156 10.632812 C 11.300781 10.894531 11.007812 11.097656 10.671875 11.199219 L 10.097656 11.367188 Z M 11.042969 12.070312 C 10.730469 12.210938 10.449219 12.378906 10.199219 12.566406 C 10.128906 12.621094 10.0625 12.675781 9.996094 12.730469 C 9.949219 12.738281 9.925781 12.742188 9.925781 12.742188 L 9.511719 11.074219 C 10.132812 10.390625 11.5625 9.671875 11.5625 9.671875 L 10.28125 9.914062 C 10.558594 9.578125 11.527344 8.984375 11.527344 8.984375 C 11.539062 8.664062 11.367188 7.523438 11.367188 7.523438 C 11.746094 7.640625 12.207031 8.292969 12.207031 8.292969 C 12.070312 7.496094 11.316406 6.554688 11.316406 6.554688 L 10.449219 7.667969 C 10.496094 6.972656 11.222656 5.464844 11.222656 5.464844 C 12.53125 5.980469 13.828125 9.242188 13.828125 9.242188 C 12.832031 10.078125 11.980469 11.761719 11.980469 11.761719 C 11.644531 11.835938 11.339844 11.9375 11.058594 12.0625 C 11.054688 12.066406 11.046875 12.070312 11.042969 12.070312 Z M 22.816406 27.859375 C 22.921875 27.710938 23.019531 27.460938 23.109375 27.160156 C 23.019531 27.386719 22.921875 27.625 22.816406 27.859375 Z M 23.4375 25.628906 C 23.4375 25.628906 23.4375 25.632812 23.4375 25.632812 C 23.4375 25.632812 23.4375 25.632812 23.4375 25.628906 Z M 28.992188 15.941406 C 29.265625 16.261719 29.652344 16.703125 29.652344 16.703125 C 29.652344 16.703125 29.183594 15.183594 28.652344 14.832031 C 28.652344 14.832031 28.722656 15.617188 28.992188 15.941406 Z M 28.351562 22.382812 C 28.351562 22.382812 28.851562 21.894531 29.0625 21.382812 C 29.0625 21.335938 29.058594 21.289062 29.054688 21.242188 C 29.039062 21.085938 29.011719 20.933594 28.972656 20.78125 C 28.960938 20.742188 28.953125 20.699219 28.945312 20.660156 C 28.820312 21.441406 28.351562 22.382812 28.351562 22.382812 Z M 28.972656 20.210938 C 28.972656 20.230469 28.976562 20.253906 28.976562 20.277344 L 29 20.265625 C 28.984375 20.230469 28.972656 20.210938 28.972656 20.210938 Z M 26.152344 25.382812 C 26.152344 25.382812 24.390625 26.9375 24.199219 27.28125 C 24.003906 27.628906 22.820312 29.011719 22.820312 29.011719 C 22.820312 29.011719 25.296875 27.296875 26.152344 25.382812 Z M 29.777344 18.769531 C 29.875 19.121094 29.953125 19.476562 30.003906 19.835938 L 29.933594 19.851562 C 29.824219 19.507812 29.707031 19.171875 29.574219 18.839844 C 29.441406 18.507812 29.296875 18.183594 29.140625 17.867188 C 28.980469 17.550781 28.8125 17.246094 28.628906 16.949219 C 28.820312 17.523438 29.710938 20.304688 29.539062 21.425781 C 29.515625 21.554688 29.480469 21.675781 29.425781 21.796875 C 29.410156 21.953125 29.378906 22.109375 29.332031 22.261719 C 29.320312 22.304688 29.304688 22.347656 29.285156 22.386719 L 29.234375 22.511719 C 29.199219 22.597656 29.144531 22.671875 29.101562 22.75 C 29.082031 22.789062 29.050781 22.824219 29.023438 22.859375 L 28.941406 22.96875 C 28.914062 23.003906 28.886719 23.035156 28.859375 23.066406 L 28.777344 23.15625 C 28.5625 23.402344 28.359375 23.65625 28.179688 23.917969 C 28.003906 24.183594 27.859375 24.464844 27.765625 24.769531 C 27.71875 24.921875 27.683594 25.078125 27.652344 25.238281 C 27.625 25.390625 27.589844 25.578125 27.523438 25.738281 C 27.386719 26.058594 27.191406 26.339844 26.980469 26.597656 C 26.765625 26.855469 26.535156 27.09375 26.277344 27.308594 L 26.230469 27.253906 C 26.460938 27.019531 26.671875 26.769531 26.863281 26.503906 C 27.050781 26.242188 27.21875 25.957031 27.320312 25.660156 C 27.371094 25.511719 27.390625 25.371094 27.410156 25.195312 C 27.4375 25.03125 27.46875 24.863281 27.511719 24.695312 C 27.597656 24.359375 27.742188 24.039062 27.921875 23.75 C 28.101562 23.457031 28.308594 23.195312 28.519531 22.933594 L 28.574219 22.871094 C 27.96875 23.445312 27.257812 24.035156 26.976562 24.871094 C 26.46875 26.359375 24.375 28.515625 23.363281 29.140625 C 22.355469 29.769531 21.695312 30.121094 21.695312 30.121094 C 21.695312 30.121094 22.304688 29.007812 22.808594 27.875 C 23.089844 27.546875 24.4375 25.9375 24.785156 24.695312 C 25.164062 23.324219 26.277344 21.480469 27.1875 21.234375 C 27.1875 21.234375 26.472656 22.992188 26.488281 24.25 C 26.488281 24.25 27.144531 23.230469 27.785156 22.339844 C 28.3125 21.605469 28.476562 20.667969 28.234375 19.796875 C 28.128906 19.421875 28.035156 18.980469 27.984375 18.484375 C 27.820312 16.886719 27.652344 15.464844 26.703125 14.902344 C 26.703125 14.902344 28.09375 15.203125 28.59375 16.054688 C 28.59375 16.054688 28.28125 14.035156 26.734375 12.730469 C 26.78125 12.738281 26.804688 12.742188 26.804688 12.742188 C 27.804688 13.390625 29.152344 14.402344 29.460938 15.3125 C 29.964844 16.800781 30.121094 17.390625 30.121094 17.390625 L 29.082031 17.015625 C 29.203125 17.25 29.316406 17.492188 29.417969 17.734375 C 29.558594 18.074219 29.679688 18.417969 29.777344 18.769531 Z M 5.800781 25.953125 C 5.960938 26.492188 6.066406 27 6.066406 27 C 6.066406 27 5.277344 25.738281 4.832031 24.964844 C 4.695312 24.722656 4.589844 24.53125 4.554688 24.4375 C 4.539062 24.398438 4.527344 24.359375 4.515625 24.3125 C 4.460938 24.042969 4.484375 23.632812 4.515625 23.351562 C 4.53125 23.171875 4.554688 23.046875 4.554688 23.046875 C 4.554688 23.046875 4.847656 24.398438 5.273438 24.808594 C 5.472656 25 5.660156 25.488281 5.800781 25.953125 " fill-opacity="1" fill-rule="nonzero"/><path fill="#5897d7" d="M 26.628906 11.367188 L 26.058594 11.199219 C 25.722656 11.097656 25.429688 10.894531 25.195312 10.632812 C 24.773438 10.160156 24.273438 10.207031 24.273438 10.207031 C 24.664062 10.46875 25.039062 11.445312 25.039062 11.445312 C 25.648438 11.445312 26.421875 11.980469 26.421875 11.980469 Z M 27.21875 11.074219 L 26.804688 12.742188 C 26.804688 12.742188 26.78125 12.738281 26.734375 12.730469 C 26.21875 12.296875 25.570312 11.941406 24.75 11.761719 C 24.75 11.761719 23.898438 10.078125 22.902344 9.242188 C 22.902344 9.242188 24.199219 5.980469 25.507812 5.464844 C 25.507812 5.464844 26.234375 6.972656 26.28125 7.667969 L 25.414062 6.554688 C 25.414062 6.554688 24.660156 7.496094 24.523438 8.292969 C 24.523438 8.292969 24.984375 7.640625 25.363281 7.523438 C 25.363281 7.523438 25.191406 8.664062 25.203125 8.984375 C 25.203125 8.984375 26.171875 9.578125 26.445312 9.914062 L 25.167969 9.671875 C 25.167969 9.671875 26.597656 10.390625 27.21875 11.074219 Z M 11.691406 11.445312 C 11.691406 11.445312 12.066406 10.46875 12.457031 10.207031 C 12.457031 10.207031 11.957031 10.160156 11.535156 10.632812 C 11.300781 10.894531 11.007812 11.097656 10.671875 11.199219 L 10.097656 11.367188 L 10.308594 11.980469 C 10.308594 11.980469 11.082031 11.445312 11.691406 11.445312 Z M 10.824219 23.8125 L 10.933594 24.886719 C 10.933594 24.886719 10.855469 25.511719 11.191406 26.242188 C 11.527344 26.976562 13.882812 28.882812 13.882812 28.882812 C 13.882812 28.882812 12.210938 26.816406 11.933594 26.085938 C 11.65625 25.355469 10.824219 23.8125 10.824219 23.8125 Z M 13.921875 27.875 C 14.425781 29.007812 15.035156 30.121094 15.035156 30.121094 C 15.035156 30.121094 11.554688 28.96875 10.359375 28.179688 C 9.167969 27.390625 8.777344 26.324219 8.308594 25.023438 C 7.835938 23.722656 7.582031 23.460938 7.152344 22.554688 C 6.722656 21.648438 5.628906 19.394531 5.570312 18.210938 C 5.523438 17.304688 6.273438 15.847656 6.625 15.214844 C 6.664062 15.113281 6.726562 15.007812 6.804688 14.90625 C 7.410156 14.105469 9.050781 13.308594 9.925781 12.742188 C 9.925781 12.742188 9.949219 12.738281 9.996094 12.730469 C 8.449219 14.035156 8.136719 16.054688 8.136719 16.054688 C 8.636719 15.203125 10.027344 14.902344 10.027344 14.902344 C 9.078125 15.464844 8.910156 16.886719 8.746094 18.484375 C 8.695312 18.980469 8.601562 19.421875 8.496094 19.796875 C 8.25 20.667969 8.417969 21.605469 8.945312 22.339844 C 9.585938 23.230469 10.242188 24.25 10.242188 24.25 C 10.257812 22.992188 9.542969 21.234375 9.542969 21.234375 C 10.453125 21.480469 11.5625 23.324219 11.945312 24.695312 C 12.292969 25.9375 13.640625 27.546875 13.921875 27.875 Z M 24.910156 16.097656 C 24.910156 16.097656 24.289062 17.050781 23.691406 17.140625 C 23.097656 17.230469 22.023438 17.140625 22.023438 17.140625 C 22.023438 17.140625 23.085938 17.714844 23.464844 17.78125 L 23.292969 17.441406 C 23.292969 17.441406 23.992188 17.78125 24.40625 17.714844 L 24.09375 17.246094 C 24.09375 17.246094 24.558594 17.308594 25.050781 17.21875 C 25.445312 17.144531 25.980469 16.832031 26.175781 16.707031 C 26.226562 16.675781 26.253906 16.65625 26.253906 16.65625 C 26.253906 16.65625 26.179688 16.589844 26.054688 16.496094 C 25.808594 16.320312 25.363281 16.0625 24.910156 16.097656 Z M 20.683594 26.398438 L 19.460938 27.28125 C 19.460938 27.28125 20.566406 27.027344 20.683594 26.839844 C 20.800781 26.65625 20.683594 26.398438 20.683594 26.398438 Z M 21.09375 25.632812 C 21.09375 25.632812 21.210938 26.707031 20.722656 27.101562 C 20.457031 27.316406 19.761719 27.550781 19.195312 27.714844 C 18.652344 27.871094 18.078125 27.871094 17.535156 27.714844 C 16.96875 27.550781 16.273438 27.316406 16.003906 27.101562 C 15.519531 26.707031 15.636719 25.632812 15.636719 25.632812 C 15.636719 25.632812 16.472656 26.257812 16.976562 26.296875 C 17.480469 26.335938 18.363281 25.945312 18.363281 25.945312 C 18.363281 25.945312 19.25 26.335938 19.753906 26.296875 C 20.257812 26.257812 21.09375 25.632812 21.09375 25.632812 Z M 18.363281 12.707031 C 18.894531 12.707031 19.359375 12.425781 19.625 12.003906 C 19.425781 12.199219 19.152344 12.320312 18.855469 12.320312 C 18.246094 12.320312 17.75 11.820312 17.75 11.203125 C 17.75 10.589844 18.246094 10.089844 18.855469 10.089844 C 19.152344 10.089844 19.425781 10.210938 19.625 10.40625 C 19.359375 9.984375 18.894531 9.703125 18.363281 9.703125 C 17.542969 9.703125 16.875 10.375 16.875 11.203125 C 16.875 12.035156 17.542969 12.707031 18.363281 12.707031 Z M 13.292969 25.632812 L 13.292969 25.628906 C 13.292969 25.632812 13.292969 25.632812 13.292969 25.632812 Z M 13.621094 27.160156 C 13.710938 27.460938 13.808594 27.710938 13.914062 27.859375 C 13.808594 27.625 13.710938 27.386719 13.621094 27.160156 Z M 13.039062 17.140625 C 13.632812 17.230469 14.707031 17.140625 14.707031 17.140625 C 14.707031 17.140625 13.644531 17.714844 13.265625 17.78125 L 13.4375 17.441406 C 13.4375 17.441406 12.738281 17.78125 12.324219 17.714844 L 12.636719 17.246094 C 12.636719 17.246094 12.171875 17.308594 11.679688 17.21875 C 11.285156 17.144531 10.75 16.832031 10.554688 16.707031 C 10.503906 16.675781 10.476562 16.65625 10.476562 16.65625 C 10.476562 16.65625 10.550781 16.589844 10.675781 16.496094 C 10.921875 16.320312 11.367188 16.0625 11.820312 16.097656 C 11.820312 16.097656 12.441406 17.050781 13.039062 17.140625 " fill-opacity="1" fill-rule="nonzero"/><g clip-path="url(#a09f0b6a58)"><path fill="#100f0d" d="M 23.09375 33.558594 C 23.066406 33.507812 23.035156 33.453125 23 33.402344 C 23.035156 33.453125 23.066406 33.507812 23.09375 33.558594 Z M 22.871094 33.257812 C 22.894531 33.277344 22.921875 33.300781 22.941406 33.324219 C 22.921875 33.300781 22.894531 33.277344 22.871094 33.257812 Z M 19.613281 22.625 C 19.613281 22.625 19.40625 22.144531 18.363281 22.144531 C 17.324219 22.144531 17.117188 22.625 17.117188 22.625 C 17.742188 22.382812 18.363281 22.382812 18.363281 22.382812 C 18.363281 22.382812 18.988281 22.382812 19.613281 22.625 Z M 20.164062 23.082031 L 19.992188 23.664062 C 19.371094 24.042969 18.363281 24.253906 18.363281 24.253906 C 18.363281 24.253906 17.359375 24.042969 16.738281 23.664062 L 16.566406 23.082031 C 16.460938 22.726562 16.601562 22.34375 16.917969 22.152344 C 17.210938 21.976562 17.667969 21.824219 18.363281 21.839844 C 19.0625 21.824219 19.519531 21.976562 19.8125 22.152344 C 20.128906 22.34375 20.269531 22.726562 20.164062 23.082031 Z M 23.109375 16.109375 C 23.597656 15.933594 24.199219 15.269531 24.199219 15.269531 C 24.199219 15.269531 23.886719 15.113281 23.265625 15.015625 C 22.644531 14.914062 21.441406 15.941406 21.441406 15.941406 C 21.441406 15.941406 22.625 16.289062 23.109375 16.109375 Z M 13.558594 15.015625 C 12.9375 15.113281 12.628906 15.269531 12.628906 15.269531 C 12.628906 15.269531 13.230469 15.933594 13.714844 16.109375 C 14.199219 16.289062 15.382812 15.941406 15.382812 15.941406 C 15.382812 15.941406 14.179688 14.914062 13.558594 15.015625 Z M 29.082031 17.015625 L 30.121094 17.390625 C 30.121094 17.390625 29.964844 16.800781 29.460938 15.3125 C 29.152344 14.402344 27.804688 13.390625 26.804688 12.742188 L 27.21875 11.074219 C 27.21875 11.074219 27.910156 9.363281 27.382812 7.734375 C 26.871094 6.136719 25.945312 3.949219 25.945312 3.949219 C 25.945312 3.949219 22.003906 6.539062 21.503906 8.382812 C 21.503906 8.382812 20.339844 7.867188 19.523438 7.933594 C 19.523438 7.933594 22.867188 9.542969 23.332031 12.132812 C 23.273438 11.933594 23.191406 11.75 23.089844 11.574219 C 22.960938 11.347656 22.804688 11.144531 22.636719 10.957031 C 22.46875 10.769531 22.292969 10.59375 22.109375 10.429688 L 22.054688 10.472656 C 22.191406 10.683594 22.335938 10.882812 22.46875 11.089844 C 22.597656 11.292969 22.71875 11.503906 22.816406 11.71875 C 22.914062 11.933594 22.984375 12.15625 23.019531 12.378906 C 23.03125 12.441406 23.035156 12.503906 23.039062 12.566406 C 22.960938 12.570312 22.875 12.574219 22.78125 12.585938 C 22.769531 12.445312 22.746094 12.308594 22.707031 12.175781 C 22.648438 11.972656 22.554688 11.78125 22.4375 11.613281 C 22.320312 11.441406 22.179688 11.292969 22.011719 11.179688 L 21.964844 11.230469 C 22.082031 11.386719 22.179688 11.546875 22.25 11.71875 C 22.324219 11.890625 22.378906 12.066406 22.40625 12.246094 C 22.425781 12.375 22.4375 12.503906 22.433594 12.632812 C 22.367188 12.644531 22.296875 12.660156 22.230469 12.675781 C 22.21875 12.605469 22.207031 12.53125 22.191406 12.460938 C 22.15625 12.320312 22.109375 12.179688 22.039062 12.054688 L 21.96875 12.074219 C 21.976562 12.214844 21.984375 12.351562 21.976562 12.484375 C 21.972656 12.578125 21.960938 12.671875 21.949219 12.761719 C 21.53125 12.917969 21.152344 13.195312 21.042969 13.679688 C 21.042969 13.679688 20.613281 13.226562 20.996094 12.289062 C 20.996094 12.289062 19.214844 13.523438 20.59375 15.765625 C 20.59375 15.765625 22.863281 14.046875 23.429688 14.304688 C 24 14.558594 25.015625 15.40625 25.015625 15.40625 C 25.015625 15.40625 24.105469 16.683594 23.570312 16.769531 C 23.03125 16.859375 21.382812 16.652344 20.863281 16.871094 C 20.339844 17.09375 20.539062 19.15625 20.539062 19.15625 C 20.539062 19.15625 18.457031 16.753906 18.363281 15.433594 C 18.273438 16.753906 16.191406 19.15625 16.191406 19.15625 C 16.191406 19.15625 16.390625 17.09375 15.867188 16.871094 C 15.347656 16.652344 13.699219 16.859375 13.160156 16.769531 C 12.625 16.683594 11.714844 15.40625 11.714844 15.40625 C 11.714844 15.40625 12.730469 14.558594 13.300781 14.304688 C 13.867188 14.046875 16.136719 15.765625 16.136719 15.765625 C 17.515625 13.523438 15.734375 12.289062 15.734375 12.289062 C 16.117188 13.226562 15.6875 13.679688 15.6875 13.679688 C 15.578125 13.195312 15.199219 12.917969 14.78125 12.761719 C 14.765625 12.671875 14.757812 12.578125 14.753906 12.484375 C 14.746094 12.351562 14.753906 12.214844 14.757812 12.074219 L 14.691406 12.054688 C 14.621094 12.179688 14.574219 12.320312 14.539062 12.460938 C 14.523438 12.53125 14.511719 12.605469 14.5 12.675781 C 14.433594 12.660156 14.363281 12.644531 14.296875 12.632812 C 14.292969 12.503906 14.300781 12.375 14.324219 12.246094 C 14.351562 12.066406 14.40625 11.890625 14.480469 11.71875 C 14.550781 11.546875 14.648438 11.386719 14.765625 11.230469 L 14.71875 11.179688 C 14.550781 11.292969 14.410156 11.441406 14.289062 11.613281 C 14.171875 11.78125 14.082031 11.972656 14.023438 12.175781 C 13.984375 12.308594 13.960938 12.445312 13.949219 12.585938 C 13.855469 12.574219 13.769531 12.570312 13.691406 12.566406 C 13.695312 12.503906 13.699219 12.441406 13.710938 12.378906 C 13.746094 12.15625 13.816406 11.933594 13.914062 11.71875 C 14.011719 11.503906 14.132812 11.292969 14.261719 11.089844 C 14.394531 10.882812 14.539062 10.683594 14.675781 10.472656 L 14.621094 10.429688 C 14.4375 10.59375 14.261719 10.769531 14.09375 10.957031 C 13.925781 11.144531 13.769531 11.347656 13.640625 11.574219 C 13.539062 11.75 13.457031 11.933594 13.398438 12.132812 C 13.863281 9.542969 17.207031 7.933594 17.207031 7.933594 C 16.386719 7.867188 15.226562 8.382812 15.226562 8.382812 C 14.726562 6.539062 10.78125 3.949219 10.78125 3.949219 C 10.78125 3.949219 9.859375 6.136719 9.347656 7.734375 C 8.820312 9.363281 9.511719 11.074219 9.511719 11.074219 L 9.925781 12.742188 C 8.925781 13.390625 7.578125 14.402344 7.269531 15.3125 C 6.765625 16.800781 6.609375 17.390625 6.609375 17.390625 L 7.648438 17.015625 C 7.527344 17.25 7.414062 17.492188 7.3125 17.734375 C 7.171875 18.074219 7.050781 18.417969 6.953125 18.769531 C 6.855469 19.121094 6.777344 19.476562 6.726562 19.835938 L 6.796875 19.851562 C 6.90625 19.507812 7.023438 19.171875 7.15625 18.839844 C 7.289062 18.507812 7.433594 18.183594 7.589844 17.867188 C 7.746094 17.550781 7.917969 17.246094 8.097656 16.949219 C 7.910156 17.523438 7.019531 20.304688 7.191406 21.425781 C 7.210938 21.554688 7.25 21.675781 7.304688 21.796875 C 7.320312 21.953125 7.351562 22.109375 7.398438 22.261719 C 7.410156 22.304688 7.425781 22.347656 7.445312 22.386719 L 7.496094 22.511719 C 7.53125 22.597656 7.585938 22.671875 7.628906 22.75 C 7.648438 22.789062 7.679688 22.824219 7.707031 22.859375 L 7.789062 22.96875 C 7.816406 23.003906 7.84375 23.035156 7.871094 23.066406 L 7.953125 23.15625 C 8.164062 23.402344 8.371094 23.65625 8.546875 23.917969 C 8.726562 24.183594 8.871094 24.464844 8.964844 24.769531 C 9.011719 24.921875 9.046875 25.078125 9.078125 25.238281 C 9.105469 25.390625 9.140625 25.578125 9.207031 25.738281 C 9.34375 26.058594 9.539062 26.339844 9.75 26.597656 C 9.964844 26.855469 10.195312 27.09375 10.453125 27.308594 L 10.5 27.253906 C 10.269531 27.019531 10.058594 26.769531 9.867188 26.503906 C 9.679688 26.242188 9.511719 25.957031 9.410156 25.660156 C 9.359375 25.511719 9.339844 25.371094 9.316406 25.195312 C 9.292969 25.03125 9.261719 24.863281 9.21875 24.695312 C 9.132812 24.359375 8.988281 24.039062 8.808594 23.75 C 8.628906 23.457031 8.421875 23.195312 8.210938 22.933594 L 8.15625 22.871094 C 8.757812 23.445312 9.472656 24.035156 9.753906 24.871094 C 10.257812 26.359375 12.355469 28.515625 13.367188 29.140625 C 14.375 29.769531 15.035156 30.121094 15.035156 30.121094 C 15.035156 30.121094 14.425781 29.007812 13.921875 27.875 C 13.953125 27.910156 13.972656 27.933594 13.972656 27.933594 C 13.953125 27.914062 13.933594 27.886719 13.914062 27.859375 C 13.808594 27.625 13.710938 27.386719 13.621094 27.160156 C 13.492188 26.726562 13.382812 26.179688 13.292969 25.632812 L 13.292969 25.628906 C 13.089844 24.417969 12.984375 23.199219 12.984375 23.199219 C 12.441406 21.441406 10.328125 19.269531 10.328125 19.269531 C 10.558594 19.265625 10.789062 19.292969 11.015625 19.347656 C 11.082031 19.382812 11.144531 19.417969 11.207031 19.453125 C 11.5 19.625 11.777344 19.824219 12.039062 20.042969 L 12.234375 20.210938 L 12.417969 20.386719 C 12.542969 20.503906 12.660156 20.628906 12.773438 20.757812 C 13 21.015625 13.203125 21.296875 13.363281 21.605469 L 13.429688 21.578125 C 13.324219 21.234375 13.144531 20.917969 12.945312 20.625 C 12.792969 20.40625 12.625 20.203125 12.445312 20.011719 C 13.257812 20.570312 13.800781 21.234375 13.800781 21.234375 L 15.148438 19.796875 C 15.148438 19.796875 15.007812 20.132812 14.851562 20.679688 L 14.78125 20.765625 L 14.648438 20.957031 L 14.519531 21.152344 C 14.359375 21.414062 14.222656 21.695312 14.109375 21.984375 C 14 22.269531 13.917969 22.570312 13.863281 22.871094 C 13.808594 23.171875 13.78125 23.480469 13.792969 23.785156 L 13.867188 23.789062 C 13.917969 23.492188 13.984375 23.203125 14.070312 22.921875 C 14.160156 22.640625 14.265625 22.367188 14.394531 22.105469 C 14.417969 22.054688 14.445312 22.003906 14.46875 21.953125 C 14.378906 22.234375 14.316406 22.523438 14.285156 22.8125 C 14.246094 23.207031 14.261719 23.605469 14.332031 23.992188 C 14.40625 24.375 14.53125 24.75 14.722656 25.085938 L 14.785156 25.058594 C 14.65625 24.699219 14.574219 24.332031 14.546875 23.960938 C 14.527344 23.742188 14.527344 23.523438 14.542969 23.304688 C 14.820312 24.496094 16.019531 25.289062 16.796875 25.464844 C 17.71875 25.675781 18.363281 25.121094 18.363281 25.121094 C 18.363281 25.121094 19.011719 25.675781 19.933594 25.464844 C 20.710938 25.289062 21.910156 24.496094 22.1875 23.304688 C 22.203125 23.523438 22.203125 23.742188 22.183594 23.960938 C 22.15625 24.332031 22.070312 24.699219 21.945312 25.058594 L 22.007812 25.085938 C 22.199219 24.75 22.324219 24.375 22.398438 23.992188 C 22.46875 23.605469 22.484375 23.207031 22.445312 22.8125 C 22.414062 22.523438 22.351562 22.234375 22.261719 21.953125 C 22.285156 22.003906 22.3125 22.054688 22.335938 22.105469 C 22.464844 22.367188 22.570312 22.640625 22.65625 22.921875 C 22.746094 23.203125 22.8125 23.492188 22.863281 23.789062 L 22.9375 23.785156 C 22.949219 23.480469 22.921875 23.171875 22.867188 22.871094 C 22.8125 22.570312 22.730469 22.269531 22.621094 21.984375 C 22.507812 21.695312 22.371094 21.414062 22.210938 21.152344 L 22.082031 20.957031 L 21.949219 20.765625 L 21.878906 20.679688 C 21.722656 20.132812 21.578125 19.796875 21.578125 19.796875 L 22.929688 21.234375 C 22.929688 21.234375 23.472656 20.570312 24.285156 20.011719 C 24.105469 20.203125 23.9375 20.40625 23.785156 20.625 C 23.582031 20.917969 23.40625 21.234375 23.300781 21.578125 L 23.367188 21.605469 C 23.527344 21.296875 23.730469 21.015625 23.957031 20.757812 C 24.070312 20.628906 24.1875 20.503906 24.308594 20.386719 L 24.496094 20.210938 L 24.691406 20.042969 C 24.953125 19.824219 25.230469 19.625 25.519531 19.453125 C 25.585938 19.417969 25.648438 19.382812 25.714844 19.347656 C 25.9375 19.292969 26.167969 19.265625 26.402344 19.269531 C 26.402344 19.269531 24.285156 21.441406 23.746094 23.199219 C 23.746094 23.199219 23.640625 24.417969 23.4375 25.628906 C 23.4375 25.628906 23.4375 25.632812 23.4375 25.632812 C 23.347656 26.179688 23.238281 26.726562 23.109375 27.160156 C 23.019531 27.386719 22.921875 27.625 22.816406 27.859375 C 22.796875 27.886719 22.777344 27.914062 22.757812 27.933594 C 22.757812 27.933594 22.777344 27.914062 22.808594 27.875 C 22.304688 29.007812 21.695312 30.121094 21.695312 30.121094 C 21.695312 30.121094 22.355469 29.769531 23.363281 29.140625 C 24.375 28.515625 26.46875 26.359375 26.976562 24.871094 C 27.257812 24.035156 27.96875 23.445312 28.574219 22.871094 L 28.519531 22.933594 C 28.308594 23.195312 28.101562 23.457031 27.921875 23.75 C 27.742188 24.039062 27.597656 24.359375 27.511719 24.695312 C 27.46875 24.863281 27.4375 25.03125 27.410156 25.195312 C 27.390625 25.371094 27.371094 25.511719 27.320312 25.660156 C 27.21875 25.957031 27.050781 26.242188 26.863281 26.503906 C 26.671875 26.769531 26.460938 27.019531 26.230469 27.253906 L 26.277344 27.308594 C 26.535156 27.09375 26.765625 26.855469 26.980469 26.597656 C 27.191406 26.339844 27.386719 26.058594 27.523438 25.738281 C 27.589844 25.578125 27.625 25.390625 27.652344 25.238281 C 27.683594 25.078125 27.71875 24.921875 27.765625 24.769531 C 27.859375 24.464844 28.003906 24.183594 28.179688 23.917969 C 28.359375 23.65625 28.5625 23.402344 28.777344 23.15625 L 28.859375 23.066406 C 28.886719 23.035156 28.914062 23.003906 28.941406 22.96875 L 29.023438 22.859375 C 29.050781 22.824219 29.082031 22.789062 29.101562 22.75 C 29.144531 22.671875 29.199219 22.597656 29.234375 22.511719 L 29.285156 22.386719 C 29.304688 22.347656 29.320312 22.304688 29.332031 22.261719 C 29.378906 22.109375 29.410156 21.953125 29.425781 21.796875 C 29.480469 21.675781 29.515625 21.554688 29.539062 21.425781 C 29.710938 20.304688 28.820312 17.523438 28.628906 16.949219 C 28.8125 17.246094 28.980469 17.550781 29.140625 17.867188 C 29.296875 18.183594 29.441406 18.507812 29.574219 18.839844 C 29.707031 19.171875 29.824219 19.507812 29.933594 19.851562 L 30.003906 19.835938 C 29.953125 19.476562 29.875 19.121094 29.777344 18.769531 C 29.679688 18.417969 29.558594 18.074219 29.417969 17.734375 C 29.316406 17.492188 29.203125 17.25 29.082031 17.015625 Z M 22.203125 31.679688 C 22.203125 31.679688 21.546875 31.773438 20.921875 31.933594 C 20.839844 32.363281 20.707031 32.792969 20.5 33.132812 C 19.953125 34.019531 18.902344 34.894531 18.859375 34.929688 L 18.605469 35.140625 C 21.542969 34.179688 22.203125 31.679688 22.203125 31.679688 Z M 19.101562 33.632812 C 19.363281 33.359375 19.644531 33.035156 19.839844 32.71875 C 19.921875 32.585938 19.988281 32.425781 20.042969 32.253906 C 20.3125 31.40625 20.285156 30.226562 20.285156 30.226562 C 20.023438 30.503906 19.675781 30.644531 19.324219 30.644531 C 18.996094 30.644531 18.664062 30.519531 18.410156 30.269531 L 18.363281 30.226562 L 18.320312 30.269531 C 18.066406 30.519531 17.734375 30.644531 17.40625 30.644531 C 17.054688 30.644531 16.707031 30.503906 16.445312 30.226562 C 16.445312 30.226562 16.417969 31.40625 16.6875 32.253906 C 16.742188 32.425781 16.808594 32.585938 16.890625 32.71875 C 17.085938 33.035156 17.367188 33.359375 17.628906 33.632812 C 18.015625 34.035156 18.363281 34.324219 18.363281 34.324219 C 18.363281 34.324219 18.714844 34.035156 19.101562 33.632812 Z M 16.003906 27.101562 C 16.273438 27.316406 16.96875 27.550781 17.535156 27.714844 C 18.078125 27.871094 18.652344 27.871094 19.195312 27.714844 C 19.761719 27.550781 20.457031 27.316406 20.722656 27.101562 C 21.210938 26.707031 21.09375 25.632812 21.09375 25.632812 C 21.09375 25.632812 20.257812 26.257812 19.753906 26.296875 C 19.25 26.335938 18.363281 25.945312 18.363281 25.945312 C 18.363281 25.945312 17.480469 26.335938 16.976562 26.296875 C 16.472656 26.257812 15.636719 25.632812 15.636719 25.632812 C 15.636719 25.632812 15.519531 26.707031 16.003906 27.101562 Z M 18.125 35.140625 L 17.871094 34.929688 C 17.828125 34.894531 16.777344 34.019531 16.230469 33.132812 C 16.023438 32.792969 15.890625 32.363281 15.808594 31.933594 C 15.179688 31.773438 14.527344 31.679688 14.527344 31.679688 C 14.527344 31.679688 15.1875 34.179688 18.125 35.140625 Z M 16.875 11.203125 C 16.875 12.035156 17.542969 12.707031 18.363281 12.707031 C 18.894531 12.707031 19.359375 12.425781 19.625 12.003906 C 19.425781 12.199219 19.152344 12.320312 18.855469 12.320312 C 18.246094 12.320312 17.75 11.820312 17.75 11.203125 C 17.75 10.589844 18.246094 10.089844 18.855469 10.089844 C 19.152344 10.089844 19.425781 10.210938 19.625 10.40625 C 19.359375 9.984375 18.894531 9.703125 18.363281 9.703125 C 17.542969 9.703125 16.875 10.375 16.875 11.203125 Z M 32.757812 21.144531 C 32.757812 21.261719 32.753906 21.378906 32.746094 21.496094 C 32.738281 21.617188 32.722656 21.730469 32.707031 21.847656 C 32.699219 21.90625 32.691406 21.964844 32.679688 22.023438 C 32.660156 22.140625 32.636719 22.257812 32.609375 22.375 C 32.59375 22.433594 32.578125 22.492188 32.566406 22.546875 C 32.542969 22.625 32.523438 22.703125 32.5 22.777344 C 32.488281 22.820312 32.476562 22.859375 32.460938 22.898438 C 32.476562 22.855469 32.484375 22.816406 32.5 22.777344 C 32.285156 21.515625 31.40625 19.996094 31.40625 19.996094 C 32.105469 22.496094 31.742188 23.472656 31.742188 23.472656 L 30.472656 22.144531 C 30.472656 22.144531 31.070312 23.8125 31.003906 24.253906 C 30.941406 24.691406 30.707031 25.042969 30.707031 25.042969 C 30.628906 24.414062 29.464844 23.734375 29.464844 23.734375 C 29.464844 23.734375 29.957031 25.199219 30.035156 25.929688 C 30.082031 26.367188 29.933594 27.203125 29.804688 27.804688 L 29.804688 27.8125 C 29.714844 27.941406 29.625 28.066406 29.535156 28.195312 C 29.328125 28.480469 29.117188 28.761719 28.898438 29.039062 C 27.785156 30.4375 26.515625 31.703125 25.042969 32.800781 C 24.914062 32.898438 24.785156 32.996094 24.65625 33.09375 C 24.527344 33.191406 24.398438 33.285156 24.269531 33.375 C 24.203125 33.421875 24.136719 33.464844 24.070312 33.507812 C 23.867188 33.632812 23.65625 33.742188 23.4375 33.820312 C 23.421875 33.820312 23.410156 33.820312 23.398438 33.816406 L 23.410156 33.808594 L 23.609375 33.65625 L 23.800781 33.5 C 24.050781 33.285156 24.289062 33.050781 24.507812 32.804688 C 24.726562 32.554688 24.925781 32.289062 25.105469 32.011719 C 25.28125 31.734375 25.441406 31.445312 25.570312 31.144531 L 25.507812 31.109375 C 25.324219 31.378906 25.136719 31.636719 24.929688 31.882812 C 24.726562 32.132812 24.511719 32.367188 24.285156 32.589844 C 24.164062 32.707031 24.035156 32.824219 23.90625 32.9375 C 24.46875 32.300781 25.070312 31.453125 25.246094 30.59375 C 25.246094 30.59375 23.230469 32.957031 22.53125 33.480469 C 22.488281 33.507812 22.449219 33.539062 22.40625 33.566406 C 22.347656 33.605469 22.292969 33.644531 22.234375 33.683594 C 21.988281 33.855469 21.746094 34.027344 21.503906 34.199219 C 20.511719 34.90625 19.523438 35.617188 18.414062 36.140625 C 18.011719 35.949219 17.628906 35.738281 17.253906 35.515625 C 17.117188 35.433594 16.984375 35.351562 16.851562 35.265625 C 16.804688 35.238281 16.761719 35.210938 16.71875 35.179688 C 16.628906 35.125 16.539062 35.066406 16.453125 35.007812 C 16.402344 34.976562 16.351562 34.941406 16.300781 34.90625 C 16.21875 34.851562 16.140625 34.800781 16.0625 34.746094 C 16.011719 34.710938 15.957031 34.671875 15.90625 34.636719 C 15.828125 34.582031 15.75 34.527344 15.675781 34.476562 C 15.625 34.4375 15.574219 34.402344 15.523438 34.367188 C 15.441406 34.308594 15.363281 34.253906 15.28125 34.195312 C 15.238281 34.164062 15.195312 34.132812 15.148438 34.097656 C 15.007812 34 14.871094 33.898438 14.734375 33.800781 C 14.707031 33.777344 14.675781 33.757812 14.648438 33.738281 C 14.566406 33.675781 14.480469 33.617188 14.394531 33.554688 C 14.296875 33.484375 14.195312 33.414062 14.097656 33.34375 C 14.167969 33.394531 14.242188 33.445312 14.3125 33.496094 C 13.632812 33 11.578125 30.59375 11.578125 30.59375 C 11.785156 31.601562 12.585938 32.601562 13.210938 33.253906 L 13.160156 33.214844 C 12.910156 33.019531 12.671875 32.8125 12.445312 32.589844 C 12.21875 32.367188 12.003906 32.132812 11.800781 31.882812 C 11.59375 31.636719 11.40625 31.378906 11.222656 31.109375 L 11.160156 31.144531 C 11.289062 31.445312 11.449219 31.734375 11.625 32.011719 C 11.804688 32.289062 12.003906 32.554688 12.222656 32.804688 C 12.441406 33.050781 12.675781 33.285156 12.929688 33.5 L 13.121094 33.65625 L 13.265625 33.765625 C 13.136719 33.707031 13.007812 33.640625 12.882812 33.570312 C 12.820312 33.535156 12.753906 33.5 12.691406 33.464844 C 12.441406 33.316406 12.199219 33.15625 11.957031 32.984375 C 11.839844 32.898438 11.71875 32.808594 11.601562 32.71875 C 11.484375 32.625 11.367188 32.53125 11.25 32.4375 C 11.136719 32.34375 11.019531 32.246094 10.90625 32.148438 C 10.734375 32 10.566406 31.847656 10.398438 31.699219 C 10.226562 31.542969 10.058594 31.386719 9.894531 31.230469 C 9.730469 31.074219 9.570312 30.914062 9.410156 30.753906 C 8.535156 29.863281 7.75 28.914062 7.039062 27.90625 C 6.910156 27.300781 6.742188 26.390625 6.792969 25.929688 C 6.867188 25.199219 7.359375 23.734375 7.359375 23.734375 C 7.359375 23.734375 6.195312 24.414062 6.117188 25.042969 C 6.117188 25.042969 5.882812 24.691406 5.820312 24.253906 C 5.757812 23.8125 6.351562 22.144531 6.351562 22.144531 L 5.082031 23.472656 C 5.082031 23.472656 4.722656 22.496094 5.417969 19.996094 C 5.417969 19.996094 4.511719 21.570312 4.316406 22.84375 C 4.316406 22.851562 4.3125 22.871094 4.3125 22.871094 C 4.3125 22.871094 4.300781 22.84375 4.296875 22.835938 C 4.214844 22.628906 4.144531 22.421875 4.09375 22.21875 C 4.074219 22.148438 4.058594 22.078125 4.042969 22.007812 C 4.019531 21.898438 4.003906 21.785156 3.992188 21.671875 C 3.984375 21.617188 3.980469 21.5625 3.976562 21.503906 C 3.96875 21.394531 3.96875 21.28125 3.976562 21.167969 C 3.980469 21.058594 3.992188 20.945312 4.011719 20.832031 C 4.027344 20.71875 4.050781 20.605469 4.085938 20.488281 C 4.117188 20.375 4.15625 20.261719 4.199219 20.144531 C 4.230469 20.074219 4.253906 20.003906 4.28125 19.933594 C 4.460938 19.433594 4.589844 18.925781 4.726562 18.496094 C 4.71875 18.445312 4.707031 18.40625 4.691406 18.375 C 4.683594 18.363281 4.675781 18.347656 4.667969 18.335938 C 4.648438 18.3125 4.628906 18.296875 4.605469 18.289062 C 4.582031 18.277344 4.558594 18.269531 4.53125 18.265625 C 4.507812 18.261719 4.480469 18.261719 4.453125 18.257812 C 4.441406 18.257812 4.429688 18.257812 4.417969 18.257812 C 4.390625 18.253906 4.367188 18.25 4.34375 18.242188 C 4.300781 18.230469 4.261719 18.199219 4.242188 18.136719 C 4.375 17.535156 4.546875 16.957031 4.753906 16.398438 C 4.964844 15.839844 5.214844 15.300781 5.496094 14.785156 C 5.640625 14.523438 5.789062 14.269531 5.949219 14.019531 C 6.109375 13.769531 6.277344 13.523438 6.449219 13.28125 C 6.625 13.042969 6.808594 12.804688 7 12.574219 C 7.09375 12.457031 7.191406 12.34375 7.292969 12.230469 C 7.390625 12.117188 7.492188 12.003906 7.59375 11.890625 C 7.636719 11.847656 7.671875 11.804688 7.710938 11.761719 C 7.960938 11.46875 8.148438 11.171875 8.285156 10.851562 C 8.304688 10.796875 8.328125 10.746094 8.34375 10.691406 C 8.355469 10.664062 8.367188 10.632812 8.375 10.605469 C 8.464844 10.324219 8.519531 10.027344 8.542969 9.703125 C 8.546875 9.640625 8.550781 9.574219 8.550781 9.511719 C 8.59375 8.152344 8.835938 6.859375 9.277344 5.632812 C 9.386719 5.328125 9.507812 5.023438 9.640625 4.726562 C 9.777344 4.429688 9.921875 4.136719 10.082031 3.847656 C 10.238281 3.558594 10.410156 3.277344 10.59375 2.996094 C 10.773438 2.714844 10.96875 2.441406 11.175781 2.171875 C 11.199219 2.140625 11.234375 2.097656 11.277344 2.054688 C 11.320312 2.007812 11.371094 1.957031 11.425781 1.902344 C 11.464844 1.863281 11.511719 1.820312 11.558594 1.777344 C 11.617188 1.71875 11.675781 1.664062 11.738281 1.609375 C 11.816406 1.535156 11.890625 1.464844 11.960938 1.40625 C 11.988281 1.378906 12.015625 1.355469 12.039062 1.335938 C 12.164062 1.222656 12.25 1.148438 12.25 1.148438 C 12.25 1.148438 12.359375 1.300781 12.523438 1.535156 L 12.527344 1.5625 C 12.570312 1.808594 12.617188 2.050781 12.675781 2.292969 C 12.730469 2.535156 12.796875 2.773438 12.867188 3.011719 C 12.941406 3.25 13.019531 3.484375 13.113281 3.714844 L 13.183594 3.695312 L 13.078125 2.964844 C 13.042969 2.722656 13.011719 2.480469 12.976562 2.238281 C 12.976562 2.21875 12.972656 2.199219 12.972656 2.183594 C 13.0625 2.316406 13.160156 2.460938 13.253906 2.601562 C 13.320312 2.703125 13.390625 2.808594 13.453125 2.910156 C 13.46875 3.070312 13.488281 3.230469 13.511719 3.390625 C 13.546875 3.585938 13.585938 3.777344 13.636719 3.96875 C 13.691406 4.15625 13.75 4.34375 13.828125 4.527344 L 13.898438 4.507812 C 13.882812 4.3125 13.863281 4.121094 13.851562 3.929688 C 13.839844 3.789062 13.835938 3.648438 13.828125 3.503906 C 13.910156 3.640625 13.984375 3.769531 14.046875 3.886719 C 14.101562 3.988281 14.160156 4.085938 14.21875 4.183594 L 14.230469 4.246094 L 14.285156 4.496094 C 14.324219 4.664062 14.371094 4.828125 14.425781 4.992188 C 14.476562 5.15625 14.535156 5.316406 14.605469 5.476562 C 14.671875 5.632812 14.746094 5.785156 14.832031 5.933594 L 14.898438 5.910156 C 14.871094 5.742188 14.839844 5.578125 14.808594 5.410156 L 14.722656 4.917969 C 14.71875 4.898438 14.714844 4.878906 14.714844 4.863281 C 14.765625 4.921875 14.820312 4.980469 14.875 5.039062 C 15.40625 5.585938 16.050781 5.988281 16.828125 6.269531 C 16.832031 6.269531 16.835938 6.269531 16.84375 6.273438 C 16.902344 6.292969 16.960938 6.3125 17.023438 6.332031 C 17.046875 6.339844 17.070312 6.347656 17.097656 6.351562 C 17.136719 6.367188 17.179688 6.378906 17.21875 6.386719 C 17.246094 6.394531 17.277344 6.402344 17.304688 6.410156 C 17.34375 6.417969 17.378906 6.425781 17.417969 6.4375 C 17.445312 6.441406 17.476562 6.449219 17.507812 6.453125 C 17.542969 6.460938 17.578125 6.46875 17.613281 6.472656 C 17.644531 6.480469 17.675781 6.484375 17.707031 6.488281 C 17.742188 6.492188 17.777344 6.5 17.816406 6.503906 C 17.847656 6.507812 17.878906 6.511719 17.910156 6.515625 C 17.945312 6.519531 17.980469 6.523438 18.015625 6.527344 C 18.046875 6.527344 18.078125 6.53125 18.109375 6.53125 C 18.144531 6.535156 18.179688 6.539062 18.214844 6.539062 C 18.246094 6.539062 18.277344 6.539062 18.308594 6.542969 C 18.34375 6.542969 18.378906 6.542969 18.414062 6.542969 C 18.421875 6.542969 18.425781 6.542969 18.429688 6.542969 C 18.441406 6.542969 18.453125 6.542969 18.464844 6.542969 C 18.539062 6.542969 18.613281 6.539062 18.6875 6.535156 C 18.707031 6.535156 18.730469 6.535156 18.75 6.53125 C 18.835938 6.527344 18.921875 6.519531 19.007812 6.507812 C 19.019531 6.507812 19.035156 6.503906 19.046875 6.503906 C 19.121094 6.492188 19.195312 6.484375 19.269531 6.46875 C 19.292969 6.464844 19.3125 6.460938 19.332031 6.457031 C 19.417969 6.441406 19.5 6.425781 19.585938 6.40625 C 19.597656 6.402344 19.609375 6.398438 19.621094 6.394531 C 19.695312 6.375 19.769531 6.355469 19.839844 6.332031 C 19.859375 6.328125 19.882812 6.320312 19.902344 6.316406 C 19.984375 6.289062 20.066406 6.261719 20.144531 6.230469 C 20.15625 6.226562 20.164062 6.222656 20.175781 6.21875 C 20.246094 6.191406 20.320312 6.160156 20.390625 6.128906 C 20.410156 6.121094 20.429688 6.113281 20.449219 6.105469 C 20.527344 6.070312 20.605469 6.03125 20.679688 5.992188 C 20.6875 5.988281 20.695312 5.980469 20.703125 5.976562 C 20.773438 5.941406 20.84375 5.902344 20.910156 5.859375 C 20.929688 5.851562 20.949219 5.839844 20.964844 5.828125 C 21.039062 5.78125 21.113281 5.734375 21.183594 5.683594 C 21.191406 5.683594 21.195312 5.675781 21.203125 5.671875 C 21.269531 5.625 21.332031 5.578125 21.398438 5.527344 C 21.414062 5.515625 21.429688 5.5 21.449219 5.488281 C 21.515625 5.433594 21.582031 5.375 21.648438 5.316406 C 21.652344 5.3125 21.65625 5.308594 21.660156 5.308594 C 21.722656 5.25 21.78125 5.191406 21.839844 5.132812 C 21.855469 5.117188 21.871094 5.101562 21.886719 5.085938 C 21.925781 5.042969 21.960938 5.003906 22 4.960938 L 21.917969 5.410156 C 21.890625 5.578125 21.859375 5.742188 21.832031 5.910156 L 21.898438 5.933594 C 21.984375 5.785156 22.058594 5.632812 22.125 5.476562 C 22.191406 5.316406 22.253906 5.15625 22.304688 4.992188 C 22.359375 4.828125 22.40625 4.664062 22.445312 4.496094 L 22.488281 4.304688 C 22.519531 4.253906 22.550781 4.203125 22.582031 4.152344 C 22.691406 3.972656 22.792969 3.789062 22.898438 3.601562 C 22.890625 3.710938 22.886719 3.820312 22.878906 3.929688 C 22.867188 4.121094 22.847656 4.3125 22.832031 4.507812 L 22.902344 4.527344 C 22.980469 4.34375 23.039062 4.15625 23.089844 3.96875 C 23.144531 3.777344 23.183594 3.585938 23.21875 3.390625 C 23.242188 3.234375 23.261719 3.078125 23.273438 2.921875 C 23.375 2.746094 23.476562 2.570312 23.585938 2.398438 C 23.632812 2.320312 23.695312 2.234375 23.761719 2.144531 C 23.757812 2.175781 23.757812 2.207031 23.753906 2.238281 C 23.71875 2.480469 23.6875 2.722656 23.652344 2.964844 L 23.546875 3.695312 L 23.617188 3.714844 C 23.710938 3.484375 23.789062 3.25 23.863281 3.011719 C 23.933594 2.773438 24 2.535156 24.054688 2.292969 C 24.105469 2.070312 24.152344 1.847656 24.191406 1.625 C 24.238281 1.566406 24.285156 1.511719 24.328125 1.464844 C 24.46875 1.308594 24.566406 1.199219 24.566406 1.199219 C 24.566406 1.199219 24.570312 1.203125 24.574219 1.207031 C 24.585938 1.214844 24.609375 1.234375 24.640625 1.257812 C 24.65625 1.269531 24.671875 1.285156 24.691406 1.300781 C 24.75 1.347656 24.824219 1.40625 24.902344 1.476562 C 25.011719 1.566406 25.132812 1.671875 25.25 1.78125 C 25.398438 1.917969 25.535156 2.058594 25.625 2.175781 C 25.941406 2.597656 26.230469 3.027344 26.488281 3.46875 C 26.808594 4.011719 27.085938 4.574219 27.320312 5.148438 C 27.355469 5.234375 27.390625 5.324219 27.425781 5.414062 C 27.632812 5.960938 27.804688 6.519531 27.9375 7.089844 C 28.132812 7.949219 28.246094 8.839844 28.269531 9.761719 C 28.273438 9.859375 28.277344 9.953125 28.285156 10.046875 C 28.300781 10.183594 28.320312 10.316406 28.351562 10.445312 C 28.371094 10.527344 28.390625 10.613281 28.417969 10.695312 C 28.445312 10.773438 28.476562 10.855469 28.511719 10.933594 C 28.546875 11.011719 28.585938 11.085938 28.628906 11.164062 C 28.675781 11.238281 28.722656 11.3125 28.777344 11.386719 C 28.828125 11.460938 28.886719 11.53125 28.949219 11.605469 C 28.980469 11.640625 29.011719 11.675781 29.046875 11.710938 C 29.199219 11.878906 29.351562 12.046875 29.5 12.21875 C 29.648438 12.386719 29.789062 12.5625 29.929688 12.738281 C 30.042969 12.882812 30.15625 13.027344 30.261719 13.171875 C 30.414062 13.375 30.554688 13.582031 30.695312 13.792969 C 30.765625 13.898438 30.832031 14.003906 30.898438 14.113281 C 30.988281 14.257812 31.078125 14.40625 31.160156 14.554688 C 31.308594 14.808594 31.445312 15.066406 31.574219 15.332031 C 31.703125 15.59375 31.824219 15.863281 31.9375 16.136719 C 32.035156 16.375 32.125 16.613281 32.210938 16.859375 C 32.261719 17.011719 32.3125 17.164062 32.347656 17.308594 C 32.367188 17.398438 32.382812 17.484375 32.390625 17.570312 C 32.394531 17.621094 32.394531 17.667969 32.390625 17.714844 C 32.390625 17.761719 32.382812 17.808594 32.375 17.855469 C 32.339844 18.039062 32.242188 18.210938 32.050781 18.363281 C 32.085938 18.492188 32.097656 18.59375 32.117188 18.675781 C 32.121094 18.695312 32.128906 18.714844 32.132812 18.734375 C 32.144531 18.757812 32.152344 18.78125 32.164062 18.804688 C 32.210938 18.898438 32.257812 18.988281 32.300781 19.082031 C 32.34375 19.171875 32.382812 19.265625 32.417969 19.355469 C 32.441406 19.417969 32.464844 19.476562 32.484375 19.539062 C 32.613281 19.898438 32.691406 20.257812 32.730469 20.613281 C 32.75 20.792969 32.761719 20.96875 32.757812 21.144531 Z M 32.230469 23.53125 C 32.246094 23.496094 32.261719 23.457031 32.277344 23.421875 C 32.261719 23.457031 32.246094 23.496094 32.230469 23.53125 " fill-opacity="1" fill-rule="nonzero"/></g></svg>