<svg xmlns="http://www.w3.org/2000/svg" xmlns:xlink="http://www.w3.org/1999/xlink" width="50" zoomAndPan="magnify" viewBox="0 0 37.5 37.499999" height="50" preserveAspectRatio="xMidYMid meet" version="1.0"><defs><clipPath id="89e868101a"><path d="M 0 0.046875 L 37 0.046875 L 37 37.007812 L 0 37.007812 Z M 0 0.046875 " clip-rule="nonzero"/></clipPath></defs><g clip-path="url(#89e868101a)"><path fill="#000000" d="M 36.992188 18.546875 C 36.992188 19.15625 36.964844 19.757812 36.902344 20.363281 C 36.84375 20.964844 36.753906 21.5625 36.636719 22.160156 C 36.519531 22.753906 36.371094 23.339844 36.195312 23.917969 C 36.019531 24.5 35.816406 25.070312 35.585938 25.628906 C 35.351562 26.1875 35.09375 26.738281 34.808594 27.269531 C 34.523438 27.804688 34.214844 28.324219 33.875 28.828125 C 33.539062 29.332031 33.179688 29.816406 32.796875 30.285156 C 32.410156 30.753906 32.003906 31.203125 31.578125 31.632812 C 31.148438 32.058594 30.699219 32.46875 30.234375 32.851562 C 29.765625 33.234375 29.277344 33.597656 28.773438 33.933594 C 28.273438 34.269531 27.753906 34.582031 27.21875 34.867188 C 26.683594 35.152344 26.136719 35.410156 25.578125 35.644531 C 25.019531 35.875 24.449219 36.078125 23.871094 36.253906 C 23.289062 36.429688 22.703125 36.578125 22.109375 36.695312 C 21.515625 36.8125 20.917969 36.902344 20.316406 36.960938 C 19.710938 37.023438 19.109375 37.050781 18.503906 37.050781 C 17.898438 37.050781 17.292969 37.023438 16.691406 36.960938 C 16.089844 36.902344 15.488281 36.8125 14.894531 36.695312 C 14.300781 36.578125 13.714844 36.429688 13.136719 36.253906 C 12.554688 36.078125 11.988281 35.875 11.425781 35.644531 C 10.867188 35.410156 10.320312 35.152344 9.785156 34.867188 C 9.253906 34.582031 8.734375 34.269531 8.230469 33.933594 C 7.726562 33.597656 7.242188 33.234375 6.773438 32.851562 C 6.304688 32.46875 5.855469 32.058594 5.429688 31.632812 C 5 31.203125 4.59375 30.753906 4.210938 30.285156 C 3.824219 29.816406 3.464844 29.332031 3.128906 28.828125 C 2.792969 28.324219 2.480469 27.804688 2.195312 27.269531 C 1.910156 26.738281 1.652344 26.1875 1.421875 25.628906 C 1.1875 25.070312 0.984375 24.5 0.808594 23.917969 C 0.632812 23.339844 0.488281 22.753906 0.367188 22.160156 C 0.25 21.5625 0.160156 20.964844 0.101562 20.363281 C 0.0429688 19.757812 0.0117188 19.15625 0.0117188 18.546875 C 0.0117188 17.941406 0.0429688 17.339844 0.101562 16.734375 C 0.160156 16.132812 0.25 15.535156 0.367188 14.9375 C 0.488281 14.34375 0.632812 13.757812 0.808594 13.179688 C 0.984375 12.597656 1.1875 12.027344 1.421875 11.46875 C 1.652344 10.910156 1.910156 10.359375 2.195312 9.828125 C 2.480469 9.292969 2.792969 8.773438 3.128906 8.269531 C 3.464844 7.765625 3.824219 7.28125 4.210938 6.8125 C 4.59375 6.34375 5 5.894531 5.429688 5.464844 C 5.855469 5.035156 6.304688 4.628906 6.773438 4.246094 C 7.242188 3.863281 7.726562 3.5 8.230469 3.164062 C 8.734375 2.828125 9.253906 2.515625 9.785156 2.230469 C 10.320312 1.945312 10.867188 1.6875 11.425781 1.453125 C 11.988281 1.222656 12.554688 1.019531 13.136719 0.84375 C 13.714844 0.667969 14.300781 0.519531 14.894531 0.402344 C 15.488281 0.285156 16.089844 0.195312 16.691406 0.136719 C 17.292969 0.0742188 17.898438 0.046875 18.503906 0.046875 C 19.109375 0.046875 19.710938 0.0742188 20.316406 0.136719 C 20.917969 0.195312 21.515625 0.285156 22.109375 0.402344 C 22.703125 0.519531 23.289062 0.667969 23.871094 0.84375 C 24.449219 1.019531 25.019531 1.222656 25.578125 1.453125 C 26.136719 1.6875 26.683594 1.945312 27.21875 2.230469 C 27.753906 2.515625 28.273438 2.828125 28.773438 3.164062 C 29.277344 3.5 29.765625 3.863281 30.234375 4.246094 C 30.699219 4.628906 31.148438 5.035156 31.578125 5.464844 C 32.003906 5.894531 32.410156 6.34375 32.796875 6.8125 C 33.179688 7.28125 33.539062 7.765625 33.875 8.269531 C 34.214844 8.773438 34.523438 9.292969 34.808594 9.828125 C 35.09375 10.359375 35.351562 10.910156 35.585938 11.46875 C 35.816406 12.027344 36.019531 12.597656 36.195312 13.179688 C 36.371094 13.757812 36.519531 14.34375 36.636719 14.9375 C 36.753906 15.535156 36.84375 16.132812 36.902344 16.734375 C 36.964844 17.339844 36.992188 17.941406 36.992188 18.546875 Z M 36.992188 18.546875 " fill-opacity="1" fill-rule="nonzero"/></g><path fill="#ffffff" d="M 20.78125 16.808594 L 29.824219 6.378906 L 27.695312 6.378906 L 19.828125 15.433594 L 13.6875 6.609375 L 6.699219 6.609375 L 15.960938 19.882812 L 6.550781 30.710938 L 8.734375 30.710938 L 16.921875 21.261719 L 23.519531 30.71875 L 30.457031 30.71875 Z M 17.917969 20.117188 L 16.957031 18.738281 L 9.519531 8.082031 L 12.921875 8.082031 L 18.832031 16.578125 L 19.785156 17.957031 L 27.636719 29.246094 L 24.285156 29.246094 Z M 17.917969 20.117188 " fill-opacity="1" fill-rule="nonzero"/></svg>