<svg xmlns="http://www.w3.org/2000/svg" xmlns:xlink="http://www.w3.org/1999/xlink" width="400" zoomAndPan="magnify" viewBox="0 0 300 299.999988" height="400" preserveAspectRatio="xMidYMid meet" version="1.0"><path fill="#ffffff" d="M 199.871094 57.101562 C 202.445312 58.503906 205.265625 56.332031 203.863281 56.609375 C 202.710938 56.769531 201.539062 56.585938 200.488281 56.085938 C 200.996094 54.144531 201.285156 52.152344 201.351562 50.148438 C 200.859375 45.292969 198.960938 56.515625 199.871094 57.101562 Z M 207.269531 59.289062 C 205.730469 60.832031 203.816406 61.957031 205.40625 61.789062 C 207.535156 61.574219 208.96875 59.460938 208.195312 58.351562 C 207.578125 58.75 207.980469 58.566406 207.269531 59.289062 Z M 205.484375 48.714844 C 205.019531 49.269531 205.484375 50.519531 205.589844 51.074219 C 205.625 51.226562 205.714844 51.359375 205.839844 51.449219 C 205.96875 51.535156 206.125 51.574219 206.277344 51.554688 C 206.433594 51.53125 206.570312 51.453125 206.671875 51.332031 C 206.769531 51.210938 206.816406 51.058594 206.808594 50.90625 C 206.640625 49.515625 206.300781 47.757812 205.484375 48.714844 Z M 196.878906 51.550781 C 196.371094 48.007812 195.339844 49.53125 195.429688 50.117188 C 195.554688 52.492188 197.050781 52.753906 196.878906 51.550781 Z M 204.558594 46.265625 C 213.007812 47.082031 204.28125 43.441406 203.816406 46.140625 Z M 151.28125 109.6875 C 149.523438 110.304688 149.875 112.167969 152.050781 111.351562 C 156.496094 109.566406 161.164062 108.398438 165.925781 107.882812 C 165.925781 120.402344 165.292969 125.257812 166.015625 125.597656 C 166.804688 125.289062 167.449219 108.5 167.40625 107.097656 C 167.265625 104.507812 154.039062 108.699219 151.28125 109.6875 Z M 136.355469 127.015625 C 134.089844 131.871094 130.082031 138.5 135 140.179688 C 137.757812 141.105469 149.445312 140.179688 147.210938 133.90625 C 145.238281 128.292969 138.976562 121.542969 136.355469 127.015625 Z M 213.929688 159.558594 C 211.851562 158.957031 193.597656 155.519531 192.703125 156.398438 C 190.761719 158.355469 201.535156 157.246094 213.59375 160.746094 C 213.75 160.789062 213.917969 160.769531 214.0625 160.691406 C 214.203125 160.613281 214.308594 160.476562 214.355469 160.320312 C 214.398438 160.164062 214.378906 159.996094 214.300781 159.851562 C 214.222656 159.707031 214.089844 159.601562 213.929688 159.558594 Z M 215.640625 150.664062 C 210.359375 149.398438 204.980469 148.566406 199.5625 148.164062 C 199.398438 148.183594 199.25 148.269531 199.148438 148.402344 C 199.046875 148.53125 199.003906 148.695312 199.023438 148.859375 C 199.042969 149.023438 199.128906 149.171875 199.257812 149.273438 C 199.390625 149.375 199.554688 149.417969 199.71875 149.398438 C 204.96875 149.816406 210.179688 150.636719 215.304688 151.851562 C 215.460938 151.894531 215.628906 151.875 215.773438 151.796875 C 215.914062 151.714844 216.023438 151.582031 216.066406 151.425781 C 216.109375 151.269531 216.089844 151.101562 216.011719 150.957031 C 215.933594 150.8125 215.800781 150.707031 215.640625 150.664062 Z M 95.535156 62.328125 C 93.578125 62.542969 92.976562 61.988281 92.804688 62.421875 C 92.390625 65.273438 99.851562 62.203125 95.535156 62.328125 Z M 89.058594 50.71875 C 89.058594 46.878906 87.828125 48.023438 87.828125 50.71875 C 87.828125 50.882812 87.890625 51.039062 88.007812 51.15625 C 88.121094 51.269531 88.28125 51.335938 88.441406 51.335938 C 88.605469 51.335938 88.761719 51.269531 88.878906 51.15625 C 88.996094 51.039062 89.058594 50.882812 89.058594 50.71875 Z M 99.988281 49.269531 C 100.003906 49.351562 100.03125 49.425781 100.074219 49.496094 C 100.117188 49.566406 100.171875 49.625 100.238281 49.671875 C 100.304688 49.71875 100.378906 49.753906 100.457031 49.769531 C 100.535156 49.789062 100.617188 49.792969 100.699219 49.777344 C 100.777344 49.765625 100.855469 49.738281 100.925781 49.695312 C 100.992188 49.652344 101.050781 49.59375 101.101562 49.53125 C 101.148438 49.464844 101.179688 49.390625 101.199219 49.308594 C 101.21875 49.230469 101.21875 49.148438 101.207031 49.070312 C 100.636719 45.355469 99.542969 46.464844 99.988281 49.269531 Z M 99.988281 49.269531 " fill-opacity="1" fill-rule="nonzero"/><path fill="#ffffff" d="M 272.019531 196.03125 C 283.535156 187.214844 283.148438 170.996094 282.8125 170.472656 C 287.234375 165.847656 287.359375 152.4375 286.078125 149.675781 C 284.351562 145.929688 292.0625 112.910156 279.480469 103.703125 C 280.589844 103.210938 282.703125 101.949219 282.855469 100.296875 C 283.132812 97.046875 280.066406 96.519531 277.722656 95.132812 C 267.933594 89.382812 267.316406 76.632812 248.140625 71.917969 C 247.429688 70.605469 247.277344 70.375 246.707031 69.417969 C 260.582031 70.375 258.792969 62.773438 256.402344 60.894531 C 254.898438 60.023438 253.285156 59.355469 251.609375 58.90625 C 257.449219 56.453125 257.28125 49.101562 249.757812 49.777344 C 248.863281 49.855469 251.761719 47.480469 249.402344 44.445312 C 248.875 43.625 248.125 42.972656 247.242188 42.554688 C 246.359375 42.136719 245.378906 41.976562 244.410156 42.085938 C 244.410156 36.921875 241.925781 34.824219 238.984375 34.824219 C 243.316406 28.472656 237.535156 21.398438 229.425781 25.328125 C 231.351562 20.859375 226.21875 12.8125 214.457031 22.136719 C 213.714844 18.898438 203.480469 15.523438 202.367188 20.257812 C 201.796875 22.675781 197.742188 15.910156 190.34375 21.460938 C 188.324219 23 187.261719 25.542969 189.636719 26.347656 C 182.28125 26.886719 179.460938 33.730469 185.164062 35.210938 C 186.398438 35.535156 182.820312 36.367188 183.390625 40.960938 C 183.824219 44.476562 186.9375 46.496094 189.480469 44.566406 C 190.328125 43.9375 190.082031 43.796875 190.003906 44.460938 C 189.984375 44.71875 190.015625 44.980469 190.097656 45.230469 C 190.179688 45.476562 190.3125 45.707031 190.484375 45.902344 C 190.65625 46.097656 190.867188 46.257812 191.105469 46.367188 C 191.339844 46.480469 191.59375 46.546875 191.855469 46.558594 C 192.085938 47.90625 192.445312 49.234375 192.917969 50.519531 C 187.339844 50.519531 184.023438 55.328125 185.503906 57.671875 C 187.214844 60.355469 190.222656 58.566406 186.460938 60.507812 C 179.167969 64.285156 181.003906 70.542969 185.472656 70.5 C 189.945312 70.453125 187.015625 68.800781 187.707031 73.273438 C 188.140625 76.21875 192.917969 79.101562 196.957031 75.402344 C 198.097656 76.773438 198.328125 77.652344 199.71875 78.359375 C 188.140625 86.070312 192.179688 89.816406 177.164062 104.953125 C 175.421875 106.726562 174.914062 106.0625 174.082031 106.878906 C 173.246094 107.699219 174.386719 112.601562 178.703125 112.246094 C 173.972656 126.121094 178.703125 121.851562 171.859375 122.574219 C 171.707031 122.574219 173.664062 102.332031 173.402344 99.542969 C 173.246094 98.171875 172.96875 98.203125 157.492188 101.730469 C 158 91.402344 157.894531 70.050781 157 69.835938 C 156.84375 69.835938 145.699219 69.835938 145.699219 69.542969 C 145.453125 68.554688 146.175781 64.316406 145.976562 63.515625 C 145.792969 62.992188 145.175781 63.007812 144.679688 62.683594 C 138.699219 58.703125 146.222656 60.878906 146.792969 60.292969 C 147.625 59.367188 146.792969 50.042969 148.335938 50.042969 C 149.875 50.859375 148.644531 58.660156 149.230469 59.398438 C 151.125 61.0625 149.832031 52.261719 151.878906 52.507812 C 153.007812 52.722656 151.726562 59.074219 152.160156 60.125 C 153.5625 62.128906 153.066406 57.039062 154.734375 55.390625 C 156.675781 54.449219 154.640625 69.265625 154.425781 69.574219 C 155.210938 70.191406 158.664062 51.597656 154.132812 54.527344 C 152.804688 55.390625 154.132812 54.15625 153.160156 52.105469 C 152.621094 51.042969 151.078125 50.875 150.214844 52.382812 C 149.398438 46.988281 146.699219 48.300781 146.285156 52.089844 C 145.882812 59.246094 146.054688 58.164062 145.929688 59.445312 C 141.84375 57.902344 138.792969 61.527344 144.789062 63.605469 C 145.730469 63.929688 144.789062 67.355469 145.082031 69.3125 C 145.082031 69.636719 145.25 69.527344 144.449219 69.449219 C 141.152344 69.109375 131.285156 97.339844 128.246094 101.394531 C 132.457031 107.558594 131.054688 108.46875 130.667969 107.449219 C 126.488281 98.816406 109.085938 80.734375 89.738281 74.199219 C 88.195312 73.703125 88.566406 74.199219 88.195312 72.195312 C 87.070312 70.542969 103.519531 79.007812 102.070312 54.1875 C 109.023438 54.417969 108.007812 43.535156 102.195312 43.226562 C 106.03125 38.523438 104.832031 34.65625 100.960938 30.539062 C 99.25 18.207031 85.992188 17.929688 74.199219 22.429688 C 71.40625 23.496094 70.914062 25.160156 69.480469 27.625 C 68.09375 27.839844 67.460938 26.839844 64.777344 28.382812 C 56.625 33.082031 58.613281 46.371094 65.363281 51.738281 C 64.148438 55.265625 65.210938 59.183594 69.804688 58.859375 C 69.804688 73.628906 71.144531 70.207031 64.117188 71.421875 C 14.011719 80.101562 0.015625 140.84375 21.738281 161.007812 C 22.9375 162.132812 17.667969 169.671875 27.070312 175.019531 C 27.371094 181.867188 29.007812 188.59375 31.878906 194.816406 C 34.023438 199.441406 34.101562 198.4375 33.886719 199.117188 C 24.726562 228.253906 7.277344 280.265625 7 281.5 C 5.996094 285.957031 10.375 287.25 12.394531 283.828125 C 13.289062 282.285156 37.96875 215.535156 41.144531 206.839844 C 42.582031 207.984375 44.082031 209.046875 45.632812 210.03125 C 44.96875 221.886719 41.175781 273.238281 41.855469 276.199219 C 41.980469 276.917969 42.34375 277.574219 42.886719 278.066406 C 43.429688 278.554688 44.121094 278.851562 44.851562 278.902344 C 45.578125 278.957031 46.304688 278.765625 46.914062 278.359375 C 47.523438 277.953125 47.976562 277.355469 48.207031 276.660156 C 48.4375 275.890625 53.371094 241.957031 56.363281 215.410156 C 74.089844 222.640625 94.179688 223.519531 97.800781 223.566406 C 100.882812 285.09375 100.421875 281.390625 106.925781 279.511719 C 108.066406 279.171875 108.097656 279.511719 108.285156 272.21875 C 111.367188 274.871094 124.933594 285.523438 129.050781 286.324219 C 130.28125 286.558594 131.421875 284.089844 129.804688 281.238281 C 120.402344 264.695312 119.367188 272.328125 128.015625 261.398438 C 128.988281 263.757812 132.75 273.34375 134.183594 273.578125 C 137.804688 273.976562 136.417969 281.855469 138.636719 281.933594 C 142.585938 282.085938 163.042969 280.667969 164.644531 278.402344 C 165.324219 277.460938 163.859375 275.441406 161.976562 274.59375 C 141.566406 267.148438 149.875 281.023438 148.320312 237.316406 C 148.320312 236.207031 157.121094 226.015625 161.316406 213.066406 C 163.644531 205.867188 161.316406 202.753906 162.472656 199.191406 C 165.015625 190.792969 160.515625 192.546875 169.777344 192.070312 C 171.753906 195.894531 173.21875 193.613281 174.296875 198.238281 C 175.390625 203.1875 177.675781 207.796875 180.957031 211.664062 C 181.558594 204.605469 183.113281 197.664062 185.582031 191.023438 C 187.121094 190.882812 185.378906 189.386719 181.867188 212.605469 C 182.003906 212.757812 181.417969 254.90625 183.253906 255.769531 C 184.695312 256.234375 186.195312 256.492188 187.707031 256.542969 C 187.339844 256.835938 187.585938 266.992188 187.414062 266.992188 C 187.414062 267.378906 174.929688 271.433594 173.539062 277.707031 C 173.355469 279.082031 173.324219 279.652344 174.757812 279.652344 C 179.523438 279.386719 195.539062 275.394531 196.585938 275.394531 C 196.585938 277.105469 196.324219 277.246094 197.945312 277.230469 C 199.316406 277.230469 201.027344 277.230469 201.476562 276.597656 C 201.890625 275.566406 200.933594 259.023438 201.183594 257.097656 C 201.183594 256.941406 200.917969 257.097656 204.679688 257.097656 C 204.835938 279.09375 205.003906 277.015625 206.546875 277.460938 C 213.128906 278.585938 211.925781 280.035156 214.253906 241.464844 C 220.207031 246.859375 217.554688 246.921875 225.046875 242.113281 C 226.0625 243.390625 231.210938 249.480469 231.210938 249.527344 C 228.746094 254.335938 224.460938 263.585938 228.222656 267.609375 C 229.285156 268.519531 230.535156 266.855469 241.125 252.871094 C 245.289062 247.355469 243.113281 252.59375 245.597656 250.46875 C 250.082031 246.628906 248.679688 248.925781 236.347656 234.589844 C 243.578125 229.363281 242.789062 230.84375 237.070312 225.445312 C 205.898438 195.957031 217.152344 216.367188 256.632812 203.308594 C 257.589844 213.238281 264.835938 274.792969 266.300781 275.859375 C 267.300781 276.582031 270.617188 276.167969 271.648438 275.703125 C 273.421875 274.902344 271.21875 252.828125 267.980469 212.835938 C 281.007812 248.417969 294.019531 282.457031 294.019531 282.609375 C 295.746094 286.265625 300.046875 285.539062 299.816406 281.917969 C 299.769531 281.976562 276.445312 210.308594 272.019531 196.03125 Z M 244.734375 249.652344 C 244.007812 248.894531 243.839844 248.324219 243.191406 248.539062 C 241.972656 249.15625 230.425781 265.5 228.761719 266.546875 C 225.339844 261.488281 232.414062 250.019531 232.0625 249.3125 C 231.84375 249.019531 236.40625 247.769531 241.558594 241.867188 C 247.445312 248.679688 247.355469 247.492188 244.71875 249.652344 Z M 240.925781 241.046875 C 238.386719 244.246094 235.242188 246.910156 231.675781 248.894531 C 227.050781 243.777344 226.417969 243.023438 225.507812 241.910156 C 238.195312 233.878906 234.21875 233.1875 240.910156 241.046875 Z M 282.363281 171.414062 C 282.101562 183.269531 277.644531 190.835938 271.757812 195.199219 C 266.222656 177.363281 267.703125 182.773438 268.488281 176.933594 C 283.90625 172.785156 282.378906 169.703125 282.347656 171.414062 Z M 284.722656 147.609375 C 281.5 144.019531 276.535156 142.984375 271.925781 141.921875 C 275.765625 139.964844 280.28125 137.527344 281.421875 134.476562 C 282.964844 129.417969 280.605469 117.257812 279.652344 114.296875 C 275.6875 101.886719 273.097656 105.832031 278.109375 104.246094 C 288.253906 111.089844 285.769531 132.101562 284.707031 147.609375 Z M 224.429688 147.855469 C 215.457031 148.890625 220.3125 151.03125 218.261719 152.234375 C 216.8125 153.066406 216.320312 154.808594 218.664062 155.320312 C 220.390625 155.703125 220.207031 155.320312 219.402344 155.828125 C 217.675781 156.859375 217.230469 159.359375 223.691406 158.710938 C 222.949219 160.128906 219.234375 167.265625 218.21875 168.53125 C 217.847656 168.992188 192.578125 167.421875 175.898438 165.445312 C 176.039062 165.292969 192.257812 144.867188 196.1875 141.367188 C 196.558594 141.199219 223.9375 144.449219 224.089844 144.449219 C 223.785156 145.585938 223.902344 146.796875 224.414062 147.855469 Z M 219.695312 157.554688 C 218.539062 156.011719 226.308594 156.367188 224.554688 154.6875 C 224.398438 154.59375 209.566406 153.871094 225.167969 152.144531 C 225.3125 152.109375 225.4375 152.027344 225.523438 151.910156 C 225.609375 151.792969 225.648438 151.648438 225.636719 151.503906 C 225.621094 151.355469 225.554688 151.222656 225.449219 151.121094 C 225.34375 151.019531 225.207031 150.960938 225.0625 150.957031 C 222.285156 151.03125 220.558594 151.542969 220.003906 150.957031 C 219.09375 149.183594 224.320312 149.199219 225.199219 148.875 C 226.742188 148.457031 223.953125 145.792969 225.429688 144.25 C 226.203125 143.554688 228.4375 147.980469 228.761719 148.273438 C 233.246094 151.25 250.992188 123.929688 261.828125 122.914062 C 264.511719 122.652344 257.203125 122.328125 254.214844 125.210938 C 248.046875 107.757812 248.203125 108.375 248.246094 107.699219 C 248.449219 105.015625 251.46875 103.875 254.074219 104.304688 C 256.679688 104.738281 257.234375 106.433594 260.042969 106.449219 C 261.476562 106.457031 262.898438 106.175781 264.222656 105.621094 C 265.546875 105.066406 266.746094 104.253906 267.75 103.226562 C 269.734375 104.054688 271.847656 104.527344 273.992188 104.628906 C 277.476562 112.089844 278.695312 112.816406 280.019531 121.308594 C 280.714844 125.734375 282.132812 133.226562 279.019531 136.109375 C 272.464844 142.183594 228.5625 160.589844 219.679688 157.554688 Z M 227.914062 144.867188 C 230.996094 145.265625 230.535156 144.867188 229.933594 146.207031 C 229.117188 147.917969 229.6875 147.378906 227.898438 144.867188 Z M 194.9375 63.855469 C 186.875 61.355469 195.308594 51.890625 194.9375 54.898438 C 194.9375 55.050781 194.492188 55.191406 194.367188 55.265625 C 192.828125 56.144531 190.882812 62.976562 197.730469 63.253906 C 201.429688 63.421875 197.328125 64.609375 194.9375 63.855469 Z M 195.308594 54.605469 C 192.996094 48.4375 192.902344 49.410156 192.394531 46.585938 C 195.476562 46.234375 198.808594 46.480469 196.804688 45.324219 C 195.710938 44.691406 194.628906 45.433594 195.125 45.015625 C 199.75 40.621094 198.097656 36.210938 199.023438 38.601562 C 199.46875 39.660156 200.171875 40.585938 201.074219 41.296875 C 201.972656 42.007812 203.035156 42.480469 204.167969 42.667969 C 205.296875 42.859375 206.457031 42.757812 207.539062 42.378906 C 208.621094 42 209.589844 41.351562 210.355469 40.5 C 211.648438 43.9375 213.097656 45.722656 217.183594 46.125 C 219.914062 46.386719 219.480469 46.046875 220.515625 45.015625 C 224.476562 41.054688 228.222656 48.871094 223.410156 51.183594 C 221.65625 51.796875 224.167969 59.722656 228.871094 57.703125 C 232.382812 56.160156 231.429688 48.871094 227.511719 48.578125 C 226.0625 48.46875 226.804688 48.097656 227.035156 48.066406 C 232.121094 47.34375 234.28125 56.128906 229.777344 58.628906 C 225.648438 60.925781 220.699219 56.128906 222.546875 51.335938 C 219.234375 51.78125 219.25 56.113281 221.007812 58.96875 C 221.222656 59.304688 214.085938 59.582031 214.75 64.792969 C 215.195312 67.046875 217.832031 67.554688 220.097656 67.507812 C 215.273438 78.761719 221.421875 80.335938 226.757812 74.984375 C 227.199219 76.40625 227.832031 77.757812 228.636719 79.007812 C 231.152344 82.199219 204.171875 90.167969 204.957031 77.742188 C 206.480469 76.886719 207.921875 75.902344 209.277344 74.800781 C 209.476562 73.261719 209.441406 71.703125 209.167969 70.175781 C 208.472656 66.152344 201.769531 71.839844 195.246094 54.574219 Z M 214.410156 107.589844 C 211.324219 105.214844 206.699219 87.425781 205.808594 83.15625 C 217.570312 90.09375 228.175781 80.980469 227.574219 82.292969 C 225.769531 86.085938 216.226562 104.890625 214.347656 107.558594 Z M 215.597656 118.089844 C 209.96875 118.71875 208.519531 111.152344 212.835938 109.300781 C 221.253906 106.1875 223.71875 117.148438 215.597656 118.089844 Z M 202.089844 79.132812 C 202.089844 79.132812 203.480469 78.421875 204.417969 77.898438 C 204.265625 81.398438 205.914062 82.03125 202.089844 79.101562 Z M 175.207031 109.777344 C 173.109375 106.601562 175.851562 108.5 182.714844 100.808594 C 188.0625 94.824219 193.660156 81.984375 200.457031 79.222656 C 200.84375 79.5625 202.910156 81.183594 204.882812 82.554688 C 206.039062 90.03125 209.96875 104.136719 212.867188 107.773438 C 213.007812 107.945312 206.007812 110.195312 210.785156 117.519531 C 219.171875 124.238281 226.046875 109.808594 216.644531 107.882812 C 214.441406 107.449219 215.65625 110.441406 226.234375 86.886719 C 229.316406 79.949219 227.699219 82.261719 230.289062 80.320312 C 232.523438 81.535156 238.734375 81.953125 238.734375 75.292969 C 243.976562 79.625 250.558594 77.976562 248.832031 73.351562 C 264.558594 77.621094 266.453125 86.976562 273.652344 93.578125 C 278.277344 97.863281 282.007812 97.398438 281.640625 100.144531 C 281.640625 101.484375 277.167969 104.9375 270.230469 102.996094 C 267.855469 102.332031 267.59375 101.839844 267.148438 102.394531 C 266.117188 103.511719 264.832031 104.367188 263.402344 104.886719 C 261.972656 105.40625 260.441406 105.578125 258.929688 105.386719 C 257.621094 105.046875 256.878906 104.261719 255.03125 103.597656 C 252.519531 102.871094 248.863281 103.597656 247.738281 106.21875 C 244.101562 91.574219 245.101562 89.628906 244.269531 88.796875 C 241.03125 92.097656 251.808594 121.511719 253.273438 125.980469 C 250.652344 127.523438 243.871094 134.261719 241.726562 136.402344 C 241.1875 136.941406 229.980469 134.382812 192.75 134.199219 C 195.957031 127.800781 201.304688 123.730469 201.582031 122.960938 C 201.675781 122.453125 195.308594 116.054688 196.480469 108.992188 C 198.253906 98.203125 202.878906 92.25 200.917969 94.023438 C 197.21875 99.789062 194.335938 106.25 195.769531 113.0625 C 195.109375 113.539062 194.347656 113.847656 193.542969 113.96875 C 192.738281 114.089844 191.917969 114.015625 191.144531 113.757812 C 188.0625 112.601562 187.324219 107.914062 179.121094 111.289062 C 178.394531 111.488281 177.621094 111.453125 176.914062 111.179688 C 176.210938 110.90625 175.609375 110.417969 175.207031 109.777344 Z M 179.660156 112.152344 C 182.464844 111.675781 184.625 110.613281 186.488281 111.769531 C 188.03125 112.722656 190.960938 117.132812 195.894531 114.359375 C 197.25 116.347656 196.773438 119.351562 200.195312 122.804688 C 185.78125 137.050781 194.539062 141.121094 170.070312 140.765625 C 170.441406 136.988281 171.289062 127.953125 171.707031 123.097656 C 179.261719 122.203125 174.375 127.246094 179.660156 112.152344 Z M 172.105469 99.957031 C 172.105469 107.019531 168.886719 141.320312 168.097656 148.335938 C 160.808594 150.769531 112.925781 164.230469 96.320312 166.835938 C 96.660156 156.859375 99.589844 127.445312 102.269531 117.828125 C 110.535156 113.757812 164.105469 101.128906 172.105469 99.957031 Z M 62.652344 151.308594 C 67.277344 148.226562 90.492188 143.15625 97.601562 141.519531 C 97.601562 141.890625 97.339844 143.773438 97.292969 144.140625 C 60.09375 151.742188 67.539062 153.421875 62.699219 151.308594 Z M 104.277344 82.074219 C 95.488281 102.503906 95.027344 96.476562 102.902344 98.925781 C 103.71875 99.1875 91.585938 124.824219 91.542969 125.671875 C 89.675781 162.519531 90.402344 117.78125 94.039062 80.964844 C 94.546875 75.894531 92.511719 74.921875 104.289062 82.074219 Z M 94.285156 135.445312 C 94.285156 135.609375 94.222656 135.769531 94.105469 135.882812 C 93.988281 136 93.832031 136.0625 93.667969 136.0625 C 93.503906 136.0625 93.347656 136 93.234375 135.882812 C 93.117188 135.769531 93.050781 135.609375 93.050781 135.445312 C 93.035156 131.964844 94.285156 130.144531 94.285156 135.445312 Z M 88.566406 74.367188 C 95.613281 76.789062 93.945312 74.691406 92.851562 85.976562 C 92.851562 85.652344 91.417969 84.804688 88.121094 81.445312 C 89.597656 80.101562 88.953125 76.324219 88.566406 74.367188 Z M 88.75 90.03125 C 89.800781 89.769531 89.953125 86.949219 90.046875 85.003906 C 93.53125 88.242188 92.789062 85.835938 92.019531 94.917969 C 89.953125 89.507812 89.96875 89.832031 89.691406 89.707031 C 89.304688 90.476562 87.257812 91.433594 86.191406 90.585938 C 86.085938 91.679688 86.671875 104.304688 86.761719 107.867188 C 61.558594 63.636719 78.113281 96.691406 82.96875 87.75 C 87.457031 90.554688 85.867188 90.753906 88.78125 90.03125 Z M 102.242188 44.089844 C 106.867188 43.996094 107.574219 52.785156 102.441406 52.984375 C 97.308594 53.1875 97.183594 44.183594 102.242188 44.089844 Z M 97.816406 38.09375 C 98.1875 39.3125 98.863281 41.792969 99.359375 44.058594 C 96.90625 46.109375 98.433594 47.757812 96.613281 48.035156 C 96.273438 47.171875 96.273438 46.679688 95.8125 47.171875 C 95.8125 48.453125 96.226562 48.097656 94.5 48.421875 C 91.585938 48.945312 93.761719 48.636719 91.988281 46.601562 C 91.359375 45.8125 90.527344 45.210938 89.582031 44.863281 C 88.636719 44.515625 87.613281 44.433594 86.621094 44.628906 C 85.632812 44.824219 84.714844 45.285156 83.972656 45.964844 C 83.226562 46.644531 82.683594 47.515625 82.398438 48.484375 C 81.058594 48.484375 76.910156 48.328125 76.234375 48.222656 C 75.308594 45.492188 73.644531 35.765625 73.628906 35.640625 C 85.175781 42.796875 94.871094 40.589844 97.816406 38.09375 Z M 92.265625 51.96875 C 91.308594 54.835938 85.191406 55.867188 83.648438 51.273438 C 81.199219 44.089844 95.210938 42.996094 92.234375 51.96875 Z M 67.277344 57.6875 C 65.273438 56.65625 64.761719 50.441406 68.277344 49.980469 C 70.558594 49.703125 71.777344 52.230469 72.6875 52.644531 C 75.03125 53.695312 76.480469 52.230469 76.480469 49.640625 L 82.214844 49.640625 C 81.890625 57.65625 94.546875 57.347656 93.207031 49.777344 C 97.0625 49.609375 95.320312 47.144531 97.199219 55.484375 C 95.964844 56.085938 93.871094 56.363281 93.777344 56.699219 C 94.207031 57.378906 98.402344 56.992188 98.402344 55.359375 C 97.925781 52.570312 97.570312 50.890625 97.324219 49.964844 C 97.601562 50.828125 98.050781 51.621094 98.652344 52.300781 C 99.25 52.980469 99.984375 53.527344 100.808594 53.910156 C 100.898438 55.097656 100.914062 55.992188 100.945312 57.5625 C 101.421875 76.402344 87.070312 69.25 86.886719 71.4375 C 86.886719 72.210938 88.71875 79.148438 87.425781 80.363281 C 83.601562 79.441406 71.269531 71.59375 70.882812 70.574219 C 70.867188 52.863281 70.835938 59.507812 67.277344 57.6875 Z M 84.882812 80.8125 C 83.75 83.605469 82.40625 86.304688 80.859375 88.890625 C 70.605469 82.03125 69.433594 78.007812 65.917969 71.839844 C 74.199219 70.421875 65.90625 71.976562 84.882812 80.828125 Z M 64.839844 72.300781 C 93.636719 121.632812 90.695312 113.015625 90.140625 121.015625 C 86.347656 118.675781 65.917969 105.816406 63.40625 103.78125 C 64.007812 101.992188 70.050781 96.476562 70.390625 95.457031 C 70.730469 94.441406 52.0625 75.878906 52.121094 75.863281 C 56.234375 74.347656 60.460938 73.160156 64.761719 72.316406 Z M 42.59375 141.675781 C 45.109375 142.277344 44.523438 142.691406 45.0625 141.8125 C 51.738281 131.023438 54.773438 110.796875 55.066406 110.550781 C 55.960938 111.644531 53.679688 129.914062 46.03125 141.382812 C 44.582031 143.554688 44.566406 141.382812 48.777344 146.332031 C 60.816406 143.386719 81.644531 141.210938 97.910156 139.5 C 97.910156 139.902344 97.785156 140.550781 97.738281 141.042969 C 87.179688 143.15625 54.433594 148.441406 61.21875 155.042969 C 63.34375 156.84375 94.671875 168.914062 96.199219 167.375 C 112.089844 165.339844 164.953125 151.015625 168.839844 149.398438 C 169.253906 149.121094 169.207031 149.769531 169.980469 141.859375 C 179.105469 142.167969 182.3125 143.402344 188.03125 139.222656 C 189.691406 138.023438 191.183594 136.609375 192.472656 135.015625 C 207.65625 135.199219 225.664062 135.800781 240.800781 137.511719 C 225.601562 153.066406 234.328125 144.695312 230.320312 144.15625 C 223.582031 143.230469 195.925781 140.6875 196.09375 140.949219 C 195.664062 140.347656 175.683594 163.351562 174.511719 165.476562 C 173.339844 167.605469 217.953125 170.566406 218.910156 169.5625 C 219.867188 168.5625 224.261719 160.128906 225.078125 158.632812 C 232.910156 157.617188 243.578125 156.136719 270.476562 142.738281 C 293.757812 148.566406 286.402344 159.402344 275.101562 163.644531 C 271.15625 165.183594 233.277344 176.128906 182.234375 179.9375 C 88.90625 186.890625 32.867188 167.605469 35.890625 167.605469 C 36.644531 167.605469 36.984375 166.617188 38.292969 164.183594 C 44.890625 169.996094 61.632812 175.113281 57.488281 169.75 C 58.347656 169.875 59.21875 169.875 60.078125 169.75 C 61.710938 169.378906 61.820312 167.820312 60.507812 166.664062 C 59.847656 166.09375 59.753906 166.28125 60.339844 166.234375 C 62.898438 166.046875 63.050781 164.058594 61.0625 162.933594 C 58.382812 161.390625 53.664062 161.5625 52.308594 159.09375 C 51.320312 157.308594 54.835938 155.503906 53.617188 153.546875 C 52.769531 152.1875 51.414062 152.742188 50.085938 153.636719 C 47.40625 155.503906 48.375 155.65625 46.449219 153.886719 C 49.964844 151.433594 51.074219 152.636719 50.503906 150.894531 C 49.84375 148.96875 48.738281 147.226562 47.273438 145.8125 C 45.8125 144.398438 44.03125 143.347656 42.085938 142.753906 C 29.277344 140.132812 24.742188 148.921875 24.34375 148.921875 C 23.480469 146.59375 31.28125 139.023438 42.519531 141.644531 Z M 52.03125 160.421875 C 53.863281 162.71875 61.417969 163.148438 61.28125 164.816406 C 60.632812 166.574219 52.105469 162.285156 52.492188 164.554688 C 52.738281 165.230469 53.230469 164.875 56.253906 165.925781 C 62.1875 168.007812 61.867188 170.164062 52.925781 167.144531 C 51.273438 166.585938 51.042969 167.144531 51.304688 167.742188 C 51.566406 168.34375 57.101562 169.53125 56.792969 170.828125 C 56.46875 171.828125 43.519531 168.050781 38.601562 163.691406 C 40.398438 160.046875 42.949219 156.828125 46.078125 154.238281 C 47.328125 155.457031 47.851562 156.011719 48.160156 155.90625 C 48.46875 155.796875 52.910156 151.910156 53.078125 154.363281 C 53.109375 156.027344 49.546875 157.398438 51.953125 160.390625 Z M 27.734375 175.375 C 41.316406 182.882812 41.792969 174.15625 34.347656 197.898438 C 30.386719 191.007812 28.09375 183.28125 27.65625 175.34375 Z M 11.222656 283.398438 C 10.667969 284.476562 8.140625 285.292969 8.789062 281.855469 C 11.609375 267.269531 31.03125 215.566406 40.019531 180.324219 C 43.414062 181.386719 45.695312 182.019531 49.101562 182.898438 C 46.558594 189.972656 11.855469 282.425781 11.222656 283.398438 Z M 47.574219 273.300781 C 46.878906 277.925781 43.320312 278.1875 42.949219 273.207031 C 42.519531 266.59375 44.707031 249.28125 46.1875 210.417969 C 49.21875 212.25 52.382812 213.851562 55.652344 215.210938 C 55.050781 219.914062 49.609375 259.777344 47.574219 273.300781 Z M 106.742188 278.292969 C 101.4375 280.328125 102.519531 282.300781 98.648438 223.566406 C 99.375 223.566406 103.78125 223.644531 107.699219 223.304688 C 107.25 251.5 107.34375 274.410156 106.742188 278.292969 Z M 41.453125 206.039062 C 48.222656 187.539062 40.976562 198.5 60.09375 207.765625 C 77.050781 215.980469 92.34375 217.015625 111.226562 216.753906 C 112.121094 219.28125 112.769531 221.175781 112.910156 221.378906 C 94.808594 224.707031 58.660156 219.835938 41.453125 206.039062 Z M 108.359375 269.011719 C 109.269531 215.6875 106.078125 223.828125 113.324219 222.578125 C 116.207031 230.550781 117.625 234.328125 118.628906 237.023438 C 108.667969 263.988281 109.007812 262.644531 109.996094 263.230469 C 111.398438 264.15625 111.074219 262.863281 108.359375 269.011719 Z M 127.445312 260.226562 C 125.515625 262.761719 123.457031 265.203125 121.28125 267.535156 C 117.695312 266.085938 114.230469 264.371094 110.90625 262.398438 C 110.765625 262.308594 117.503906 242.25 118.921875 237.734375 C 126.582031 258.375 127.617188 260.011719 127.445312 260.226562 Z M 146.59375 269.628906 C 145.820312 269.859375 137.527344 271.851562 134.429688 272.359375 C 96.042969 193.257812 130.992188 222.023438 84.375 214.457031 C 73.582031 212.683594 58.796875 208.164062 50.378906 200.195312 C 43.90625 194.027344 45.109375 196.339844 49.703125 183.082031 C 52.167969 183.578125 85.960938 192.78125 140.472656 192.78125 C 148.351562 212.992188 147.71875 263 146.59375 269.628906 Z M 148.132812 234.972656 C 147.378906 223.644531 146.699219 206.5 141.675781 192.765625 C 159.328125 192.855469 157.230469 192.148438 157.953125 193.058594 C 167.34375 204.820312 156.660156 222.917969 148.148438 234.972656 Z M 161.316406 198.484375 C 159.140625 191.070312 155.394531 192.855469 162.300781 192.488281 C 162.128906 194.507812 161.804688 196.511719 161.332031 198.484375 Z M 173.480469 194.351562 C 169.625 191.5625 171.675781 192.085938 173.324219 191.992188 C 173.449219 194.460938 173.664062 194.476562 173.496094 194.351562 Z M 200.242188 276.058594 C 197.050781 276.058594 197.667969 276.796875 197.589844 274.996094 C 197.480469 272.757812 180.0625 278.585938 174.464844 278.585938 C 174.988281 273.960938 183.714844 269.832031 187.96875 267.964844 C 187.96875 267.964844 188.941406 267.964844 192.226562 268.320312 C 202.863281 269.445312 200.257812 264.726562 200.257812 276.058594 Z M 187.910156 256.710938 C 195.152344 257.328125 200.535156 257.035156 200.519531 257.1875 C 200.257812 259.117188 200.519531 267.132812 200.210938 267.195312 C 196.238281 267.945312 192.160156 267.910156 188.203125 267.085938 C 187.96875 256.140625 188.09375 257.359375 187.910156 256.710938 Z M 26.332031 173.125 C 23.863281 171.582031 21.84375 170.210938 23.015625 162.488281 C 43.398438 179.753906 163.304688 195.988281 271.941406 165.738281 C 284.277344 162.300781 286.09375 155.980469 286.078125 156.488281 C 285.679688 170.535156 281.578125 172.691406 269.214844 176.007812 C 166.140625 203.585938 50.917969 189.1875 26.332031 173.125 Z M 206.253906 276.226562 C 205.851562 273.652344 205.730469 260.164062 205.699219 257.144531 C 208.9375 257.050781 207.964844 259.734375 209.675781 237.71875 C 209.785156 237.8125 211.21875 212.035156 212.160156 205.035156 C 212.28125 204.066406 212.683594 203.832031 212.652344 205.035156 C 212.652344 205.808594 212.652344 206.824219 212.574219 208.121094 C 211.296875 243.929688 209.492188 237.410156 213.035156 240.492188 C 210.355469 278.140625 211.585938 278.261719 206.253906 276.226562 Z M 217.722656 207.394531 C 217.355469 207.394531 217.984375 207.871094 212.882812 203.21875 C 216.199219 202.769531 245.257812 202.601562 260.011719 191.113281 C 261.257812 194.613281 260.964844 193.796875 263.203125 199.949219 C 250.050781 205.484375 231.582031 208.042969 217.722656 207.394531 Z M 266.949219 274.917969 C 266.714844 274.640625 258.605469 216.476562 257.097656 203.230469 C 265.328125 200.613281 262.617188 198.359375 266.871094 210.015625 C 270.894531 271.773438 273.5625 278.230469 266.949219 274.917969 Z M 295.421875 282.75 C 295.035156 282.070312 259.164062 187.167969 256.726562 179.921875 C 259.808594 179.183594 263.742188 178.195312 266.085938 177.578125 C 274.6875 213.035156 295.976562 268.953125 297.917969 281.886719 C 298.398438 285.03125 296.5625 284.859375 295.421875 282.75 Z M 295.421875 282.75 " fill-opacity="1" fill-rule="nonzero"/></svg>