<svg xmlns="http://www.w3.org/2000/svg" xmlns:xlink="http://www.w3.org/1999/xlink" width="40" zoomAndPan="magnify" viewBox="0 0 30 30.000001" height="40" preserveAspectRatio="xMidYMid meet" version="1.0"><defs><clipPath id="fe891feeba"><path d="M 1.171875 0 L 28.753906 0 L 28.753906 29 L 1.171875 29 Z M 1.171875 0 " clip-rule="nonzero"/></clipPath></defs><g clip-path="url(#fe891feeba)"><path fill="#ffffff" d="M 2.902344 1.355469 L 18.84375 0.175781 C 20.800781 0.015625 21.304688 0.125 22.535156 1.015625 L 27.632812 4.621094 C 28.46875 5.234375 28.753906 5.390625 28.753906 6.070312 L 28.753906 25.78125 C 28.753906 27.015625 28.296875 27.746094 26.734375 27.859375 L 8.21875 28.980469 C 7.066406 29.035156 6.488281 28.871094 5.875 28.085938 L 2.121094 23.195312 C 1.453125 22.300781 1.175781 21.625 1.175781 20.839844 L 1.175781 3.320312 C 1.175781 2.316406 1.621094 1.46875 2.902344 1.355469 Z M 2.902344 1.355469 " fill-opacity="1" fill-rule="nonzero"/><path fill="#000000" d="M 18.84375 0.175781 L 2.902344 1.355469 C 1.621094 1.476562 1.175781 2.316406 1.175781 3.320312 L 1.175781 20.839844 C 1.175781 21.609375 1.453125 22.300781 2.121094 23.195312 L 5.875 28.085938 C 6.488281 28.855469 7.050781 29.035156 8.21875 28.980469 L 26.734375 27.859375 C 28.296875 27.746094 28.753906 27.015625 28.753906 25.78125 L 28.753906 6.089844 C 28.753906 5.457031 28.492188 5.269531 27.75 4.722656 L 22.535156 1.035156 C 21.304688 0.140625 20.800781 0.0351562 18.84375 0.195312 Z M 8.640625 5.757812 C 7.128906 5.851562 6.789062 5.875 5.929688 5.175781 L 3.746094 3.441406 C 3.523438 3.210938 3.632812 2.925781 4.203125 2.871094 L 19.519531 1.75 C 20.445312 1.628906 21.269531 1.871094 21.980469 2.480469 L 24.605469 4.40625 C 24.722656 4.457031 24.988281 4.789062 24.660156 4.789062 L 8.835938 5.742188 L 8.640625 5.765625 Z M 6.878906 25.609375 L 6.878906 8.886719 C 6.878906 8.15625 7.105469 7.816406 7.769531 7.761719 L 25.953125 6.691406 C 26.5625 6.636719 26.847656 7.03125 26.847656 7.761719 L 26.847656 24.375 C 26.847656 25.105469 26.726562 25.730469 25.726562 25.78125 L 8.339844 26.789062 C 7.324219 26.851562 6.878906 26.515625 6.878906 25.609375 Z M 24.046875 9.785156 C 24.15625 10.285156 24.046875 10.785156 23.546875 10.851562 L 23.210938 10.914062 C 23.066406 10.945312 22.945312 11.015625 22.851562 11.132812 C 22.753906 11.246094 22.707031 11.378906 22.707031 11.527344 L 22.707031 22.695312 C 22.707031 24.417969 20.171875 24.375 18.960938 22.84375 L 14.621094 16.007812 C 14.546875 15.886719 14.445312 15.800781 14.316406 15.75 C 14.1875 15.699219 14.054688 15.695312 13.921875 15.734375 C 13.785156 15.773438 13.675781 15.847656 13.59375 15.960938 C 13.511719 16.070312 13.46875 16.199219 13.46875 16.335938 L 13.46875 22.527344 C 13.472656 22.667969 13.515625 22.792969 13.597656 22.90625 C 13.683594 23.015625 13.792969 23.089844 13.925781 23.128906 C 14.671875 23.34375 14.964844 23.570312 15.035156 23.765625 C 15.191406 24.148438 14.796875 24.210938 14.546875 24.210938 L 10.320312 24.210938 C 10 24.210938 9.828125 24.242188 9.851562 23.808594 C 9.875 23.371094 10.398438 23.238281 10.871094 23.132812 C 11.011719 23.101562 11.128906 23.03125 11.21875 22.917969 C 11.308594 22.804688 11.355469 22.675781 11.351562 22.527344 L 11.351562 12.546875 C 11.355469 12.386719 11.300781 12.246094 11.191406 12.128906 C 11.082031 12.007812 10.945312 11.941406 10.785156 11.929688 L 10.632812 11.929688 C 10.375 11.90625 10.199219 11.773438 10.105469 11.535156 C 10.011719 11.296875 10.050781 11.082031 10.222656 10.890625 C 10.410156 10.695312 10.640625 10.59375 10.90625 10.585938 L 14.679688 10.324219 C 14.921875 10.304688 15.109375 10.398438 15.242188 10.605469 L 19.609375 17.3125 C 19.679688 17.429688 19.78125 17.515625 19.914062 17.566406 C 20.046875 17.617188 20.179688 17.625 20.3125 17.582031 C 20.449219 17.542969 20.554688 17.46875 20.640625 17.355469 C 20.722656 17.242188 20.761719 17.113281 20.757812 16.972656 L 20.757812 11.867188 C 20.761719 11.710938 20.710938 11.570312 20.605469 11.453125 C 20.5 11.335938 20.371094 11.269531 20.214844 11.25 C 20.0625 11.234375 19.929688 11.167969 19.828125 11.054688 C 19.722656 10.9375 19.667969 10.804688 19.664062 10.648438 C 19.664062 10.492188 19.710938 10.355469 19.808594 10.238281 C 19.910156 10.117188 20.035156 10.046875 20.1875 10.023438 L 20.207031 10.023438 L 24.070312 9.808594 Z M 24.046875 9.785156 " fill-opacity="1" fill-rule="evenodd"/></g></svg>