<svg xmlns="http://www.w3.org/2000/svg" xmlns:xlink="http://www.w3.org/1999/xlink" width="40" zoomAndPan="magnify" viewBox="0 0 30 30.000001" height="40" preserveAspectRatio="xMidYMid meet" version="1.0"><defs><clipPath id="73085d731d"><path d="M 1.171875 0 L 28.753906 0 L 28.753906 29 L 1.171875 29 Z M 1.171875 0 " clip-rule="nonzero"/></clipPath></defs><g clip-path="url(#73085d731d)"><path fill="#000000" d="M 2.90625 1.355469 L 18.886719 0.175781 C 20.851562 0.015625 21.355469 0.125 22.585938 1.015625 L 27.695312 4.621094 C 28.535156 5.234375 28.820312 5.390625 28.820312 6.070312 L 28.820312 25.78125 C 28.820312 27.015625 28.363281 27.746094 26.800781 27.859375 L 8.238281 28.980469 C 7.082031 29.035156 6.5 28.871094 5.886719 28.085938 L 2.121094 23.195312 C 1.457031 22.300781 1.175781 21.625 1.175781 20.839844 L 1.175781 3.320312 C 1.175781 2.316406 1.621094 1.46875 2.90625 1.355469 Z M 2.90625 1.355469 " fill-opacity="1" fill-rule="nonzero"/><path fill="#ffffff" d="M 18.886719 0.175781 L 2.90625 1.355469 C 1.621094 1.476562 1.175781 2.316406 1.175781 3.320312 L 1.175781 20.839844 C 1.175781 21.609375 1.457031 22.300781 2.121094 23.195312 L 5.886719 28.085938 C 6.5 28.855469 7.066406 29.035156 8.238281 28.980469 L 26.800781 27.859375 C 28.363281 27.746094 28.820312 27.015625 28.820312 25.78125 L 28.820312 6.089844 C 28.820312 5.457031 28.558594 5.269531 27.816406 4.722656 L 22.585938 1.035156 C 21.355469 0.140625 20.851562 0.0351562 18.886719 0.195312 Z M 8.660156 5.757812 C 7.144531 5.851562 6.804688 5.875 5.941406 5.175781 L 3.75 3.441406 C 3.53125 3.210938 3.640625 2.925781 4.207031 2.871094 L 19.5625 1.75 C 20.496094 1.628906 21.316406 1.871094 22.03125 2.480469 L 24.664062 4.40625 C 24.78125 4.457031 25.046875 4.789062 24.714844 4.789062 L 8.855469 5.742188 L 8.660156 5.765625 Z M 6.894531 25.609375 L 6.894531 8.886719 C 6.894531 8.15625 7.121094 7.816406 7.785156 7.761719 L 26.015625 6.691406 C 26.625 6.636719 26.910156 7.03125 26.910156 7.761719 L 26.910156 24.375 C 26.910156 25.105469 26.789062 25.730469 25.785156 25.78125 L 8.355469 26.789062 C 7.339844 26.851562 6.890625 26.515625 6.890625 25.609375 Z M 24.105469 9.785156 C 24.210938 10.285156 24.105469 10.785156 23.601562 10.851562 L 23.265625 10.914062 C 23.117188 10.945312 23 11.015625 22.902344 11.132812 C 22.808594 11.246094 22.761719 11.378906 22.761719 11.527344 L 22.761719 22.695312 C 22.761719 24.417969 20.21875 24.375 19.007812 22.84375 L 14.65625 16.007812 C 14.582031 15.886719 14.480469 15.800781 14.347656 15.75 C 14.21875 15.699219 14.085938 15.695312 13.953125 15.734375 C 13.816406 15.773438 13.707031 15.847656 13.625 15.960938 C 13.539062 16.070312 13.5 16.199219 13.5 16.335938 L 13.5 22.527344 C 13.5 22.667969 13.542969 22.792969 13.628906 22.90625 C 13.714844 23.015625 13.824219 23.089844 13.957031 23.128906 C 14.707031 23.34375 14.996094 23.570312 15.070312 23.765625 C 15.226562 24.148438 14.832031 24.210938 14.578125 24.210938 L 10.34375 24.210938 C 10.023438 24.210938 9.851562 24.242188 9.871094 23.808594 C 9.894531 23.371094 10.417969 23.238281 10.894531 23.132812 C 11.035156 23.101562 11.152344 23.03125 11.242188 22.917969 C 11.332031 22.804688 11.378906 22.675781 11.378906 22.527344 L 11.378906 12.546875 C 11.378906 12.386719 11.324219 12.246094 11.214844 12.128906 C 11.105469 12.007812 10.96875 11.941406 10.808594 11.929688 L 10.65625 11.929688 C 10.398438 11.90625 10.222656 11.773438 10.128906 11.535156 C 10.035156 11.296875 10.074219 11.082031 10.246094 10.890625 C 10.433594 10.695312 10.664062 10.59375 10.933594 10.585938 L 14.710938 10.324219 C 14.957031 10.304688 15.144531 10.398438 15.277344 10.605469 L 19.652344 17.3125 C 19.726562 17.429688 19.828125 17.515625 19.960938 17.566406 C 20.089844 17.617188 20.226562 17.625 20.359375 17.582031 C 20.496094 17.542969 20.605469 17.46875 20.6875 17.355469 C 20.769531 17.242188 20.8125 17.113281 20.808594 16.972656 L 20.808594 11.867188 C 20.808594 11.710938 20.757812 11.570312 20.652344 11.453125 C 20.546875 11.335938 20.417969 11.269531 20.261719 11.25 C 20.105469 11.234375 19.976562 11.167969 19.875 11.054688 C 19.769531 10.9375 19.714844 10.804688 19.710938 10.648438 C 19.707031 10.492188 19.757812 10.355469 19.855469 10.238281 C 19.953125 10.117188 20.082031 10.046875 20.234375 10.023438 L 20.253906 10.023438 L 24.128906 9.808594 Z M 24.105469 9.785156 " fill-opacity="1" fill-rule="evenodd"/></g></svg>