<svg xmlns="http://www.w3.org/2000/svg" xmlns:xlink="http://www.w3.org/1999/xlink" width="400" zoomAndPan="magnify" viewBox="0 0 300 299.999988" height="400" preserveAspectRatio="xMidYMid meet" version="1.0"><defs><clipPath id="50c4d1e240"><path d="M 11.0625 124 L 83 124 L 83 194 L 11.0625 194 Z M 11.0625 124 " clip-rule="nonzero"/></clipPath><clipPath id="e195663ed0"><path d="M 27 52 L 289.3125 52 L 289.3125 288 L 27 288 Z M 27 52 " clip-rule="nonzero"/></clipPath></defs><path fill="#ffffff" d="M 105.894531 230.5625 C 108.425781 229.667969 111.019531 228.957031 113.65625 228.4375 L 113.976562 229.609375 C 114.011719 229.746094 114.097656 229.867188 114.214844 229.945312 C 114.332031 230.027344 114.472656 230.0625 114.613281 230.046875 L 125.050781 228.832031 C 127.921875 222.292969 133.195312 212.386719 133.269531 212.234375 C 133.195312 209.761719 133.269531 207.683594 133.269531 205.316406 C 127.300781 207.53125 116.253906 211.734375 110.480469 214.421875 C 110.351562 214.503906 110.25 214.625 110.191406 214.773438 C 110.136719 214.914062 110.125 215.074219 110.164062 215.222656 C 110.164062 215.222656 110.269531 215.605469 110.40625 216.148438 C 107.582031 216.148438 99.117188 215.738281 97.082031 217.667969 C 96.765625 218.105469 96.609375 218.644531 96.640625 219.183594 C 96.519531 221.277344 97.570312 237.542969 99.238281 242.320312 C 100.105469 244.824219 101.929688 244.550781 103.175781 242.15625 C 104.617188 238.542969 105.542969 234.75 105.925781 230.882812 C 105.925781 230.683594 105.878906 230.699219 105.894531 230.5625 Z M 104.148438 216.984375 C 106 216.832031 106.578125 216.863281 110.558594 216.742188 C 111.273438 219.441406 112.746094 224.996094 113.503906 227.832031 C 110.824219 228.246094 108.179688 228.859375 105.589844 229.667969 C 104.785156 225.484375 104.300781 221.242188 104.148438 216.984375 Z M 104.148438 216.984375 " fill-opacity="1" fill-rule="nonzero"/><path fill="#ffffff" d="M 245.726562 84.199219 C 246.105469 83.667969 245.617188 82.984375 245.207031 82.453125 C 246.371094 81.261719 247.660156 80.199219 249.050781 79.285156 C 251.402344 78.113281 253.550781 76.578125 255.417969 74.730469 C 256.191406 73.925781 257.652344 72.273438 257.105469 71.304688 C 256.558594 70.332031 255.585938 70.269531 254.261719 70.832031 C 254.835938 70.230469 255.304688 69.539062 255.644531 68.785156 C 256.070312 67.601562 255.070312 66.644531 252.894531 67.523438 C 253.6875 66.265625 253.867188 64.945312 252.53125 64.308594 C 251.453125 63.792969 249.871094 65.023438 248.960938 65.824219 C 247.171875 67.386719 245.492188 69.070312 243.933594 70.863281 C 242.976562 68.859375 241.457031 66.554688 239.558594 67.28125 C 237.65625 68.011719 239.132812 71.273438 240.105469 73.046875 L 236.65625 75.429688 C 236.132812 75.148438 235.542969 75.015625 234.953125 75.050781 C 231.035156 75.71875 213.03125 89.402344 211.207031 89.402344 C 209.808594 89.402344 189.847656 79.84375 172.589844 77.082031 C 172.554688 76.980469 172.492188 76.886719 172.410156 76.816406 C 172.328125 76.75 172.226562 76.703125 172.117188 76.6875 C 169.109375 76.175781 166.054688 75.949219 163.003906 76.007812 C 162.910156 76.011719 162.820312 76.039062 162.738281 76.082031 C 162.65625 76.128906 162.585938 76.191406 162.53125 76.265625 L 161.253906 76.265625 C 160.953125 75.035156 159.828125 72.199219 159.433594 71.105469 C 160.464844 70.210938 161.894531 69.753906 162.636719 68.3125 C 164.003906 65.644531 163.945312 61 163.566406 58.027344 C 165.28125 56.722656 165.328125 54.628906 164.933594 52.488281 C 164.78125 51.625 164.308594 49.667969 163.578125 49.183594 C 163.167969 48.910156 162.304688 49.183594 161.558594 49.457031 C 160.816406 47.726562 160.816406 48.515625 161.117188 47.816406 C 161.261719 47.496094 161.34375 47.152344 161.363281 46.800781 C 162.167969 47.042969 163.839844 45.433594 163.261719 43.308594 C 162.957031 42.550781 162.585938 41.820312 162.152344 41.125 C 162.363281 40.609375 162.820312 39.988281 161.390625 38.089844 C 160.777344 37.429688 159.976562 36.964844 159.097656 36.757812 L 158.398438 36.757812 C 157.894531 36.023438 157.15625 35.488281 156.300781 35.238281 C 155.015625 34.910156 153.652344 35.101562 152.503906 35.769531 C 152.199219 35.996094 151.957031 36.300781 151.652344 36.511719 C 150.96875 36.097656 150.179688 35.875 149.375 35.875 C 148.570312 35.875 147.78125 36.097656 147.097656 36.511719 C 146.695312 36.671875 146.328125 36.910156 146.019531 37.210938 C 145.710938 37.511719 145.46875 37.875 145.304688 38.273438 C 144.558594 38.015625 143.769531 37.917969 142.984375 37.984375 C 142.199219 38.046875 141.4375 38.277344 140.746094 38.652344 C 138.121094 40.074219 136.15625 42.464844 135.277344 45.3125 C 135.25 45.742188 135.25 46.171875 135.277344 46.601562 L 135.109375 46.601562 C 132.832031 46.269531 129.929688 51.671875 132.253906 55.871094 C 132.527344 56.375 132.875 56.84375 133.210938 57.390625 C 134.183594 58.90625 133.800781 59.363281 135.976562 61.214844 C 136.613281 61.757812 136.71875 61.714844 137.113281 62.046875 C 137.507812 62.382812 137.359375 62.214844 137.585938 63.0625 C 137.710938 63.566406 137.933594 64.035156 138.238281 64.449219 C 138.546875 64.863281 138.933594 65.214844 139.378906 65.476562 C 139.539062 66.960938 140.171875 68.355469 141.1875 69.453125 C 141.507812 69.808594 141.882812 70.117188 142.296875 70.363281 C 142.40625 70.425781 142.53125 70.460938 142.660156 70.46875 C 143.117188 73.289062 143.675781 76.960938 143.921875 78.523438 L 142.570312 79.253906 C 140.800781 79.964844 139.078125 80.789062 137.417969 81.726562 C 137.289062 81.816406 137.195312 81.953125 137.160156 82.105469 C 135.550781 82.953125 134.03125 83.757812 133.164062 84.273438 C 121.101562 91.421875 86.84375 138.53125 86.492188 140.683594 C 86.453125 140.808594 86.453125 140.941406 86.492188 141.0625 C 86.984375 141.847656 87.582031 142.554688 88.269531 143.171875 C 88.058594 143.558594 87.804688 143.917969 87.511719 144.25 C 84.472656 146.238281 79.914062 149.195312 77.46875 151.835938 C 77.296875 151.988281 77.167969 152.183594 77.09375 152.402344 C 77.023438 152.617188 77.007812 152.851562 77.050781 153.074219 C 77.097656 153.300781 77.199219 153.511719 77.347656 153.683594 C 77.5 153.859375 77.691406 153.988281 77.910156 154.066406 C 78.363281 154.21875 78.441406 154.171875 81.402344 152.550781 C 80.589844 153.261719 79.921875 154.128906 79.445312 155.097656 C 79.246094 155.933594 80.003906 156.417969 80.964844 156.265625 C 81.5 156.125 82.015625 155.898438 82.480469 155.597656 C 82.207031 156.019531 82.0625 156.511719 82.0625 157.015625 C 82.0625 157.519531 82.207031 158.011719 82.480469 158.4375 C 84 160.347656 87.980469 154.324219 90.078125 152.835938 C 90.929688 153.914062 92.082031 156.433594 93.921875 155.765625 C 95.515625 155.171875 93.769531 151.667969 93.921875 150.652344 C 94.539062 150.058594 95.199219 149.511719 95.898438 149.015625 C 97.070312 149.882812 98.410156 150.496094 99.832031 150.820312 C 102.339844 150.820312 128.5 124.449219 130.492188 122.339844 C 129.777344 129.046875 126.175781 157.828125 126.933594 163.425781 C 127.285156 165.960938 133.378906 166.324219 135.945312 166.460938 C 135.167969 184.667969 134.652344 212.25 134.515625 212.539062 C 130.492188 221.203125 129.398438 223.570312 128.042969 226.195312 C 125.582031 230.898438 115.222656 248.253906 114.050781 252.199219 C 113.886719 252.820312 113.871094 253.0625 114.523438 254.214844 C 112.566406 256.269531 110.75 258.457031 109.085938 260.753906 C 108.25 262.273438 111.835938 276.414062 114.371094 281.417969 C 114.949219 282.542969 115.890625 284.273438 117.152344 284.226562 C 120.949219 284.089844 120.933594 270.464844 120.828125 266.65625 C 120.828125 266.539062 120.785156 266.425781 120.707031 266.339844 C 121.394531 265.3125 122.144531 264.328125 122.953125 263.394531 C 123.4375 263.726562 123.945312 264.019531 124.472656 264.277344 C 124.992188 264.503906 125.566406 264.109375 125.992188 263.757812 C 131.050781 259.785156 158.339844 225.828125 164.1875 209.808594 C 166.847656 202.496094 170.386719 192.390625 171.386719 185.230469 C 172 180.703125 172.058594 176.117188 171.554688 171.574219 C 171.554688 171.511719 171.582031 171.449219 171.628906 171.402344 C 171.671875 171.359375 171.734375 171.332031 171.796875 171.332031 C 171.863281 171.332031 171.925781 171.359375 171.96875 171.402344 C 172.015625 171.449219 172.042969 171.511719 172.042969 171.574219 C 172.800781 176.140625 172.949219 180.789062 172.484375 185.394531 C 171.359375 195.332031 163.503906 216.042969 159.3125 223.660156 C 162.925781 222.992188 170.28125 221.535156 173.835938 220.472656 C 185.683594 216.878906 196.625 206.152344 197.582031 194.105469 C 197.890625 188.429688 197.890625 182.742188 197.582031 177.066406 C 197.476562 169.230469 196.457031 161.4375 194.542969 153.839844 C 197.761719 152.09375 200.710938 150.046875 201.667969 148.164062 C 203.71875 144.144531 198.292969 121.007812 197.109375 114.511719 C 203.597656 115.226562 214.640625 116.515625 219.792969 112.496094 C 225.6875 107.761719 238.417969 94.441406 245.726562 84.199219 Z M 120.007812 265.824219 C 117.273438 264.167969 113.445312 260.238281 112.867188 257.160156 C 113.488281 256.371094 114.144531 255.640625 114.75 254.824219 C 116.808594 257.960938 119.378906 260.734375 122.347656 263.03125 C 121.511719 263.914062 120.730469 264.847656 120.007812 265.824219 Z M 240.789062 73.472656 C 240.867188 73.421875 240.921875 73.34375 240.945312 73.253906 C 240.96875 73.164062 240.953125 73.066406 240.910156 72.988281 C 240.378906 72 238.78125 68.527344 239.890625 68.132812 C 240.53125 67.890625 241.089844 68.285156 241.5625 68.816406 C 242.28125 69.726562 242.84375 70.75 243.21875 71.847656 C 243.246094 71.9375 243.296875 72.019531 243.367188 72.082031 C 243.4375 72.140625 243.523438 72.183594 243.617188 72.199219 C 243.707031 72.21875 243.804688 72.210938 243.890625 72.175781 C 243.980469 72.144531 244.054688 72.089844 244.113281 72.015625 C 245.632812 70.332031 249.1875 66.492188 251.195312 65.460938 C 252.714844 64.671875 253.078125 66.128906 249.355469 69.527344 C 248.5 70.179688 247.679688 70.871094 246.894531 71.605469 C 246.851562 71.664062 246.828125 71.738281 246.828125 71.8125 C 246.828125 71.882812 246.851562 71.957031 246.894531 72.015625 C 246.894531 72.410156 247.214844 72.851562 247.761719 72.441406 C 249.082031 71.28125 250.476562 70.214844 251.9375 69.238281 C 252.683594 68.710938 253.550781 68.375 254.460938 68.269531 C 254.003906 69.664062 249.765625 73.457031 249.402344 73.882812 C 249.285156 73.984375 249.214844 74.128906 249.207031 74.285156 C 249.195312 74.441406 249.246094 74.59375 249.347656 74.710938 C 249.449219 74.828125 249.59375 74.898438 249.75 74.914062 C 249.902344 74.925781 250.058594 74.875 250.175781 74.777344 C 251.863281 73.683594 254.808594 71.136719 255.828125 71.515625 C 256.847656 71.894531 253.824219 74.714844 253.0625 75.382812 C 248.703125 79.160156 249.828125 76.734375 244.785156 81.863281 C 242.589844 79.460938 240.066406 77.378906 237.292969 75.671875 Z M 174.777344 146.039062 C 174.519531 143.945312 174.199219 141.6875 173.804688 139.335938 L 174.457031 138.46875 C 177.496094 134.570312 178.40625 128.363281 178.117188 123.496094 C 179.746094 130.609375 181.035156 137.605469 182.023438 144.554688 Z M 152.183594 94.089844 C 148.191406 91.058594 141.761719 85.824219 138.027344 82.242188 L 144.101562 79.207031 C 149.683594 84.414062 154.460938 90.414062 158.277344 97.019531 C 164.113281 107.730469 168.445312 119.191406 171.144531 131.082031 L 149.480469 100.480469 L 152.308594 94.621094 C 152.34375 94.53125 152.351562 94.433594 152.332031 94.335938 C 152.308594 94.242188 152.257812 94.15625 152.183594 94.089844 Z M 162.457031 76.886719 C 162.546875 77.054688 163.59375 79.285156 165.191406 83.183594 C 165.191406 83.347656 164.902344 87.140625 164.765625 88.476562 C 162.824219 87.710938 160.996094 86.691406 159.324219 85.441406 C 159.660156 84.125 161.164062 78.128906 161.269531 76.78125 Z M 157.0625 93.179688 C 157.167969 92.90625 157.273438 92.542969 157.394531 92.117188 L 158.414062 92.648438 C 158.992188 93.027344 158.761719 91.875 159.28125 95.214844 C 159.28125 95.773438 159.433594 96.398438 159.460938 97.082031 C 158.761719 95.820312 157.898438 94.46875 157.078125 93.179688 Z M 156.210938 91.90625 C 153.339844 87.839844 150.074219 84.070312 146.457031 80.648438 L 157.898438 85.609375 C 157.457031 86.65625 156.820312 89.859375 156.226562 91.90625 Z M 167.894531 100.796875 C 166.375 96.65625 165.207031 92.027344 164.628906 90.8125 C 164.664062 90.433594 164.664062 90.054688 164.628906 89.675781 C 164.847656 89.757812 165.078125 89.808594 165.3125 89.828125 C 165.457031 89.828125 165.601562 89.777344 165.710938 89.683594 C 165.824219 89.589844 165.898438 89.457031 165.917969 89.3125 C 166.039062 88.8125 166.238281 86.277344 166.269531 85.714844 C 170.6875 96.859375 174.378906 108.277344 177.3125 119.898438 C 168.730469 101.660156 170.050781 106.941406 167.910156 100.796875 Z M 180.457031 129.761719 C 176.996094 113.175781 170.902344 92.5 163.976562 77.175781 C 166.519531 77.175781 169.058594 77.378906 171.570312 77.78125 C 172.863281 89.3125 171.785156 88.917969 172.648438 89.371094 C 173.515625 89.828125 178.726562 91.921875 179.5 92.238281 C 179.425781 93.410156 180.519531 126.816406 180.472656 129.761719 Z M 162.972656 50.152344 C 163.761719 51.878906 164.042969 53.796875 163.777344 55.675781 C 163.652344 56.152344 163.398438 56.589844 163.042969 56.933594 C 162.6875 57.273438 162.242188 57.511719 161.757812 57.617188 C 161.273438 57.722656 160.769531 57.691406 160.304688 57.527344 C 159.835938 57.363281 159.425781 57.074219 159.113281 56.691406 C 158.386719 55.167969 157.84375 53.5625 157.488281 51.914062 C 157.898438 51.382812 162.273438 50.320312 162.972656 50.152344 Z M 142.066406 65.324219 C 141.511719 65.074219 140.945312 64.851562 140.367188 64.65625 C 139.976562 64.5 139.628906 64.253906 139.351562 63.9375 C 139.074219 63.625 138.871094 63.25 138.757812 62.847656 C 138.648438 62.441406 138.628906 62.019531 138.707031 61.605469 C 138.785156 61.195312 138.957031 60.804688 139.210938 60.46875 C 140.167969 59.664062 141.035156 59.710938 141.824219 60.910156 C 142.324219 61.835938 142.308594 61.910156 142.539062 62.003906 C 142.601562 62.03125 142.675781 62.046875 142.746094 62.042969 C 142.816406 62.042969 142.886719 62.027344 142.953125 61.996094 C 143.015625 61.96875 143.074219 61.925781 143.121094 61.871094 C 143.167969 61.816406 143.203125 61.753906 143.222656 61.683594 C 143.445312 60.734375 143.484375 59.75 143.328125 58.785156 C 143.144531 57.738281 143.117188 53.097656 143.144531 52.945312 C 143.589844 53.179688 144.085938 53.289062 144.589844 53.261719 C 147.339844 53.15625 147.886719 51.746094 148.980469 50.59375 C 150.242188 50.714844 150.5 51.320312 151.925781 50.59375 C 152.59375 50.214844 153.210938 49.742188 153.75 49.195312 C 154.1875 49.375 154.609375 49.589844 155.011719 49.835938 C 155.921875 50.273438 156.949219 50.40625 157.941406 50.21875 C 158.933594 50.027344 159.839844 49.527344 160.527344 48.789062 C 160.691406 49.105469 160.84375 49.425781 160.980469 49.757812 C 159.585938 50.191406 158.269531 50.851562 157.09375 51.714844 C 156.835938 52.035156 157.214844 53.765625 157.304688 54.171875 C 156.03125 54.332031 154.800781 54.730469 153.675781 55.34375 C 153.445312 54.554688 152.945312 53.082031 152.15625 52.671875 C 151.917969 52.597656 151.664062 52.597656 151.425781 52.671875 C 150.058594 52.882812 145.152344 54.355469 144.558594 55.160156 C 144.042969 55.722656 145.515625 60.058594 145.972656 60.773438 C 147.71875 63.472656 152.839844 62.683594 153.796875 59.53125 C 154.03125 58.46875 154.03125 57.371094 153.796875 56.3125 C 154.234375 56.3125 155.558594 55.84375 155.710938 55.796875 C 156.757812 58.148438 157.0625 58.285156 158.277344 60.820312 C 158.109375 60.957031 157.835938 61.183594 157.609375 61.335938 C 156.53125 62.046875 156.300781 61.925781 156.363281 62.230469 C 156.378906 62.289062 156.421875 62.34375 156.472656 62.375 C 156.527344 62.410156 156.589844 62.421875 156.652344 62.410156 C 157.289062 62.320312 157.914062 62.148438 158.503906 61.894531 C 158.859375 61.765625 159.152344 61.503906 159.324219 61.167969 C 159.75 60.210938 157.394531 56.617188 156.46875 55.539062 C 156.652344 55.539062 157.078125 55.234375 157.394531 55.070312 C 157.820312 56.769531 158.109375 58.101562 159.75 58.769531 C 160.226562 58.949219 160.730469 59.03125 161.238281 59.011719 C 161.742188 58.988281 162.242188 58.867188 162.699219 58.648438 C 162.941406 61.320312 162.894531 65.660156 161.621094 68.027344 C 160.964844 69.253906 159.355469 69.726562 158.324219 70.742188 C 158.019531 71.03125 158.214844 71.4375 158.324219 71.878906 C 160.007812 76.566406 160.039062 76.550781 159.949219 77.160156 C 159.5 79.679688 158.875 82.164062 158.078125 84.59375 C 157.699219 84.425781 153.429688 82.164062 145.074219 78.917969 C 144.816406 77.203125 143.433594 68.054688 142.992188 66.371094 C 143.023438 65.78125 142.949219 65.644531 142.066406 65.25 Z M 152.703125 59.136719 C 152.214844 60.789062 149.921875 61.5 148.28125 61.046875 C 146.640625 60.589844 146.535156 59.757812 145.757812 57.785156 C 145.394531 57.03125 145.144531 56.230469 145.015625 55.402344 C 145.515625 54.855469 151 53.734375 151.683594 53.628906 C 152.644531 55.265625 153.003906 57.183594 152.703125 59.058594 Z M 93.253906 150.226562 C 92.675781 150.789062 93.453125 152.625 93.574219 154.21875 C 93.574219 154.355469 93.574219 154.945312 93.480469 154.992188 C 92.644531 155.265625 91.871094 154.003906 91.398438 153.246094 C 90.929688 152.488281 90.457031 151.457031 89.714844 151.730469 C 88.195312 152.441406 84.671875 157.117188 83.289062 157.601562 C 82.589844 156.265625 86.585938 152.457031 86.722656 152.246094 C 86.78125 152.148438 86.8125 152.035156 86.808594 151.921875 C 86.808594 151.808594 86.777344 151.695312 86.71875 151.601562 C 86.660156 151.503906 86.574219 151.425781 86.472656 151.371094 C 86.371094 151.320312 86.257812 151.296875 86.144531 151.304688 C 85.871094 151.304688 85.6875 151.546875 85.261719 151.925781 C 83.96875 153.1875 82.488281 154.242188 80.871094 155.050781 C 82.335938 153.375 83.90625 151.789062 85.566406 150.304688 C 85.648438 150.21875 85.707031 150.113281 85.734375 150 C 85.734375 150 85.414062 149.195312 84.792969 149.515625 C 83.910156 150 79.625 152.472656 78.273438 153.109375 C 78.089844 152.988281 78.199219 152.808594 78.273438 152.625 C 80.417969 150 85.125 146.8125 88.011719 144.796875 C 88.351562 144.449219 88.632812 144.046875 88.847656 143.613281 C 90.847656 145.46875 92.980469 147.179688 95.230469 148.726562 C 94.535156 149.179688 93.875 149.679688 93.253906 150.226562 Z M 128.605469 164.019531 C 128.273438 163.804688 128.027344 163.609375 127.984375 163.335938 C 127.148438 157.144531 131.796875 122.066406 131.722656 120.6875 C 131.722656 120.605469 131.707031 120.527344 131.671875 120.453125 C 131.640625 120.378906 131.597656 120.308594 131.539062 120.253906 C 131.480469 120.195312 131.410156 120.152344 131.335938 120.121094 C 131.261719 120.09375 131.179688 120.078125 131.097656 120.082031 C 130.324219 120.082031 131.691406 120.082031 112.335938 138.589844 C 111.058594 139.789062 101.304688 149.105469 99.679688 149.726562 C 97.445312 149.558594 89.046875 142.871094 87.679688 140.761719 C 90.320312 135.417969 122.378906 91.480469 133.46875 84.761719 C 134.320312 84.246094 135.777344 83.441406 137.371094 82.589844 C 137.925781 83.109375 138.519531 83.582031 139.148438 84 C 142.675781 87.339844 147.582031 91.496094 151.304688 94.621094 L 148.402344 100.371094 C 148.359375 100.449219 148.335938 100.535156 148.335938 100.621094 C 148.335938 100.710938 148.359375 100.796875 148.402344 100.875 C 171.964844 134.628906 171.617188 134.25 171.769531 134.25 C 173.277344 142.050781 174.21875 149.953125 174.578125 157.890625 C 174.578125 160.027344 174.578125 159.847656 174.671875 159.695312 C 174.761719 159.542969 174.671875 159.800781 174.671875 159.800781 C 170.992188 163.804688 134.609375 167.539062 128.605469 164.019531 Z M 212.589844 113.753906 C 205.707031 114.710938 197.929688 113.285156 196.425781 113.222656 C 195.589844 109.179688 193.925781 105.351562 191.535156 101.980469 C 191.496094 101.929688 191.445312 101.898438 191.382812 101.886719 C 191.324219 101.875 191.261719 101.886719 191.207031 101.921875 C 191.15625 101.953125 191.121094 102.003906 191.105469 102.0625 C 191.089844 102.121094 191.09375 102.183594 191.125 102.238281 C 192.003906 104.027344 194.953125 111.75 195.679688 113.632812 C 195.453125 114.359375 202.546875 143.65625 200.542969 147.601562 C 198.75 151.167969 188.3125 155.660156 184.546875 156.949219 C 183.800781 148.503906 182.582031 140.105469 180.898438 131.792969 C 181.414062 127.425781 180.746094 101.449219 180.550781 91.847656 C 180.542969 91.734375 180.507812 91.625 180.441406 91.535156 C 180.378906 91.445312 180.289062 91.371094 180.183594 91.328125 L 173.363281 88.460938 C 173.332031 84.855469 173.105469 81.253906 172.679688 77.675781 C 189.710938 80.617188 209.550781 90.34375 211.207031 90.359375 C 213.609375 90.359375 231.445312 76.703125 235.136719 76.15625 C 236.777344 75.898438 243.828125 82.042969 244.648438 83.742188 C 237.445312 93.789062 224.789062 106.988281 218.925781 111.554688 C 217.035156 112.816406 214.855469 113.574219 212.589844 113.753906 Z M 212.589844 113.753906 " fill-opacity="1" fill-rule="nonzero"/><path fill="#ffffff" d="M 151.136719 56.101562 C 151.117188 56 151.078125 55.90625 151.023438 55.820312 C 150.96875 55.738281 150.894531 55.664062 150.8125 55.605469 C 150.726562 55.550781 150.632812 55.507812 150.535156 55.488281 C 150.433594 55.46875 150.332031 55.46875 150.234375 55.484375 C 150.132812 55.503906 150.039062 55.542969 149.953125 55.597656 C 149.867188 55.65625 149.796875 55.726562 149.738281 55.808594 C 149.679688 55.894531 149.640625 55.988281 149.621094 56.085938 C 149.597656 56.1875 149.597656 56.289062 149.617188 56.390625 C 149.921875 57.90625 149.980469 58.253906 150.652344 58.253906 C 150.777344 58.253906 150.902344 58.222656 151.011719 58.164062 C 151.125 58.105469 151.21875 58.019531 151.289062 57.914062 C 151.359375 57.808594 151.398438 57.6875 151.410156 57.5625 C 151.421875 57.433594 151.402344 57.308594 151.351562 57.191406 C 151.304688 56.949219 151.167969 56.238281 151.136719 56.101562 Z M 155.785156 66.144531 C 156.773438 66.433594 157.714844 65.960938 157.683594 65.71875 C 157.65625 65.476562 157.683594 65.597656 156.347656 65.097656 C 155.453125 64.765625 154.464844 63.582031 154.113281 63.761719 C 153.765625 63.945312 154.296875 64.914062 154.417969 65.097656 C 154.742188 65.589844 155.226562 65.957031 155.785156 66.144531 Z M 183.574219 51.730469 C 181.582031 60.058594 180.125 67.128906 179.882812 68.542969 C 179.71875 69.15625 179.6875 69.796875 179.789062 70.421875 C 180.59375 72.136719 191.003906 75.519531 192.324219 74.851562 C 193.644531 74.1875 197.078125 66.464844 201.074219 58.496094 C 203.523438 58.574219 205.972656 58.398438 208.382812 57.964844 C 210.921875 57.5 213.390625 56.722656 215.734375 55.644531 C 220.871094 53.277344 226.492188 43.144531 227.25 38.046875 C 227.820312 32.511719 226.648438 26.9375 223.894531 22.101562 C 211.148438 0.0234375 173.757812 11.90625 176.796875 36.421875 C 177.664062 42.03125 180.003906 47.3125 183.574219 51.730469 Z M 192.839844 69.800781 C 192.839844 70.042969 192.566406 70.011719 191.320312 69.800781 C 188.773438 69.480469 186.304688 68.695312 184.042969 67.480469 C 182.980469 66.902344 182.691406 66.78125 182.796875 66.523438 C 182.90625 66.265625 183.132812 66.355469 184.773438 66.8125 C 184.925781 66.8125 189.632812 68.328125 190.988281 68.800781 C 192.734375 69.589844 192.839844 69.589844 192.839844 69.800781 Z M 192.566406 45.117188 C 194.1875 45.199219 195.804688 44.867188 197.261719 44.144531 C 198.613281 44.800781 200.078125 45.195312 201.574219 45.3125 C 199.023438 50.0625 193.84375 59.742188 192.171875 64.898438 L 185.730469 63.125 C 187.25 59.394531 190.605469 50.652344 192.535156 45.117188 Z M 192.035156 43.855469 C 190.902344 43.6875 189.855469 43.148438 189.054688 42.324219 C 188.257812 41.503906 187.75 40.441406 187.613281 39.304688 C 187.1875 36.269531 189.132812 32.871094 192.066406 33.675781 C 193.902344 34.175781 194.132812 35.632812 193.8125 37.46875 C 193.539062 38.804688 192.550781 42.15625 192.003906 43.796875 Z M 196.167969 40.214844 C 196.328125 39.222656 196.703125 38.277344 197.261719 37.4375 C 197.527344 36.984375 197.917969 36.609375 198.382812 36.363281 C 198.851562 36.117188 199.378906 36.003906 199.90625 36.042969 C 201.027344 36.375 201.515625 38.5 200.589844 39.835938 C 199.699219 41.015625 198.589844 42.015625 197.320312 42.78125 C 196.886719 42.523438 196.539062 42.140625 196.328125 41.683594 C 196.113281 41.226562 196.050781 40.710938 196.136719 40.214844 Z M 182.207031 20.933594 C 189.011719 12.753906 201.820312 9.507812 211.070312 12.875 C 216.097656 14.597656 220.324219 18.085938 222.96875 22.691406 C 225.585938 27.292969 226.707031 32.597656 226.171875 37.863281 C 225.472656 42.582031 220.09375 52.382812 215.371094 54.554688 C 211.050781 56.519531 206.335938 57.476562 201.589844 57.34375 C 201.074219 57.34375 200.527344 57.34375 200.332031 57.707031 C 199.433594 59.53125 197.792969 63.050781 196.183594 66.355469 C 195.070312 65.820312 193.917969 65.375 192.734375 65.023438 C 194.496094 59.984375 200.058594 50.09375 202.699219 45.296875 C 204.992188 45.492188 207.292969 45.097656 209.386719 44.144531 C 209.949219 43.847656 210.417969 43.394531 210.734375 42.84375 C 211.054688 42.289062 211.203125 41.65625 211.175781 41.019531 C 211.144531 40.382812 210.933594 39.765625 210.566406 39.246094 C 210.195312 38.722656 209.6875 38.320312 209.097656 38.074219 C 206.742188 36.921875 204.628906 39.683594 203.398438 42.003906 C 203.066406 42.613281 202.683594 43.324219 202.257812 44.128906 C 201.03125 44.050781 199.820312 43.800781 198.660156 43.386719 C 199.816406 42.574219 200.839844 41.59375 201.699219 40.472656 C 202.179688 39.746094 202.421875 38.890625 202.394531 38.023438 C 202.367188 37.152344 202.070312 36.3125 201.546875 35.617188 C 201.132812 35.140625 200.558594 34.828125 199.933594 34.742188 C 199.304688 34.65625 198.667969 34.800781 198.140625 35.148438 C 197.078125 35.800781 196.226562 36.746094 195.6875 37.871094 C 195.148438 38.996094 194.945312 40.253906 195.105469 41.488281 C 195.269531 42.1875 195.644531 42.820312 196.183594 43.296875 C 195.1875 43.707031 194.117188 43.914062 193.039062 43.902344 C 193.644531 42.113281 194.632812 38.878906 194.890625 37.558594 C 195.054688 36.808594 195.089844 36.035156 194.996094 35.269531 C 194.878906 34.613281 194.574219 34.003906 194.121094 33.519531 C 193.664062 33.03125 193.078125 32.683594 192.429688 32.523438 C 188.738281 31.476562 186.019531 35.558594 186.550781 39.367188 C 186.699219 40.730469 187.289062 42.011719 188.222656 43.015625 C 189.160156 44.023438 190.394531 44.699219 191.746094 44.949219 C 189.800781 50.410156 186.761719 59.226562 185.242188 62.988281 L 181.902344 62.125 C 184.042969 51.382812 184.300781 51.640625 184 51.503906 C 180.546875 47.109375 178.335938 41.867188 177.601562 36.332031 C 177.246094 33.585938 177.46875 30.796875 178.261719 28.140625 C 179.054688 25.488281 180.398438 23.03125 182.207031 20.933594 Z M 203.292969 44.222656 C 204.355469 42.292969 206.484375 38.078125 208.550781 39.109375 C 208.960938 39.273438 209.324219 39.550781 209.589844 39.90625 C 209.859375 40.261719 210.023438 40.683594 210.070312 41.125 C 210.039062 43.796875 205.875 44.265625 203.230469 44.222656 Z M 261.449219 50.910156 C 263.28125 49.835938 265.441406 49.46875 267.527344 49.878906 C 269.816406 49.921875 272.003906 50.835938 273.636719 52.433594 C 275.273438 54.035156 276.234375 56.199219 276.324219 58.484375 C 274.945312 57.683594 273.335938 57.386719 271.765625 57.632812 C 267.953125 57.964844 262.96875 60.03125 263.636719 63.703125 C 264.183594 66.734375 268.195312 66.328125 271.234375 65.507812 C 274.273438 64.6875 276.6875 63.199219 277.308594 60.273438 C 281.003906 62.957031 281.867188 67.660156 282.019531 72.257812 C 282.019531 72.324219 282.046875 72.386719 282.089844 72.429688 C 282.136719 72.476562 282.199219 72.5 282.261719 72.5 C 282.328125 72.5 282.390625 72.476562 282.433594 72.429688 C 282.480469 72.386719 282.507812 72.324219 282.507812 72.257812 C 282.613281 67.117188 281.6875 62.078125 277.476562 59.148438 C 277.519531 57.832031 277.296875 56.519531 276.816406 55.292969 C 276.335938 54.066406 275.613281 52.945312 274.6875 52.007812 C 273.765625 51.066406 272.65625 50.324219 271.4375 49.820312 C 270.214844 49.320312 268.90625 49.070312 267.585938 49.089844 C 265.480469 48.785156 263.328125 49.222656 261.511719 50.335938 C 260.949219 50.609375 261.207031 51.019531 261.449219 50.910156 Z M 275.304688 61.789062 C 273.589844 64.035156 268.726562 65.203125 266.476562 64.824219 C 265.644531 64.6875 264.960938 64.339844 264.777344 63.472656 C 264.230469 60.441406 269.472656 58.785156 272.601562 58.679688 C 273.875 58.582031 275.144531 58.90625 276.214844 59.605469 C 276.101562 60.398438 275.789062 61.148438 275.304688 61.789062 Z M 254.492188 33.175781 C 256.117188 31.171875 255.023438 27.683594 250.480469 27.667969 C 248.71875 27.667969 247.867188 29.457031 247.988281 31.171875 C 248.261719 35.253906 252.867188 35.132812 254.492188 33.175781 Z M 249.050781 31.097656 C 249.050781 30.09375 249.523438 28.789062 250.570312 28.804688 C 253.019531 28.804688 254.140625 29.945312 254.140625 31.203125 C 254.082031 34.070312 248.855469 35.558594 249.050781 31.097656 Z M 248.429688 203.101562 C 235.074219 197.777344 228.875 223.554688 217.96875 245.703125 C 217.898438 246.636719 217.929688 247.570312 218.058594 248.496094 C 218.058594 250.816406 218.316406 266.1875 219.671875 267.933594 C 220.035156 268.628906 221.570312 267.933594 222.285156 267.492188 C 228.347656 263.742188 234.0625 259.457031 239.359375 254.6875 C 239.40625 254.636719 239.4375 254.574219 239.460938 254.511719 C 239.480469 254.445312 239.488281 254.375 239.480469 254.308594 C 242.308594 250.285156 252.894531 229.347656 255.464844 218.851562 C 257.257812 211.417969 255.480469 205.878906 248.429688 203.101562 Z M 253.199219 222.371094 C 246.050781 221.457031 239.136719 219.199219 232.828125 215.726562 C 236.382812 209.003906 240.773438 201.34375 248.019531 204.226562 C 256.085938 207.425781 255.917969 214.054688 253.199219 222.324219 Z M 227.917969 261.816406 C 227.453125 261.425781 226.945312 261.089844 226.402344 260.816406 C 224.347656 259.773438 221.976562 259.546875 219.761719 260.179688 C 219.609375 258.375 218.742188 246.628906 218.742188 246.523438 C 230.121094 250.679688 226.613281 248.875 237.886719 254.472656 C 236.699219 255.597656 232.25 258.707031 227.917969 261.789062 Z M 235.757812 217.910156 C 237.242188 218.71875 238.761719 219.453125 240.316406 220.109375 C 236.835938 225.574219 233.757812 231.28125 231.109375 237.195312 C 228.558594 242.519531 228.648438 242.488281 226.050781 248.300781 C 224.53125 247.8125 223.011719 247.359375 221.492188 246.902344 C 223.132812 243.640625 234.800781 219.792969 235.757812 217.878906 Z M 226.644531 248.449219 C 231.582031 239.605469 236.609375 228.605469 240.925781 220.308594 C 242.445312 220.945312 243.964844 221.460938 245.480469 221.914062 C 244.675781 223.433594 242.320312 227.46875 241.699219 228.636719 C 241.078125 229.804688 234.832031 242.09375 234.390625 243.035156 C 233.691406 244.550781 231.777344 248.785156 231.1875 250.136719 C 229.636719 249.453125 228.148438 248.9375 226.582031 248.421875 Z M 231.734375 250.332031 C 232.660156 248.648438 236.472656 241.578125 236.945312 240.667969 C 237.65625 239.257812 245.617188 223.007812 246.058594 222.066406 C 247.457031 222.460938 248.929688 222.796875 249.871094 222.976562 C 247.09375 230.5625 239.085938 245.175781 236.199219 252.378906 C 233.570312 251.152344 232.980469 250.847656 231.671875 250.300781 Z M 232.660156 216.164062 L 235.378906 217.683594 C 229.898438 227.003906 225.125 236.71875 221.097656 246.75 L 218.820312 246.054688 C 227.644531 227.269531 228.054688 224.8125 232.597656 216.132812 Z M 238.917969 253.699219 L 236.625 252.609375 C 239.101562 247.753906 246.847656 235.296875 250.390625 223.082031 C 251.238281 223.234375 252.074219 223.371094 252.882812 223.476562 C 248.976562 233.882812 244.289062 243.972656 238.859375 253.671875 Z M 191.320312 263.546875 C 191.925781 263.046875 192.359375 262.367188 192.558594 261.609375 C 192.757812 260.847656 192.710938 260.046875 192.429688 259.3125 C 192.300781 258.257812 191.816406 257.273438 191.054688 256.53125 C 190.292969 255.785156 189.296875 255.320312 188.238281 255.214844 C 187.175781 255.109375 186.109375 255.367188 185.214844 255.949219 C 184.320312 256.527344 183.652344 257.394531 183.316406 258.402344 C 181.371094 257.144531 179.257812 255.808594 177.238281 254.535156 C 178.757812 252.515625 183.222656 253.414062 183.679688 255.066406 C 183.6875 255.128906 183.726562 255.1875 183.777344 255.226562 C 183.828125 255.265625 183.894531 255.28125 183.960938 255.269531 C 184.023438 255.261719 184.082031 255.226562 184.121094 255.171875 C 184.160156 255.121094 184.175781 255.054688 184.164062 254.988281 C 183.9375 252.351562 178.4375 250.800781 176.21875 253.914062 C 174.261719 252.714844 171.828125 251.257812 169.792969 250.148438 C 171.539062 248.632812 175.445312 249.484375 175.871094 251.0625 C 175.890625 251.113281 175.929688 251.160156 175.980469 251.1875 C 176.027344 251.214844 176.085938 251.226562 176.144531 251.214844 C 176.199219 251.203125 176.25 251.171875 176.289062 251.128906 C 176.324219 251.082031 176.34375 251.027344 176.339844 250.96875 C 176.144531 248.511719 171.054688 246.859375 168.746094 249.558594 C 167.777344 249.015625 166.761719 248.570312 165.707031 248.222656 C 165.515625 248.144531 165.300781 248.121094 165.097656 248.160156 C 164.894531 248.195312 164.703125 248.292969 164.550781 248.4375 C 160.707031 253.214844 147.75 265.625 141.761719 267.066406 C 141.613281 267.089844 141.472656 267.152344 141.351562 267.246094 C 141.234375 267.339844 141.140625 267.464844 141.085938 267.605469 C 141.03125 267.75 141.011719 267.902344 141.035156 268.050781 C 141.058594 268.203125 141.121094 268.34375 141.214844 268.464844 C 142.53125 269.796875 144.035156 270.925781 145.683594 271.816406 C 144.164062 273.332031 142.980469 274.699219 142.097656 275.683594 C 141.640625 276.171875 141.398438 285.457031 141.792969 287.503906 C 141.851562 287.703125 141.980469 287.878906 142.160156 287.988281 C 144.074219 289.292969 168.730469 299.945312 171.25 298.519531 C 172.9375 297.5625 193.066406 276.640625 193.386719 276.003906 C 193.875 275.003906 193.707031 268.328125 193.675781 265.65625 C 193.554688 264.851562 192.050781 263.988281 191.320312 263.546875 Z M 142.707031 283.589844 L 142.707031 280.207031 C 149.011719 283.242188 163.441406 289.429688 168.914062 291.160156 C 170.308594 291.617188 170.429688 291.554688 171.160156 291.160156 C 175.339844 288.488281 190.089844 271.890625 192.792969 269.359375 L 192.792969 272.558594 C 184.589844 280.765625 170.660156 295.152344 170.402344 294.332031 C 168.898438 294.238281 144.011719 284.195312 142.707031 283.589844 Z M 190.941406 258.433594 C 191.488281 259.351562 191.78125 260.398438 191.792969 261.46875 C 191.785156 261.808594 191.703125 262.144531 191.546875 262.445312 C 191.390625 262.746094 191.167969 263.011719 190.894531 263.214844 C 189.621094 262.363281 187.203125 260.785156 184.347656 258.933594 C 185.914062 255.855469 189.390625 255.808594 190.878906 258.433594 Z M 142.324219 268.144531 C 148.796875 266.234375 161.089844 254.398438 165.21875 249.269531 C 166.214844 249.546875 167.171875 249.9375 168.078125 250.4375 C 166.558594 253.261719 168.183594 256.355469 168.761719 255.914062 C 169.078125 255.671875 168.503906 255.582031 168.410156 254.09375 C 168.371094 253.007812 168.617188 251.929688 169.125 250.96875 C 171.222656 252.0625 173.683594 253.488281 175.765625 254.6875 C 174.488281 257.523438 176.023438 260.332031 176.554688 259.921875 C 177.085938 259.511719 176.3125 259.601562 176.21875 258.117188 C 176.183594 257.140625 176.371094 256.167969 176.765625 255.277344 C 178.910156 256.539062 181.097656 257.84375 183.101562 259.070312 C 182.792969 259.828125 182.671875 260.644531 182.746094 261.460938 C 182.820312 262.273438 183.085938 263.054688 183.527344 263.746094 C 183.546875 263.769531 183.570312 263.792969 183.601562 263.808594 C 183.628906 263.824219 183.660156 263.835938 183.691406 263.839844 C 183.726562 263.84375 183.757812 263.839844 183.789062 263.832031 C 183.820312 263.824219 183.851562 263.808594 183.875 263.789062 C 183.902344 263.769531 183.925781 263.746094 183.941406 263.71875 C 183.957031 263.6875 183.96875 263.65625 183.972656 263.625 C 183.976562 263.59375 183.972656 263.558594 183.964844 263.527344 C 183.957031 263.496094 183.941406 263.464844 183.921875 263.441406 C 183.648438 262.835938 183.515625 262.183594 183.527344 261.519531 C 183.542969 260.859375 183.703125 260.210938 184 259.617188 C 187.539062 261.773438 190.394531 263.578125 191.277344 264.167969 C 191.109375 264.320312 175.261719 278.402344 169.871094 282.589844 C 166.328125 281.664062 147.75 272.453125 142.324219 268.144531 Z M 142.902344 276.59375 C 149.785156 279.628906 165.417969 286.667969 169.019531 287.351562 C 169.640625 287.472656 169.882812 287.519531 171.070312 286.578125 C 176.128906 282.527344 192.582031 265.335938 192.734375 265.519531 C 192.742188 265.566406 192.742188 265.609375 192.734375 265.65625 L 192.734375 268.691406 C 189.347656 271.40625 170.507812 291.160156 170.203125 290.21875 C 168.683594 290.21875 143.996094 280.160156 142.734375 279.597656 C 142.707031 278.960938 142.84375 277.261719 142.902344 276.59375 Z M 170.566406 297.503906 C 169.050781 298.367188 145.910156 288.976562 142.8125 287.0625 C 142.695312 286.097656 142.640625 285.125 142.644531 284.152344 C 149.296875 287.429688 168.652344 295.589844 170.429688 295.515625 C 173.03125 295.378906 191.398438 274.730469 192.703125 273.289062 C 192.71875 274.0625 192.640625 274.835938 192.476562 275.59375 C 192.21875 276.09375 171.570312 296.941406 170.566406 297.503906 Z M 44.699219 211.976562 C 44.804688 213.601562 44.882812 215.011719 44.882812 216.332031 C 44.882812 216.53125 44.960938 216.726562 45.101562 216.867188 C 45.246094 217.011719 45.4375 217.089844 45.640625 217.089844 C 45.84375 217.089844 46.035156 217.011719 46.175781 216.867188 C 46.320312 216.726562 46.398438 216.53125 46.398438 216.332031 C 46.398438 214.921875 46.324219 213.523438 46.21875 211.871094 C 46.203125 211.671875 46.109375 211.484375 45.957031 211.351562 C 45.804688 211.21875 45.605469 211.152344 45.40625 211.164062 C 45.203125 211.179688 45.015625 211.273438 44.882812 211.425781 C 44.75 211.578125 44.683594 211.777344 44.699219 211.976562 Z M 276.1875 181.558594 C 276.085938 181.5625 275.992188 181.589844 275.902344 181.632812 C 275.8125 181.675781 275.730469 181.738281 275.667969 181.8125 C 275.601562 181.886719 275.550781 181.976562 275.523438 182.070312 C 275.492188 182.164062 275.480469 182.261719 275.488281 182.363281 C 275.578125 183.757812 275.667969 185.257812 275.667969 186.714844 C 275.667969 186.917969 275.75 187.109375 275.890625 187.253906 C 276.035156 187.394531 276.226562 187.476562 276.429688 187.476562 C 276.628906 187.476562 276.824219 187.394531 276.964844 187.253906 C 277.109375 187.109375 277.1875 186.917969 277.1875 186.714844 C 277.1875 185.199219 277.097656 183.683594 276.992188 182.253906 C 276.984375 182.15625 276.960938 182.058594 276.917969 181.96875 C 276.871094 181.882812 276.8125 181.800781 276.734375 181.738281 C 276.660156 181.671875 276.574219 181.621094 276.480469 181.59375 C 276.386719 181.5625 276.285156 181.550781 276.1875 181.558594 Z M 40.765625 208.199219 C 40.964844 208.199219 41.160156 208.121094 41.300781 207.976562 C 41.445312 207.835938 41.523438 207.640625 41.523438 207.441406 C 41.523438 207.238281 41.445312 207.046875 41.300781 206.90625 C 41.160156 206.761719 40.964844 206.683594 40.765625 206.683594 C 38.925781 206.683594 37.390625 206.820312 35.871094 206.789062 C 35.667969 206.789062 35.472656 206.867188 35.328125 207.011719 C 35.183594 207.152344 35.101562 207.34375 35.097656 207.546875 C 35.097656 207.75 35.175781 207.941406 35.320312 208.082031 C 35.460938 208.226562 35.65625 208.304688 35.855469 208.304688 C 37.421875 208.335938 39.136719 208.277344 40.765625 208.199219 Z M 271.476562 177.066406 C 269.652344 177.066406 268.117188 177.171875 266.585938 177.1875 C 266.382812 177.1875 266.191406 177.269531 266.046875 177.410156 C 265.90625 177.550781 265.824219 177.746094 265.824219 177.945312 C 265.824219 178.148438 265.90625 178.339844 266.046875 178.484375 C 266.191406 178.625 266.382812 178.707031 266.585938 178.707031 C 268.226562 178.707031 269.925781 178.707031 271.566406 178.585938 C 271.769531 178.570312 271.957031 178.480469 272.09375 178.328125 C 272.226562 178.179688 272.292969 177.980469 272.28125 177.78125 C 272.269531 177.578125 272.175781 177.390625 272.027344 177.257812 C 271.875 177.121094 271.679688 177.054688 271.476562 177.066406 Z M 44.289062 198.824219 C 44.378906 200.21875 44.472656 201.722656 44.472656 203.179688 C 44.476562 203.378906 44.554688 203.570312 44.699219 203.710938 C 44.839844 203.851562 45.03125 203.933594 45.230469 203.9375 C 45.433594 203.9375 45.625 203.855469 45.765625 203.714844 C 45.910156 203.574219 45.988281 203.378906 45.988281 203.179688 C 45.988281 201.660156 45.898438 200.144531 45.808594 198.71875 C 45.792969 198.515625 45.699219 198.328125 45.546875 198.195312 C 45.394531 198.0625 45.195312 197.996094 44.996094 198.011719 C 44.792969 198.027344 44.605469 198.121094 44.472656 198.269531 C 44.339844 198.421875 44.273438 198.621094 44.289062 198.824219 Z M 276.777344 173.5625 C 276.777344 172.042969 276.6875 170.527344 276.582031 169.101562 C 276.566406 168.902344 276.472656 168.714844 276.320312 168.582031 C 276.167969 168.449219 275.96875 168.382812 275.769531 168.394531 C 275.566406 168.410156 275.378906 168.503906 275.246094 168.65625 C 275.113281 168.808594 275.046875 169.007812 275.0625 169.207031 C 275.152344 170.605469 275.246094 172.105469 275.246094 173.5625 C 275.246094 173.761719 275.324219 173.957031 275.46875 174.097656 C 275.609375 174.242188 275.800781 174.320312 276.003906 174.320312 C 276.207031 174.320312 276.402344 174.242188 276.546875 174.097656 C 276.691406 173.957031 276.773438 173.765625 276.777344 173.5625 Z M 55.5 208.003906 C 55.601562 208 55.699219 207.976562 55.789062 207.933594 C 55.878906 207.890625 55.960938 207.832031 56.027344 207.757812 C 56.097656 207.683594 56.148438 207.601562 56.183594 207.507812 C 56.21875 207.414062 56.234375 207.3125 56.230469 207.214844 C 56.214844 207.015625 56.125 206.828125 55.976562 206.695312 C 55.832031 206.558594 55.640625 206.484375 55.441406 206.484375 C 53.601562 206.5625 52.066406 206.621094 50.53125 206.589844 C 50.332031 206.589844 50.136719 206.671875 49.996094 206.8125 C 49.851562 206.957031 49.773438 207.148438 49.773438 207.351562 C 49.773438 207.550781 49.851562 207.746094 49.996094 207.886719 C 50.136719 208.027344 50.332031 208.109375 50.53125 208.109375 C 52.15625 208.140625 53.859375 208.078125 55.5 208.003906 Z M 286.214844 176.871094 C 284.695312 176.945312 283.007812 176.992188 281.320312 176.992188 C 281.222656 176.988281 281.121094 177.003906 281.027344 177.039062 C 280.933594 177.074219 280.847656 177.128906 280.773438 177.199219 C 280.703125 177.265625 280.644531 177.351562 280.605469 177.441406 C 280.566406 177.535156 280.546875 177.632812 280.546875 177.734375 C 280.546875 177.9375 280.625 178.132812 280.769531 178.277344 C 280.910156 178.421875 281.101562 178.503906 281.304688 178.507812 C 283.039062 178.507812 284.4375 178.507812 286.273438 178.386719 C 286.375 178.382812 286.472656 178.359375 286.5625 178.316406 C 286.652344 178.277344 286.734375 178.21875 286.800781 178.144531 C 286.871094 178.070312 286.921875 177.984375 286.957031 177.890625 C 286.992188 177.796875 287.007812 177.695312 287.003906 177.597656 C 286.984375 177.402344 286.894531 177.21875 286.746094 177.082031 C 286.601562 176.949219 286.410156 176.871094 286.214844 176.871094 Z M 20.589844 163.046875 C 20.785156 163.199219 63.628906 156.859375 65.464844 155.734375 C 65.570312 155.660156 65.648438 155.5625 65.703125 155.449219 C 65.757812 155.332031 65.78125 155.207031 65.769531 155.082031 C 65.769531 153.125 63.203125 134.753906 61.972656 130.171875 C 61.820312 129.609375 61.667969 129.046875 61.320312 128.851562 C 58.996094 127.453125 18.035156 135.160156 15.589844 136.738281 C 15.523438 136.777344 15.464844 136.832031 15.421875 136.894531 C 15.378906 136.957031 15.347656 137.027344 15.332031 137.105469 C 14.816406 138.941406 19.265625 162.136719 20.589844 163.046875 Z M 16.257812 137.46875 C 19.175781 136.148438 56.351562 129.351562 60.605469 129.882812 C 61.636719 132.535156 64.402344 151.988281 64.585938 154.839844 C 62.472656 155.460938 21.164062 162.546875 21.011719 162.578125 C 20.863281 162.609375 20.847656 162.789062 20.527344 161.835938 C 19.191406 157.828125 16.183594 140.898438 16.257812 137.46875 Z M 16.257812 137.46875 " fill-opacity="1" fill-rule="nonzero"/><g clip-path="url(#50c4d1e240)"><path fill="#ffffff" d="M 68.808594 157.085938 C 68.890625 156.933594 68.929688 156.757812 68.914062 156.585938 C 68.914062 154.171875 65.453125 127.394531 64.222656 125.253906 C 64.125 125.097656 63.988281 124.96875 63.824219 124.878906 C 63.664062 124.792969 63.480469 124.75 63.292969 124.753906 C 58.203125 124.132812 15.269531 132.507812 12.445312 134.464844 C 12.050781 134.738281 12.109375 135.417969 12.15625 136.148438 C 12.398438 140.136719 16.714844 166.386719 18.234375 166.234375 C 18.398438 166.234375 18.339844 166.113281 17.945312 166.917969 C 15.574219 171.785156 11.078125 187.382812 11.167969 190.523438 C 11.167969 191.84375 11.472656 193.558594 12.777344 193.46875 C 22.152344 192.316406 68.109375 185.03125 81.328125 182.316406 C 81.84375 182.210938 82.179688 181.738281 82.164062 180.964844 C 82.007812 179.675781 81.617188 178.425781 81.007812 177.277344 C 79.15625 173.804688 71.46875 160.042969 68.808594 157.085938 Z M 18.324219 165.765625 C 17.140625 164.246094 12.777344 138.105469 13.113281 135.207031 C 16.457031 133.476562 58.8125 125.300781 63.25 125.96875 C 64.464844 129.304688 67.609375 153.414062 67.804688 156.3125 C 62.429688 158.164062 25.191406 164.171875 18.324219 165.765625 Z M 18.992188 166.21875 C 20.269531 165.898438 63.734375 158.632812 67.714844 157.585938 C 69.886719 159.605469 79.703125 177.035156 80.339844 178.523438 C 71.621094 180.039062 19.890625 188.671875 12.277344 189.828125 C 12.382812 185.230469 17.109375 169.164062 18.992188 166.21875 Z M 18.992188 166.21875 " fill-opacity="1" fill-rule="nonzero"/></g><path fill="#ffffff" d="M 24.707031 181.953125 C 26.027344 181.753906 54.074219 178.386719 64.207031 175.640625 C 64.269531 175.625 64.320312 175.585938 64.355469 175.527344 C 64.386719 175.472656 64.398438 175.40625 64.378906 175.34375 C 64.363281 175.28125 64.324219 175.230469 64.269531 175.195312 C 64.214844 175.164062 64.148438 175.15625 64.085938 175.171875 C 62.09375 175.578125 37.816406 178.8125 24.675781 181.480469 C 24.636719 181.476562 24.601562 181.476562 24.566406 181.488281 C 24.53125 181.496094 24.496094 181.515625 24.46875 181.539062 C 24.441406 181.566406 24.421875 181.59375 24.40625 181.628906 C 24.394531 181.664062 24.386719 181.699219 24.390625 181.738281 C 24.390625 181.773438 24.402344 181.808594 24.421875 181.839844 C 24.4375 181.875 24.464844 181.902344 24.496094 181.921875 C 24.523438 181.941406 24.558594 181.957031 24.597656 181.960938 C 24.632812 181.964844 24.671875 181.964844 24.707031 181.953125 Z M 45.199219 76.386719 C 44.632812 77.664062 44.15625 78.984375 43.773438 80.332031 C 43.75 80.546875 43.808594 80.761719 43.9375 80.9375 C 45.472656 83.242188 61.199219 100.949219 65.300781 103.4375 C 65.863281 103.785156 66.53125 104.027344 66.941406 103.527344 C 69.921875 99.824219 73.808594 96.957031 78.226562 95.199219 C 81.824219 93.929688 85.597656 93.214844 89.410156 93.089844 C 92.449219 92.816406 92.980469 92.511719 94.148438 90.527344 C 95.53125 87.910156 97.359375 85.558594 99.558594 83.578125 C 102.359375 81.128906 105.472656 79.058594 108.8125 77.417969 C 108.960938 77.332031 109.078125 77.199219 109.144531 77.039062 C 109.210938 76.878906 109.222656 76.703125 109.175781 76.539062 C 108.660156 75.230469 107.984375 74 107.15625 72.867188 C 107.703125 72.683594 108.308594 72.515625 108.308594 71.96875 C 108.308594 70.453125 95.0625 51.304688 91.386719 47.695312 C 91.003906 47.316406 90.457031 46.816406 89.957031 46.84375 C 82.359375 47.269531 74.960938 54.429688 70.679688 60.683594 C 65.769531 60.5 62.59375 60.058594 57.003906 62.410156 C 53.058594 64.085938 49.5 66.554688 46.550781 69.664062 C 46.097656 70.132812 42.996094 73.410156 42.953125 73.667969 C 42.90625 73.925781 42.996094 73.925781 45.199219 76.386719 Z M 105.96875 75.960938 C 99.632812 77.039062 95.59375 82.300781 92.617188 88.023438 C 91.292969 90.570312 91.414062 90.691406 90.019531 90.664062 C 87.574219 90.523438 85.121094 90.617188 82.695312 90.933594 C 80.914062 91.199219 79.164062 91.636719 77.46875 92.238281 C 73.609375 93.605469 69.1875 97.976562 66.835938 101.222656 C 66.785156 101.289062 66.71875 101.34375 66.648438 101.386719 C 66.574219 101.425781 66.492188 101.449219 66.410156 101.457031 C 66.328125 101.464844 66.242188 101.453125 66.164062 101.425781 C 66.085938 101.398438 66.011719 101.355469 65.953125 101.296875 C 61.015625 96.214844 52.28125 87.292969 47.890625 82.167969 C 47.675781 81.9375 48.039062 81.605469 48.253906 81.847656 C 51.09375 84.882812 58.433594 92.148438 66.300781 100.054688 C 68.960938 96.671875 73.0625 92.574219 77.121094 91.148438 C 79.332031 90.359375 81.632812 89.851562 83.972656 89.628906 C 86.160156 89.464844 88.359375 89.464844 90.550781 89.628906 C 91.445312 88.597656 95.882812 76.886719 105.9375 75.582031 C 105.96875 75.601562 105.992188 75.632812 106.011719 75.664062 C 106.027344 75.695312 106.035156 75.730469 106.039062 75.765625 C 106.039062 75.804688 106.03125 75.839844 106.019531 75.875 C 106.003906 75.90625 105.980469 75.9375 105.953125 75.960938 Z M 89.941406 48.074219 C 92.980469 50.199219 105.347656 68.480469 106.957031 71.683594 C 104.164062 72.566406 101.464844 73.730469 98.90625 75.15625 C 96.480469 76.371094 94.359375 78.109375 92.691406 80.246094 C 91.027344 82.382812 89.859375 84.863281 89.273438 87.507812 C 83.820312 78.644531 76.207031 68.890625 71.148438 61.714844 C 71.453125 61.515625 79.992188 48.667969 89.941406 48.074219 Z M 57.339844 63.246094 C 62.882812 61.015625 65.953125 61.53125 70.539062 61.730469 C 75.097656 69.496094 83.289062 80.453125 88.679688 87.628906 C 83.703125 86.453125 78.464844 87.171875 73.988281 89.644531 C 71.300781 91.164062 68.019531 94.804688 66 97.066406 C 63.082031 94.726562 46.25 76.824219 43.542969 73.792969 C 47.707031 69.085938 51.550781 65.550781 57.339844 63.1875 Z M 29.535156 101.828125 C 29.160156 101.566406 28.71875 101.417969 28.257812 101.402344 C 27.800781 101.386719 27.347656 101.503906 26.953125 101.738281 C 26.667969 101.867188 26.410156 102.046875 26.195312 102.273438 C 25.976562 102.503906 25.808594 102.769531 25.695312 103.0625 C 25.585938 103.355469 25.53125 103.667969 25.539062 103.980469 C 25.546875 104.292969 25.617188 104.601562 25.746094 104.886719 C 25.875 105.171875 26.054688 105.429688 26.285156 105.644531 C 26.511719 105.859375 26.78125 106.027344 27.070312 106.140625 C 27.363281 106.253906 27.675781 106.304688 27.988281 106.296875 C 28.304688 106.289062 28.613281 106.21875 28.898438 106.09375 C 29.355469 105.992188 29.773438 105.757812 30.089844 105.414062 C 30.410156 105.074219 30.621094 104.640625 30.6875 104.179688 C 30.757812 103.71875 30.683594 103.246094 30.480469 102.824219 C 30.273438 102.40625 29.945312 102.058594 29.535156 101.828125 Z M 28.535156 104.863281 C 27.46875 105.195312 26.832031 104.863281 26.574219 104.347656 C 26.085938 103.269531 26.695312 101.617188 28.277344 102.101562 C 29.382812 102.511719 30.28125 104.378906 28.535156 104.9375 Z M 106.789062 32.402344 C 107.230469 33.296875 109.28125 32.964844 110.179688 32.675781 C 110.648438 32.523438 110.953125 32.355469 111 31.902344 C 111.136719 30.761719 111.289062 20.902344 110.769531 19.945312 C 110.71875 19.84375 110.636719 19.761719 110.535156 19.710938 C 110.4375 19.65625 110.320312 19.632812 110.207031 19.640625 C 108.585938 19.636719 106.976562 19.871094 105.421875 20.339844 C 104.800781 20.71875 106.242188 31.402344 106.789062 32.402344 Z M 105.742188 20.703125 C 107.144531 20.503906 108.566406 20.4375 109.980469 20.507812 C 110.070312 21.628906 109.828125 31.355469 109.8125 31.507812 C 109.171875 31.738281 108.488281 31.820312 107.808594 31.75 C 107.703125 31.402344 107.519531 30.460938 107.292969 29.277344 C 106.621094 26.449219 106.105469 23.585938 105.742188 20.703125 Z M 28.0625 89.023438 C 28.207031 89.097656 28.371094 89.136719 28.535156 89.136719 C 28.699219 89.136719 28.859375 89.097656 29.003906 89.023438 C 29.589844 88.660156 30.058594 88.132812 30.339844 87.507812 C 30.378906 87.40625 30.390625 87.296875 30.375 87.191406 C 30.359375 87.085938 30.316406 86.984375 30.25 86.898438 C 29.519531 86.035156 21.558594 76.824219 20.589844 77.402344 C 19.394531 78.171875 18.261719 79.035156 17.199219 79.980469 C 17.15625 80.019531 17.125 80.066406 17.101562 80.117188 C 17.074219 80.171875 17.0625 80.226562 17.0625 80.285156 C 17.03125 81.074219 25.875 88.144531 28.0625 89.023438 Z M 20.769531 77.796875 C 21.878906 78.601562 25.617188 83.214844 29.082031 87.292969 C 28.933594 87.527344 28.746094 87.738281 28.535156 87.917969 C 24.890625 85.589844 21.414062 83.011719 18.128906 80.207031 C 18.953125 79.34375 19.835938 78.539062 20.769531 77.796875 Z M 44.636719 44.328125 C 44.972656 38.441406 48.40625 35.710938 51.992188 35.011719 C 50.972656 38.742188 51.140625 43.597656 54.832031 44.222656 C 56.59375 44.507812 57.460938 43.597656 58.738281 42.535156 C 64.191406 37.984375 59.785156 33.433594 53.632812 33.753906 C 55.925781 27.472656 61.226562 22.359375 68.261719 22.191406 C 68.328125 22.191406 68.386719 22.164062 68.433594 22.121094 C 68.480469 22.074219 68.503906 22.011719 68.503906 21.949219 C 68.503906 21.882812 68.480469 21.820312 68.433594 21.777344 C 68.386719 21.730469 68.328125 21.707031 68.261719 21.707031 C 60.664062 21.554688 54.695312 27.015625 52.339844 33.84375 C 48.285156 34.542969 44.257812 37.574219 44.152344 44.234375 C 44.144531 44.269531 44.144531 44.300781 44.152344 44.332031 C 44.160156 44.363281 44.171875 44.394531 44.191406 44.421875 C 44.207031 44.449219 44.234375 44.46875 44.257812 44.488281 C 44.285156 44.507812 44.316406 44.519531 44.347656 44.523438 C 44.382812 44.53125 44.414062 44.53125 44.445312 44.523438 C 44.476562 44.515625 44.507812 44.503906 44.535156 44.484375 C 44.5625 44.46875 44.585938 44.445312 44.601562 44.417969 C 44.621094 44.390625 44.632812 44.359375 44.636719 44.328125 Z M 53.28125 34.828125 C 55.546875 34.675781 58.917969 35.375 59.84375 37.421875 C 60.378906 38.59375 59.84375 40.035156 57.960938 41.609375 C 57.449219 42.121094 56.867188 42.558594 56.230469 42.902344 C 53.949219 43.871094 51.429688 41.066406 53.28125 34.828125 Z M 57.628906 249.40625 C 56.160156 249.015625 54.628906 248.917969 53.121094 249.125 C 51.617188 249.332031 50.167969 249.839844 48.863281 250.613281 C 47.554688 251.386719 46.417969 252.417969 45.515625 253.636719 C 44.613281 254.855469 43.960938 256.246094 43.605469 257.722656 C 42.929688 260.785156 43.5 263.992188 45.195312 266.632812 C 46.886719 269.277344 49.5625 271.140625 52.628906 271.816406 C 55.699219 272.488281 58.90625 271.917969 61.554688 270.230469 C 64.203125 268.539062 66.066406 265.867188 66.742188 262.804688 C 67.03125 261.324219 67.023438 259.804688 66.722656 258.332031 C 66.417969 256.855469 65.824219 255.457031 64.976562 254.210938 C 64.132812 252.964844 63.046875 251.898438 61.785156 251.074219 C 60.523438 250.25 59.109375 249.683594 57.628906 249.40625 Z M 62.320312 261.773438 C 61.710938 264.199219 60.253906 266.328125 58.207031 267.777344 C 56.164062 269.222656 53.667969 269.890625 51.171875 269.660156 C 48.878906 268.769531 46.976562 267.09375 45.800781 264.9375 C 44.621094 262.78125 44.242188 260.28125 44.730469 257.871094 C 45.296875 255.386719 46.742188 253.1875 48.800781 251.675781 C 50.859375 250.167969 53.394531 249.445312 55.941406 249.648438 C 58.253906 250.605469 60.15625 252.34375 61.3125 254.5625 C 62.46875 256.777344 62.804688 259.332031 62.261719 261.773438 Z M 62.320312 261.773438 " fill-opacity="1" fill-rule="nonzero"/><g clip-path="url(#e195663ed0)"><path fill="#ffffff" d="M 77.863281 253.730469 C 76.542969 253.273438 75.125 253.164062 73.746094 253.414062 C 73.175781 252.105469 72.472656 250.859375 71.648438 249.695312 C 72.636719 248.800781 75.339844 246.3125 74.6875 245.144531 C 72.363281 242.367188 69.601562 239.984375 66.515625 238.089844 C 65.226562 237.367188 63.804688 236.90625 62.335938 236.738281 C 61.363281 236.875 59.054688 240.652344 58.539062 241.503906 C 58.203125 241.503906 57.019531 241.121094 56.929688 241.078125 C 56.929688 239.984375 56.609375 236.039062 55.621094 235.585938 C 54.519531 235.179688 53.371094 234.898438 52.203125 234.75 C 51.125 234.582031 41.417969 236.359375 40.703125 237.664062 C 40.230469 238.542969 41.324219 241.867188 41.644531 242.792969 C 40.824219 243.242188 40.039062 243.75 39.289062 244.308594 C 37.769531 245.386719 38.179688 245.339844 37.90625 245.21875 C 37.578125 245.0625 37.222656 244.960938 36.859375 244.914062 C 35.644531 244.207031 34.222656 243.9375 32.832031 244.15625 C 31.433594 244.613281 28.140625 252.109375 27.605469 254.035156 C 27.433594 254.519531 27.386719 255.042969 27.46875 255.550781 C 27.835938 256.554688 30.265625 257.355469 31.285156 257.675781 C 31.003906 259.628906 31.003906 261.609375 31.285156 263.5625 C 29.945312 263.925781 27.167969 264.746094 27.320312 266.109375 C 27.46875 267.476562 31.023438 276.488281 32.5 277.203125 C 33.304688 277.652344 34.199219 277.929688 35.121094 278.015625 C 36.039062 278.101562 36.96875 277.996094 37.847656 277.703125 C 38.339844 277.457031 38.816406 277.175781 39.273438 276.867188 C 39.882812 277.324219 40.519531 277.734375 41.175781 278.128906 C 40.703125 279.296875 39.65625 281.90625 39.988281 283.089844 C 40.15625 283.710938 40.65625 283.90625 41.355469 284.164062 C 43.285156 284.863281 53.675781 287.351562 55.257812 287.078125 C 55.851562 286.988281 56.167969 286.367188 56.351562 285.773438 C 56.6875 284.425781 56.886719 283.050781 56.945312 281.664062 C 57.722656 281.585938 58.5 281.46875 59.269531 281.3125 C 59.738281 282.136719 60.335938 282.878906 61.046875 283.511719 C 61.820312 284.058594 62.472656 283.785156 63.355469 283.226562 C 63.78125 283.769531 64.417969 284.53125 65.101562 284.605469 C 66.820312 284.804688 73.914062 278.128906 74.644531 276.761719 C 75.25 275.625 73.03125 273.589844 72.046875 272.695312 C 73.113281 271.089844 73.953125 269.34375 74.535156 267.507812 C 75.632812 267.671875 76.742188 267.734375 77.847656 267.6875 C 78.351562 267.6875 78.925781 267.507812 79.140625 267.035156 C 80.066406 264.929688 79.792969 256.933594 79.140625 254.898438 C 79.046875 254.308594 78.363281 253.914062 77.863281 253.730469 Z M 78.226562 255.125 C 78.746094 257.097656 78.910156 264.546875 78.152344 266.476562 C 76.839844 266.605469 75.511719 266.542969 74.21875 266.292969 C 74.078125 266.269531 73.9375 266.296875 73.820312 266.375 C 73.699219 266.449219 73.617188 266.566406 73.578125 266.703125 C 72.972656 268.753906 72.035156 270.691406 70.800781 272.4375 C 70.710938 272.554688 70.671875 272.699219 70.6875 272.84375 C 70.707031 272.988281 70.777344 273.121094 70.890625 273.210938 C 71.957031 274.054688 72.863281 275.082031 73.5625 276.246094 C 72.804688 277.488281 66.863281 282.921875 65.222656 283.378906 C 64.980469 283.378906 64.3125 282.464844 64.144531 282.222656 C 63.582031 281.382812 63.078125 280.503906 62.625 279.597656 C 62.558594 279.46875 62.445312 279.363281 62.308594 279.3125 C 62.171875 279.257812 62.019531 279.257812 61.882812 279.3125 C 57.476562 280.964844 55.804688 279.992188 55.804688 281.085938 C 55.804688 282.722656 55.539062 284.347656 55.015625 285.894531 C 51.445312 285.507812 47.929688 284.722656 44.53125 283.558594 C 44.695312 281.9375 45.148438 280.363281 45.867188 278.902344 C 46.324219 277.882812 44.5 278.171875 41.097656 274.714844 C 40.988281 274.613281 40.84375 274.554688 40.695312 274.554688 C 40.546875 274.554688 40.402344 274.613281 40.292969 274.714844 C 38.773438 275.957031 36.796875 277.171875 36.402344 276.972656 C 35.628906 276.59375 32.058594 268.507812 31.847656 266.871094 C 32.925781 266.117188 34.152344 265.601562 35.445312 265.351562 C 35.585938 265.3125 35.703125 265.226562 35.78125 265.105469 C 35.859375 264.984375 35.890625 264.84375 35.871094 264.699219 C 35.5 262.550781 35.5 260.355469 35.871094 258.207031 C 35.894531 258.074219 35.867188 257.9375 35.792969 257.824219 C 35.71875 257.710938 35.605469 257.632812 35.476562 257.601562 C 34.332031 257.300781 33.230469 256.855469 32.195312 256.28125 C 31.859375 256.035156 31.890625 256.050781 31.921875 255.792969 C 32.90625 252.253906 34.480469 248.902344 36.585938 245.886719 C 37.40625 245.660156 39.625 247.28125 40.382812 247.859375 C 40.464844 247.9375 40.570312 247.980469 40.679688 247.980469 C 40.789062 247.980469 40.898438 247.9375 40.976562 247.859375 C 41.675781 247.136719 42.425781 246.464844 43.226562 245.855469 C 45.535156 244.113281 46.15625 244.339844 45.960938 243.734375 C 45.261719 242.210938 44.867188 240.566406 44.804688 238.894531 C 45.039062 238.695312 45.308594 238.542969 45.59375 238.4375 C 47.011719 237.878906 48.46875 237.421875 49.957031 237.070312 C 51.753906 236.570312 53.605469 236.269531 55.46875 236.175781 C 55.789062 236.3125 56.078125 237.695312 56.152344 238.117188 C 56.714844 241.152344 56.335938 241.773438 56.777344 241.820312 C 61.105469 242.246094 61.988281 243.445312 62.292969 242.914062 C 63.132812 241.441406 64.117188 240.054688 65.222656 238.769531 C 65.542969 238.453125 65.527344 238.300781 66.484375 238.847656 C 69.34375 240.714844 71.90625 243 74.082031 245.628906 C 74.308594 246.023438 72.332031 248.117188 70.890625 249.347656 C 70.390625 249.785156 71.101562 249.984375 72.410156 252.472656 C 73.714844 254.960938 73.414062 255.65625 74.109375 255.507812 C 75.457031 255.183594 76.84375 255.054688 78.226562 255.125 Z M 289.085938 128.347656 C 285.898438 127.050781 282.558594 126.167969 279.148438 125.726562 C 276.65625 125.332031 273.726562 124.9375 271.25 124.617188 C 273.632812 121.25 280.699219 112.722656 281.882812 110.644531 C 282.21875 110.082031 281.578125 109.292969 281.109375 108.824219 C 278.464844 106 273.359375 104.9375 269.441406 104.332031 C 267.191406 103.96875 257.804688 102.816406 256.207031 103.574219 C 254.292969 104.484375 240.132812 125.726562 239.710938 128.957031 C 239.710938 129.503906 239.890625 129.714844 240.421875 129.914062 C 242.65625 130.730469 252.730469 132.007812 254.976562 132.535156 C 251.9375 137.847656 238.433594 155.796875 237.109375 158.328125 C 236.792969 158.964844 236.988281 159.347656 237.371094 159.46875 C 238.738281 160.007812 240.144531 160.445312 241.578125 160.773438 C 242.125 160.9375 243.324219 160.195312 245.070312 159.132812 C 252.910156 154.429688 286.546875 132.25 289.128906 129.382812 C 289.203125 129.3125 289.257812 129.230469 289.292969 129.140625 C 289.332031 129.050781 289.347656 128.953125 289.34375 128.855469 C 289.339844 128.757812 289.3125 128.660156 289.269531 128.574219 C 289.222656 128.488281 289.160156 128.410156 289.085938 128.347656 Z M 256.4375 146.554688 C 243.523438 155.066406 239.164062 157.554688 239.011719 157.660156 C 241.089844 154.492188 254.019531 136.800781 256.238281 132.566406 C 256.277344 132.484375 256.296875 132.394531 256.296875 132.304688 C 256.296875 132.214844 256.277344 132.125 256.234375 132.042969 C 256.195312 131.964844 256.140625 131.890625 256.070312 131.835938 C 256 131.777344 255.917969 131.738281 255.828125 131.71875 C 254.308594 131.171875 243.25 129.988281 240.636719 129.0625 C 240.96875 126.242188 254.765625 104.910156 256.4375 104.058594 C 258.105469 103.210938 274.316406 105.136719 277.355469 107.304688 C 275.761719 110.417969 266.949219 121.308594 265.519531 123.84375 C 265.234375 124.359375 265.140625 124.859375 265.703125 124.996094 C 266.265625 125.132812 280.546875 126.800781 283.660156 127.820312 C 279.863281 130.988281 260.691406 143.703125 256.4375 146.496094 Z M 158.976562 53.792969 C 158.976562 53.929688 159.066406 54.097656 159.296875 54.976562 C 159.355469 55.167969 159.488281 55.328125 159.664062 55.425781 C 159.835938 55.519531 160.042969 55.546875 160.238281 55.492188 C 160.429688 55.4375 160.59375 55.304688 160.691406 55.128906 C 160.789062 54.953125 160.808594 54.746094 160.753906 54.554688 C 160.601562 53.960938 160.464844 53.460938 160.375 53.21875 C 160.285156 53.050781 160.136719 52.921875 159.960938 52.859375 C 159.78125 52.796875 159.585938 52.800781 159.414062 52.871094 C 159.238281 52.945312 159.097656 53.078125 159.015625 53.25 C 158.933594 53.417969 158.921875 53.613281 158.976562 53.792969 Z M 158.976562 53.792969 " fill-opacity="1" fill-rule="nonzero"/></g></svg>