<svg xmlns="http://www.w3.org/2000/svg" xmlns:xlink="http://www.w3.org/1999/xlink" width="400" zoomAndPan="magnify" viewBox="0 0 300 299.999988" height="400" preserveAspectRatio="xMidYMid meet" version="1.0"><defs><clipPath id="f0ddf5707d"><path d="M 11.0625 124 L 83 124 L 83 194 L 11.0625 194 Z M 11.0625 124 " clip-rule="nonzero"/></clipPath></defs><path fill="#000000" d="M 105.765625 230.5625 C 108.296875 229.667969 110.886719 228.957031 113.519531 228.4375 L 113.835938 229.609375 C 113.875 229.746094 113.957031 229.867188 114.074219 229.945312 C 114.191406 230.027344 114.332031 230.0625 114.476562 230.046875 L 124.898438 228.832031 C 127.765625 222.292969 133.03125 212.386719 133.105469 212.234375 C 133.03125 209.761719 133.105469 207.683594 133.105469 205.316406 C 127.144531 207.53125 116.113281 211.734375 110.347656 214.421875 C 110.21875 214.503906 110.117188 214.625 110.058594 214.773438 C 110.003906 214.914062 109.992188 215.074219 110.03125 215.222656 C 110.03125 215.222656 110.136719 215.605469 110.273438 216.148438 C 107.449219 216.148438 99 215.738281 96.964844 217.667969 C 96.648438 218.105469 96.496094 218.644531 96.527344 219.183594 C 96.40625 221.277344 97.453125 237.542969 99.121094 242.320312 C 99.984375 244.824219 101.804688 244.550781 103.050781 242.15625 C 104.488281 238.542969 105.414062 234.75 105.796875 230.882812 C 105.796875 230.683594 105.75 230.699219 105.765625 230.5625 Z M 104.019531 216.984375 C 105.871094 216.832031 106.449219 216.863281 110.425781 216.742188 C 111.136719 219.441406 112.609375 224.996094 113.367188 227.832031 C 110.691406 228.246094 108.046875 228.859375 105.460938 229.667969 C 104.65625 225.484375 104.175781 221.242188 104.019531 216.984375 Z M 104.019531 216.984375 " fill-opacity="1" fill-rule="nonzero"/><path fill="#000000" d="M 245.410156 84.199219 C 245.789062 83.667969 245.304688 82.984375 244.894531 82.453125 C 246.054688 81.261719 247.339844 80.199219 248.730469 79.285156 C 251.078125 78.113281 253.226562 76.578125 255.089844 74.730469 C 255.863281 73.925781 257.320312 72.273438 256.773438 71.304688 C 256.226562 70.332031 255.253906 70.269531 253.9375 70.832031 C 254.507812 70.230469 254.972656 69.539062 255.316406 68.785156 C 255.742188 67.601562 254.738281 66.644531 252.570312 67.523438 C 253.359375 66.265625 253.542969 64.945312 252.207031 64.308594 C 251.128906 63.792969 249.550781 65.023438 248.640625 65.824219 C 246.851562 67.386719 245.175781 69.070312 243.617188 70.863281 C 242.664062 68.859375 241.144531 66.554688 239.25 67.28125 C 237.351562 68.011719 238.824219 71.273438 239.796875 73.046875 L 236.351562 75.429688 C 235.832031 75.148438 235.242188 75.015625 234.652344 75.050781 C 230.738281 75.71875 212.757812 89.402344 210.9375 89.402344 C 209.542969 89.402344 189.605469 79.84375 172.371094 77.082031 C 172.335938 76.980469 172.277344 76.886719 172.191406 76.816406 C 172.109375 76.75 172.007812 76.703125 171.902344 76.6875 C 168.894531 76.175781 165.847656 75.949219 162.796875 76.007812 C 162.703125 76.011719 162.613281 76.039062 162.535156 76.082031 C 162.453125 76.128906 162.382812 76.191406 162.328125 76.265625 L 161.054688 76.265625 C 160.75 75.035156 159.625 72.199219 159.230469 71.105469 C 160.265625 70.210938 161.691406 69.753906 162.433594 68.3125 C 163.800781 65.644531 163.738281 61 163.359375 58.027344 C 165.074219 56.722656 165.117188 54.628906 164.722656 52.488281 C 164.574219 51.625 164.101562 49.667969 163.375 49.183594 C 162.964844 48.910156 162.101562 49.183594 161.355469 49.457031 C 160.613281 47.726562 160.613281 48.515625 160.917969 47.816406 C 161.058594 47.496094 161.140625 47.152344 161.160156 46.800781 C 161.964844 47.042969 163.632812 45.433594 163.054688 43.308594 C 162.753906 42.550781 162.382812 41.820312 161.949219 41.125 C 162.160156 40.609375 162.617188 39.988281 161.1875 38.089844 C 160.574219 37.429688 159.777344 36.964844 158.898438 36.757812 L 158.199219 36.757812 C 157.699219 36.023438 156.957031 35.488281 156.105469 35.238281 C 154.820312 34.910156 153.460938 35.101562 152.3125 35.769531 C 152.011719 35.996094 151.765625 36.300781 151.464844 36.511719 C 150.777344 36.097656 149.992188 35.875 149.1875 35.875 C 148.386719 35.875 147.597656 36.097656 146.914062 36.511719 C 146.511719 36.671875 146.144531 36.910156 145.835938 37.210938 C 145.53125 37.511719 145.285156 37.875 145.121094 38.273438 C 144.378906 38.015625 143.589844 37.917969 142.804688 37.984375 C 142.023438 38.046875 141.261719 38.277344 140.570312 38.652344 C 137.949219 40.074219 135.988281 42.464844 135.109375 45.3125 C 135.085938 45.742188 135.085938 46.171875 135.109375 46.601562 L 134.941406 46.601562 C 132.664062 46.269531 129.769531 51.671875 132.089844 55.871094 C 132.363281 56.375 132.710938 56.84375 133.046875 57.390625 C 134.015625 58.90625 133.636719 59.363281 135.804688 61.214844 C 136.445312 61.757812 136.550781 61.714844 136.945312 62.046875 C 137.339844 62.382812 137.1875 62.214844 137.414062 63.0625 C 137.539062 63.566406 137.761719 64.035156 138.066406 64.449219 C 138.375 64.863281 138.761719 65.214844 139.207031 65.476562 C 139.367188 66.960938 140 68.355469 141.011719 69.453125 C 141.332031 69.808594 141.703125 70.117188 142.117188 70.363281 C 142.230469 70.425781 142.355469 70.460938 142.480469 70.46875 C 142.9375 73.289062 143.5 76.960938 143.742188 78.523438 L 142.390625 79.253906 C 140.625 79.964844 138.90625 80.789062 137.246094 81.726562 C 137.117188 81.816406 137.027344 81.953125 136.988281 82.105469 C 135.382812 82.953125 133.863281 83.757812 133 84.273438 C 120.953125 91.421875 86.742188 138.53125 86.390625 140.683594 C 86.351562 140.808594 86.351562 140.941406 86.390625 141.0625 C 86.882812 141.847656 87.480469 142.554688 88.167969 143.171875 C 87.953125 143.558594 87.699219 143.917969 87.40625 144.25 C 84.375 146.238281 79.820312 149.195312 77.378906 151.835938 C 77.207031 151.988281 77.078125 152.183594 77.007812 152.402344 C 76.933594 152.617188 76.917969 152.851562 76.960938 153.074219 C 77.007812 153.300781 77.109375 153.511719 77.257812 153.683594 C 77.410156 153.859375 77.601562 153.988281 77.820312 154.066406 C 78.273438 154.21875 78.351562 154.171875 81.308594 152.550781 C 80.496094 153.261719 79.832031 154.128906 79.351562 155.097656 C 79.15625 155.933594 79.914062 156.417969 80.867188 156.265625 C 81.40625 156.125 81.917969 155.898438 82.386719 155.597656 C 82.113281 156.019531 81.964844 156.511719 81.964844 157.015625 C 81.964844 157.519531 82.113281 158.011719 82.386719 158.4375 C 83.902344 160.347656 87.878906 154.324219 89.972656 152.835938 C 90.820312 153.914062 91.976562 156.433594 93.808594 155.765625 C 95.402344 155.171875 93.660156 151.667969 93.808594 150.652344 C 94.429688 150.058594 95.085938 149.511719 95.78125 149.015625 C 96.953125 149.882812 98.292969 150.496094 99.710938 150.820312 C 102.214844 150.820312 128.34375 124.449219 130.328125 122.339844 C 129.617188 129.046875 126.019531 157.828125 126.777344 163.425781 C 127.128906 165.960938 133.210938 166.324219 135.777344 166.460938 C 135.003906 184.667969 134.488281 212.25 134.351562 212.539062 C 130.328125 221.203125 129.238281 223.570312 127.886719 226.195312 C 125.429688 230.898438 115.082031 248.253906 113.914062 252.199219 C 113.746094 252.820312 113.730469 253.0625 114.382812 254.214844 C 112.429688 256.269531 110.613281 258.457031 108.953125 260.753906 C 108.117188 262.273438 111.699219 276.414062 114.230469 281.417969 C 114.808594 282.542969 115.75 284.273438 117.007812 284.226562 C 120.800781 284.089844 120.785156 270.464844 120.679688 266.65625 C 120.679688 266.539062 120.636719 266.425781 120.558594 266.339844 C 121.246094 265.3125 121.996094 264.328125 122.804688 263.394531 C 123.285156 263.726562 123.792969 264.019531 124.320312 264.277344 C 124.835938 264.503906 125.414062 264.109375 125.839844 263.757812 C 130.890625 259.785156 158.140625 225.828125 163.980469 209.808594 C 166.636719 202.496094 170.171875 192.390625 171.171875 185.230469 C 171.785156 180.703125 171.839844 176.117188 171.339844 171.574219 C 171.339844 171.511719 171.363281 171.449219 171.410156 171.402344 C 171.457031 171.359375 171.519531 171.332031 171.582031 171.332031 C 171.648438 171.332031 171.707031 171.359375 171.753906 171.402344 C 171.800781 171.449219 171.824219 171.511719 171.824219 171.574219 C 172.585938 176.140625 172.734375 180.789062 172.265625 185.394531 C 171.140625 195.332031 163.296875 216.042969 159.109375 223.660156 C 162.722656 222.992188 170.066406 221.535156 173.613281 220.472656 C 185.449219 216.878906 196.375 206.152344 197.328125 194.105469 C 197.636719 188.429688 197.636719 182.742188 197.328125 177.066406 C 197.226562 169.230469 196.207031 161.4375 194.292969 153.839844 C 197.511719 152.09375 200.453125 150.046875 201.410156 148.164062 C 203.457031 144.144531 198.042969 121.007812 196.859375 114.511719 C 203.335938 115.226562 214.367188 116.515625 219.511719 112.496094 C 225.398438 107.761719 238.113281 94.441406 245.410156 84.199219 Z M 119.859375 265.824219 C 117.128906 264.167969 113.304688 260.238281 112.730469 257.160156 C 113.351562 256.371094 114.003906 255.640625 114.613281 254.824219 C 116.667969 257.960938 119.230469 260.734375 122.199219 263.03125 C 121.363281 263.914062 120.582031 264.847656 119.859375 265.824219 Z M 240.476562 73.472656 C 240.554688 73.421875 240.613281 73.34375 240.636719 73.253906 C 240.65625 73.164062 240.644531 73.066406 240.597656 72.988281 C 240.070312 72 238.476562 68.527344 239.582031 68.132812 C 240.21875 67.890625 240.78125 68.285156 241.25 68.816406 C 241.96875 69.726562 242.53125 70.75 242.90625 71.847656 C 242.933594 71.9375 242.984375 72.019531 243.054688 72.082031 C 243.125 72.140625 243.210938 72.183594 243.304688 72.199219 C 243.394531 72.21875 243.488281 72.210938 243.578125 72.175781 C 243.664062 72.144531 243.742188 72.089844 243.800781 72.015625 C 245.316406 70.332031 248.867188 66.492188 250.871094 65.460938 C 252.386719 64.671875 252.753906 66.128906 249.035156 69.527344 C 248.179688 70.179688 247.359375 70.871094 246.578125 71.605469 C 246.535156 71.664062 246.511719 71.738281 246.511719 71.8125 C 246.511719 71.882812 246.535156 71.957031 246.578125 72.015625 C 246.578125 72.410156 246.894531 72.851562 247.441406 72.441406 C 248.761719 71.28125 250.15625 70.214844 251.613281 69.238281 C 252.359375 68.710938 253.226562 68.375 254.132812 68.269531 C 253.679688 69.664062 249.445312 73.457031 249.082031 73.882812 C 248.964844 73.984375 248.894531 74.128906 248.886719 74.285156 C 248.875 74.441406 248.925781 74.59375 249.027344 74.710938 C 249.128906 74.828125 249.273438 74.898438 249.425781 74.914062 C 249.582031 74.925781 249.734375 74.875 249.855469 74.777344 C 251.539062 73.683594 254.480469 71.136719 255.5 71.515625 C 256.515625 71.894531 253.496094 74.714844 252.738281 75.382812 C 248.382812 79.160156 249.503906 76.734375 244.46875 81.863281 C 242.277344 79.460938 239.757812 77.378906 236.988281 75.671875 Z M 174.554688 146.039062 C 174.296875 143.945312 173.980469 141.6875 173.585938 139.335938 L 174.238281 138.46875 C 177.273438 134.570312 178.183594 128.363281 177.894531 123.496094 C 179.515625 130.609375 180.808594 137.605469 181.792969 144.554688 Z M 151.996094 94.089844 C 148.003906 91.058594 141.585938 85.824219 137.855469 82.242188 L 143.921875 79.207031 C 149.496094 84.414062 154.265625 90.414062 158.078125 97.019531 C 163.90625 107.730469 168.234375 119.191406 170.929688 131.082031 L 149.292969 100.480469 L 152.117188 94.621094 C 152.152344 94.53125 152.160156 94.433594 152.140625 94.335938 C 152.117188 94.242188 152.066406 94.15625 151.996094 94.089844 Z M 162.25 76.886719 C 162.34375 77.054688 163.390625 79.285156 164.980469 83.183594 C 164.980469 83.347656 164.695312 87.140625 164.558594 88.476562 C 162.621094 87.710938 160.792969 86.691406 159.125 85.441406 C 159.460938 84.125 160.960938 78.128906 161.066406 76.78125 Z M 156.867188 93.179688 C 156.972656 92.90625 157.078125 92.542969 157.199219 92.117188 L 158.214844 92.648438 C 158.792969 93.027344 158.566406 91.875 159.082031 95.214844 C 159.082031 95.773438 159.230469 96.398438 159.261719 97.082031 C 158.566406 95.820312 157.699219 94.46875 156.878906 93.179688 Z M 156.015625 91.90625 C 153.148438 87.839844 149.886719 84.070312 146.273438 80.648438 L 157.699219 85.609375 C 157.261719 86.65625 156.621094 89.859375 156.03125 91.90625 Z M 167.683594 100.796875 C 166.164062 96.65625 164.996094 92.027344 164.421875 90.8125 C 164.457031 90.433594 164.457031 90.054688 164.421875 89.675781 C 164.640625 89.757812 164.871094 89.808594 165.105469 89.828125 C 165.25 89.828125 165.390625 89.777344 165.503906 89.683594 C 165.613281 89.589844 165.6875 89.457031 165.710938 89.3125 C 165.832031 88.8125 166.027344 86.277344 166.058594 85.714844 C 170.472656 96.859375 174.15625 108.277344 177.089844 119.898438 C 168.515625 101.660156 169.835938 106.941406 167.699219 100.796875 Z M 180.230469 129.761719 C 176.769531 113.175781 170.6875 92.5 163.769531 77.175781 C 166.308594 77.175781 168.847656 77.378906 171.355469 77.78125 C 172.644531 89.3125 171.566406 88.917969 172.433594 89.371094 C 173.296875 89.828125 178.5 91.921875 179.273438 92.238281 C 179.199219 93.410156 180.289062 126.816406 180.246094 129.761719 Z M 162.765625 50.152344 C 163.558594 51.878906 163.835938 53.796875 163.570312 55.675781 C 163.449219 56.152344 163.195312 56.589844 162.835938 56.933594 C 162.480469 57.273438 162.039062 57.511719 161.554688 57.617188 C 161.074219 57.722656 160.570312 57.691406 160.105469 57.527344 C 159.636719 57.363281 159.226562 57.074219 158.914062 56.691406 C 158.191406 55.167969 157.644531 53.5625 157.289062 51.914062 C 157.699219 51.382812 162.070312 50.320312 162.765625 50.152344 Z M 141.890625 65.324219 C 141.335938 65.074219 140.769531 64.851562 140.191406 64.65625 C 139.804688 64.5 139.457031 64.253906 139.179688 63.9375 C 138.902344 63.625 138.699219 63.25 138.585938 62.847656 C 138.476562 62.441406 138.457031 62.019531 138.535156 61.605469 C 138.613281 61.195312 138.785156 60.804688 139.039062 60.46875 C 139.992188 59.664062 140.859375 59.710938 141.648438 60.910156 C 142.148438 61.835938 142.132812 61.910156 142.359375 62.003906 C 142.425781 62.03125 142.496094 62.046875 142.566406 62.042969 C 142.640625 62.042969 142.710938 62.027344 142.773438 61.996094 C 142.839844 61.96875 142.894531 61.925781 142.941406 61.871094 C 142.988281 61.816406 143.023438 61.753906 143.042969 61.683594 C 143.269531 60.734375 143.304688 59.75 143.148438 58.785156 C 142.96875 57.738281 142.9375 53.097656 142.96875 52.945312 C 143.410156 53.179688 143.910156 53.289062 144.410156 53.261719 C 147.15625 53.15625 147.703125 51.746094 148.792969 50.59375 C 150.054688 50.714844 150.3125 51.320312 151.738281 50.59375 C 152.40625 50.214844 153.019531 49.742188 153.558594 49.195312 C 153.992188 49.375 154.414062 49.589844 154.816406 49.835938 C 155.726562 50.273438 156.75 50.40625 157.742188 50.21875 C 158.734375 50.027344 159.640625 49.527344 160.324219 48.789062 C 160.492188 49.105469 160.644531 49.425781 160.78125 49.757812 C 159.386719 50.191406 158.074219 50.851562 156.894531 51.714844 C 156.636719 52.035156 157.015625 53.765625 157.109375 54.171875 C 155.835938 54.332031 154.605469 54.730469 153.480469 55.34375 C 153.253906 54.554688 152.753906 53.082031 151.964844 52.671875 C 151.726562 52.597656 151.472656 52.597656 151.238281 52.671875 C 149.871094 52.882812 144.96875 54.355469 144.378906 55.160156 C 143.863281 55.722656 145.335938 60.058594 145.789062 60.773438 C 147.535156 63.472656 152.648438 62.683594 153.601562 59.53125 C 153.839844 58.46875 153.839844 57.371094 153.601562 56.3125 C 154.042969 56.3125 155.363281 55.84375 155.515625 55.796875 C 156.5625 58.148438 156.867188 58.285156 158.078125 60.820312 C 157.914062 60.957031 157.640625 61.183594 157.410156 61.335938 C 156.335938 62.046875 156.105469 61.925781 156.167969 62.230469 C 156.183594 62.289062 156.222656 62.34375 156.277344 62.375 C 156.332031 62.410156 156.394531 62.421875 156.457031 62.410156 C 157.09375 62.320312 157.714844 62.148438 158.308594 61.894531 C 158.660156 61.765625 158.953125 61.503906 159.125 61.167969 C 159.550781 60.210938 157.199219 56.617188 156.273438 55.539062 C 156.457031 55.539062 156.878906 55.234375 157.199219 55.070312 C 157.625 56.769531 157.914062 58.101562 159.550781 58.769531 C 160.023438 58.949219 160.53125 59.03125 161.035156 59.011719 C 161.539062 58.988281 162.035156 58.867188 162.496094 58.648438 C 162.738281 61.320312 162.691406 65.660156 161.417969 68.027344 C 160.765625 69.253906 159.15625 69.726562 158.125 70.742188 C 157.820312 71.03125 158.019531 71.4375 158.125 71.878906 C 159.808594 76.566406 159.839844 76.550781 159.746094 77.160156 C 159.300781 79.679688 158.675781 82.164062 157.882812 84.59375 C 157.503906 84.425781 153.238281 82.164062 144.894531 78.917969 C 144.636719 77.203125 143.257812 68.054688 142.816406 66.371094 C 142.847656 65.78125 142.769531 65.644531 141.890625 65.25 Z M 152.511719 59.136719 C 152.027344 60.789062 149.734375 61.5 148.097656 61.046875 C 146.457031 60.589844 146.351562 59.757812 145.578125 57.785156 C 145.214844 57.03125 144.964844 56.230469 144.832031 55.402344 C 145.335938 54.855469 150.8125 53.734375 151.496094 53.628906 C 152.453125 55.265625 152.8125 57.183594 152.511719 59.058594 Z M 93.144531 150.226562 C 92.566406 150.789062 93.339844 152.625 93.460938 154.21875 C 93.460938 154.355469 93.460938 154.945312 93.371094 154.992188 C 92.535156 155.265625 91.761719 154.003906 91.292969 153.246094 C 90.820312 152.488281 90.351562 151.457031 89.609375 151.730469 C 88.089844 152.441406 84.570312 157.117188 83.191406 157.601562 C 82.492188 156.265625 86.484375 152.457031 86.617188 152.246094 C 86.675781 152.148438 86.707031 152.035156 86.707031 151.921875 C 86.707031 151.808594 86.675781 151.695312 86.617188 151.601562 C 86.558594 151.503906 86.472656 151.425781 86.371094 151.371094 C 86.269531 151.320312 86.15625 151.296875 86.042969 151.304688 C 85.769531 151.304688 85.585938 151.546875 85.164062 151.925781 C 83.871094 153.1875 82.390625 154.242188 80.777344 155.050781 C 82.242188 153.375 83.804688 151.789062 85.464844 150.304688 C 85.546875 150.21875 85.605469 150.113281 85.632812 150 C 85.632812 150 85.3125 149.195312 84.691406 149.515625 C 83.8125 150 79.535156 152.472656 78.183594 153.109375 C 78 152.988281 78.109375 152.808594 78.183594 152.625 C 80.324219 150 85.027344 146.8125 87.910156 144.796875 C 88.246094 144.449219 88.527344 144.046875 88.742188 143.613281 C 90.738281 145.46875 92.867188 147.179688 95.117188 148.726562 C 94.421875 149.179688 93.765625 149.679688 93.144531 150.226562 Z M 128.449219 164.019531 C 128.113281 163.804688 127.871094 163.609375 127.824219 163.335938 C 126.992188 157.144531 131.632812 122.066406 131.558594 120.6875 C 131.558594 120.605469 131.542969 120.527344 131.511719 120.453125 C 131.480469 120.378906 131.433594 120.308594 131.375 120.253906 C 131.316406 120.195312 131.25 120.152344 131.171875 120.121094 C 131.097656 120.09375 131.015625 120.078125 130.9375 120.082031 C 130.164062 120.082031 131.527344 120.082031 112.199219 138.589844 C 110.925781 139.789062 101.183594 149.105469 99.5625 149.726562 C 97.332031 149.558594 88.941406 142.871094 87.574219 140.761719 C 90.214844 135.417969 122.226562 91.480469 133.304688 84.761719 C 134.152344 84.246094 135.609375 83.441406 137.203125 82.589844 C 137.753906 83.109375 138.347656 83.582031 138.976562 84 C 142.496094 87.339844 147.398438 91.496094 151.113281 94.621094 L 148.21875 100.371094 C 148.171875 100.449219 148.148438 100.535156 148.148438 100.621094 C 148.148438 100.710938 148.171875 100.796875 148.21875 100.875 C 171.75 134.628906 171.398438 134.25 171.550781 134.25 C 173.058594 142.050781 174 149.953125 174.359375 157.890625 C 174.359375 160.027344 174.359375 159.847656 174.449219 159.695312 C 174.539062 159.542969 174.449219 159.800781 174.449219 159.800781 C 170.777344 163.804688 134.441406 167.539062 128.449219 164.019531 Z M 212.320312 113.753906 C 205.445312 114.710938 197.679688 113.285156 196.175781 113.222656 C 195.339844 109.179688 193.679688 105.351562 191.289062 101.980469 C 191.253906 101.929688 191.199219 101.898438 191.140625 101.886719 C 191.082031 101.875 191.019531 101.886719 190.964844 101.921875 C 190.914062 101.953125 190.878906 102.003906 190.859375 102.0625 C 190.84375 102.121094 190.851562 102.183594 190.882812 102.238281 C 191.761719 104.027344 194.703125 111.75 195.433594 113.632812 C 195.203125 114.359375 202.289062 143.65625 200.289062 147.601562 C 198.496094 151.167969 188.074219 155.660156 184.3125 156.949219 C 183.566406 148.503906 182.351562 140.105469 180.671875 131.792969 C 181.1875 127.425781 180.519531 101.449219 180.320312 91.847656 C 180.316406 91.734375 180.277344 91.625 180.214844 91.535156 C 180.148438 91.445312 180.058594 91.371094 179.957031 91.328125 L 173.144531 88.460938 C 173.113281 84.855469 172.886719 81.253906 172.460938 77.675781 C 189.46875 80.617188 209.285156 90.34375 210.9375 90.359375 C 213.335938 90.359375 231.148438 76.703125 234.835938 76.15625 C 236.472656 75.898438 243.511719 82.042969 244.332031 83.742188 C 237.140625 93.789062 224.503906 106.988281 218.644531 111.554688 C 216.757812 112.816406 214.582031 113.574219 212.320312 113.753906 Z M 212.320312 113.753906 " fill-opacity="1" fill-rule="nonzero"/><path fill="#000000" d="M 150.949219 56.101562 C 150.929688 56 150.890625 55.90625 150.835938 55.820312 C 150.78125 55.738281 150.707031 55.664062 150.625 55.605469 C 150.539062 55.550781 150.445312 55.507812 150.347656 55.488281 C 150.246094 55.46875 150.144531 55.46875 150.046875 55.484375 C 149.945312 55.503906 149.851562 55.542969 149.765625 55.597656 C 149.679688 55.65625 149.609375 55.726562 149.550781 55.808594 C 149.492188 55.894531 149.453125 55.988281 149.433594 56.085938 C 149.414062 56.1875 149.410156 56.289062 149.429688 56.390625 C 149.734375 57.90625 149.796875 58.253906 150.460938 58.253906 C 150.589844 58.253906 150.714844 58.222656 150.824219 58.164062 C 150.933594 58.105469 151.03125 58.019531 151.097656 57.914062 C 151.167969 57.808594 151.210938 57.6875 151.222656 57.5625 C 151.230469 57.433594 151.210938 57.308594 151.160156 57.191406 C 151.113281 56.949219 150.980469 56.238281 150.949219 56.101562 Z M 155.589844 66.144531 C 156.578125 66.433594 157.519531 65.960938 157.488281 65.71875 C 157.457031 65.476562 157.488281 65.597656 156.152344 65.097656 C 155.257812 64.765625 154.269531 63.582031 153.921875 63.761719 C 153.574219 63.945312 154.105469 64.914062 154.226562 65.097656 C 154.550781 65.589844 155.03125 65.957031 155.589844 66.144531 Z M 183.339844 51.730469 C 181.351562 60.058594 179.894531 67.128906 179.652344 68.542969 C 179.492188 69.15625 179.460938 69.796875 179.5625 70.421875 C 180.367188 72.136719 190.757812 75.519531 192.078125 74.851562 C 193.398438 74.1875 196.828125 66.464844 200.820312 58.496094 C 203.261719 58.574219 205.710938 58.398438 208.117188 57.964844 C 210.652344 57.5 213.117188 56.722656 215.460938 55.644531 C 220.585938 53.277344 226.203125 43.144531 226.960938 38.046875 C 227.527344 32.511719 226.355469 26.9375 223.605469 22.101562 C 210.878906 0.0234375 173.539062 11.90625 176.574219 36.421875 C 177.441406 42.03125 179.773438 47.3125 183.339844 51.730469 Z M 192.59375 69.800781 C 192.59375 70.042969 192.324219 70.011719 191.078125 69.800781 C 188.535156 69.480469 186.070312 68.695312 183.8125 67.480469 C 182.75 66.902344 182.460938 66.78125 182.566406 66.523438 C 182.671875 66.265625 182.902344 66.355469 184.539062 66.8125 C 184.691406 66.8125 189.394531 68.328125 190.746094 68.800781 C 192.488281 69.589844 192.59375 69.589844 192.59375 69.800781 Z M 192.324219 45.117188 C 193.941406 45.199219 195.558594 44.867188 197.011719 44.144531 C 198.363281 44.800781 199.824219 45.195312 201.320312 45.3125 C 198.769531 50.0625 193.597656 59.742188 191.929688 64.898438 L 185.496094 63.125 C 187.011719 59.394531 190.363281 50.652344 192.292969 45.117188 Z M 191.792969 43.855469 C 190.660156 43.6875 189.613281 43.148438 188.816406 42.324219 C 188.019531 41.503906 187.511719 40.441406 187.375 39.304688 C 186.953125 36.269531 188.894531 32.871094 191.820312 33.675781 C 193.65625 34.175781 193.886719 35.632812 193.566406 37.46875 C 193.292969 38.804688 192.308594 42.15625 191.761719 43.796875 Z M 195.917969 40.214844 C 196.082031 39.222656 196.453125 38.277344 197.011719 37.4375 C 197.277344 36.984375 197.664062 36.609375 198.132812 36.363281 C 198.597656 36.117188 199.125 36.003906 199.648438 36.042969 C 200.773438 36.375 201.257812 38.5 200.332031 39.835938 C 199.445312 41.015625 198.335938 42.015625 197.070312 42.78125 C 196.636719 42.523438 196.289062 42.140625 196.078125 41.683594 C 195.867188 41.226562 195.800781 40.710938 195.886719 40.214844 Z M 181.976562 20.933594 C 188.773438 12.753906 201.5625 9.507812 210.800781 12.875 C 215.820312 14.597656 220.042969 18.085938 222.679688 22.691406 C 225.296875 27.292969 226.414062 32.597656 225.882812 37.863281 C 225.183594 42.582031 219.8125 52.382812 215.09375 54.554688 C 210.78125 56.519531 206.074219 57.476562 201.335938 57.34375 C 200.820312 57.34375 200.273438 57.34375 200.074219 57.707031 C 199.179688 59.53125 197.542969 63.050781 195.933594 66.355469 C 194.824219 65.820312 193.671875 65.375 192.488281 65.023438 C 194.25 59.984375 199.800781 50.09375 202.441406 45.296875 C 204.730469 45.492188 207.027344 45.097656 209.117188 44.144531 C 209.683594 43.847656 210.148438 43.394531 210.464844 42.84375 C 210.785156 42.289062 210.933594 41.65625 210.90625 41.019531 C 210.875 40.382812 210.664062 39.765625 210.296875 39.246094 C 209.929688 38.722656 209.417969 38.320312 208.828125 38.074219 C 206.476562 36.921875 204.367188 39.683594 203.140625 42.003906 C 202.804688 42.613281 202.425781 43.324219 202.003906 44.128906 C 200.773438 44.050781 199.566406 43.800781 198.40625 43.386719 C 199.558594 42.574219 200.582031 41.59375 201.441406 40.472656 C 201.921875 39.746094 202.164062 38.890625 202.136719 38.023438 C 202.109375 37.152344 201.8125 36.3125 201.289062 35.617188 C 200.878906 35.140625 200.304688 34.828125 199.679688 34.742188 C 199.050781 34.65625 198.417969 34.800781 197.890625 35.148438 C 196.828125 35.800781 195.976562 36.746094 195.4375 37.871094 C 194.898438 38.996094 194.699219 40.253906 194.855469 41.488281 C 195.019531 42.1875 195.398438 42.820312 195.933594 43.296875 C 194.9375 43.707031 193.871094 43.914062 192.792969 43.902344 C 193.398438 42.113281 194.386719 38.878906 194.644531 37.558594 C 194.804688 36.808594 194.839844 36.035156 194.75 35.269531 C 194.632812 34.613281 194.328125 34.003906 193.871094 33.519531 C 193.417969 33.03125 192.832031 32.683594 192.1875 32.523438 C 188.5 31.476562 185.78125 35.558594 186.3125 39.367188 C 186.464844 40.730469 187.050781 42.011719 187.984375 43.015625 C 188.917969 44.023438 190.152344 44.699219 191.503906 44.949219 C 189.5625 50.410156 186.527344 59.226562 185.007812 62.988281 L 181.671875 62.125 C 183.8125 51.382812 184.070312 51.640625 183.765625 51.503906 C 180.316406 47.109375 178.113281 41.867188 177.378906 36.332031 C 177.019531 33.585938 177.246094 30.796875 178.035156 28.140625 C 178.828125 25.488281 180.171875 23.03125 181.976562 20.933594 Z M 203.035156 44.222656 C 204.097656 42.292969 206.21875 38.078125 208.28125 39.109375 C 208.695312 39.273438 209.054688 39.550781 209.324219 39.90625 C 209.589844 40.261719 209.753906 40.683594 209.800781 41.125 C 209.769531 43.796875 205.613281 44.265625 202.972656 44.222656 Z M 261.113281 50.910156 C 262.941406 49.835938 265.101562 49.46875 267.179688 49.878906 C 269.464844 49.921875 271.652344 50.835938 273.285156 52.433594 C 274.917969 54.035156 275.875 56.199219 275.964844 58.484375 C 274.589844 57.683594 272.984375 57.386719 271.414062 57.632812 C 267.605469 57.964844 262.628906 60.03125 263.296875 63.703125 C 263.84375 66.734375 267.847656 66.328125 270.882812 65.507812 C 273.917969 64.6875 276.328125 63.199219 276.953125 60.273438 C 280.636719 62.957031 281.503906 67.660156 281.65625 72.257812 C 281.65625 72.324219 281.679688 72.386719 281.726562 72.429688 C 281.773438 72.476562 281.832031 72.5 281.898438 72.5 C 281.960938 72.5 282.023438 72.476562 282.070312 72.429688 C 282.113281 72.386719 282.140625 72.324219 282.140625 72.257812 C 282.246094 67.117188 281.320312 62.078125 277.117188 59.148438 C 277.160156 57.832031 276.9375 56.519531 276.457031 55.292969 C 275.980469 54.066406 275.257812 52.945312 274.332031 52.007812 C 273.410156 51.066406 272.304688 50.324219 271.085938 49.820312 C 269.867188 49.320312 268.558594 49.070312 267.242188 49.089844 C 265.136719 48.785156 262.988281 49.222656 261.171875 50.335938 C 260.613281 50.609375 260.871094 51.019531 261.113281 50.910156 Z M 274.949219 61.789062 C 273.234375 64.035156 268.378906 65.203125 266.132812 64.824219 C 265.300781 64.6875 264.617188 64.339844 264.433594 63.472656 C 263.886719 60.441406 269.121094 58.785156 272.25 58.679688 C 273.519531 58.582031 274.789062 58.90625 275.859375 59.605469 C 275.746094 60.398438 275.429688 61.148438 274.949219 61.789062 Z M 254.164062 33.175781 C 255.785156 31.171875 254.695312 27.683594 250.15625 27.667969 C 248.398438 27.667969 247.546875 29.457031 247.667969 31.171875 C 247.941406 35.253906 252.539062 35.132812 254.164062 33.175781 Z M 248.730469 31.097656 C 248.730469 30.09375 249.203125 28.789062 250.25 28.804688 C 252.691406 28.804688 253.8125 29.945312 253.8125 31.203125 C 253.753906 34.070312 248.535156 35.558594 248.730469 31.097656 Z M 248.109375 203.101562 C 234.773438 197.777344 228.582031 223.554688 217.691406 245.703125 C 217.621094 246.636719 217.652344 247.570312 217.78125 248.496094 C 217.78125 250.816406 218.039062 266.1875 219.390625 267.933594 C 219.753906 268.628906 221.285156 267.933594 222 267.492188 C 228.054688 263.742188 233.761719 259.457031 239.050781 254.6875 C 239.097656 254.636719 239.132812 254.574219 239.152344 254.511719 C 239.171875 254.445312 239.179688 254.375 239.171875 254.308594 C 241.996094 250.285156 252.570312 229.347656 255.132812 218.851562 C 256.925781 211.417969 255.148438 205.878906 248.109375 203.101562 Z M 252.875 222.371094 C 245.734375 221.457031 238.832031 219.199219 232.527344 215.726562 C 236.078125 209.003906 240.464844 201.34375 247.699219 204.226562 C 255.757812 207.425781 255.589844 214.054688 252.875 222.324219 Z M 227.628906 261.816406 C 227.160156 261.425781 226.652344 261.089844 226.109375 260.816406 C 224.058594 259.773438 221.691406 259.546875 219.480469 260.179688 C 219.328125 258.375 218.464844 246.628906 218.464844 246.523438 C 229.828125 250.679688 226.324219 248.875 237.582031 254.472656 C 236.398438 255.597656 231.953125 258.707031 227.628906 261.789062 Z M 235.457031 217.910156 C 236.9375 218.71875 238.453125 219.453125 240.007812 220.109375 C 236.53125 225.574219 233.457031 231.28125 230.8125 237.195312 C 228.265625 242.519531 228.355469 242.488281 225.761719 248.300781 C 224.242188 247.8125 222.726562 247.359375 221.210938 246.902344 C 222.847656 243.640625 234.5 219.792969 235.457031 217.878906 Z M 226.351562 248.449219 C 231.285156 239.605469 236.304688 228.605469 240.613281 220.308594 C 242.132812 220.945312 243.648438 221.460938 245.167969 221.914062 C 244.363281 223.433594 242.011719 227.46875 241.386719 228.636719 C 240.765625 229.804688 234.53125 242.09375 234.089844 243.035156 C 233.394531 244.550781 231.480469 248.785156 230.890625 250.136719 C 229.34375 249.453125 227.855469 248.9375 226.292969 248.421875 Z M 231.4375 250.332031 C 232.359375 248.648438 236.167969 241.578125 236.640625 240.667969 C 237.351562 239.257812 245.304688 223.007812 245.742188 222.066406 C 247.136719 222.460938 248.609375 222.796875 249.550781 222.976562 C 246.773438 230.5625 238.777344 245.175781 235.894531 252.378906 C 233.269531 251.152344 232.679688 250.847656 231.375 250.300781 Z M 232.359375 216.164062 L 235.078125 217.683594 C 229.605469 227.003906 224.835938 236.71875 220.816406 246.75 L 218.539062 246.054688 C 227.355469 227.269531 227.765625 224.8125 232.300781 216.132812 Z M 238.613281 253.699219 L 236.320312 252.609375 C 238.792969 247.753906 246.53125 235.296875 250.066406 223.082031 C 250.917969 223.234375 251.75 223.371094 252.554688 223.476562 C 248.65625 233.882812 243.972656 243.972656 238.550781 253.671875 Z M 191.078125 263.546875 C 191.683594 263.046875 192.113281 262.367188 192.3125 261.609375 C 192.511719 260.847656 192.46875 260.046875 192.1875 259.3125 C 192.058594 258.257812 191.570312 257.273438 190.8125 256.53125 C 190.050781 255.785156 189.058594 255.320312 188 255.214844 C 186.9375 255.109375 185.875 255.367188 184.980469 255.949219 C 184.085938 256.527344 183.417969 257.394531 183.082031 258.402344 C 181.140625 257.144531 179.03125 255.808594 177.015625 254.535156 C 178.53125 252.515625 182.992188 253.414062 183.445312 255.066406 C 183.457031 255.128906 183.492188 255.1875 183.542969 255.226562 C 183.597656 255.265625 183.664062 255.28125 183.726562 255.269531 C 183.792969 255.261719 183.847656 255.226562 183.886719 255.171875 C 183.925781 255.121094 183.941406 255.054688 183.933594 254.988281 C 183.703125 252.351562 178.210938 250.800781 175.996094 253.914062 C 174.039062 252.714844 171.613281 251.257812 169.578125 250.148438 C 171.324219 248.632812 175.222656 249.484375 175.648438 251.0625 C 175.667969 251.113281 175.707031 251.160156 175.757812 251.1875 C 175.808594 251.214844 175.863281 251.226562 175.921875 251.214844 C 175.976562 251.203125 176.027344 251.171875 176.066406 251.128906 C 176.101562 251.082031 176.121094 251.027344 176.117188 250.96875 C 175.921875 248.511719 170.839844 246.859375 168.53125 249.558594 C 167.566406 249.015625 166.550781 248.570312 165.5 248.222656 C 165.304688 248.144531 165.09375 248.121094 164.890625 248.160156 C 164.6875 248.195312 164.496094 248.292969 164.34375 248.4375 C 160.507812 253.214844 147.566406 265.625 141.585938 267.066406 C 141.4375 267.089844 141.296875 267.152344 141.175781 267.246094 C 141.058594 267.339844 140.964844 267.464844 140.910156 267.605469 C 140.855469 267.75 140.839844 267.902344 140.859375 268.050781 C 140.882812 268.203125 140.945312 268.34375 141.039062 268.464844 C 142.351562 269.796875 143.855469 270.925781 145.5 271.816406 C 143.984375 273.332031 142.800781 274.699219 141.921875 275.683594 C 141.464844 276.171875 141.222656 285.457031 141.617188 287.503906 C 141.675781 287.703125 141.804688 287.878906 141.980469 287.988281 C 143.894531 289.292969 168.515625 299.945312 171.035156 298.519531 C 172.71875 297.5625 192.824219 276.640625 193.140625 276.003906 C 193.628906 275.003906 193.460938 268.328125 193.429688 265.65625 C 193.308594 264.851562 191.804688 263.988281 191.078125 263.546875 Z M 142.527344 283.589844 L 142.527344 280.207031 C 148.824219 283.242188 163.238281 289.429688 168.699219 291.160156 C 170.09375 291.617188 170.214844 291.554688 170.945312 291.160156 C 175.117188 288.488281 189.847656 271.890625 192.550781 269.359375 L 192.550781 272.558594 C 184.355469 280.765625 170.445312 295.152344 170.1875 294.332031 C 168.683594 294.238281 143.832031 284.195312 142.527344 283.589844 Z M 190.699219 258.433594 C 191.246094 259.351562 191.539062 260.398438 191.546875 261.46875 C 191.542969 261.808594 191.460938 262.144531 191.304688 262.445312 C 191.148438 262.746094 190.925781 263.011719 190.652344 263.214844 C 189.378906 262.363281 186.964844 260.785156 184.113281 258.933594 C 185.675781 255.855469 189.152344 255.808594 190.636719 258.433594 Z M 142.148438 268.144531 C 148.613281 266.234375 160.886719 254.398438 165.011719 249.269531 C 166.003906 249.546875 166.964844 249.9375 167.863281 250.4375 C 166.347656 253.261719 167.972656 256.355469 168.546875 255.914062 C 168.867188 255.671875 168.289062 255.582031 168.199219 254.09375 C 168.160156 253.007812 168.40625 251.929688 168.910156 250.96875 C 171.003906 252.0625 173.464844 253.488281 175.542969 254.6875 C 174.269531 257.523438 175.800781 260.332031 176.332031 259.921875 C 176.863281 259.511719 176.089844 259.601562 175.996094 258.117188 C 175.960938 257.140625 176.148438 256.167969 176.542969 255.277344 C 178.683594 256.539062 180.867188 257.84375 182.871094 259.070312 C 182.5625 259.828125 182.4375 260.644531 182.511719 261.460938 C 182.585938 262.273438 182.855469 263.054688 183.296875 263.746094 C 183.316406 263.769531 183.339844 263.792969 183.367188 263.808594 C 183.398438 263.824219 183.425781 263.835938 183.460938 263.839844 C 183.492188 263.84375 183.527344 263.839844 183.558594 263.832031 C 183.589844 263.824219 183.617188 263.808594 183.644531 263.789062 C 183.667969 263.769531 183.691406 263.746094 183.707031 263.71875 C 183.722656 263.6875 183.734375 263.65625 183.738281 263.625 C 183.742188 263.59375 183.742188 263.558594 183.734375 263.527344 C 183.722656 263.496094 183.710938 263.464844 183.6875 263.441406 C 183.417969 262.835938 183.28125 262.183594 183.296875 261.519531 C 183.308594 260.859375 183.46875 260.210938 183.765625 259.617188 C 187.300781 261.773438 190.152344 263.578125 191.03125 264.167969 C 190.867188 264.320312 175.042969 278.402344 169.65625 282.589844 C 166.121094 281.664062 147.566406 272.453125 142.148438 268.144531 Z M 142.726562 276.59375 C 149.597656 279.628906 165.210938 286.667969 168.804688 287.351562 C 169.429688 287.472656 169.671875 287.519531 170.855469 286.578125 C 175.90625 282.527344 192.335938 265.335938 192.488281 265.519531 C 192.496094 265.566406 192.496094 265.609375 192.488281 265.65625 L 192.488281 268.691406 C 189.105469 271.40625 170.292969 291.160156 169.988281 290.21875 C 168.472656 290.21875 143.816406 280.160156 142.558594 279.597656 C 142.527344 278.960938 142.664062 277.261719 142.726562 276.59375 Z M 170.351562 297.503906 C 168.835938 298.367188 145.730469 288.976562 142.632812 287.0625 C 142.519531 286.097656 142.460938 285.125 142.46875 284.152344 C 149.113281 287.429688 168.441406 295.589844 170.214844 295.515625 C 172.8125 295.378906 191.152344 274.730469 192.457031 273.289062 C 192.472656 274.0625 192.398438 274.835938 192.230469 275.59375 C 191.972656 276.09375 171.355469 296.941406 170.351562 297.503906 Z M 44.652344 211.976562 C 44.757812 213.601562 44.835938 215.011719 44.835938 216.332031 C 44.835938 216.53125 44.914062 216.726562 45.058594 216.867188 C 45.199219 217.011719 45.394531 217.089844 45.59375 217.089844 C 45.796875 217.089844 45.988281 217.011719 46.128906 216.867188 C 46.273438 216.726562 46.351562 216.53125 46.351562 216.332031 C 46.351562 214.921875 46.277344 213.523438 46.171875 211.871094 C 46.15625 211.671875 46.0625 211.484375 45.910156 211.351562 C 45.757812 211.21875 45.558594 211.152344 45.359375 211.164062 C 45.15625 211.179688 44.96875 211.273438 44.839844 211.425781 C 44.707031 211.578125 44.640625 211.777344 44.652344 211.976562 Z M 275.828125 181.558594 C 275.730469 181.5625 275.632812 181.589844 275.542969 181.632812 C 275.453125 181.675781 275.375 181.738281 275.308594 181.8125 C 275.246094 181.886719 275.195312 181.976562 275.164062 182.070312 C 275.132812 182.164062 275.121094 182.261719 275.132812 182.363281 C 275.222656 183.757812 275.3125 185.257812 275.3125 186.714844 C 275.3125 186.917969 275.394531 187.109375 275.535156 187.253906 C 275.675781 187.394531 275.871094 187.476562 276.070312 187.476562 C 276.273438 187.476562 276.464844 187.394531 276.609375 187.253906 C 276.75 187.109375 276.832031 186.917969 276.832031 186.714844 C 276.832031 185.199219 276.738281 183.683594 276.632812 182.253906 C 276.625 182.15625 276.601562 182.058594 276.558594 181.96875 C 276.515625 181.882812 276.453125 181.800781 276.378906 181.738281 C 276.304688 181.671875 276.214844 181.621094 276.121094 181.59375 C 276.027344 181.5625 275.925781 181.550781 275.828125 181.558594 Z M 40.722656 208.199219 C 40.925781 208.199219 41.117188 208.121094 41.261719 207.976562 C 41.402344 207.835938 41.480469 207.640625 41.480469 207.441406 C 41.480469 207.238281 41.402344 207.046875 41.261719 206.90625 C 41.117188 206.761719 40.925781 206.683594 40.722656 206.683594 C 38.886719 206.683594 37.355469 206.820312 35.839844 206.789062 C 35.636719 206.789062 35.441406 206.867188 35.296875 207.011719 C 35.152344 207.152344 35.070312 207.34375 35.066406 207.546875 C 35.066406 207.75 35.144531 207.941406 35.285156 208.082031 C 35.429688 208.226562 35.621094 208.304688 35.824219 208.304688 C 37.386719 208.335938 39.101562 208.277344 40.722656 208.199219 Z M 271.125 177.066406 C 269.304688 177.066406 267.773438 177.171875 266.238281 177.1875 C 266.039062 177.1875 265.847656 177.269531 265.703125 177.410156 C 265.5625 177.550781 265.480469 177.746094 265.480469 177.945312 C 265.480469 178.148438 265.5625 178.339844 265.703125 178.484375 C 265.847656 178.625 266.039062 178.707031 266.238281 178.707031 C 267.878906 178.707031 269.578125 178.707031 271.214844 178.585938 C 271.417969 178.570312 271.605469 178.480469 271.738281 178.328125 C 271.875 178.179688 271.941406 177.980469 271.929688 177.78125 C 271.917969 177.578125 271.824219 177.390625 271.675781 177.257812 C 271.523438 177.121094 271.328125 177.054688 271.125 177.066406 Z M 44.242188 198.824219 C 44.335938 200.21875 44.425781 201.722656 44.425781 203.179688 C 44.429688 203.378906 44.511719 203.570312 44.652344 203.710938 C 44.792969 203.851562 44.984375 203.933594 45.183594 203.9375 C 45.386719 203.9375 45.578125 203.855469 45.722656 203.714844 C 45.863281 203.574219 45.941406 203.378906 45.941406 203.179688 C 45.941406 201.660156 45.851562 200.144531 45.761719 198.71875 C 45.746094 198.515625 45.652344 198.328125 45.5 198.195312 C 45.347656 198.0625 45.148438 197.996094 44.949219 198.011719 C 44.746094 198.027344 44.5625 198.121094 44.429688 198.269531 C 44.296875 198.421875 44.230469 198.621094 44.242188 198.824219 Z M 276.421875 173.5625 C 276.421875 172.042969 276.328125 170.527344 276.222656 169.101562 C 276.207031 168.902344 276.117188 168.714844 275.964844 168.582031 C 275.8125 168.449219 275.613281 168.382812 275.410156 168.394531 C 275.210938 168.410156 275.023438 168.503906 274.890625 168.65625 C 274.757812 168.808594 274.691406 169.007812 274.707031 169.207031 C 274.796875 170.605469 274.886719 172.105469 274.886719 173.5625 C 274.886719 173.761719 274.96875 173.957031 275.109375 174.097656 C 275.253906 174.242188 275.445312 174.320312 275.648438 174.320312 C 275.847656 174.320312 276.042969 174.242188 276.1875 174.097656 C 276.332031 173.957031 276.417969 173.765625 276.421875 173.5625 Z M 55.441406 208.003906 C 55.539062 208 55.636719 207.976562 55.730469 207.933594 C 55.820312 207.890625 55.902344 207.832031 55.96875 207.757812 C 56.035156 207.683594 56.089844 207.601562 56.121094 207.507812 C 56.15625 207.414062 56.171875 207.3125 56.167969 207.214844 C 56.152344 207.015625 56.0625 206.828125 55.917969 206.695312 C 55.769531 206.558594 55.578125 206.484375 55.378906 206.484375 C 53.542969 206.5625 52.011719 206.621094 50.480469 206.589844 C 50.277344 206.589844 50.085938 206.671875 49.941406 206.8125 C 49.800781 206.957031 49.722656 207.148438 49.722656 207.351562 C 49.722656 207.550781 49.800781 207.746094 49.941406 207.886719 C 50.085938 208.027344 50.277344 208.109375 50.480469 208.109375 C 52.101562 208.140625 53.800781 208.078125 55.441406 208.003906 Z M 285.84375 176.871094 C 284.324219 176.945312 282.640625 176.992188 280.957031 176.992188 C 280.855469 176.988281 280.757812 177.003906 280.664062 177.039062 C 280.570312 177.074219 280.484375 177.128906 280.410156 177.199219 C 280.339844 177.265625 280.28125 177.351562 280.242188 177.441406 C 280.203125 177.535156 280.183594 177.632812 280.183594 177.734375 C 280.183594 177.9375 280.261719 178.132812 280.40625 178.277344 C 280.546875 178.421875 280.738281 178.503906 280.941406 178.507812 C 282.671875 178.507812 284.066406 178.507812 285.902344 178.386719 C 286.003906 178.382812 286.101562 178.359375 286.191406 178.316406 C 286.28125 178.277344 286.363281 178.21875 286.429688 178.144531 C 286.5 178.070312 286.550781 177.984375 286.585938 177.890625 C 286.621094 177.796875 286.636719 177.695312 286.632812 177.597656 C 286.613281 177.402344 286.523438 177.21875 286.375 177.082031 C 286.230469 176.949219 286.039062 176.871094 285.84375 176.871094 Z M 20.574219 163.046875 C 20.773438 163.199219 63.558594 156.859375 65.394531 155.734375 C 65.496094 155.660156 65.578125 155.5625 65.628906 155.449219 C 65.683594 155.332031 65.707031 155.207031 65.695312 155.082031 C 65.695312 153.125 63.132812 134.753906 61.902344 130.171875 C 61.753906 129.609375 61.601562 129.046875 61.25 128.851562 C 58.929688 127.453125 18.027344 135.160156 15.582031 136.738281 C 15.515625 136.777344 15.460938 136.832031 15.414062 136.894531 C 15.371094 136.957031 15.339844 137.027344 15.324219 137.105469 C 14.808594 138.941406 19.253906 162.136719 20.574219 163.046875 Z M 16.25 137.46875 C 19.164062 136.148438 56.289062 129.351562 60.539062 129.882812 C 61.570312 132.535156 64.332031 151.988281 64.511719 154.839844 C 62.40625 155.460938 21.152344 162.546875 21 162.578125 C 20.847656 162.609375 20.832031 162.789062 20.515625 161.835938 C 19.179688 157.828125 16.175781 140.898438 16.25 137.46875 Z M 16.25 137.46875 " fill-opacity="1" fill-rule="nonzero"/><g clip-path="url(#f0ddf5707d)"><path fill="#000000" d="M 68.730469 157.085938 C 68.8125 156.933594 68.851562 156.757812 68.835938 156.585938 C 68.835938 154.171875 65.378906 127.394531 64.148438 125.253906 C 64.054688 125.097656 63.917969 124.96875 63.753906 124.878906 C 63.589844 124.792969 63.410156 124.75 63.222656 124.753906 C 58.140625 124.132812 15.265625 132.507812 12.441406 134.464844 C 12.046875 134.738281 12.109375 135.417969 12.15625 136.148438 C 12.398438 140.136719 16.707031 166.386719 18.222656 166.234375 C 18.390625 166.234375 18.328125 166.113281 17.933594 166.917969 C 15.570312 171.785156 11.078125 187.382812 11.167969 190.523438 C 11.167969 191.84375 11.472656 193.558594 12.777344 193.46875 C 22.136719 192.316406 68.035156 185.03125 81.234375 182.316406 C 81.75 182.210938 82.082031 181.738281 82.066406 180.964844 C 81.910156 179.675781 81.519531 178.425781 80.914062 177.277344 C 79.0625 173.804688 71.386719 160.042969 68.730469 157.085938 Z M 18.316406 165.765625 C 17.132812 164.246094 12.777344 138.105469 13.109375 135.207031 C 16.449219 133.476562 58.746094 125.300781 63.179688 125.96875 C 64.390625 129.304688 67.53125 153.414062 67.730469 156.3125 C 62.359375 158.164062 25.171875 164.171875 18.316406 165.765625 Z M 18.980469 166.21875 C 20.257812 165.898438 63.664062 158.632812 67.640625 157.585938 C 69.808594 159.605469 79.609375 177.035156 80.246094 178.523438 C 71.539062 180.039062 19.878906 188.671875 12.277344 189.828125 C 12.382812 185.230469 17.101562 169.164062 18.980469 166.21875 Z M 18.980469 166.21875 " fill-opacity="1" fill-rule="nonzero"/></g><path fill="#000000" d="M 24.6875 181.953125 C 26.007812 181.753906 54.015625 178.386719 64.132812 175.640625 C 64.195312 175.625 64.25 175.585938 64.28125 175.527344 C 64.316406 175.472656 64.324219 175.40625 64.308594 175.34375 C 64.292969 175.28125 64.253906 175.230469 64.195312 175.195312 C 64.140625 175.164062 64.074219 175.15625 64.011719 175.171875 C 62.023438 175.578125 37.78125 178.8125 24.65625 181.480469 C 24.621094 181.476562 24.582031 181.476562 24.546875 181.488281 C 24.511719 181.496094 24.480469 181.515625 24.453125 181.539062 C 24.425781 181.566406 24.402344 181.59375 24.390625 181.628906 C 24.375 181.664062 24.367188 181.699219 24.371094 181.738281 C 24.375 181.773438 24.382812 181.808594 24.402344 181.839844 C 24.421875 181.875 24.445312 181.902344 24.476562 181.921875 C 24.507812 181.941406 24.542969 181.957031 24.578125 181.960938 C 24.613281 181.964844 24.652344 181.964844 24.6875 181.953125 Z M 45.152344 76.386719 C 44.585938 77.664062 44.109375 78.984375 43.726562 80.332031 C 43.707031 80.546875 43.765625 80.761719 43.894531 80.9375 C 45.425781 83.242188 61.128906 100.949219 65.226562 103.4375 C 65.789062 103.785156 66.457031 104.027344 66.863281 103.527344 C 69.839844 99.824219 73.722656 96.957031 78.136719 95.199219 C 81.730469 93.929688 85.496094 93.214844 89.304688 93.089844 C 92.339844 92.816406 92.871094 92.511719 94.039062 90.527344 C 95.417969 87.910156 97.246094 85.558594 99.4375 83.578125 C 102.238281 81.128906 105.34375 79.058594 108.679688 77.417969 C 108.828125 77.332031 108.945312 77.199219 109.011719 77.039062 C 109.078125 76.878906 109.089844 76.703125 109.042969 76.539062 C 108.53125 75.230469 107.851562 74 107.023438 72.867188 C 107.570312 72.683594 108.179688 72.515625 108.179688 71.96875 C 108.179688 70.453125 94.949219 51.304688 91.277344 47.695312 C 90.898438 47.316406 90.351562 46.816406 89.851562 46.84375 C 82.265625 47.269531 74.875 54.429688 70.597656 60.683594 C 65.695312 60.5 62.527344 60.058594 56.941406 62.410156 C 53 64.085938 49.449219 66.554688 46.503906 69.664062 C 46.050781 70.132812 42.953125 73.410156 42.910156 73.667969 C 42.863281 73.925781 42.953125 73.925781 45.152344 76.386719 Z M 105.84375 75.960938 C 99.515625 77.039062 95.480469 82.300781 92.503906 88.023438 C 91.1875 90.570312 91.308594 90.691406 89.910156 90.664062 C 87.46875 90.523438 85.023438 90.617188 82.597656 90.933594 C 80.820312 91.199219 79.074219 91.636719 77.378906 92.238281 C 73.527344 93.605469 69.109375 97.976562 66.757812 101.222656 C 66.707031 101.289062 66.644531 101.34375 66.574219 101.386719 C 66.5 101.425781 66.417969 101.449219 66.335938 101.457031 C 66.253906 101.464844 66.167969 101.453125 66.089844 101.425781 C 66.011719 101.398438 65.941406 101.355469 65.878906 101.296875 C 60.949219 96.214844 52.222656 87.292969 47.839844 82.167969 C 47.628906 81.9375 47.992188 81.605469 48.203125 81.847656 C 51.039062 84.882812 58.367188 92.148438 66.226562 100.054688 C 68.882812 96.671875 72.980469 92.574219 77.03125 91.148438 C 79.238281 90.359375 81.539062 89.851562 83.871094 89.628906 C 86.058594 89.464844 88.253906 89.464844 90.441406 89.628906 C 91.335938 88.597656 95.769531 76.886719 105.8125 75.582031 C 105.839844 75.601562 105.867188 75.632812 105.882812 75.664062 C 105.898438 75.695312 105.910156 75.730469 105.910156 75.765625 C 105.910156 75.804688 105.90625 75.839844 105.890625 75.875 C 105.875 75.90625 105.855469 75.9375 105.828125 75.960938 Z M 89.835938 48.074219 C 92.871094 50.199219 105.21875 68.480469 106.828125 71.683594 C 104.039062 72.566406 101.34375 73.730469 98.785156 75.15625 C 96.367188 76.371094 94.246094 78.109375 92.582031 80.246094 C 90.917969 82.382812 89.753906 84.863281 89.167969 87.507812 C 83.722656 78.644531 76.121094 68.890625 71.066406 61.714844 C 71.371094 61.515625 79.898438 48.667969 89.835938 48.074219 Z M 57.277344 63.246094 C 62.8125 61.015625 65.878906 61.53125 70.460938 61.730469 C 75.011719 69.496094 83.191406 80.453125 88.578125 87.628906 C 83.605469 86.453125 78.375 87.171875 73.90625 89.644531 C 71.21875 91.164062 67.941406 94.804688 65.925781 97.066406 C 63.011719 94.726562 46.199219 76.824219 43.5 73.792969 C 47.65625 69.085938 51.496094 65.550781 57.277344 63.1875 Z M 29.511719 101.828125 C 29.136719 101.566406 28.691406 101.417969 28.234375 101.402344 C 27.777344 101.386719 27.324219 101.503906 26.933594 101.738281 C 26.648438 101.867188 26.386719 102.046875 26.171875 102.273438 C 25.957031 102.503906 25.789062 102.769531 25.675781 103.0625 C 25.566406 103.355469 25.511719 103.667969 25.519531 103.980469 C 25.527344 104.292969 25.597656 104.601562 25.726562 104.886719 C 25.855469 105.171875 26.035156 105.429688 26.261719 105.644531 C 26.492188 105.859375 26.757812 106.027344 27.050781 106.140625 C 27.34375 106.253906 27.65625 106.304688 27.96875 106.296875 C 28.28125 106.289062 28.589844 106.21875 28.875 106.09375 C 29.332031 105.992188 29.746094 105.757812 30.066406 105.414062 C 30.386719 105.074219 30.59375 104.640625 30.664062 104.179688 C 30.730469 103.71875 30.660156 103.246094 30.453125 102.824219 C 30.246094 102.40625 29.917969 102.058594 29.511719 101.828125 Z M 28.511719 104.863281 C 27.449219 105.195312 26.8125 104.863281 26.554688 104.347656 C 26.066406 103.269531 26.675781 101.617188 28.253906 102.101562 C 29.359375 102.511719 30.253906 104.378906 28.511719 104.9375 Z M 106.660156 32.402344 C 107.101562 33.296875 109.148438 32.964844 110.042969 32.675781 C 110.515625 32.523438 110.816406 32.355469 110.863281 31.902344 C 111 30.761719 111.152344 20.902344 110.636719 19.945312 C 110.582031 19.84375 110.5 19.761719 110.402344 19.710938 C 110.300781 19.65625 110.1875 19.632812 110.074219 19.640625 C 108.457031 19.636719 106.84375 19.871094 105.296875 20.339844 C 104.671875 20.71875 106.113281 31.402344 106.660156 32.402344 Z M 105.613281 20.703125 C 107.015625 20.503906 108.433594 20.4375 109.847656 20.507812 C 109.9375 21.628906 109.695312 31.355469 109.679688 31.507812 C 109.039062 31.738281 108.355469 31.820312 107.679688 31.75 C 107.570312 31.402344 107.390625 30.460938 107.160156 29.277344 C 106.492188 26.449219 105.976562 23.585938 105.613281 20.703125 Z M 28.039062 89.023438 C 28.183594 89.097656 28.347656 89.136719 28.511719 89.136719 C 28.675781 89.136719 28.835938 89.097656 28.980469 89.023438 C 29.566406 88.660156 30.03125 88.132812 30.316406 87.507812 C 30.355469 87.40625 30.367188 87.296875 30.351562 87.191406 C 30.335938 87.085938 30.292969 86.984375 30.226562 86.898438 C 29.496094 86.035156 21.546875 76.824219 20.574219 77.402344 C 19.382812 78.171875 18.253906 79.035156 17.191406 79.980469 C 17.148438 80.019531 17.113281 80.066406 17.089844 80.117188 C 17.066406 80.171875 17.054688 80.226562 17.054688 80.285156 C 17.023438 81.074219 25.855469 88.144531 28.039062 89.023438 Z M 20.757812 77.796875 C 21.863281 78.601562 25.597656 83.214844 29.054688 87.292969 C 28.90625 87.527344 28.722656 87.738281 28.511719 87.917969 C 24.875 85.589844 21.402344 83.011719 18.117188 80.207031 C 18.941406 79.34375 19.824219 78.539062 20.757812 77.796875 Z M 44.59375 44.328125 C 44.925781 38.441406 48.355469 35.710938 51.9375 35.011719 C 50.917969 38.742188 51.085938 43.597656 54.773438 44.222656 C 56.53125 44.507812 57.398438 43.597656 58.671875 42.535156 C 64.117188 37.984375 59.71875 33.433594 53.574219 33.753906 C 55.867188 27.472656 61.160156 22.359375 68.183594 22.191406 C 68.25 22.191406 68.3125 22.164062 68.355469 22.121094 C 68.402344 22.074219 68.429688 22.011719 68.429688 21.949219 C 68.429688 21.882812 68.402344 21.820312 68.355469 21.777344 C 68.3125 21.730469 68.25 21.707031 68.183594 21.707031 C 60.597656 21.554688 54.636719 27.015625 52.285156 33.84375 C 48.234375 34.542969 44.214844 37.574219 44.105469 44.234375 C 44.101562 44.269531 44.101562 44.300781 44.109375 44.332031 C 44.113281 44.363281 44.128906 44.394531 44.144531 44.421875 C 44.164062 44.449219 44.1875 44.46875 44.214844 44.488281 C 44.242188 44.507812 44.273438 44.519531 44.304688 44.523438 C 44.335938 44.53125 44.367188 44.53125 44.402344 44.523438 C 44.433594 44.515625 44.460938 44.503906 44.488281 44.484375 C 44.515625 44.46875 44.539062 44.445312 44.558594 44.417969 C 44.574219 44.390625 44.585938 44.359375 44.59375 44.328125 Z M 53.226562 34.828125 C 55.484375 34.675781 58.855469 35.375 59.78125 37.421875 C 60.3125 38.59375 59.78125 40.035156 57.898438 41.609375 C 57.386719 42.121094 56.804688 42.558594 56.167969 42.902344 C 53.894531 43.871094 51.375 41.066406 53.226562 34.828125 Z M 57.566406 249.40625 C 56.097656 249.015625 54.570312 248.917969 53.066406 249.125 C 51.5625 249.332031 50.117188 249.839844 48.8125 250.613281 C 47.507812 251.386719 46.371094 252.417969 45.46875 253.636719 C 44.566406 254.855469 43.917969 256.246094 43.5625 257.722656 C 42.886719 260.785156 43.457031 263.992188 45.148438 266.632812 C 46.839844 269.277344 49.507812 271.140625 52.574219 271.816406 C 55.636719 272.488281 58.84375 271.917969 61.488281 270.230469 C 64.128906 268.539062 65.992188 265.867188 66.667969 262.804688 C 66.957031 261.324219 66.949219 259.804688 66.644531 258.332031 C 66.34375 256.855469 65.753906 255.457031 64.90625 254.210938 C 64.058594 252.964844 62.976562 251.898438 61.714844 251.074219 C 60.457031 250.25 59.042969 249.683594 57.566406 249.40625 Z M 62.253906 261.773438 C 61.644531 264.199219 60.1875 266.328125 58.144531 267.777344 C 56.101562 269.222656 53.609375 269.890625 51.117188 269.660156 C 48.828125 268.769531 46.929688 267.09375 45.753906 264.9375 C 44.574219 262.78125 44.199219 260.28125 44.683594 257.871094 C 45.25 255.386719 46.695312 253.1875 48.75 251.675781 C 50.808594 250.167969 53.335938 249.445312 55.878906 249.648438 C 58.191406 250.605469 60.089844 252.34375 61.246094 254.5625 C 62.398438 256.777344 62.734375 259.332031 62.191406 261.773438 Z M 62.253906 261.773438 " fill-opacity="1" fill-rule="nonzero"/><path fill="#000000" d="M 77.773438 253.730469 C 76.453125 253.273438 75.039062 253.164062 73.660156 253.414062 C 73.09375 252.105469 72.390625 250.859375 71.566406 249.695312 C 72.554688 248.800781 75.253906 246.3125 74.601562 245.144531 C 72.28125 242.367188 69.523438 239.984375 66.441406 238.089844 C 65.152344 237.367188 63.734375 236.90625 62.269531 236.738281 C 61.296875 236.875 58.992188 240.652344 58.476562 241.503906 C 58.140625 241.503906 56.957031 241.121094 56.867188 241.078125 C 56.867188 239.984375 56.546875 236.039062 55.5625 235.585938 C 54.460938 235.179688 53.3125 234.898438 52.148438 234.75 C 51.070312 234.582031 41.375 236.359375 40.664062 237.664062 C 40.191406 238.542969 41.285156 241.867188 41.605469 242.792969 C 40.785156 243.242188 40 243.75 39.253906 244.308594 C 37.734375 245.386719 38.144531 245.339844 37.871094 245.21875 C 37.542969 245.0625 37.1875 244.960938 36.824219 244.914062 C 35.613281 244.207031 34.191406 243.9375 32.804688 244.15625 C 31.40625 244.613281 28.117188 252.109375 27.585938 254.035156 C 27.410156 254.519531 27.363281 255.042969 27.449219 255.550781 C 27.8125 256.554688 30.238281 257.355469 31.257812 257.675781 C 30.976562 259.628906 30.976562 261.609375 31.257812 263.5625 C 29.921875 263.925781 27.144531 264.746094 27.296875 266.109375 C 27.449219 267.476562 31 276.488281 32.46875 277.203125 C 33.277344 277.652344 34.167969 277.929688 35.085938 278.015625 C 36.007812 278.101562 36.933594 277.996094 37.8125 277.703125 C 38.304688 277.457031 38.78125 277.175781 39.238281 276.867188 C 39.84375 277.324219 40.480469 277.734375 41.132812 278.128906 C 40.664062 279.296875 39.617188 281.90625 39.949219 283.089844 C 40.117188 283.710938 40.617188 283.90625 41.316406 284.164062 C 43.242188 284.863281 53.621094 287.351562 55.199219 287.078125 C 55.789062 286.988281 56.109375 286.367188 56.289062 285.773438 C 56.628906 284.425781 56.824219 283.050781 56.882812 281.664062 C 57.660156 281.585938 58.4375 281.46875 59.203125 281.3125 C 59.671875 282.136719 60.269531 282.878906 60.976562 283.511719 C 61.753906 284.058594 62.40625 283.785156 63.285156 283.226562 C 63.710938 283.769531 64.347656 284.53125 65.027344 284.605469 C 66.742188 284.804688 73.828125 278.128906 74.558594 276.761719 C 75.164062 275.625 72.949219 273.589844 71.960938 272.695312 C 73.03125 271.089844 73.867188 269.34375 74.449219 267.507812 C 75.546875 267.671875 76.652344 267.734375 77.757812 267.6875 C 78.257812 267.6875 78.835938 267.507812 79.046875 267.035156 C 79.972656 264.929688 79.699219 256.933594 79.046875 254.898438 C 78.957031 254.308594 78.273438 253.914062 77.773438 253.730469 Z M 78.136719 255.125 C 78.652344 257.097656 78.820312 264.546875 78.0625 266.476562 C 76.75 266.605469 75.425781 266.542969 74.132812 266.292969 C 73.996094 266.269531 73.851562 266.296875 73.734375 266.375 C 73.617188 266.449219 73.53125 266.566406 73.496094 266.703125 C 72.890625 268.753906 71.953125 270.691406 70.71875 272.4375 C 70.628906 272.554688 70.589844 272.699219 70.609375 272.84375 C 70.625 272.988281 70.699219 273.121094 70.808594 273.210938 C 71.875 274.054688 72.777344 275.082031 73.480469 276.246094 C 72.722656 277.488281 66.789062 282.921875 65.152344 283.378906 C 64.90625 283.378906 64.242188 282.464844 64.074219 282.222656 C 63.511719 281.382812 63.007812 280.503906 62.554688 279.597656 C 62.492188 279.46875 62.378906 279.363281 62.242188 279.3125 C 62.101562 279.257812 61.949219 279.257812 61.8125 279.3125 C 57.414062 280.964844 55.742188 279.992188 55.742188 281.085938 C 55.746094 282.722656 55.480469 284.347656 54.953125 285.894531 C 51.390625 285.507812 47.878906 284.722656 44.484375 283.558594 C 44.648438 281.9375 45.101562 280.363281 45.820312 278.902344 C 46.277344 277.882812 44.457031 278.171875 41.058594 274.714844 C 40.949219 274.613281 40.804688 274.554688 40.65625 274.554688 C 40.507812 274.554688 40.363281 274.613281 40.253906 274.714844 C 38.734375 275.957031 36.765625 277.171875 36.371094 276.972656 C 35.59375 276.59375 32.03125 268.507812 31.816406 266.871094 C 32.898438 266.117188 34.121094 265.601562 35.414062 265.351562 C 35.550781 265.3125 35.671875 265.226562 35.75 265.105469 C 35.828125 264.984375 35.859375 264.84375 35.839844 264.699219 C 35.464844 262.550781 35.464844 260.355469 35.839844 258.207031 C 35.863281 258.074219 35.832031 257.9375 35.761719 257.824219 C 35.6875 257.710938 35.574219 257.632812 35.445312 257.601562 C 34.300781 257.300781 33.199219 256.855469 32.167969 256.28125 C 31.832031 256.035156 31.863281 256.050781 31.894531 255.792969 C 32.875 252.253906 34.449219 248.902344 36.550781 245.886719 C 37.371094 245.660156 39.585938 247.28125 40.34375 247.859375 C 40.421875 247.9375 40.53125 247.980469 40.640625 247.980469 C 40.75 247.980469 40.855469 247.9375 40.9375 247.859375 C 41.632812 247.136719 42.382812 246.464844 43.179688 245.855469 C 45.488281 244.113281 46.109375 244.339844 45.914062 243.734375 C 45.214844 242.210938 44.824219 240.566406 44.757812 238.894531 C 44.996094 238.695312 45.261719 238.542969 45.546875 238.4375 C 46.964844 237.878906 48.421875 237.421875 49.902344 237.070312 C 51.699219 236.570312 53.546875 236.269531 55.410156 236.175781 C 55.730469 236.3125 56.015625 237.695312 56.09375 238.117188 C 56.652344 241.152344 56.273438 241.773438 56.714844 241.820312 C 61.039062 242.246094 61.917969 243.445312 62.222656 242.914062 C 63.0625 241.441406 64.042969 240.054688 65.152344 238.769531 C 65.46875 238.453125 65.453125 238.300781 66.410156 238.847656 C 69.265625 240.714844 71.824219 243 73.996094 245.628906 C 74.222656 246.023438 72.25 248.117188 70.808594 249.347656 C 70.308594 249.785156 71.023438 249.984375 72.328125 252.472656 C 73.632812 254.960938 73.328125 255.65625 74.027344 255.507812 C 75.371094 255.183594 76.757812 255.054688 78.136719 255.125 Z M 288.710938 128.347656 C 285.527344 127.050781 282.195312 126.167969 278.789062 125.726562 C 276.300781 125.332031 273.371094 124.9375 270.898438 124.617188 C 273.28125 121.25 280.335938 112.722656 281.519531 110.644531 C 281.851562 110.082031 281.214844 109.292969 280.746094 108.824219 C 278.105469 106 273.007812 104.9375 269.09375 104.332031 C 266.847656 103.96875 257.472656 102.816406 255.878906 103.574219 C 253.964844 104.484375 239.824219 125.726562 239.402344 128.957031 C 239.402344 129.503906 239.582031 129.714844 240.113281 129.914062 C 242.34375 130.730469 252.402344 132.007812 254.648438 132.535156 C 251.613281 137.847656 238.125 155.796875 236.804688 158.328125 C 236.488281 158.964844 236.683594 159.347656 237.066406 159.46875 C 238.429688 160.007812 239.835938 160.445312 241.265625 160.773438 C 241.8125 160.9375 243.011719 160.195312 244.757812 159.132812 C 252.585938 154.429688 286.175781 132.25 288.753906 129.382812 C 288.828125 129.3125 288.882812 129.230469 288.917969 129.140625 C 288.957031 129.050781 288.972656 128.953125 288.96875 128.855469 C 288.964844 128.757812 288.9375 128.660156 288.894531 128.574219 C 288.847656 128.488281 288.785156 128.410156 288.710938 128.347656 Z M 256.105469 146.554688 C 243.210938 155.066406 238.855469 157.554688 238.703125 157.660156 C 240.78125 154.492188 253.691406 136.800781 255.90625 132.566406 C 255.945312 132.484375 255.964844 132.394531 255.964844 132.304688 C 255.964844 132.214844 255.945312 132.125 255.90625 132.042969 C 255.867188 131.964844 255.808594 131.890625 255.738281 131.835938 C 255.667969 131.777344 255.585938 131.738281 255.5 131.71875 C 253.980469 131.171875 242.9375 129.988281 240.328125 129.0625 C 240.660156 126.242188 254.4375 104.910156 256.105469 104.058594 C 257.773438 103.210938 273.960938 105.136719 276.996094 107.304688 C 275.402344 110.417969 266.605469 121.308594 265.179688 123.84375 C 264.890625 124.359375 264.800781 124.859375 265.359375 124.996094 C 265.921875 125.132812 280.183594 126.800781 283.292969 127.820312 C 279.5 130.988281 260.351562 143.703125 256.105469 146.496094 Z M 158.777344 53.792969 C 158.777344 53.929688 158.867188 54.097656 159.09375 54.976562 C 159.15625 55.167969 159.285156 55.328125 159.460938 55.425781 C 159.636719 55.519531 159.84375 55.546875 160.035156 55.492188 C 160.230469 55.4375 160.390625 55.304688 160.488281 55.128906 C 160.585938 54.953125 160.609375 54.746094 160.550781 54.554688 C 160.402344 53.960938 160.265625 53.460938 160.171875 53.21875 C 160.085938 53.050781 159.9375 52.921875 159.757812 52.859375 C 159.582031 52.796875 159.386719 52.800781 159.214844 52.871094 C 159.039062 52.945312 158.898438 53.078125 158.816406 53.25 C 158.734375 53.417969 158.722656 53.613281 158.777344 53.792969 Z M 158.777344 53.792969 " fill-opacity="1" fill-rule="nonzero"/></svg>