<svg xmlns="http://www.w3.org/2000/svg" xmlns:xlink="http://www.w3.org/1999/xlink" width="400" zoomAndPan="magnify" viewBox="0 0 300 299.999988" height="400" preserveAspectRatio="xMidYMid meet" version="1.0"><defs><clipPath id="2eba08a5c6"><path d="M 0 30 L 300 30 L 300 280.5 L 0 280.5 Z M 0 30 " clip-rule="nonzero"/></clipPath></defs><path fill="#000000" d="M 200.183594 174.222656 L 200.089844 174.222656 Z M 68.828125 220.109375 C 69.425781 220.207031 72.695312 220.363281 72.695312 219.796875 C 72.695312 219.464844 72.097656 219.480469 72.097656 219.480469 C 72.179688 216.964844 75.371094 216.335938 77.652344 217.65625 C 78.28125 218.019531 78.863281 218.457031 79.382812 218.960938 C 76.15625 219.136719 71.878906 221.335938 72.164062 224.53125 C 72.324219 225.363281 72.675781 226.148438 73.183594 226.828125 C 73.691406 227.507812 74.351562 228.058594 75.105469 228.449219 C 76.046875 229.152344 77.121094 229.664062 78.261719 229.953125 C 79.40625 230.238281 80.59375 230.292969 81.757812 230.117188 C 83.832031 229.585938 85.65625 228.351562 86.917969 226.625 C 89.769531 226.714844 92.558594 225.78125 94.785156 223.996094 C 94.878906 223.921875 94.957031 223.828125 95.011719 223.722656 C 95.070312 223.617188 95.105469 223.503906 95.113281 223.382812 C 95.113281 222.832031 95.113281 222.863281 91.96875 219.371094 C 91.878906 219.273438 91.765625 219.195312 91.640625 219.148438 C 91.515625 219.101562 91.382812 219.085938 91.25 219.097656 C 91.117188 219.113281 90.992188 219.164062 90.878906 219.238281 C 90.769531 219.3125 90.679688 219.410156 90.613281 219.527344 C 90.5625 219.597656 90.511719 219.671875 90.472656 219.75 C 90.222656 220.21875 89.820312 220.585938 89.328125 220.792969 C 88.839844 221 88.292969 221.03125 87.785156 220.882812 C 86.210938 220.425781 84.179688 216.257812 80.484375 213.769531 C 77.257812 211.601562 72.933594 210.957031 69.882812 213.535156 C 68.566406 214.664062 67.632812 216.167969 67.207031 217.84375 C 67.039062 218.363281 67.070312 218.925781 67.300781 219.417969 C 67.714844 219.820312 68.253906 220.0625 68.828125 220.109375 Z M 74.742188 225.945312 C 74.3125 225.636719 74.011719 225.179688 73.902344 224.660156 C 73.796875 224.140625 73.886719 223.601562 74.160156 223.148438 C 74.859375 222.183594 75.828125 221.449219 76.945312 221.039062 C 76.042969 222.566406 75.304688 224.1875 74.742188 225.867188 Z M 89.5625 223.460938 C 89.9375 222.328125 89.5625 222.722656 90.191406 222.4375 C 90.667969 222.203125 91.097656 221.882812 91.464844 221.496094 L 92.894531 223.195312 C 91.710938 223.945312 90.398438 224.476562 89.027344 224.765625 C 89.183594 224.359375 89.433594 223.730469 89.5625 223.382812 Z M 83.867188 219.449219 C 85.359375 221.320312 86.605469 222.988281 88.882812 222.800781 C 88.558594 223.476562 88.296875 224.183594 88.097656 224.910156 C 86.949219 224.988281 86.792969 224.71875 86.335938 224.910156 C 85.4375 225.253906 83.960938 228.480469 80.375 228.464844 C 80.597656 227.964844 80.742188 227.433594 80.796875 226.890625 C 81.8125 226.683594 82.761719 226.238281 83.566406 225.585938 C 83.910156 225.285156 84.136719 224.871094 84.195312 224.421875 C 84.195312 223.871094 84.007812 223.164062 82.84375 222.234375 C 83.277344 221.316406 83.621094 220.355469 83.867188 219.371094 Z M 78.582031 225.394531 C 77.195312 224.65625 79.554688 223.351562 81.082031 223.398438 C 81.433594 223.402344 81.773438 223.503906 82.070312 223.691406 C 82.367188 223.882812 82.601562 224.152344 82.75 224.46875 C 82.539062 224.804688 82.261719 225.097656 81.933594 225.324219 C 81.609375 225.554688 81.238281 225.710938 80.847656 225.792969 C 80.457031 225.871094 80.054688 225.871094 79.664062 225.789062 C 79.273438 225.707031 78.90625 225.546875 78.582031 225.316406 Z M 80.4375 215.769531 C 81.503906 216.675781 82.476562 217.695312 83.332031 218.804688 C 82.832031 219.710938 82.453125 220.679688 82.199219 221.683594 C 81.539062 221.496094 80.84375 221.441406 80.164062 221.53125 C 79.480469 221.621094 78.824219 221.847656 78.234375 222.203125 C 75.355469 223.777344 76.03125 227.222656 80.027344 226.828125 C 79.792969 227.28125 79.617188 227.761719 79.507812 228.257812 C 77.914062 227.941406 76.421875 227.234375 75.167969 226.199219 C 76.28125 224.464844 77.152344 222.585938 77.746094 220.613281 C 78.359375 220.332031 79.019531 220.175781 79.691406 220.15625 C 80.367188 220.132812 81.035156 220.246094 81.664062 220.488281 L 81.996094 219.246094 L 81.648438 219.089844 C 80.910156 218.585938 80.578125 218.191406 79.730469 217.515625 C 80.042969 216.941406 80.28125 216.328125 80.4375 215.691406 Z M 74.332031 213.25 C 76.300781 213.289062 78.207031 213.949219 79.777344 215.140625 C 79.496094 215.78125 79.285156 216.449219 79.148438 217.136719 C 78.394531 216.546875 77.503906 216.152344 76.558594 215.988281 C 75.613281 215.828125 74.644531 215.902344 73.734375 216.210938 C 74.066406 215.253906 74.269531 214.261719 74.332031 213.25 Z M 70.730469 214.480469 C 71.601562 213.800781 72.652344 213.386719 73.75 213.285156 C 73.261719 214.339844 72.960938 215.472656 72.855469 216.632812 C 72.386719 216.914062 72.003906 217.320312 71.746094 217.800781 C 71.488281 218.28125 71.363281 218.824219 71.390625 219.371094 C 70.289062 219.433594 69.1875 219.265625 68.152344 218.882812 C 68.386719 217.136719 69.300781 215.550781 70.699219 214.480469 Z M 47.226562 211.851562 C 44.398438 210.625 38.105469 214.257812 36.957031 216.210938 C 36.789062 216.640625 36.789062 217.117188 36.957031 217.546875 C 37.945312 221.304688 47.195312 234.582031 48.910156 236.644531 C 49.210938 237.023438 49.621094 236.503906 49.351562 236.0625 C 48.535156 234.710938 48.628906 237.429688 52.8125 223.886719 C 53.199219 223.734375 53.5625 223.523438 53.882812 223.257812 C 54.027344 223.09375 54.109375 222.886719 54.109375 222.667969 C 54.109375 222.449219 54.027344 222.238281 53.882812 222.078125 C 53.738281 221.902344 53.574219 221.742188 53.394531 221.605469 L 54.386719 217.941406 L 58.320312 220.109375 C 57.523438 222.097656 56.945312 224.167969 56.589844 226.277344 C 55.003906 226.847656 53.515625 227.667969 52.183594 228.699219 C 51.253906 229.722656 52.71875 231.609375 53.632812 232.742188 C 54.542969 233.875 55.3125 234.644531 55.488281 234.820312 C 55.660156 234.992188 56.210938 234.820312 56.164062 234.535156 C 56.0625 234.308594 55.929688 234.097656 55.769531 233.90625 C 54.917969 232.578125 54.1875 231.179688 53.582031 229.722656 C 54.804688 228.992188 56.097656 228.378906 57.4375 227.898438 C 57.925781 227.722656 59.4375 227.253906 59.84375 227.503906 C 61.863281 228.566406 63.96875 229.457031 66.136719 230.164062 C 66.226562 230.203125 66.324219 230.210938 66.417969 230.175781 C 66.507812 230.144531 66.582031 230.078125 66.625 229.988281 C 66.667969 229.902344 66.671875 229.800781 66.640625 229.710938 C 66.605469 229.617188 66.539062 229.542969 66.453125 229.503906 L 63.730469 227.851562 C 64.308594 226.535156 64.679688 225.140625 64.832031 223.714844 L 71.546875 227.347656 C 71.957031 227.582031 72.273438 226.9375 71.972656 226.765625 C 71.675781 226.59375 51.285156 213.628906 47.226562 211.851562 Z M 44.835938 213.519531 C 45.386719 213.355469 45.972656 213.355469 46.519531 213.519531 C 46.882812 213.675781 47.761719 214.148438 48.957031 214.808594 C 48.554688 215.921875 48.28125 217.078125 48.140625 218.253906 C 47.085938 217.65625 46.457031 217.199219 45.625 217.34375 C 45.167969 217.445312 44.746094 217.648438 44.382812 217.941406 C 44.539062 216.710938 44.679688 215.769531 44.835938 213.519531 Z M 38.542969 216.980469 C 40.175781 215.425781 42.15625 214.28125 44.316406 213.644531 C 43.480469 217.355469 42.890625 221.117188 42.554688 224.910156 C 40.96875 222.394531 39.632812 219.734375 38.5625 216.964844 Z M 45.6875 230.210938 C 44.820312 228.777344 43.878906 227.191406 42.980469 225.632812 C 43.515625 223.382812 43.6875 222.34375 44.019531 220.222656 C 44.878906 221.714844 45.875 223.125 46.992188 224.4375 C 46.359375 226.308594 45.925781 228.246094 45.703125 230.210938 Z M 48.441406 234.742188 C 47.875 233.84375 47.148438 232.632812 46.207031 231.074219 C 46.804688 229.101562 47.199219 227.074219 47.386719 225.019531 C 47.730469 225.851562 50.816406 224.65625 51.648438 224.34375 C 51.035156 226.277344 48.894531 233.011719 48.457031 234.742188 Z M 47.96875 224.53125 C 46.992188 222.84375 46.132812 221.09375 45.386719 219.292969 L 45.875 219.023438 C 46.097656 219.152344 51.476562 222.328125 51.867188 222.582031 C 50.644531 223.359375 49.339844 224.011719 47.984375 224.53125 Z M 52.6875 221.070312 C 51.507812 220.285156 49.902344 219.324219 48.675781 218.617188 C 49.09375 217.503906 49.371094 216.339844 49.492188 215.15625 L 53.960938 217.671875 C 53.882812 218.269531 53.347656 219.496094 52.78125 221.070312 Z M 63.101562 227.363281 L 60.679688 225.898438 C 59.601562 225.476562 58.40625 225.476562 57.328125 225.898438 C 57.9375 224.0625 58.378906 222.171875 58.648438 220.253906 L 64.34375 223.398438 C 63.761719 224.679688 63.375 226.042969 63.195312 227.441406 Z M 63.101562 227.363281 " fill-opacity="1" fill-rule="nonzero"/><g clip-path="url(#2eba08a5c6)"><path fill="#000000" d="M 298.265625 232.964844 C 295.71875 209.242188 273.757812 172.761719 260.636719 152.828125 C 267.960938 153.414062 275.316406 153.597656 282.660156 153.378906 C 284.753906 153.378906 290.226562 153 291.28125 152.796875 C 291.894531 152.671875 291.988281 152.089844 291.0625 152.058594 C 290.132812 152.027344 283.527344 151.710938 282.628906 151.695312 L 266.628906 151.695312 C 264.175781 151.789062 260.339844 152.011719 260.117188 152.011719 C 255.398438 144.820312 252.109375 140.324219 252.078125 140.308594 C 252.042969 140.269531 252 140.242188 251.949219 140.222656 C 251.902344 140.203125 251.851562 140.195312 251.800781 140.199219 C 251.75 140.203125 251.699219 140.21875 251.652344 140.242188 C 251.605469 140.265625 251.566406 140.296875 251.535156 140.339844 C 251.503906 140.378906 251.480469 140.425781 251.46875 140.476562 C 251.457031 140.527344 251.457031 140.578125 251.464844 140.628906 C 251.476562 140.679688 251.496094 140.726562 251.527344 140.769531 C 251.554688 140.8125 251.59375 140.847656 251.640625 140.871094 C 252.363281 141.453125 284.15625 187.910156 293.875 219.90625 C 297.730469 232.601562 300.011719 248.535156 287.585938 252.941406 C 258.074219 263.480469 26.933594 266.910156 5.085938 254.515625 C 2.046875 252.800781 1.339844 249.230469 1.9375 244.414062 C 2.867188 237.730469 6.46875 228.683594 10.8125 218.554688 C 15.703125 223.273438 56.289062 260.539062 62.863281 259.140625 C 69.441406 257.738281 106.425781 240.5625 107.949219 237.273438 C 108.835938 234.988281 109.304688 232.566406 109.335938 230.117188 C 109.519531 229.859375 109.609375 229.542969 109.578125 229.226562 C 109.550781 228.914062 109.40625 228.617188 109.175781 228.402344 C 106.738281 225.976562 58.367188 187.625 55.25 187.734375 C 53.082031 187.832031 49.148438 190.0625 47.277344 191.164062 C 46.667969 190.171875 45.765625 189.394531 44.691406 188.945312 C 43.621094 188.492188 42.433594 188.390625 41.296875 188.648438 C 40.226562 189.082031 39.269531 189.75 38.496094 190.605469 C 37.722656 191.460938 37.152344 192.480469 36.832031 193.589844 C 36.847656 193.671875 36.894531 193.75 36.960938 193.804688 C 37.027344 193.859375 37.113281 193.886719 37.199219 193.886719 C 37.285156 193.886719 37.371094 193.859375 37.4375 193.804688 C 37.503906 193.75 37.550781 193.671875 37.570312 193.589844 C 38.515625 191.988281 40.015625 190.789062 41.785156 190.222656 C 42.519531 190.109375 43.273438 190.207031 43.957031 190.503906 C 44.640625 190.804688 45.222656 191.289062 45.640625 191.90625 L 28.148438 199.378906 C 27.21875 198.421875 26.058594 197.722656 24.78125 197.347656 C 21.792969 196.5625 19.777344 198.527344 18.582031 201.40625 C 18.554688 201.488281 18.558594 201.578125 18.589844 201.660156 C 18.621094 201.738281 18.679688 201.808594 18.757812 201.851562 C 18.832031 201.890625 18.921875 201.90625 19.007812 201.890625 C 19.09375 201.878906 19.171875 201.832031 19.226562 201.769531 C 21.242188 198.859375 23.570312 197.867188 26.351562 200.195312 C 22.988281 201.691406 18.28125 203.8125 14.980469 205.449219 C 15.214844 205.070312 49.164062 143.59375 49.164062 143.4375 C 50.65625 140.667969 53.664062 135.714844 56.761719 135.066406 C 58.164062 134.761719 59.589844 134.605469 61.023438 134.597656 C 58.839844 138.214844 41.09375 167.632812 41.0625 171.785156 C 41.0625 176.503906 41.878906 175.765625 44.398438 176.503906 C 46.914062 177.242188 187.753906 176.378906 188.007812 176.378906 C 190.445312 176.378906 199.976562 176.0625 200.859375 175.417969 C 203.597656 173.40625 202.984375 170.398438 201.785156 167.238281 C 201.503906 166.484375 200.070312 163.351562 198.152344 159.167969 C 206.410156 156.683594 212.625 159.84375 213.191406 173.328125 C 213.757812 184.984375 209.164062 188.539062 200.371094 188.035156 C 193.308594 187.625 188.429688 185.550781 186.890625 188.300781 C 185.160156 191.371094 189.941406 198.261719 192.019531 201.125 C 191.71875 201.125 178.550781 200.855469 175.234375 200.714844 C 170.554688 200.535156 165.871094 200.589844 161.199219 200.886719 C 157.984375 200.957031 154.785156 201.394531 151.667969 202.191406 C 150.488281 202.773438 148.960938 205.8125 148.316406 207.085938 C 147.042969 209.585938 141.238281 225.285156 139.632812 229.816406 C 138.6875 232.429688 135.496094 241.082031 137.636719 242.605469 C 137.558594 244.289062 137.824219 246.539062 139.304688 247.324219 C 140.78125 248.113281 161.105469 248.679688 162.664062 248.710938 C 165.417969 248.789062 193.246094 249.148438 211.003906 248.363281 C 228.765625 247.578125 236.519531 245.878906 236.066406 245.925781 C 236.515625 245.792969 236.921875 245.535156 237.234375 245.1875 C 237.550781 244.835938 237.757812 244.40625 237.84375 243.945312 C 238.085938 242.78125 238.007812 241.574219 237.621094 240.449219 C 239.605469 236.597656 224.613281 204.601562 220.460938 202.351562 C 220.214844 202.210938 219.9375 202.136719 219.65625 202.128906 C 218.824219 202.128906 200.167969 201.34375 192.914062 201.109375 C 191.339844 198.890625 186.230469 190.535156 188.195312 188.757812 C 191.183594 186.148438 216.148438 199.234375 214.8125 173.183594 C 214.121094 161.402344 208.691406 154.496094 197.679688 158.492188 C 196.722656 156.414062 188.667969 139.207031 186.511719 134.628906 C 194.859375 135.128906 203.238281 134.941406 211.554688 134.078125 C 211.675781 135.546875 212.097656 136.972656 212.796875 138.269531 C 213.496094 139.566406 214.453125 140.703125 215.613281 141.613281 C 221.90625 146.332031 246.949219 145.625 251.496094 139.851562 C 252.769531 138.109375 253.652344 136.109375 254.078125 133.996094 C 254.503906 131.878906 254.464844 129.695312 253.96875 127.597656 C 254.386719 127.328125 254.710938 126.9375 254.894531 126.480469 C 255.148438 125.992188 254.894531 125.378906 253.808594 125.15625 C 252.410156 124.949219 250.992188 124.863281 249.578125 124.90625 C 249.578125 123.617188 249.65625 121.210938 249.578125 118.472656 C 249.71875 118.378906 250.742188 117.152344 250.851562 117.007812 C 252.105469 115.542969 253.09375 113.871094 253.777344 112.070312 C 254.296875 110.605469 254.5 108.921875 253.132812 108.105469 C 251.023438 106.957031 249.546875 109.066406 248.839844 111.425781 C 248.179688 107.789062 246.652344 102.457031 243.003906 102.992188 C 236.804688 103.9375 241.082031 118.960938 243.097656 124.90625 C 241.328125 124.65625 239.53125 124.65625 237.765625 124.90625 C 239.730469 119.964844 240.738281 113.578125 235.6875 112.621094 C 234.921875 112.449219 234.125 112.511719 233.390625 112.789062 C 232.660156 113.066406 232.023438 113.558594 231.566406 114.191406 C 231.464844 113.835938 231.273438 113.511719 231.015625 113.25 C 230.753906 112.988281 230.429688 112.792969 230.074219 112.691406 C 229.71875 112.585938 229.34375 112.574219 228.984375 112.65625 C 228.621094 112.738281 228.289062 112.910156 228.011719 113.15625 C 225.699219 114.820312 227.019531 118.644531 229.710938 119.902344 C 229.566406 121.519531 229.566406 123.148438 229.710938 124.765625 C 228.035156 124.5625 226.339844 124.597656 224.675781 124.875 C 224.582031 121.035156 224.160156 117.207031 223.417969 113.4375 C 224.371094 112.757812 225.175781 111.886719 225.777344 110.878906 C 226.378906 109.871094 226.765625 108.75 226.910156 107.585938 C 227.128906 105.492188 226.390625 103.746094 224.644531 103.292969 C 222.457031 102.726562 221.167969 104.25 220.789062 106.4375 C 218.855469 103.761719 215.0625 102.804688 213.222656 105.871094 C 207.324219 99.734375 204.476562 103.164062 205.972656 105.871094 C 207.089844 107.949219 210 109.113281 212.265625 109.757812 C 212.265625 113.28125 213.835938 116.253906 215.789062 119.289062 C 217.09375 121.335938 218.554688 123.300781 219.6875 124.75 C 217.242188 124.671875 214.792969 124.828125 212.375 125.21875 C 210.894531 125.613281 210.660156 126.683594 212.027344 127.453125 C 211.59375 129.296875 211.4375 131.195312 211.554688 133.085938 C 203.105469 132.636719 194.632812 132.835938 186.214844 133.683594 C 185.679688 132.535156 184.089844 129.183594 183.902344 128.792969 C 183.710938 128.398438 185.222656 123.835938 187.34375 81.425781 C 197.097656 80.605469 240.957031 81.582031 244.984375 80.023438 C 245.214844 79.941406 245.421875 79.800781 245.578125 79.613281 C 245.734375 79.421875 245.839844 79.195312 245.882812 78.957031 C 247.21875 74.566406 248.128906 36.84375 245.882812 33.335938 C 245.332031 32.46875 243.363281 32.203125 242.277344 32.046875 C 228.261719 30 169.773438 30.882812 166.769531 32.46875 C 163.765625 34.058594 165.039062 49.570312 165.605469 52.652344 C 135.226562 51.675781 65.082031 53.582031 58.476562 56.050781 C 56.902344 56.617188 56.320312 58.773438 56.007812 60.390625 C 53.394531 73.875 60.726562 117.261719 63.179688 130.664062 C 63.023438 130.664062 63.179688 130.664062 61.261719 133.652344 C 59.636719 133.53125 58.003906 133.617188 56.398438 133.902344 C 52.8125 134.453125 49.507812 139.410156 47.683594 142.492188 C 47.605469 142.652344 42.964844 150.359375 42.273438 151.617188 C 38.324219 151.003906 19.964844 151.238281 17.636719 151.367188 C 15.308594 151.492188 12.917969 151.664062 10.8125 151.820312 C 10.433594 151.820312 10.402344 152.546875 10.8125 152.5625 C 15.214844 152.828125 16.835938 152.921875 20.25 152.96875 C 28.601562 153.097656 40.921875 153.441406 41.3125 153.394531 C 40.496094 154.828125 28.382812 176.378906 26.761719 179.429688 C 19.714844 192.644531 14.175781 204.742188 13.847656 205.765625 C 12.019531 206.59375 10.300781 207.652344 8.734375 208.910156 C 8.230469 210.296875 7.925781 211.746094 7.835938 213.21875 C 7.757812 215.753906 8.671875 216.367188 10.070312 217.78125 C 6.316406 225.832031 3.226562 234.175781 0.835938 242.730469 C 0.0585938 246.195312 0.0234375 249.78125 0.742188 253.257812 C 1.386719 256.730469 2.585938 260.078125 4.296875 263.167969 C 5.066406 263.949219 6.0625 264.464844 7.144531 264.644531 C 11.28125 265.808594 24.105469 267.304688 28.398438 267.792969 C 28.074219 269.714844 27.984375 271.667969 28.128906 273.613281 C 28.136719 275.613281 28.425781 277.605469 28.996094 279.527344 C 29 279.574219 29.015625 279.621094 29.039062 279.664062 C 29.0625 279.703125 29.09375 279.742188 29.128906 279.773438 C 29.167969 279.800781 29.210938 279.824219 29.253906 279.835938 C 29.300781 279.851562 29.351562 279.855469 29.398438 279.851562 C 29.445312 279.84375 29.492188 279.828125 29.53125 279.808594 C 29.574219 279.785156 29.613281 279.753906 29.640625 279.714844 C 29.671875 279.679688 29.695312 279.636719 29.707031 279.589844 C 29.71875 279.542969 29.726562 279.496094 29.71875 279.449219 C 29.972656 277.488281 30.039062 275.507812 29.925781 273.535156 C 29.914062 271.632812 29.699219 269.738281 29.277344 267.886719 C 31.449219 268.074219 33.542969 268.230469 35.367188 268.296875 C 35.078125 270.132812 34.996094 271.996094 35.132812 273.847656 C 35.136719 275.851562 35.429688 277.84375 35.996094 279.761719 C 35.996094 279.859375 36.035156 279.949219 36.101562 280.019531 C 36.171875 280.085938 36.261719 280.125 36.359375 280.125 C 36.453125 280.125 36.546875 280.085938 36.613281 280.019531 C 36.683594 279.949219 36.71875 279.859375 36.71875 279.761719 C 36.980469 277.804688 37.054688 275.824219 36.941406 273.847656 C 36.929688 272.011719 36.71875 270.179688 36.3125 268.390625 C 39.820312 268.46875 91.449219 273.109375 180.613281 271.347656 C 204.507812 270.875 233.234375 269.773438 256.894531 267.179688 C 256.582031 269.074219 256.492188 271.003906 256.625 272.921875 C 256.632812 274.917969 256.929688 276.90625 257.507812 278.820312 C 257.496094 278.871094 257.496094 278.925781 257.507812 278.980469 C 257.519531 279.03125 257.546875 279.082031 257.578125 279.121094 C 257.613281 279.164062 257.65625 279.199219 257.703125 279.222656 C 257.753906 279.242188 257.804688 279.253906 257.859375 279.253906 C 257.914062 279.253906 257.96875 279.242188 258.015625 279.222656 C 258.066406 279.199219 258.109375 279.164062 258.140625 279.121094 C 258.175781 279.082031 258.199219 279.03125 258.210938 278.980469 C 258.226562 278.925781 258.226562 278.871094 258.214844 278.820312 C 258.488281 276.859375 258.5625 274.878906 258.433594 272.90625 C 258.417969 270.960938 258.191406 269.027344 257.757812 267.132812 C 259.503906 266.941406 263.546875 266.4375 263.894531 266.390625 C 263.582031 268.277344 263.5 270.195312 263.640625 272.101562 C 263.640625 274.105469 263.933594 276.097656 264.507812 278.015625 C 264.515625 278.113281 264.566406 278.199219 264.640625 278.261719 C 264.714844 278.320312 264.8125 278.351562 264.90625 278.339844 C 265.003906 278.328125 265.09375 278.28125 265.152344 278.207031 C 265.210938 278.128906 265.242188 278.035156 265.230469 277.9375 C 265.488281 275.984375 265.558594 274.007812 265.433594 272.039062 C 265.425781 270.101562 265.199219 268.167969 264.757812 266.28125 C 271.851562 265.320312 293.546875 262.394531 296.503906 256.339844 C 299.996094 249.433594 299.714844 240.449219 298.265625 232.964844 Z M 155.113281 207.636719 C 155.285156 207.210938 160.554688 206.0625 166.3125 207.636719 C 166.367188 207.625 166.421875 207.625 166.472656 207.636719 C 166.527344 207.652344 166.574219 207.675781 166.617188 207.710938 C 166.65625 207.742188 166.691406 207.785156 166.714844 207.835938 C 166.738281 207.882812 166.75 207.9375 166.75 207.988281 C 166.75 208.042969 166.738281 208.097656 166.714844 208.144531 C 166.691406 208.195312 166.65625 208.238281 166.617188 208.269531 C 166.574219 208.304688 166.527344 208.328125 166.472656 208.339844 C 166.421875 208.355469 166.367188 208.355469 166.3125 208.34375 C 163.445312 208.851562 160.519531 208.925781 157.628906 208.5625 C 156.277344 208.34375 154.5625 208.328125 155.066406 207.636719 Z M 235.988281 245.042969 C 221.433594 247.8125 141.050781 247.183594 139.835938 246.617188 C 138.625 246.050781 138.515625 244.226562 138.484375 243.03125 C 147.199219 245.863281 232.351562 243.675781 237.085938 241.175781 C 237.339844 242.558594 237.402344 244.777344 235.9375 245.042969 Z M 205.453125 207.808594 C 205.453125 207.273438 208.914062 206.976562 209.070312 206.960938 C 211.128906 206.800781 213.195312 206.800781 215.253906 206.960938 C 216.402344 207.085938 217.988281 207.242188 217.863281 207.730469 C 217.738281 208.21875 215.363281 208.421875 214.953125 208.484375 C 213.417969 208.628906 211.871094 208.691406 210.328125 208.675781 C 209.289062 208.644531 205.34375 208.453125 205.40625 207.808594 Z M 225.667969 213.046875 C 229.601562 220.546875 232.90625 228.359375 235.546875 236.40625 C 235.882812 237.425781 236.066406 238.484375 236.097656 239.554688 C 229 241.757812 147.230469 244.023438 138.957031 241.648438 C 138.5625 241.535156 138.453125 241.648438 138.359375 240.984375 C 137.761719 236.707031 144.761719 219.703125 146.382812 215.738281 C 176.144531 214.746094 225.351562 213.21875 225.621094 213.046875 Z M 212.421875 109.050781 C 210.699219 108.105469 209.140625 106.894531 207.796875 105.460938 C 207.183594 104.535156 207.324219 103.890625 209.132812 104.769531 C 210.265625 105.289062 211.855469 106.21875 212.925781 106.863281 C 212.648438 107.5625 212.480469 108.300781 212.421875 109.050781 Z M 250.175781 111.863281 C 251.433594 109.597656 252.675781 108.953125 252.550781 110.292969 C 251.875 112.683594 250.914062 114.988281 249.6875 117.152344 C 249.59375 115.578125 249.484375 114.523438 249.359375 113.484375 C 249.421875 113.265625 249.734375 112.605469 250.128906 111.863281 Z M 243.488281 125.550781 C 243.804688 126.449219 244.007812 126.980469 244.023438 127.015625 C 244.042969 127.058594 244.066406 127.097656 244.101562 127.132812 C 244.132812 127.167969 244.175781 127.195312 244.21875 127.214844 C 244.261719 127.234375 244.308594 127.242188 244.355469 127.246094 C 244.40625 127.246094 244.453125 127.238281 244.496094 127.21875 C 245.1875 126.949219 244.167969 126.304688 242.53125 116.820312 C 242.042969 113.988281 240.59375 105.257812 243.457031 104.847656 C 245.785156 104.503906 247.046875 110.277344 247.484375 112.558594 C 248.300781 116.953125 248.828125 121.398438 249.058594 125.867188 C 249.058594 125.953125 249.089844 126.035156 249.144531 126.105469 C 249.199219 126.167969 249.277344 126.214844 249.363281 126.226562 C 249.453125 126.242188 249.539062 126.222656 249.613281 126.175781 C 249.6875 126.128906 249.742188 126.058594 249.765625 125.976562 C 249.773438 125.886719 249.773438 125.796875 249.765625 125.707031 C 251.1875 125.75 252.601562 125.945312 253.984375 126.289062 C 253.808594 126.496094 253.585938 126.65625 253.335938 126.761719 C 250.035156 128.460938 240.046875 128.128906 236.601562 128.066406 C 237.070312 127.125 237.402344 126.398438 237.765625 125.535156 C 239.644531 125.84375 241.5625 125.851562 243.441406 125.550781 Z M 231.21875 122.105469 C 231.582031 118.960938 232.382812 113.941406 235.5625 114.539062 C 238.738281 115.136719 237.9375 119.746094 237.246094 122.828125 C 236.816406 124.597656 236.292969 126.34375 235.671875 128.050781 L 230.953125 128.050781 C 230.914062 126.066406 230.988281 124.082031 231.171875 122.105469 Z M 229.222656 114.710938 C 229.296875 114.640625 229.382812 114.589844 229.476562 114.554688 C 229.570312 114.519531 229.671875 114.507812 229.773438 114.515625 C 229.875 114.523438 229.972656 114.550781 230.0625 114.597656 C 230.152344 114.644531 230.230469 114.710938 230.292969 114.789062 C 230.542969 115.042969 230.769531 115.316406 230.96875 115.609375 C 230.519531 116.613281 230.210938 117.667969 230.039062 118.753906 C 229.222656 117.621094 228.167969 115.5625 229.222656 114.710938 Z M 224.265625 105.148438 C 226.3125 105.792969 224.707031 111.171875 223.339844 112.808594 C 222.960938 111.113281 222.394531 109.46875 221.65625 107.902344 C 222.113281 106.515625 222.882812 104.707031 224.265625 105.132812 Z M 220.398438 125.722656 C 221.167969 126.699219 221.671875 127.296875 221.671875 127.296875 C 221.734375 127.359375 221.816406 127.394531 221.902344 127.402344 C 221.992188 127.40625 222.078125 127.378906 222.148438 127.324219 C 222.21875 127.269531 222.265625 127.195312 222.28125 127.109375 C 222.296875 127.023438 222.28125 126.933594 222.238281 126.855469 C 222.238281 126.855469 219.453125 122.890625 217.15625 118.785156 C 215.425781 115.640625 213.773438 112.492188 214.230469 109.015625 C 214.59375 106.28125 216.039062 105.117188 218.476562 106.703125 C 222 108.96875 223.605469 122.941406 224.109375 127.15625 C 224.113281 127.265625 224.152344 127.371094 224.222656 127.460938 C 224.289062 127.546875 224.382812 127.609375 224.488281 127.644531 C 224.910156 127.644531 224.847656 127.1875 224.832031 126.964844 C 224.816406 126.746094 224.832031 125.644531 224.832031 125.535156 C 226.503906 125.746094 228.195312 125.746094 229.867188 125.535156 C 229.960938 126.683594 230.070312 127.582031 230.148438 128.050781 C 224.566406 128.050781 217.816406 128.429688 213.191406 126.621094 C 215.570312 126.148438 217.976562 125.851562 220.398438 125.722656 Z M 212.863281 128.035156 C 215.164062 128.929688 217.585938 129.457031 220.050781 129.609375 C 222.835938 129.859375 241.792969 129.894531 243.945312 129.78125 C 247.195312 129.730469 250.414062 129.128906 253.464844 128.003906 C 253.757812 129.9375 253.644531 131.90625 253.140625 133.792969 C 252.632812 135.683594 251.742188 137.445312 250.523438 138.96875 C 246.699219 143.453125 222.519531 144.476562 216.714844 140.386719 C 212.894531 137.757812 212.199219 132.503906 212.863281 128.019531 Z M 200.183594 174.222656 C 200.511719 175.277344 50.515625 175.324219 50.359375 175.308594 C 44.066406 175.308594 45.640625 175.308594 43.53125 174.789062 C 42.964844 174.664062 42.855469 174.664062 42.746094 174.113281 C 42.613281 173.25 42.574219 172.371094 42.636719 171.5 C 42.667969 171.566406 42.722656 171.617188 42.785156 171.648438 C 42.851562 171.679688 42.925781 171.691406 42.996094 171.675781 C 42.996094 171.675781 200.136719 169.535156 201.15625 169.503906 C 201.582031 171.34375 201.644531 173.058594 200.183594 174.222656 Z M 244.433594 78.75 C 244.433594 78.75 244.527344 78.59375 244.558594 78.640625 C 244.589844 78.6875 244.433594 78.734375 244.355469 78.75 Z M 166.203125 39.078125 C 166.203125 38.054688 166.613281 34.183594 167.523438 33.710938 C 169.601562 32.675781 235.59375 31.792969 244.605469 34.609375 C 246.179688 37.914062 245.675781 75.023438 244.355469 78.75 C 236.617188 79.960938 197.664062 79.867188 187.535156 80.90625 C 188.148438 68.527344 188.414062 58.097656 187.910156 56.066406 C 187.816406 55.800781 187.65625 55.5625 187.453125 55.371094 C 187.25 55.175781 187.003906 55.03125 186.730469 54.949219 C 183.285156 53.453125 170.324219 53.03125 166.550781 52.90625 C 166.058594 48.3125 165.945312 43.6875 166.203125 39.078125 Z M 57.421875 78.6875 C 57.1875 75.382812 56.023438 58.710938 59.167969 57.546875 C 60.742188 56.996094 66.277344 56.445312 74.316406 55.972656 C 89.71875 55.011719 113.992188 54.242188 136.078125 54.085938 C 140.984375 54.085938 182.453125 53.722656 186.511719 56.507812 C 187.707031 61.949219 183.886719 122.421875 183.035156 128.257812 C 145.863281 129.46875 101.816406 131.292969 64.328125 130.378906 C 63.699219 126.777344 58.886719 98.980469 57.421875 78.6875 Z M 63.839844 131.433594 C 63.84375 131.398438 63.84375 131.359375 63.839844 131.324219 C 90.347656 132.140625 173.296875 129.421875 183.398438 129.359375 C 184.515625 131.953125 200.199219 166.75 200.859375 168.6875 C 200.6875 168.6875 42.871094 170.824219 42.667969 170.980469 C 44.648438 164.34375 61.039062 136.28125 63.839844 131.433594 Z M 107.085938 236.832031 C 105.921875 239.097656 70.652344 254.859375 63.398438 257.046875 C 63.539062 256.320312 63.59375 255.582031 63.558594 254.84375 C 74.269531 251.132812 97.519531 241.332031 107.949219 234.394531 C 107.75 235.242188 107.460938 236.0625 107.085938 236.847656 Z M 108.171875 233.355469 C 105.023438 235.210938 102.019531 236.503906 63.542969 253.996094 C 63.542969 253.28125 63.449219 252.574219 63.257812 251.886719 C 68.292969 249.527344 102.429688 236.296875 108.515625 231.027344 C 108.4375 231.703125 108.328125 232.523438 108.171875 233.371094 Z M 27.140625 201.074219 C 27.894531 201.96875 28.363281 203.066406 28.484375 204.230469 C 28.601562 205.394531 28.363281 206.5625 27.800781 207.589844 C 27.546875 207.980469 28.148438 208.390625 28.398438 207.980469 C 29.347656 206.945312 29.910156 205.613281 29.988281 204.210938 C 30.0625 202.808594 29.652344 201.421875 28.824219 200.289062 C 36.46875 196.78125 43.988281 193.476562 46.046875 192.582031 C 46.5625 193.628906 46.839844 194.777344 46.855469 195.945312 C 46.871094 197.113281 46.628906 198.269531 46.144531 199.328125 C 45.953125 199.832031 46.519531 200.023438 46.789062 199.691406 C 47.652344 198.59375 48.191406 197.269531 48.34375 195.878906 C 48.492188 194.488281 48.246094 193.085938 47.636719 191.824219 C 49.335938 190.867188 53.300781 188.679688 55.234375 188.679688 C 57.65625 188.679688 106.816406 228.667969 107.730469 229.582031 C 103.625 233.8125 65.507812 248.898438 62.300781 250.441406 C 55.535156 248.867188 14.257812 213.363281 10.386719 209.710938 C 12.792969 207.714844 24.433594 202.335938 27.140625 201.074219 Z M 9.191406 210.4375 C 14.097656 215.234375 55.046875 250.976562 61.90625 252.109375 C 61.769531 252.699219 61.703125 253.308594 61.71875 253.917969 C 50.703125 248.535156 19.242188 221.289062 8.828125 212.527344 C 8.875 212.527344 9.113281 210.988281 9.238281 210.4375 Z M 9.425781 215.832031 C 8.984375 215.15625 8.761719 214.359375 8.796875 213.550781 C 19.085938 223.933594 48.125 249.464844 61.699219 254.78125 C 61.671875 255.621094 61.757812 256.464844 61.953125 257.285156 C 53.882812 255.472656 10.496094 217.121094 9.472656 215.832031 Z M 295.734375 255.820312 C 285.570312 275.988281 9.804688 270.71875 5.335938 262.851562 C 3.441406 259.558594 2.164062 255.953125 1.5625 252.203125 C 2.167969 253.53125 3.179688 254.632812 4.457031 255.347656 C 27.613281 268.828125 257.996094 265.304688 288.070312 254.5 C 294.441406 252.203125 297.652344 247.246094 298.375 240.339844 C 298.804688 245.644531 297.882812 250.96875 295.703125 255.820312 Z M 295.734375 255.820312 " fill-opacity="1" fill-rule="nonzero"/></g><path fill="#000000" d="M 60.175781 148.832031 C 171.410156 150.40625 182.027344 149.445312 185.144531 148.957031 C 185.882812 148.847656 186.355469 148.597656 186.324219 147.730469 C 186.324219 145.449219 180.972656 134.988281 179.558594 134.265625 C 178.929688 133.9375 66.292969 135.523438 65.902344 135.648438 C 65.828125 135.667969 65.757812 135.699219 65.699219 135.746094 C 65.640625 135.792969 65.589844 135.851562 65.554688 135.917969 C 64.484375 137.664062 59.261719 146.285156 59.5 148.234375 C 59.523438 148.398438 59.605469 148.546875 59.730469 148.65625 C 59.851562 148.765625 60.011719 148.828125 60.175781 148.832031 Z M 66.359375 136.734375 C 67.488281 136.59375 178.300781 135.492188 178.976562 135.554688 C 180.152344 137.246094 181.203125 139.015625 182.121094 140.855469 C 179.542969 140.855469 64.234375 141.472656 63.636719 141.488281 C 64.328125 140.101562 65.242188 138.527344 66.359375 136.734375 Z M 63.210938 142.242188 C 63.824219 142.242188 180.503906 141.644531 182.5 141.597656 C 183.535156 143.523438 184.355469 145.5625 184.9375 147.667969 C 179.339844 148.566406 128.308594 148.125 60.742188 147.667969 C 61.371094 145.761719 62.191406 143.925781 63.179688 142.179688 Z M 146.996094 154.179688 C 146.679688 153.488281 146.167969 152.902344 145.523438 152.496094 C 144.875 152.09375 144.125 151.890625 143.363281 151.917969 C 139.367188 151.917969 105.8125 150.988281 102.789062 152.214844 C 100.863281 154.550781 99.371094 157.214844 98.386719 160.082031 C 98.292969 160.773438 98.636719 161.085938 99.0625 161.132812 C 108.5 162.15625 139.789062 163.132812 147.90625 161.636719 C 148.914062 161.449219 149.039062 160.378906 148.835938 159.355469 C 148.347656 157.589844 147.734375 155.859375 146.996094 154.179688 Z M 99.503906 160.082031 C 100.40625 157.527344 101.632812 155.101562 103.152344 152.859375 C 105.542969 152.074219 136.644531 153.710938 143.410156 153.695312 C 143.8125 153.679688 144.210938 153.78125 144.554688 153.988281 C 144.902344 154.195312 145.179688 154.496094 145.359375 154.859375 C 146.125 156.492188 146.71875 158.199219 147.136719 159.953125 C 139.160156 161.199219 105.292969 160.488281 99.503906 160.082031 Z M 256.25 156.195312 C 254.03125 153.144531 242.90625 153.285156 239.179688 153.394531 C 236.035156 153.394531 224.597656 153.914062 224.597656 156.996094 C 224.609375 157.246094 224.683594 157.488281 224.808594 157.707031 C 224.933594 157.921875 225.109375 158.105469 225.320312 158.238281 C 225.621094 158.476562 223.558594 179.210938 226.390625 190.332031 C 227.320312 194.011719 228.515625 195.835938 232.023438 197.363281 C 238.753906 200.289062 249.925781 199.644531 254.40625 193.398438 C 255.304688 191.574219 255.117188 186.257812 255.195312 184.636719 C 262.164062 186.019531 267.875 183.191406 269.351562 175.6875 C 270.28125 170.855469 269.085938 167.695312 267.023438 165.773438 C 265.648438 164.65625 264.019531 163.882812 262.28125 163.527344 C 260.542969 163.171875 258.742188 163.242188 257.035156 163.730469 C 256.976562 163.75 256.910156 163.757812 256.847656 163.746094 C 256.785156 163.738281 256.726562 163.714844 256.675781 163.675781 C 256.625 163.640625 256.585938 163.589844 256.558594 163.535156 C 256.527344 163.476562 256.515625 163.414062 256.515625 163.351562 C 256.515625 162.519531 256.8125 156.871094 256.25 156.195312 Z M 226.359375 156.527344 C 230.605469 154.039062 247.910156 153.851562 253.496094 156.382812 C 253.683594 156.476562 254.390625 156.839844 254.390625 156.996094 C 254.390625 157.15625 253.667969 157.53125 253.496094 157.609375 C 249.277344 159.515625 234.222656 160.378906 226.3125 157.484375 C 225.761719 157.1875 226.3125 156.589844 226.3125 156.527344 Z M 257.476562 165.335938 C 258.90625 164.921875 260.414062 164.863281 261.871094 165.164062 C 263.328125 165.460938 264.691406 166.109375 265.84375 167.050781 C 267.542969 168.621094 268.390625 171.328125 267.605469 175.339844 C 267.449219 176.734375 266.964844 178.074219 266.195312 179.246094 C 265.425781 180.417969 264.386719 181.390625 263.167969 182.089844 C 260.589844 183.25 257.683594 183.472656 254.957031 182.71875 C 254.824219 182.667969 254.679688 182.648438 254.539062 182.65625 C 254.398438 182.667969 254.257812 182.703125 254.128906 182.769531 C 254.003906 182.835938 253.890625 182.925781 253.800781 183.035156 C 253.710938 183.144531 253.644531 183.273438 253.605469 183.410156 C 253.179688 184.605469 253.777344 189.433594 252.914062 192.488281 C 248.933594 197.882812 238.753906 198.371094 232.730469 195.835938 C 229.679688 194.53125 228.828125 193.179688 228.011719 189.921875 C 225.902344 182.199219 225.777344 166.46875 226.25 158.726562 C 231.203125 161.070312 248.367188 161.75 255.117188 158.289062 C 255.117188 163.164062 254.519531 163.980469 255.746094 164.972656 C 255.980469 165.152344 256.257812 165.277344 256.546875 165.339844 C 256.835938 165.402344 257.136719 165.398438 257.429688 165.335938 Z M 104.664062 198.667969 C 100.53125 195.164062 96.085938 192.046875 91.386719 189.355469 C 89.574219 188.289062 87.648438 187.425781 85.644531 186.792969 C 83.960938 186.351562 83.253906 187.21875 83.597656 188.367188 C 84.308594 190.015625 85.246094 191.554688 86.382812 192.941406 C 90.003906 197.523438 94.164062 201.648438 98.78125 205.230469 C 105.796875 211.097656 114.886719 218.207031 121.527344 223.257812 C 121.863281 223.503906 122.25 223.679688 122.65625 223.777344 C 123.0625 223.875 123.488281 223.890625 123.902344 223.820312 C 124.3125 223.75 124.710938 223.601562 125.0625 223.375 C 125.417969 223.152344 125.722656 222.859375 125.960938 222.515625 C 127.125 221.242188 127.851562 219.007812 126.542969 217.796875 C 125.035156 216.445312 115.800781 207.746094 104.664062 198.667969 Z M 89.59375 195.175781 L 87.4375 191.699219 C 88.203125 191.382812 88.851562 190.832031 89.292969 190.128906 L 92.707031 191.511719 C 91.851562 191.679688 91.078125 192.136719 90.511719 192.800781 C 89.945312 193.46875 89.621094 194.304688 89.59375 195.175781 Z M 94.421875 199.1875 C 93.285156 198.230469 92.230469 197.179688 91.277344 196.042969 C 91.386719 194.136719 91.984375 193.289062 93.886719 193.226562 C 95.15625 193.832031 96.351562 194.574219 97.457031 195.445312 C 96.613281 195.648438 95.855469 196.128906 95.308594 196.804688 C 94.761719 197.480469 94.449219 198.320312 94.421875 199.1875 Z M 121.320312 222.078125 C 119.574219 220.613281 96.355469 200.917969 94.925781 199.660156 C 95.046875 198.78125 95.429688 197.957031 96.027344 197.300781 C 96.625 196.640625 97.410156 196.179688 98.277344 195.980469 C 103.703125 200.007812 111.507812 206.675781 125.113281 218.003906 C 124.585938 217.976562 124.054688 218.066406 123.5625 218.265625 C 123.070312 218.464844 122.628906 218.769531 122.269531 219.15625 C 121.90625 219.542969 121.636719 220.007812 121.472656 220.511719 C 121.308594 221.015625 121.257812 221.550781 121.320312 222.078125 Z M 245.976562 239.507812 C 247.941406 240.84375 249.3125 240.230469 250.585938 238.375 C 253.730469 233.90625 264.742188 214.132812 264.742188 213.976562 C 264.742188 213.816406 264.867188 214.117188 264.347656 207.761719 C 264.328125 207.523438 264.242188 207.292969 264.097656 207.101562 C 263.957031 206.90625 263.765625 206.753906 263.546875 206.660156 C 263.328125 206.5625 263.085938 206.53125 262.847656 206.5625 C 262.609375 206.589844 262.382812 206.6875 262.195312 206.832031 L 256.8125 210.75 C 256.8125 210.75 244.875 235.433594 244.75 235.652344 C 244.53125 236.34375 244.535156 237.082031 244.753906 237.773438 C 244.972656 238.464844 245.398438 239.066406 245.976562 239.507812 Z M 262.636719 208.753906 C 262.730469 209.902344 262.855469 211.425781 262.949219 212.480469 C 261.78125 211.921875 260.558594 211.484375 259.300781 211.175781 Z M 258.136719 212.246094 C 259.5 213.210938 261.074219 213.835938 262.730469 214.070312 C 262.492188 214.480469 250.476562 236.40625 250.347656 236.628906 C 249.984375 235.886719 249.382812 235.285156 248.640625 234.917969 C 247.898438 234.550781 247.054688 234.4375 246.242188 234.597656 C 247.46875 232.316406 257.695312 213.03125 258.136719 212.246094 Z M 258.136719 212.246094 " fill-opacity="1" fill-rule="nonzero"/><path fill="#000000" d="M 250.898438 181.050781 C 250.730469 180.8125 250.515625 180.609375 250.265625 180.457031 C 250.019531 180.300781 249.742188 180.199219 249.453125 180.152344 C 248.519531 179.90625 247.574219 179.714844 246.621094 179.585938 C 247.15625 183.332031 247.46875 187.453125 247.453125 187.816406 C 247.429688 188.054688 247.3125 188.273438 247.128906 188.425781 C 246.941406 188.582031 246.703125 188.65625 246.464844 188.632812 C 246.222656 188.605469 246.003906 188.484375 245.847656 188.296875 C 245.695312 188.109375 245.625 187.867188 245.644531 187.625 C 245.644531 187.359375 245.550781 186.273438 245.472656 179.429688 C 242.324219 179.035156 227.175781 177.855469 227.773438 180.878906 C 227.773438 181.035156 226.53125 188.742188 231.34375 192.441406 C 236.160156 196.136719 245.785156 195.414062 249.152344 191.652344 C 250.109375 190.507812 250.738281 189.128906 250.976562 187.65625 C 251.347656 185.46875 251.324219 183.230469 250.898438 181.050781 Z M 254.675781 166.8125 C 254.675781 167.523438 253.730469 172.933594 253.101562 180.199219 L 253.855469 180.359375 C 256.625 180.945312 259.507812 180.632812 262.085938 179.460938 C 262.984375 178.960938 263.726562 178.226562 264.234375 177.332031 C 264.742188 176.4375 264.992188 175.421875 264.964844 174.394531 C 265.070312 173.117188 264.847656 171.835938 264.316406 170.667969 C 263.789062 169.503906 262.96875 168.492188 261.9375 167.730469 C 260.90625 166.96875 259.695312 166.488281 258.425781 166.328125 C 257.152344 166.167969 255.863281 166.332031 254.675781 166.8125 Z M 255.382812 167.347656 C 256.386719 167.191406 257.414062 167.246094 258.394531 167.519531 C 259.371094 167.789062 260.28125 168.269531 261.0625 168.921875 C 261.808594 169.609375 262.390625 170.457031 262.753906 171.402344 C 263.121094 172.351562 263.261719 173.371094 263.167969 174.378906 C 263.027344 178.421875 258.875 179.195312 254.894531 178.785156 C 255.082031 175.921875 255.242188 172.632812 255.382812 167.347656 Z M 103.121094 152.859375 C 103.121094 152.859375 103.136719 152.875 103.121094 152.859375 Z M 238.535156 75.007812 C 238.53125 75.285156 238.582031 75.566406 238.6875 75.824219 C 238.789062 76.085938 238.945312 76.324219 239.140625 76.523438 C 239.335938 76.722656 239.570312 76.882812 239.828125 76.992188 C 240.085938 77.101562 240.363281 77.160156 240.644531 77.160156 C 241.070312 77.171875 241.492188 77.054688 241.851562 76.820312 C 242.214844 76.589844 242.496094 76.257812 242.667969 75.863281 C 242.835938 75.472656 242.886719 75.035156 242.808594 74.617188 C 242.730469 74.195312 242.53125 73.804688 242.230469 73.5 C 241.929688 73.195312 241.546875 72.984375 241.128906 72.898438 C 240.707031 72.808594 240.273438 72.851562 239.875 73.011719 C 239.480469 73.171875 239.140625 73.449219 238.902344 73.804688 C 238.664062 74.160156 238.535156 74.578125 238.535156 75.007812 Z M 66.359375 126.902344 C 66.71875 127.613281 67.191406 127.691406 67.488281 127.46875 C 67.789062 127.25 167.414062 126.382812 174.824219 125.992188 C 176.417969 126.015625 178.007812 125.8125 179.542969 125.394531 C 183.082031 122.246094 184.46875 63.429688 183.082031 60.707031 C 179.542969 53.644531 68.765625 58.191406 61.953125 60.25 C 56.527344 61.886719 63.855469 121.886719 66.359375 126.902344 Z M 61.652344 62.800781 C 61.652344 62.515625 62 61.414062 62.265625 61.335938 C 69.800781 59.070312 179.210938 55.34375 182.1875 61.257812 C 182.4375 62.441406 182.554688 63.648438 182.53125 64.859375 C 182.800781 71.71875 182.53125 86.410156 181.824219 99.578125 C 181.683594 102.09375 180.566406 122.71875 178.929688 124.589844 C 172.402344 125.976562 71.800781 126.289062 67.332031 126.464844 C 64.785156 120.546875 59.277344 73.183594 61.652344 62.800781 Z M 240.847656 40.320312 C 241.273438 40.328125 241.695312 40.210938 242.054688 39.980469 C 242.414062 39.75 242.699219 39.417969 242.871094 39.027344 C 243.039062 38.632812 243.089844 38.199219 243.015625 37.78125 C 242.9375 37.359375 242.738281 36.96875 242.441406 36.664062 C 242.144531 36.355469 241.761719 36.144531 241.34375 36.058594 C 240.921875 35.96875 240.488281 36.003906 240.09375 36.164062 C 239.695312 36.324219 239.355469 36.597656 239.113281 36.949219 C 238.871094 37.304688 238.742188 37.722656 238.738281 38.148438 C 238.734375 38.429688 238.78125 38.710938 238.886719 38.972656 C 238.988281 39.234375 239.144531 39.472656 239.339844 39.675781 C 239.535156 39.878906 239.769531 40.039062 240.027344 40.148438 C 240.289062 40.257812 240.566406 40.316406 240.847656 40.320312 Z M 240.847656 40.320312 " fill-opacity="1" fill-rule="nonzero"/><path fill="#000000" d="M 92.441406 102.441406 L 111.128906 102.441406 C 113.289062 102.433594 115.363281 101.566406 116.886719 100.035156 C 118.410156 98.5 119.265625 96.425781 119.261719 94.261719 L 119.261719 79.097656 C 119.261719 76.929688 118.40625 74.847656 116.886719 73.308594 C 115.363281 71.765625 113.296875 70.882812 111.128906 70.855469 L 92.441406 70.855469 C 91.355469 70.847656 90.28125 71.058594 89.28125 71.472656 C 88.277344 71.886719 87.367188 72.492188 86.601562 73.257812 C 85.835938 74.023438 85.230469 74.933594 84.816406 75.9375 C 84.402344 76.9375 84.191406 78.011719 84.195312 79.097656 L 84.195312 94.261719 C 84.199219 95.339844 84.417969 96.40625 84.832031 97.402344 C 85.25 98.394531 85.859375 99.300781 86.625 100.058594 C 87.390625 100.820312 88.296875 101.421875 89.296875 101.828125 C 90.292969 102.238281 91.363281 102.445312 92.441406 102.441406 Z M 85.535156 79.097656 C 85.5625 77.277344 86.300781 75.542969 87.589844 74.261719 C 88.882812 72.980469 90.621094 72.253906 92.441406 72.238281 L 111.128906 72.238281 C 112.046875 72.226562 112.957031 72.398438 113.808594 72.742188 C 114.660156 73.085938 115.4375 73.597656 116.089844 74.242188 C 116.746094 74.886719 117.261719 75.652344 117.617188 76.5 C 117.972656 77.347656 118.15625 78.257812 118.160156 79.175781 L 118.160156 94.261719 C 118.15625 95.179688 117.96875 96.089844 117.613281 96.9375 C 117.257812 97.785156 116.742188 98.554688 116.085938 99.203125 C 115.433594 99.847656 114.660156 100.363281 113.808594 100.710938 C 112.957031 101.058594 112.046875 101.234375 111.128906 101.230469 L 92.441406 101.230469 C 91.527344 101.226562 90.628906 101.042969 89.789062 100.691406 C 88.949219 100.339844 88.183594 99.824219 87.542969 99.175781 C 86.902344 98.527344 86.394531 97.761719 86.050781 96.917969 C 85.707031 96.074219 85.53125 95.171875 85.535156 94.261719 Z M 142.96875 113.675781 C 143.28125 114.601562 144.070312 114.398438 144.289062 113.816406 C 144.589844 112.980469 146.335938 106.988281 146.554688 105.949219 C 147.765625 105.574219 144.351562 106.753906 154.90625 102.914062 C 155.015625 102.871094 155.113281 102.796875 155.179688 102.699219 C 155.242188 102.601562 155.28125 102.488281 155.28125 102.371094 C 155.28125 102.253906 155.242188 102.140625 155.179688 102.042969 C 155.113281 101.945312 155.015625 101.871094 154.90625 101.828125 L 138.738281 95.363281 C 138.636719 95.316406 138.527344 95.296875 138.417969 95.304688 C 138.308594 95.3125 138.203125 95.351562 138.113281 95.414062 C 138.023438 95.472656 137.949219 95.558594 137.902344 95.65625 C 137.851562 95.757812 137.832031 95.867188 137.839844 95.976562 C 137.839844 95.976562 142.101562 111.171875 142.96875 113.675781 Z M 139.460938 97.046875 L 153.082031 102.410156 C 151.257812 103.085938 148.175781 104.25 146.695312 104.847656 C 146.035156 105.101562 145.769531 105.210938 145.609375 105.414062 C 145.453125 105.621094 146.003906 104.390625 143.691406 111.519531 Z M 176.585938 50.921875 C 176.605469 51.015625 176.65625 51.101562 176.730469 51.160156 C 176.804688 51.222656 176.898438 51.253906 176.996094 51.253906 C 177.324219 51.253906 187.503906 52.226562 189.578125 51.675781 C 190.917969 51.316406 191.152344 48.957031 191.277344 47.570312 C 191.4375 45.480469 191.277344 40.351562 190.398438 38.605469 C 189.203125 36.246094 180.375 37.03125 177.8125 37.488281 C 177.132812 37.582031 176.480469 37.832031 175.910156 38.210938 C 175.574219 38.597656 175.382812 39.085938 175.359375 39.597656 C 175.34375 43.40625 175.753906 47.203125 176.585938 50.921875 Z M 177.042969 39.421875 C 179.527344 38.652344 186.605469 38.351562 188.855469 39.421875 C 189.625 41.46875 190.035156 48.5 189.109375 50.136719 C 187.644531 50.511719 178.710938 50.511719 177.214844 50.527344 C 177.167969 49.300781 176.445312 42.679688 177.042969 39.421875 Z M 197.695312 50.859375 C 197.71875 50.953125 197.769531 51.035156 197.84375 51.09375 C 197.917969 51.15625 198.011719 51.1875 198.105469 51.191406 C 198.4375 51.191406 208.613281 52.164062 210.691406 51.613281 C 212.027344 51.253906 212.265625 48.894531 212.40625 47.507812 C 212.546875 45.417969 212.40625 40.289062 211.507812 38.542969 C 210.3125 36.167969 201.488281 36.96875 198.921875 37.425781 C 198.246094 37.527344 197.597656 37.773438 197.019531 38.148438 C 196.695312 38.539062 196.5 39.023438 196.46875 39.53125 C 196.453125 43.34375 196.867188 47.140625 197.695312 50.859375 Z M 198.152344 39.359375 C 200.636719 38.574219 207.71875 38.289062 209.96875 39.359375 C 210.738281 41.40625 211.148438 48.4375 210.21875 50.058594 C 208.753906 50.449219 199.820312 50.449219 198.324219 50.464844 C 198.277344 49.238281 197.554688 42.617188 198.152344 39.359375 Z M 219.785156 51.550781 C 219.800781 51.644531 219.851562 51.730469 219.929688 51.792969 C 220.003906 51.851562 220.097656 51.882812 220.191406 51.882812 C 220.523438 51.882812 230.699219 52.855469 232.777344 52.308594 C 234.113281 51.945312 234.351562 49.585938 234.476562 48.199219 C 234.632812 46.109375 234.476562 40.980469 233.59375 39.234375 C 232.398438 36.875 223.574219 37.660156 221.011719 38.117188 C 220.332031 38.21875 219.679688 38.464844 219.105469 38.839844 C 218.773438 39.226562 218.578125 39.714844 218.554688 40.226562 C 218.539062 44.035156 218.953125 47.832031 219.785156 51.550781 Z M 220.238281 40.050781 C 222.726562 39.28125 229.804688 38.984375 232.054688 40.050781 C 232.824219 42.097656 233.234375 49.128906 232.304688 50.765625 C 230.84375 51.144531 221.90625 51.144531 220.414062 51.160156 C 220.367188 49.929688 219.640625 43.308594 220.238281 40.050781 Z M 197.839844 75.054688 C 197.949219 75.367188 198.199219 75.398438 198.246094 75.382812 C 198.59375 75.382812 208.753906 76.359375 210.832031 75.808594 C 212.167969 75.445312 212.40625 73.085938 212.546875 71.703125 C 212.6875 69.609375 212.546875 64.484375 211.667969 62.753906 C 210.453125 60.375 201.628906 61.179688 199.082031 61.621094 C 198.394531 61.71875 197.742188 61.964844 197.160156 62.34375 C 196.832031 62.738281 196.640625 63.230469 196.613281 63.742188 C 196.597656 67.546875 197.007812 71.339844 197.839844 75.054688 Z M 198.308594 63.554688 C 200.796875 62.785156 207.859375 62.484375 210.109375 63.554688 C 210.878906 65.597656 211.289062 72.632812 210.359375 74.265625 C 208.898438 74.644531 199.976562 74.644531 198.484375 74.660156 C 198.421875 73.433594 197.695312 66.8125 198.308594 63.554688 Z M 234.617188 62.105469 C 237.132812 58.394531 239.335938 55.042969 239.414062 54.886719 C 239.496094 54.730469 238.347656 53.3125 237.667969 54.320312 C 232.855469 61.730469 233.515625 61.023438 233.171875 60.894531 C 230.402344 59.890625 221.464844 60.234375 220.066406 61.539062 C 219.121094 62.421875 219.484375 65.617188 219.59375 66.984375 C 218.585938 66.417969 217.816406 66.007812 217.535156 65.898438 C 216.808594 65.617188 216.855469 66.324219 217.25 66.574219 L 219.703125 68.148438 C 219.902344 70.214844 220.222656 72.269531 220.664062 74.300781 C 220.679688 74.394531 220.730469 74.480469 220.804688 74.542969 C 220.882812 74.601562 220.976562 74.632812 221.074219 74.628906 C 221.402344 74.628906 231.582031 75.605469 233.65625 75.054688 C 236.363281 74.300781 235.53125 64.371094 234.617188 62.105469 Z M 221.121094 62.753906 C 224.820312 61.910156 228.65625 61.839844 232.382812 62.546875 L 226.925781 71.152344 C 226.375 70.839844 223.433594 69.109375 220.980469 67.722656 C 220.875 66.082031 220.921875 64.433594 221.121094 62.800781 Z M 233.1875 73.449219 C 231.707031 73.84375 222.789062 73.84375 221.292969 73.859375 C 221.292969 73.230469 221.058594 71.167969 220.949219 68.886719 L 226.925781 72.601562 C 227.078125 72.617188 227.230469 72.589844 227.367188 72.523438 C 227.5 72.457031 227.617188 72.351562 227.695312 72.222656 C 228.199219 71.578125 230.730469 67.894531 233.3125 64.105469 C 233.800781 66.9375 233.957031 72.097656 233.21875 73.449219 Z M 170.640625 39.800781 C 171.066406 39.808594 171.484375 39.6875 171.84375 39.453125 C 172.203125 39.222656 172.484375 38.886719 172.652344 38.496094 C 172.820312 38.101562 172.867188 37.667969 172.789062 37.25 C 172.710938 36.832031 172.507812 36.445312 172.210938 36.136719 C 171.914062 35.832031 171.53125 35.625 171.113281 35.535156 C 170.695312 35.449219 170.261719 35.488281 169.863281 35.648438 C 169.46875 35.808594 169.128906 36.082031 168.886719 36.433594 C 168.648438 36.785156 168.519531 37.203125 168.515625 37.628906 C 168.515625 38.195312 168.738281 38.742188 169.132812 39.148438 C 169.53125 39.554688 170.070312 39.789062 170.640625 39.800781 Z M 170.640625 39.800781 " fill-opacity="1" fill-rule="nonzero"/></svg>