<svg xmlns="http://www.w3.org/2000/svg" xmlns:xlink="http://www.w3.org/1999/xlink" width="400" zoomAndPan="magnify" viewBox="0 0 300 299.999988" height="400" preserveAspectRatio="xMidYMid meet" version="1.0"><defs><clipPath id="d62b3a782f"><path d="M 0 30 L 300 30 L 300 280.5 L 0 280.5 Z M 0 30 " clip-rule="nonzero"/></clipPath></defs><path fill="#ffffff" d="M 200.183594 174.4375 L 200.089844 174.4375 Z M 68.828125 220.394531 C 69.425781 220.492188 72.695312 220.648438 72.695312 220.082031 C 72.695312 219.75 72.097656 219.765625 72.097656 219.765625 C 72.179688 217.246094 75.371094 216.613281 77.652344 217.9375 C 78.28125 218.300781 78.863281 218.738281 79.382812 219.246094 C 76.15625 219.417969 71.878906 221.625 72.164062 224.824219 C 72.324219 225.65625 72.675781 226.441406 73.183594 227.121094 C 73.691406 227.800781 74.351562 228.355469 75.105469 228.746094 C 76.046875 229.453125 77.121094 229.964844 78.261719 230.25 C 79.40625 230.539062 80.59375 230.59375 81.757812 230.414062 C 83.832031 229.886719 85.65625 228.648438 86.917969 226.917969 C 89.769531 227.007812 92.558594 226.074219 94.785156 224.289062 C 94.878906 224.210938 94.957031 224.121094 95.011719 224.015625 C 95.070312 223.910156 95.105469 223.792969 95.113281 223.671875 C 95.113281 223.121094 95.113281 223.152344 91.96875 219.65625 C 91.878906 219.554688 91.765625 219.480469 91.640625 219.429688 C 91.515625 219.382812 91.382812 219.367188 91.25 219.382812 C 91.117188 219.398438 90.992188 219.445312 90.878906 219.519531 C 90.769531 219.59375 90.679688 219.695312 90.613281 219.8125 C 90.5625 219.882812 90.511719 219.957031 90.472656 220.035156 C 90.222656 220.503906 89.820312 220.871094 89.328125 221.078125 C 88.839844 221.285156 88.292969 221.316406 87.785156 221.167969 C 86.210938 220.710938 84.179688 216.535156 80.484375 214.046875 C 77.257812 211.871094 72.933594 211.226562 69.882812 213.808594 C 68.566406 214.9375 67.632812 216.445312 67.207031 218.128906 C 67.039062 218.644531 67.070312 219.207031 67.300781 219.703125 C 67.714844 220.101562 68.253906 220.347656 68.828125 220.394531 Z M 74.742188 226.242188 C 74.3125 225.933594 74.011719 225.472656 73.902344 224.953125 C 73.796875 224.433594 73.886719 223.890625 74.160156 223.4375 C 74.859375 222.46875 75.828125 221.734375 76.945312 221.324219 C 76.042969 222.855469 75.304688 224.476562 74.742188 226.160156 Z M 89.5625 223.75 C 89.9375 222.617188 89.5625 223.011719 90.191406 222.726562 C 90.667969 222.488281 91.097656 222.167969 91.464844 221.78125 L 92.894531 223.484375 C 91.710938 224.234375 90.398438 224.769531 89.027344 225.058594 C 89.183594 224.648438 89.433594 224.019531 89.5625 223.671875 Z M 83.867188 219.734375 C 85.359375 221.609375 86.605469 223.277344 88.882812 223.089844 C 88.558594 223.769531 88.296875 224.476562 88.097656 225.199219 C 86.949219 225.28125 86.792969 225.011719 86.335938 225.199219 C 85.4375 225.546875 83.960938 228.777344 80.375 228.761719 C 80.597656 228.261719 80.742188 227.730469 80.796875 227.1875 C 81.8125 226.980469 82.761719 226.53125 83.566406 225.878906 C 83.910156 225.578125 84.136719 225.164062 84.195312 224.710938 C 84.195312 224.160156 84.007812 223.453125 82.84375 222.523438 C 83.277344 221.601562 83.621094 220.640625 83.867188 219.65625 Z M 78.582031 225.6875 C 77.195312 224.949219 79.554688 223.640625 81.082031 223.6875 C 81.433594 223.691406 81.773438 223.792969 82.070312 223.980469 C 82.367188 224.171875 82.601562 224.441406 82.75 224.761719 C 82.539062 225.097656 82.261719 225.390625 81.933594 225.617188 C 81.609375 225.847656 81.238281 226.003906 80.847656 226.085938 C 80.457031 226.164062 80.054688 226.164062 79.664062 226.082031 C 79.273438 226 78.90625 225.839844 78.582031 225.609375 Z M 80.4375 216.046875 C 81.503906 216.957031 82.476562 217.976562 83.332031 219.089844 C 82.832031 219.996094 82.453125 220.964844 82.199219 221.972656 C 81.539062 221.78125 80.84375 221.730469 80.164062 221.820312 C 79.480469 221.910156 78.824219 222.136719 78.234375 222.492188 C 75.355469 224.066406 76.03125 227.515625 80.027344 227.121094 C 79.792969 227.574219 79.617188 228.058594 79.507812 228.558594 C 77.914062 228.238281 76.421875 227.53125 75.167969 226.492188 C 76.28125 224.757812 77.152344 222.875 77.746094 220.898438 C 78.359375 220.617188 79.019531 220.460938 79.691406 220.441406 C 80.367188 220.417969 81.035156 220.53125 81.664062 220.773438 L 81.996094 219.527344 L 81.648438 219.371094 C 80.910156 218.867188 80.578125 218.472656 79.730469 217.796875 C 80.042969 217.222656 80.28125 216.605469 80.4375 215.96875 Z M 74.332031 213.527344 C 76.300781 213.5625 78.207031 214.226562 79.777344 215.417969 C 79.496094 216.058594 79.285156 216.730469 79.148438 217.417969 C 78.394531 216.824219 77.503906 216.429688 76.558594 216.269531 C 75.613281 216.105469 74.644531 216.179688 73.734375 216.488281 C 74.066406 215.53125 74.269531 214.535156 74.332031 213.527344 Z M 70.730469 214.753906 C 71.601562 214.074219 72.652344 213.660156 73.75 213.558594 C 73.261719 214.617188 72.960938 215.753906 72.855469 216.914062 C 72.386719 217.195312 72.003906 217.597656 71.746094 218.082031 C 71.488281 218.566406 71.363281 219.109375 71.390625 219.65625 C 70.289062 219.714844 69.1875 219.550781 68.152344 219.167969 C 68.386719 217.417969 69.300781 215.832031 70.699219 214.753906 Z M 47.226562 212.125 C 44.398438 210.894531 38.105469 214.535156 36.957031 216.488281 C 36.789062 216.917969 36.789062 217.398438 36.957031 217.828125 C 37.945312 221.59375 47.195312 234.890625 48.910156 236.953125 C 49.210938 237.332031 49.621094 236.8125 49.351562 236.371094 C 48.535156 235.015625 48.628906 237.742188 52.8125 224.175781 C 53.199219 224.023438 53.5625 223.8125 53.882812 223.546875 C 54.027344 223.382812 54.109375 223.175781 54.109375 222.957031 C 54.109375 222.738281 54.027344 222.527344 53.882812 222.363281 C 53.738281 222.1875 53.574219 222.03125 53.394531 221.890625 L 54.386719 218.222656 L 58.320312 220.394531 C 57.523438 222.386719 56.945312 224.457031 56.589844 226.570312 C 55.003906 227.144531 53.515625 227.960938 52.183594 228.996094 C 51.253906 230.023438 52.71875 231.914062 53.632812 233.046875 C 54.542969 234.179688 55.3125 234.953125 55.488281 235.125 C 55.660156 235.300781 56.210938 235.125 56.164062 234.84375 C 56.0625 234.613281 55.929688 234.402344 55.769531 234.210938 C 54.917969 232.882812 54.1875 231.480469 53.582031 230.023438 C 54.804688 229.289062 56.097656 228.675781 57.4375 228.195312 C 57.925781 228.019531 59.4375 227.546875 59.84375 227.800781 C 61.863281 228.867188 63.96875 229.753906 66.136719 230.464844 C 66.226562 230.503906 66.324219 230.511719 66.417969 230.476562 C 66.507812 230.445312 66.582031 230.378906 66.625 230.289062 C 66.667969 230.203125 66.671875 230.101562 66.640625 230.007812 C 66.605469 229.917969 66.539062 229.84375 66.453125 229.800781 L 63.730469 228.148438 C 64.308594 226.832031 64.679688 225.433594 64.832031 224.003906 L 71.546875 227.644531 C 71.957031 227.878906 72.273438 227.234375 71.972656 227.058594 C 71.675781 226.886719 51.285156 213.90625 47.226562 212.125 Z M 44.835938 213.792969 C 45.386719 213.628906 45.972656 213.628906 46.519531 213.792969 C 46.882812 213.953125 47.761719 214.425781 48.957031 215.085938 C 48.554688 216.199219 48.28125 217.359375 48.140625 218.535156 C 47.085938 217.9375 46.457031 217.480469 45.625 217.621094 C 45.167969 217.722656 44.746094 217.929688 44.382812 218.222656 C 44.539062 216.992188 44.679688 216.046875 44.835938 213.792969 Z M 38.542969 217.261719 C 40.175781 215.703125 42.15625 214.558594 44.316406 213.921875 C 43.480469 217.636719 42.890625 221.40625 42.554688 225.199219 C 40.96875 222.683594 39.632812 220.019531 38.5625 217.246094 Z M 45.6875 230.511719 C 44.820312 229.078125 43.878906 227.484375 42.980469 225.925781 C 43.515625 223.671875 43.6875 222.632812 44.019531 220.507812 C 44.878906 222 45.875 223.414062 46.992188 224.726562 C 46.359375 226.605469 45.925781 228.542969 45.703125 230.511719 Z M 48.441406 235.046875 C 47.875 234.148438 47.148438 232.9375 46.207031 231.375 C 46.804688 229.398438 47.199219 227.367188 47.386719 225.3125 C 47.730469 226.144531 50.816406 224.949219 51.648438 224.632812 C 51.035156 226.570312 48.894531 233.316406 48.457031 235.046875 Z M 47.96875 224.824219 C 46.992188 223.132812 46.132812 221.378906 45.386719 219.578125 L 45.875 219.308594 C 46.097656 219.433594 51.476562 222.617188 51.867188 222.871094 C 50.644531 223.648438 49.339844 224.304688 47.984375 224.824219 Z M 52.6875 221.355469 C 51.507812 220.570312 49.902344 219.609375 48.675781 218.898438 C 49.09375 217.785156 49.371094 216.617188 49.492188 215.433594 L 53.960938 217.953125 C 53.882812 218.550781 53.347656 219.78125 52.78125 221.355469 Z M 63.101562 227.660156 L 60.679688 226.195312 C 59.601562 225.769531 58.40625 225.769531 57.328125 226.195312 C 57.9375 224.351562 58.378906 222.457031 58.648438 220.539062 L 64.34375 223.6875 C 63.761719 224.972656 63.375 226.335938 63.195312 227.738281 Z M 63.101562 227.660156 " fill-opacity="1" fill-rule="nonzero"/><g clip-path="url(#d62b3a782f)"><path fill="#ffffff" d="M 298.265625 233.265625 C 295.71875 209.507812 273.757812 172.972656 260.636719 153.011719 C 267.960938 153.601562 275.316406 153.785156 282.660156 153.5625 C 284.753906 153.5625 290.226562 153.1875 291.28125 152.980469 C 291.894531 152.855469 291.988281 152.273438 291.0625 152.242188 C 290.132812 152.210938 283.527344 151.894531 282.628906 151.878906 L 266.628906 151.878906 C 264.175781 151.972656 260.339844 152.195312 260.117188 152.195312 C 255.398438 144.992188 252.109375 140.488281 252.078125 140.472656 C 252.042969 140.433594 252 140.40625 251.949219 140.386719 C 251.902344 140.371094 251.851562 140.363281 251.800781 140.363281 C 251.75 140.367188 251.699219 140.382812 251.652344 140.40625 C 251.605469 140.429688 251.566406 140.464844 251.535156 140.503906 C 251.503906 140.542969 251.480469 140.59375 251.46875 140.640625 C 251.457031 140.691406 251.457031 140.746094 251.464844 140.796875 C 251.476562 140.84375 251.496094 140.894531 251.527344 140.9375 C 251.554688 140.976562 251.59375 141.011719 251.640625 141.039062 C 252.363281 141.621094 284.15625 188.144531 293.875 220.191406 C 297.730469 232.90625 300.011719 248.863281 287.585938 253.277344 C 258.074219 263.832031 26.933594 267.265625 5.085938 254.851562 C 2.046875 253.132812 1.339844 249.558594 1.9375 244.738281 C 2.867188 238.042969 6.46875 228.980469 10.8125 218.835938 C 15.703125 223.5625 56.289062 260.886719 62.863281 259.484375 C 69.441406 258.082031 106.425781 240.875 107.949219 237.585938 C 108.835938 235.296875 109.304688 232.867188 109.335938 230.414062 C 109.519531 230.160156 109.609375 229.84375 109.578125 229.527344 C 109.550781 229.210938 109.40625 228.917969 109.175781 228.699219 C 106.738281 226.273438 58.367188 187.863281 55.25 187.972656 C 53.082031 188.066406 49.148438 190.304688 47.277344 191.40625 C 46.667969 190.414062 45.765625 189.632812 44.691406 189.183594 C 43.621094 188.730469 42.433594 188.625 41.296875 188.886719 C 40.226562 189.320312 39.269531 189.988281 38.496094 190.84375 C 37.722656 191.703125 37.152344 192.722656 36.832031 193.832031 C 36.847656 193.917969 36.894531 193.996094 36.960938 194.050781 C 37.027344 194.105469 37.113281 194.132812 37.199219 194.132812 C 37.285156 194.132812 37.371094 194.105469 37.4375 194.050781 C 37.503906 193.996094 37.550781 193.917969 37.570312 193.832031 C 38.515625 192.230469 40.015625 191.03125 41.785156 190.460938 C 42.519531 190.347656 43.273438 190.445312 43.957031 190.746094 C 44.640625 191.042969 45.222656 191.53125 45.640625 192.148438 L 28.148438 199.632812 C 27.21875 198.675781 26.058594 197.972656 24.78125 197.597656 C 21.792969 196.8125 19.777344 198.78125 18.582031 201.664062 C 18.554688 201.746094 18.558594 201.835938 18.589844 201.917969 C 18.621094 201.996094 18.679688 202.066406 18.757812 202.109375 C 18.832031 202.148438 18.921875 202.164062 19.007812 202.148438 C 19.09375 202.136719 19.171875 202.089844 19.226562 202.027344 C 21.242188 199.109375 23.570312 198.117188 26.351562 200.449219 C 22.988281 201.945312 18.28125 204.074219 14.980469 205.710938 C 15.214844 205.335938 49.164062 143.765625 49.164062 143.605469 C 50.65625 140.835938 53.664062 135.871094 56.761719 135.226562 C 58.164062 134.921875 59.589844 134.761719 61.023438 134.753906 C 58.839844 138.375 41.09375 167.839844 41.0625 171.996094 C 41.0625 176.722656 41.878906 175.984375 44.398438 176.722656 C 46.914062 177.464844 187.753906 176.597656 188.007812 176.597656 C 190.445312 176.597656 199.976562 176.28125 200.859375 175.636719 C 203.597656 173.621094 202.984375 170.609375 201.785156 167.445312 C 201.503906 166.6875 200.070312 163.550781 198.152344 159.363281 C 206.410156 156.871094 212.625 160.039062 213.191406 173.542969 C 213.757812 185.214844 209.164062 188.777344 200.371094 188.273438 C 193.308594 187.863281 188.429688 185.78125 186.890625 188.539062 C 185.160156 191.613281 189.941406 198.511719 192.019531 201.378906 C 191.71875 201.378906 178.550781 201.113281 175.234375 200.96875 C 170.554688 200.789062 165.871094 200.847656 161.199219 201.144531 C 157.984375 201.214844 154.785156 201.652344 151.667969 202.449219 C 150.488281 203.035156 148.960938 206.074219 148.316406 207.351562 C 147.042969 209.855469 141.238281 225.578125 139.632812 230.117188 C 138.6875 232.730469 135.496094 241.398438 137.636719 242.925781 C 137.558594 244.609375 137.824219 246.863281 139.304688 247.652344 C 140.78125 248.4375 161.105469 249.007812 162.664062 249.039062 C 165.417969 249.117188 193.246094 249.480469 211.003906 248.691406 C 228.765625 247.902344 236.519531 246.203125 236.066406 246.25 C 236.515625 246.117188 236.921875 245.859375 237.234375 245.507812 C 237.550781 245.160156 237.757812 244.726562 237.84375 244.265625 C 238.085938 243.101562 238.007812 241.890625 237.621094 240.765625 C 239.605469 236.90625 224.613281 204.863281 220.460938 202.609375 C 220.214844 202.46875 219.9375 202.394531 219.65625 202.386719 C 218.824219 202.386719 200.167969 201.601562 192.914062 201.363281 C 191.339844 199.144531 186.230469 190.777344 188.195312 188.996094 C 191.183594 186.382812 216.148438 199.488281 214.8125 173.398438 C 214.121094 161.597656 208.691406 154.683594 197.679688 158.683594 C 196.722656 156.605469 188.667969 139.371094 186.511719 134.785156 C 194.859375 135.285156 203.238281 135.101562 211.554688 134.234375 C 211.675781 135.703125 212.097656 137.132812 212.796875 138.433594 C 213.496094 139.730469 214.453125 140.871094 215.613281 141.78125 C 221.90625 146.507812 246.949219 145.796875 251.496094 140.015625 C 252.769531 138.269531 253.652344 136.269531 254.078125 134.152344 C 254.503906 132.03125 254.464844 129.84375 253.96875 127.742188 C 254.386719 127.476562 254.710938 127.085938 254.894531 126.625 C 255.148438 126.136719 254.894531 125.519531 253.808594 125.300781 C 252.410156 125.089844 250.992188 125.003906 249.578125 125.046875 C 249.578125 123.757812 249.65625 121.347656 249.578125 118.605469 C 249.71875 118.511719 250.742188 117.28125 250.851562 117.140625 C 252.105469 115.671875 253.09375 114 253.777344 112.191406 C 254.296875 110.726562 254.5 109.042969 253.132812 108.222656 C 251.023438 107.070312 249.546875 109.183594 248.839844 111.546875 C 248.179688 107.90625 246.652344 102.566406 243.003906 103.101562 C 236.804688 104.046875 241.082031 119.09375 243.097656 125.046875 C 241.328125 124.796875 239.53125 124.796875 237.765625 125.046875 C 239.730469 120.101562 240.738281 113.703125 235.6875 112.742188 C 234.921875 112.574219 234.125 112.632812 233.390625 112.914062 C 232.660156 113.191406 232.023438 113.683594 231.566406 114.320312 C 231.464844 113.960938 231.273438 113.636719 231.015625 113.375 C 230.753906 113.113281 230.429688 112.917969 230.074219 112.816406 C 229.71875 112.710938 229.34375 112.699219 228.984375 112.78125 C 228.621094 112.863281 228.289062 113.035156 228.011719 113.28125 C 225.699219 114.949219 227.019531 118.777344 229.710938 120.039062 C 229.566406 121.65625 229.566406 123.285156 229.710938 124.90625 C 228.035156 124.703125 226.339844 124.742188 224.675781 125.015625 C 224.582031 121.171875 224.160156 117.335938 223.417969 113.5625 C 224.371094 112.882812 225.175781 112.007812 225.777344 111 C 226.378906 109.992188 226.765625 108.867188 226.910156 107.703125 C 227.128906 105.605469 226.390625 103.859375 224.644531 103.402344 C 222.457031 102.832031 221.167969 104.363281 220.789062 106.550781 C 218.855469 103.875 215.0625 102.914062 213.222656 105.984375 C 207.324219 99.839844 204.476562 103.273438 205.972656 105.984375 C 207.089844 108.066406 210 109.230469 212.265625 109.875 C 212.265625 113.40625 213.835938 116.382812 215.789062 119.421875 C 217.09375 121.472656 218.554688 123.441406 219.6875 124.890625 C 217.242188 124.8125 214.792969 124.96875 212.375 125.363281 C 210.894531 125.757812 210.660156 126.828125 212.027344 127.601562 C 211.59375 129.445312 211.4375 131.347656 211.554688 133.242188 C 203.105469 132.789062 194.632812 132.988281 186.214844 133.839844 C 185.679688 132.6875 184.089844 129.332031 183.902344 128.941406 C 183.710938 128.546875 185.222656 123.976562 187.34375 81.503906 C 197.097656 80.683594 240.957031 81.660156 244.984375 80.101562 C 245.214844 80.015625 245.421875 79.875 245.578125 79.6875 C 245.734375 79.496094 245.839844 79.269531 245.882812 79.027344 C 247.21875 74.632812 248.128906 36.851562 245.882812 33.339844 C 245.332031 32.472656 243.363281 32.207031 242.277344 32.046875 C 228.261719 30 169.773438 30.882812 166.769531 32.472656 C 163.765625 34.066406 165.039062 49.597656 165.605469 52.6875 C 135.226562 51.710938 65.082031 53.617188 58.476562 56.089844 C 56.902344 56.65625 56.320312 58.816406 56.007812 60.4375 C 53.394531 73.941406 60.726562 117.390625 63.179688 130.8125 C 63.023438 130.8125 63.179688 130.8125 61.261719 133.808594 C 59.636719 133.6875 58.003906 133.773438 56.398438 134.058594 C 52.8125 134.609375 49.507812 139.574219 47.683594 142.660156 C 47.605469 142.820312 42.964844 150.539062 42.273438 151.800781 C 38.324219 151.183594 19.964844 151.421875 17.636719 151.546875 C 15.308594 151.671875 12.917969 151.847656 10.8125 152.003906 C 10.433594 152.003906 10.402344 152.730469 10.8125 152.746094 C 15.214844 153.011719 16.835938 153.105469 20.25 153.15625 C 28.601562 153.28125 40.921875 153.628906 41.3125 153.578125 C 40.496094 155.015625 28.382812 176.597656 26.761719 179.652344 C 19.714844 192.886719 14.175781 205.003906 13.847656 206.027344 C 12.019531 206.859375 10.300781 207.917969 8.734375 209.179688 C 8.230469 210.566406 7.925781 212.019531 7.835938 213.496094 C 7.757812 216.03125 8.671875 216.644531 10.070312 218.0625 C 6.316406 226.125 3.226562 234.484375 0.835938 243.050781 C 0.0585938 246.519531 0.0234375 250.109375 0.742188 253.589844 C 1.386719 257.070312 2.585938 260.421875 4.296875 263.515625 C 5.066406 264.296875 6.0625 264.816406 7.144531 264.996094 C 11.28125 266.164062 24.105469 267.660156 28.398438 268.148438 C 28.074219 270.074219 27.984375 272.03125 28.128906 273.976562 C 28.136719 275.984375 28.425781 277.976562 28.996094 279.902344 C 29 279.949219 29.015625 279.996094 29.039062 280.035156 C 29.0625 280.078125 29.09375 280.117188 29.128906 280.144531 C 29.167969 280.175781 29.210938 280.199219 29.253906 280.210938 C 29.300781 280.226562 29.351562 280.230469 29.398438 280.222656 C 29.445312 280.21875 29.492188 280.203125 29.53125 280.183594 C 29.574219 280.160156 29.613281 280.128906 29.640625 280.089844 C 29.671875 280.050781 29.695312 280.011719 29.707031 279.964844 C 29.71875 279.917969 29.726562 279.871094 29.71875 279.824219 C 29.972656 277.859375 30.039062 275.875 29.925781 273.898438 C 29.914062 271.996094 29.699219 270.097656 29.277344 268.242188 C 31.449219 268.433594 33.542969 268.589844 35.367188 268.652344 C 35.078125 270.492188 34.996094 272.355469 35.132812 274.214844 C 35.136719 276.21875 35.429688 278.214844 35.996094 280.136719 C 35.996094 280.234375 36.035156 280.324219 36.101562 280.394531 C 36.171875 280.460938 36.261719 280.5 36.359375 280.5 C 36.453125 280.5 36.546875 280.460938 36.613281 280.394531 C 36.683594 280.324219 36.71875 280.234375 36.71875 280.136719 C 36.980469 278.175781 37.054688 276.191406 36.941406 274.214844 C 36.929688 272.375 36.71875 270.539062 36.3125 268.746094 C 39.820312 268.824219 91.449219 273.472656 180.613281 271.707031 C 204.507812 271.234375 233.234375 270.132812 256.894531 267.535156 C 256.582031 269.433594 256.492188 271.363281 256.625 273.285156 C 256.632812 275.285156 256.929688 277.277344 257.507812 279.191406 C 257.496094 279.246094 257.496094 279.300781 257.507812 279.351562 C 257.519531 279.40625 257.546875 279.453125 257.578125 279.496094 C 257.613281 279.539062 257.65625 279.570312 257.703125 279.59375 C 257.753906 279.617188 257.804688 279.628906 257.859375 279.628906 C 257.914062 279.628906 257.96875 279.617188 258.015625 279.59375 C 258.066406 279.570312 258.109375 279.539062 258.140625 279.496094 C 258.175781 279.453125 258.199219 279.40625 258.210938 279.351562 C 258.226562 279.300781 258.226562 279.246094 258.214844 279.191406 C 258.488281 277.230469 258.5625 275.246094 258.433594 273.269531 C 258.417969 271.320312 258.191406 269.382812 257.757812 267.488281 C 259.503906 267.296875 263.546875 266.792969 263.894531 266.746094 C 263.582031 268.636719 263.5 270.554688 263.640625 272.464844 C 263.640625 274.472656 263.933594 276.464844 264.507812 278.390625 C 264.515625 278.484375 264.566406 278.574219 264.640625 278.632812 C 264.714844 278.695312 264.8125 278.722656 264.90625 278.710938 C 265.003906 278.703125 265.09375 278.652344 265.152344 278.578125 C 265.210938 278.503906 265.242188 278.40625 265.230469 278.308594 C 265.488281 276.351562 265.558594 274.371094 265.433594 272.402344 C 265.425781 270.460938 265.199219 268.527344 264.757812 266.636719 C 271.851562 265.675781 293.546875 262.746094 296.503906 256.679688 C 299.996094 249.761719 299.714844 240.765625 298.265625 233.265625 Z M 155.113281 207.902344 C 155.285156 207.476562 160.554688 206.328125 166.3125 207.902344 C 166.367188 207.890625 166.421875 207.890625 166.472656 207.90625 C 166.527344 207.917969 166.574219 207.941406 166.617188 207.976562 C 166.65625 208.007812 166.691406 208.050781 166.714844 208.101562 C 166.738281 208.148438 166.75 208.203125 166.75 208.257812 C 166.75 208.308594 166.738281 208.363281 166.714844 208.414062 C 166.691406 208.460938 166.65625 208.503906 166.617188 208.539062 C 166.574219 208.570312 166.527344 208.597656 166.472656 208.609375 C 166.421875 208.621094 166.367188 208.621094 166.3125 208.609375 C 163.445312 209.121094 160.519531 209.195312 157.628906 208.832031 C 156.277344 208.609375 154.5625 208.59375 155.066406 207.902344 Z M 235.988281 245.367188 C 221.433594 248.140625 141.050781 247.507812 139.835938 246.941406 C 138.625 246.375 138.515625 244.546875 138.484375 243.351562 C 147.199219 246.1875 232.351562 243.996094 237.085938 241.492188 C 237.339844 242.878906 237.402344 245.097656 235.9375 245.367188 Z M 205.453125 208.074219 C 205.453125 207.539062 208.914062 207.242188 209.070312 207.226562 C 211.128906 207.066406 213.195312 207.066406 215.253906 207.226562 C 216.402344 207.351562 217.988281 207.507812 217.863281 207.996094 C 217.738281 208.484375 215.363281 208.691406 214.953125 208.753906 C 213.417969 208.894531 211.871094 208.957031 210.328125 208.941406 C 209.289062 208.910156 205.34375 208.722656 205.40625 208.074219 Z M 225.667969 213.320312 C 229.601562 220.832031 232.90625 228.660156 235.546875 236.71875 C 235.882812 237.734375 236.066406 238.796875 236.097656 239.867188 C 229 242.074219 147.230469 244.34375 138.957031 241.964844 C 138.5625 241.855469 138.453125 241.964844 138.359375 241.300781 C 137.761719 237.015625 144.761719 219.984375 146.382812 216.015625 C 176.144531 215.023438 225.351562 213.496094 225.621094 213.320312 Z M 212.421875 109.167969 C 210.699219 108.222656 209.140625 107.007812 207.796875 105.574219 C 207.183594 104.644531 207.324219 104 209.132812 104.882812 C 210.265625 105.402344 211.855469 106.332031 212.925781 106.976562 C 212.648438 107.679688 212.480469 108.417969 212.421875 109.167969 Z M 250.175781 111.988281 C 251.433594 109.71875 252.675781 109.074219 252.550781 110.410156 C 251.875 112.808594 250.914062 115.113281 249.6875 117.28125 C 249.59375 115.707031 249.484375 114.648438 249.359375 113.609375 C 249.421875 113.390625 249.734375 112.726562 250.128906 111.988281 Z M 243.488281 125.695312 C 243.804688 126.59375 244.007812 127.128906 244.023438 127.160156 C 244.042969 127.203125 244.066406 127.246094 244.101562 127.277344 C 244.132812 127.3125 244.175781 127.339844 244.21875 127.359375 C 244.261719 127.378906 244.308594 127.390625 244.355469 127.390625 C 244.40625 127.390625 244.453125 127.382812 244.496094 127.363281 C 245.1875 127.097656 244.167969 126.449219 242.53125 116.949219 C 242.042969 114.113281 240.59375 105.371094 243.457031 104.960938 C 245.785156 104.613281 247.046875 110.394531 247.484375 112.679688 C 248.300781 117.085938 248.828125 121.535156 249.058594 126.007812 C 249.058594 126.097656 249.089844 126.179688 249.144531 126.246094 C 249.199219 126.3125 249.277344 126.359375 249.363281 126.371094 C 249.453125 126.386719 249.539062 126.367188 249.613281 126.320312 C 249.6875 126.273438 249.742188 126.203125 249.765625 126.121094 C 249.773438 126.03125 249.773438 125.941406 249.765625 125.851562 C 251.1875 125.894531 252.601562 126.089844 253.984375 126.433594 C 253.808594 126.640625 253.585938 126.800781 253.335938 126.90625 C 250.035156 128.609375 240.046875 128.277344 236.601562 128.214844 C 237.070312 127.269531 237.402344 126.542969 237.765625 125.679688 C 239.644531 125.988281 241.5625 125.992188 243.441406 125.695312 Z M 231.21875 122.242188 C 231.582031 119.09375 232.382812 114.066406 235.5625 114.664062 C 238.738281 115.265625 237.9375 119.878906 237.246094 122.96875 C 236.816406 124.738281 236.292969 126.488281 235.671875 128.199219 L 230.953125 128.199219 C 230.914062 126.210938 230.988281 124.222656 231.171875 122.242188 Z M 229.222656 114.839844 C 229.296875 114.769531 229.382812 114.714844 229.476562 114.679688 C 229.570312 114.648438 229.671875 114.632812 229.773438 114.640625 C 229.875 114.648438 229.972656 114.675781 230.0625 114.726562 C 230.152344 114.773438 230.230469 114.839844 230.292969 114.917969 C 230.542969 115.167969 230.769531 115.441406 230.96875 115.738281 C 230.519531 116.742188 230.210938 117.800781 230.039062 118.886719 C 229.222656 117.753906 228.167969 115.691406 229.222656 114.839844 Z M 224.265625 105.261719 C 226.3125 105.90625 224.707031 111.292969 223.339844 112.933594 C 222.960938 111.238281 222.394531 109.589844 221.65625 108.015625 C 222.113281 106.632812 222.882812 104.820312 224.265625 105.246094 Z M 220.398438 125.867188 C 221.167969 126.84375 221.671875 127.441406 221.671875 127.441406 C 221.734375 127.503906 221.816406 127.542969 221.902344 127.546875 C 221.992188 127.550781 222.078125 127.523438 222.148438 127.472656 C 222.21875 127.417969 222.265625 127.339844 222.28125 127.253906 C 222.296875 127.167969 222.28125 127.078125 222.238281 127 C 222.238281 127 219.453125 123.03125 217.15625 118.917969 C 215.425781 115.769531 213.773438 112.617188 214.230469 109.136719 C 214.59375 106.394531 216.039062 105.230469 218.476562 106.820312 C 222 109.089844 223.605469 123.078125 224.109375 127.300781 C 224.113281 127.410156 224.152344 127.519531 224.222656 127.605469 C 224.289062 127.691406 224.382812 127.757812 224.488281 127.789062 C 224.910156 127.789062 224.847656 127.332031 224.832031 127.113281 C 224.816406 126.890625 224.832031 125.789062 224.832031 125.679688 C 226.503906 125.890625 228.195312 125.890625 229.867188 125.679688 C 229.960938 126.828125 230.070312 127.726562 230.148438 128.199219 C 224.566406 128.199219 217.816406 128.578125 213.191406 126.765625 C 215.570312 126.292969 217.976562 125.996094 220.398438 125.867188 Z M 212.863281 128.183594 C 215.164062 129.078125 217.585938 129.609375 220.050781 129.757812 C 222.835938 130.011719 241.792969 130.042969 243.945312 129.933594 C 247.195312 129.878906 250.414062 129.277344 253.464844 128.152344 C 253.757812 130.085938 253.644531 132.0625 253.140625 133.949219 C 252.632812 135.839844 251.742188 137.605469 250.523438 139.132812 C 246.699219 143.621094 222.519531 144.648438 216.714844 140.550781 C 212.894531 137.917969 212.199219 132.65625 212.863281 128.167969 Z M 200.183594 174.4375 C 200.511719 175.496094 50.515625 175.542969 50.359375 175.527344 C 44.066406 175.527344 45.640625 175.527344 43.53125 175.007812 C 42.964844 174.878906 42.855469 174.878906 42.746094 174.328125 C 42.613281 173.464844 42.574219 172.585938 42.636719 171.714844 C 42.667969 171.777344 42.722656 171.832031 42.785156 171.863281 C 42.851562 171.890625 42.925781 171.902344 42.996094 171.886719 C 42.996094 171.886719 200.136719 169.746094 201.15625 169.710938 C 201.582031 171.554688 201.644531 173.273438 200.183594 174.4375 Z M 244.433594 78.824219 C 244.433594 78.824219 244.527344 78.667969 244.558594 78.714844 C 244.589844 78.761719 244.433594 78.808594 244.355469 78.824219 Z M 166.203125 39.089844 C 166.203125 38.066406 166.613281 34.191406 167.523438 33.71875 C 169.601562 32.679688 235.59375 31.796875 244.605469 34.617188 C 246.179688 37.925781 245.675781 75.089844 244.355469 78.824219 C 236.617188 80.035156 197.664062 79.941406 187.535156 80.980469 C 188.148438 68.582031 188.414062 58.136719 187.910156 56.105469 C 187.816406 55.839844 187.65625 55.601562 187.453125 55.40625 C 187.25 55.214844 187.003906 55.070312 186.730469 54.988281 C 183.285156 53.488281 170.324219 53.066406 166.550781 52.9375 C 166.058594 48.339844 165.945312 43.707031 166.203125 39.089844 Z M 57.421875 78.761719 C 57.1875 75.453125 56.023438 58.753906 59.167969 57.585938 C 60.742188 57.035156 66.277344 56.484375 74.316406 56.011719 C 89.71875 55.050781 113.992188 54.277344 136.078125 54.121094 C 140.984375 54.121094 182.453125 53.757812 186.511719 56.546875 C 187.707031 61.996094 183.886719 122.558594 183.035156 128.402344 C 145.863281 129.617188 101.816406 131.445312 64.328125 130.53125 C 63.699219 126.921875 58.886719 99.085938 57.421875 78.761719 Z M 63.839844 131.585938 C 63.84375 131.550781 63.84375 131.511719 63.839844 131.476562 C 90.347656 132.296875 173.296875 129.570312 183.398438 129.507812 C 184.515625 132.105469 200.199219 166.957031 200.859375 168.894531 C 200.6875 168.894531 42.871094 171.035156 42.667969 171.195312 C 44.648438 164.546875 61.039062 136.4375 63.839844 131.585938 Z M 107.085938 237.144531 C 105.921875 239.410156 70.652344 255.199219 63.398438 257.386719 C 63.539062 256.660156 63.59375 255.921875 63.558594 255.183594 C 74.269531 251.464844 97.519531 241.648438 107.949219 234.699219 C 107.75 235.550781 107.460938 236.375 107.085938 237.160156 Z M 108.171875 233.660156 C 105.023438 235.519531 102.019531 236.8125 63.542969 254.332031 C 63.542969 253.617188 63.449219 252.90625 63.257812 252.21875 C 68.292969 249.855469 102.429688 236.605469 108.515625 231.328125 C 108.4375 232.007812 108.328125 232.828125 108.171875 233.675781 Z M 27.140625 201.332031 C 27.894531 202.226562 28.363281 203.328125 28.484375 204.492188 C 28.601562 205.65625 28.363281 206.828125 27.800781 207.855469 C 27.546875 208.25 28.148438 208.660156 28.398438 208.25 C 29.347656 207.210938 29.910156 205.878906 29.988281 204.472656 C 30.0625 203.066406 29.652344 201.679688 28.824219 200.542969 C 36.46875 197.03125 43.988281 193.722656 46.046875 192.824219 C 46.5625 193.875 46.839844 195.023438 46.855469 196.191406 C 46.871094 197.363281 46.628906 198.519531 46.144531 199.582031 C 45.953125 200.089844 46.519531 200.277344 46.789062 199.945312 C 47.652344 198.84375 48.191406 197.523438 48.34375 196.128906 C 48.492188 194.738281 48.246094 193.328125 47.636719 192.070312 C 49.335938 191.109375 53.300781 188.917969 55.234375 188.917969 C 57.65625 188.917969 106.816406 228.964844 107.730469 229.878906 C 103.625 234.117188 65.507812 249.226562 62.300781 250.769531 C 55.535156 249.195312 14.257812 213.636719 10.386719 209.980469 C 12.792969 207.980469 24.433594 202.59375 27.140625 201.332031 Z M 9.191406 210.707031 C 14.097656 215.511719 55.046875 251.304688 61.90625 252.441406 C 61.769531 253.035156 61.703125 253.644531 61.71875 254.253906 C 50.703125 248.863281 19.242188 221.578125 8.828125 212.800781 C 8.875 212.800781 9.113281 211.257812 9.238281 210.707031 Z M 9.425781 216.109375 C 8.984375 215.433594 8.761719 214.636719 8.796875 213.824219 C 19.085938 224.222656 48.125 249.792969 61.699219 255.121094 C 61.671875 255.960938 61.757812 256.804688 61.953125 257.625 C 53.882812 255.8125 10.496094 217.402344 9.472656 216.109375 Z M 295.734375 256.160156 C 285.570312 276.355469 9.804688 271.078125 5.335938 263.203125 C 3.441406 259.90625 2.164062 256.289062 1.5625 252.535156 C 2.167969 253.867188 3.179688 254.96875 4.457031 255.6875 C 27.613281 269.1875 257.996094 265.660156 288.070312 254.835938 C 294.441406 252.535156 297.652344 247.574219 298.375 240.65625 C 298.804688 245.96875 297.882812 251.300781 295.703125 256.160156 Z M 295.734375 256.160156 " fill-opacity="1" fill-rule="nonzero"/></g><path fill="#ffffff" d="M 60.175781 149.011719 C 171.410156 150.585938 182.027344 149.625 185.144531 149.136719 C 185.882812 149.027344 186.355469 148.773438 186.324219 147.910156 C 186.324219 145.625 180.972656 135.148438 179.558594 134.421875 C 178.929688 134.089844 66.292969 135.683594 65.902344 135.808594 C 65.828125 135.824219 65.757812 135.859375 65.699219 135.90625 C 65.640625 135.953125 65.589844 136.007812 65.554688 136.078125 C 64.484375 137.824219 59.261719 146.457031 59.5 148.414062 C 59.523438 148.574219 59.605469 148.722656 59.730469 148.832031 C 59.851562 148.945312 60.011719 149.003906 60.175781 149.011719 Z M 66.359375 136.894531 C 67.488281 136.753906 178.300781 135.652344 178.976562 135.714844 C 180.152344 137.40625 181.203125 139.179688 182.121094 141.023438 C 179.542969 141.023438 64.234375 141.636719 63.636719 141.652344 C 64.328125 140.265625 65.242188 138.691406 66.359375 136.894531 Z M 63.210938 142.410156 C 63.824219 142.410156 180.503906 141.8125 182.5 141.765625 C 183.535156 143.695312 184.355469 145.734375 184.9375 147.84375 C 179.339844 148.742188 128.308594 148.300781 60.742188 147.84375 C 61.371094 145.9375 62.191406 144.09375 63.179688 142.347656 Z M 146.996094 154.367188 C 146.679688 153.671875 146.167969 153.085938 145.523438 152.679688 C 144.875 152.277344 144.125 152.074219 143.363281 152.097656 C 139.367188 152.097656 105.8125 151.167969 102.789062 152.398438 C 100.863281 154.738281 99.371094 157.40625 98.386719 160.277344 C 98.292969 160.96875 98.636719 161.285156 99.0625 161.332031 C 108.5 162.355469 139.789062 163.332031 147.90625 161.835938 C 148.914062 161.644531 149.039062 160.574219 148.835938 159.550781 C 148.347656 157.78125 147.734375 156.046875 146.996094 154.367188 Z M 99.503906 160.277344 C 100.40625 157.71875 101.632812 155.289062 103.152344 153.042969 C 105.542969 152.257812 136.644531 153.894531 143.410156 153.878906 C 143.8125 153.863281 144.210938 153.96875 144.554688 154.175781 C 144.902344 154.382812 145.179688 154.683594 145.359375 155.046875 C 146.125 156.679688 146.71875 158.390625 147.136719 160.148438 C 139.160156 161.394531 105.292969 160.683594 99.503906 160.277344 Z M 256.25 156.382812 C 254.03125 153.328125 242.90625 153.46875 239.179688 153.578125 C 236.035156 153.578125 224.597656 154.101562 224.597656 157.1875 C 224.609375 157.4375 224.683594 157.679688 224.808594 157.898438 C 224.933594 158.113281 225.109375 158.296875 225.320312 158.433594 C 225.621094 158.667969 223.558594 179.433594 226.390625 190.570312 C 227.320312 194.257812 228.515625 196.085938 232.023438 197.613281 C 238.753906 200.542969 249.925781 199.898438 254.40625 193.644531 C 255.304688 191.816406 255.117188 186.492188 255.195312 184.867188 C 262.164062 186.253906 267.875 183.417969 269.351562 175.90625 C 270.28125 171.066406 269.085938 167.902344 267.023438 165.980469 C 265.648438 164.855469 264.019531 164.082031 262.28125 163.726562 C 260.542969 163.371094 258.742188 163.441406 257.035156 163.929688 C 256.976562 163.953125 256.910156 163.957031 256.847656 163.949219 C 256.785156 163.9375 256.726562 163.914062 256.675781 163.875 C 256.625 163.839844 256.585938 163.789062 256.558594 163.734375 C 256.527344 163.679688 256.515625 163.617188 256.515625 163.550781 C 256.515625 162.71875 256.8125 157.0625 256.25 156.382812 Z M 226.359375 156.714844 C 230.605469 154.226562 247.910156 154.035156 253.496094 156.574219 C 253.683594 156.667969 254.390625 157.03125 254.390625 157.1875 C 254.390625 157.34375 253.667969 157.722656 253.496094 157.800781 C 249.277344 159.707031 234.222656 160.574219 226.3125 157.675781 C 225.761719 157.375 226.3125 156.777344 226.3125 156.714844 Z M 257.476562 165.539062 C 258.90625 165.125 260.414062 165.066406 261.871094 165.367188 C 263.328125 165.664062 264.691406 166.3125 265.84375 167.253906 C 267.542969 168.832031 268.390625 171.539062 267.605469 175.558594 C 267.449219 176.953125 266.964844 178.292969 266.195312 179.46875 C 265.425781 180.644531 264.386719 181.617188 263.167969 182.316406 C 260.589844 183.480469 257.683594 183.703125 254.957031 182.945312 C 254.824219 182.898438 254.679688 182.878906 254.539062 182.886719 C 254.398438 182.894531 254.257812 182.933594 254.128906 183 C 254.003906 183.0625 253.890625 183.152344 253.800781 183.265625 C 253.710938 183.375 253.644531 183.503906 253.605469 183.640625 C 253.179688 184.835938 253.777344 189.675781 252.914062 192.730469 C 248.933594 198.132812 238.753906 198.621094 232.730469 196.085938 C 229.679688 194.777344 228.828125 193.421875 228.011719 190.164062 C 225.902344 182.425781 225.777344 166.671875 226.25 158.921875 C 231.203125 161.269531 248.367188 161.945312 255.117188 158.480469 C 255.117188 163.363281 254.519531 164.183594 255.746094 165.175781 C 255.980469 165.355469 256.257812 165.480469 256.546875 165.542969 C 256.835938 165.605469 257.136719 165.601562 257.429688 165.539062 Z M 104.664062 198.921875 C 100.53125 195.414062 96.085938 192.289062 91.386719 189.59375 C 89.574219 188.523438 87.648438 187.664062 85.644531 187.027344 C 83.960938 186.585938 83.253906 187.453125 83.597656 188.601562 C 84.308594 190.253906 85.246094 191.796875 86.382812 193.1875 C 90.003906 197.777344 94.164062 201.90625 98.78125 205.492188 C 105.796875 211.367188 114.886719 218.488281 121.527344 223.546875 C 121.863281 223.792969 122.25 223.972656 122.65625 224.066406 C 123.0625 224.164062 123.488281 224.179688 123.902344 224.109375 C 124.3125 224.042969 124.710938 223.890625 125.0625 223.667969 C 125.417969 223.441406 125.722656 223.152344 125.960938 222.804688 C 127.125 221.53125 127.851562 219.292969 126.542969 218.078125 C 125.035156 216.726562 115.800781 208.011719 104.664062 198.921875 Z M 89.59375 195.425781 L 87.4375 191.941406 C 88.203125 191.625 88.851562 191.074219 89.292969 190.367188 L 92.707031 191.753906 C 91.851562 191.925781 91.078125 192.378906 90.511719 193.046875 C 89.945312 193.710938 89.621094 194.550781 89.59375 195.425781 Z M 94.421875 199.441406 C 93.285156 198.484375 92.230469 197.429688 91.277344 196.292969 C 91.386719 194.382812 91.984375 193.535156 93.886719 193.472656 C 95.15625 194.078125 96.351562 194.824219 97.457031 195.691406 C 96.613281 195.898438 95.855469 196.375 95.308594 197.054688 C 94.761719 197.730469 94.449219 198.570312 94.421875 199.441406 Z M 121.320312 222.363281 C 119.574219 220.898438 96.355469 201.175781 94.925781 199.914062 C 95.046875 199.03125 95.429688 198.207031 96.027344 197.550781 C 96.625 196.890625 97.410156 196.429688 98.277344 196.226562 C 103.703125 200.261719 111.507812 206.941406 125.113281 218.285156 C 124.585938 218.257812 124.054688 218.347656 123.5625 218.546875 C 123.070312 218.746094 122.628906 219.050781 122.269531 219.441406 C 121.90625 219.828125 121.636719 220.292969 121.472656 220.796875 C 121.308594 221.304688 121.257812 221.839844 121.320312 222.363281 Z M 245.976562 239.820312 C 247.941406 241.160156 249.3125 240.546875 250.585938 238.6875 C 253.730469 234.210938 264.742188 214.410156 264.742188 214.25 C 264.742188 214.09375 264.867188 214.394531 264.347656 208.027344 C 264.328125 207.789062 264.242188 207.558594 264.097656 207.367188 C 263.957031 207.171875 263.765625 207.019531 263.546875 206.925781 C 263.328125 206.828125 263.085938 206.792969 262.847656 206.824219 C 262.609375 206.855469 262.382812 206.949219 262.195312 207.097656 L 256.8125 211.023438 C 256.8125 211.023438 244.875 235.742188 244.75 235.960938 C 244.53125 236.652344 244.535156 237.394531 244.753906 238.085938 C 244.972656 238.777344 245.398438 239.382812 245.976562 239.820312 Z M 262.636719 209.019531 C 262.730469 210.171875 262.855469 211.699219 262.949219 212.753906 C 261.78125 212.195312 260.558594 211.757812 259.300781 211.445312 Z M 258.136719 212.519531 C 259.5 213.488281 261.074219 214.113281 262.730469 214.347656 C 262.492188 214.753906 250.476562 236.71875 250.347656 236.9375 C 249.984375 236.195312 249.382812 235.589844 248.640625 235.222656 C 247.898438 234.855469 247.054688 234.746094 246.242188 234.90625 C 247.46875 232.621094 257.695312 213.304688 258.136719 212.519531 Z M 258.136719 212.519531 " fill-opacity="1" fill-rule="nonzero"/><path fill="#ffffff" d="M 250.898438 181.277344 C 250.730469 181.039062 250.515625 180.835938 250.265625 180.683594 C 250.019531 180.527344 249.742188 180.425781 249.453125 180.378906 C 248.519531 180.128906 247.574219 179.941406 246.621094 179.8125 C 247.15625 183.5625 247.46875 187.6875 247.453125 188.050781 C 247.429688 188.289062 247.3125 188.511719 247.128906 188.664062 C 246.941406 188.820312 246.703125 188.894531 246.464844 188.871094 C 246.222656 188.84375 246.003906 188.722656 245.847656 188.535156 C 245.695312 188.34375 245.625 188.105469 245.644531 187.863281 C 245.644531 187.59375 245.550781 186.507812 245.472656 179.652344 C 242.324219 179.261719 227.175781 178.078125 227.773438 181.101562 C 227.773438 181.261719 226.53125 188.980469 231.34375 192.683594 C 236.160156 196.386719 245.785156 195.660156 249.152344 191.894531 C 250.109375 190.75 250.738281 189.367188 250.976562 187.894531 C 251.347656 185.703125 251.324219 183.460938 250.898438 181.277344 Z M 254.675781 167.019531 C 254.675781 167.726562 253.730469 173.148438 253.101562 180.425781 L 253.855469 180.582031 C 256.625 181.171875 259.507812 180.855469 262.085938 179.6875 C 262.984375 179.1875 263.726562 178.449219 264.234375 177.554688 C 264.742188 176.660156 264.992188 175.640625 264.964844 174.613281 C 265.070312 173.332031 264.847656 172.046875 264.316406 170.878906 C 263.789062 169.710938 262.96875 168.699219 261.9375 167.9375 C 260.90625 167.175781 259.695312 166.691406 258.425781 166.53125 C 257.152344 166.371094 255.863281 166.539062 254.675781 167.019531 Z M 255.382812 167.554688 C 256.386719 167.394531 257.414062 167.453125 258.394531 167.726562 C 259.371094 167.996094 260.28125 168.476562 261.0625 169.128906 C 261.808594 169.816406 262.390625 170.667969 262.753906 171.617188 C 263.121094 172.5625 263.261719 173.585938 263.167969 174.597656 C 263.027344 178.644531 258.875 179.417969 254.894531 179.007812 C 255.082031 176.140625 255.242188 172.847656 255.382812 167.554688 Z M 103.121094 153.042969 C 103.121094 153.042969 103.136719 153.058594 103.121094 153.042969 Z M 238.535156 75.074219 C 238.53125 75.355469 238.582031 75.632812 238.6875 75.894531 C 238.789062 76.15625 238.945312 76.390625 239.140625 76.59375 C 239.335938 76.792969 239.570312 76.953125 239.828125 77.0625 C 240.085938 77.171875 240.363281 77.230469 240.644531 77.234375 C 241.070312 77.242188 241.492188 77.125 241.851562 76.890625 C 242.214844 76.660156 242.496094 76.328125 242.667969 75.933594 C 242.835938 75.539062 242.886719 75.105469 242.808594 74.683594 C 242.730469 74.261719 242.53125 73.871094 242.230469 73.566406 C 241.929688 73.257812 241.546875 73.046875 241.128906 72.960938 C 240.707031 72.875 240.273438 72.914062 239.875 73.074219 C 239.480469 73.238281 239.140625 73.515625 238.902344 73.871094 C 238.664062 74.226562 238.535156 74.644531 238.535156 75.074219 Z M 66.359375 127.050781 C 66.71875 127.757812 67.191406 127.835938 67.488281 127.617188 C 67.789062 127.394531 167.414062 126.527344 174.824219 126.136719 C 176.417969 126.160156 178.007812 125.957031 179.542969 125.535156 C 183.082031 122.386719 184.46875 63.480469 183.082031 60.753906 C 179.542969 53.679688 68.765625 58.230469 61.953125 60.296875 C 56.527344 61.933594 63.855469 122.023438 66.359375 127.050781 Z M 61.652344 62.847656 C 61.652344 62.566406 62 61.460938 62.265625 61.382812 C 69.800781 59.113281 179.210938 55.378906 182.1875 61.304688 C 182.4375 62.488281 182.554688 63.699219 182.53125 64.914062 C 182.800781 71.78125 182.53125 86.496094 181.824219 99.683594 C 181.683594 102.203125 180.566406 122.859375 178.929688 124.734375 C 172.402344 126.121094 71.800781 126.433594 67.332031 126.609375 C 64.785156 120.683594 59.277344 73.246094 61.652344 62.847656 Z M 240.847656 40.335938 C 241.273438 40.34375 241.695312 40.226562 242.054688 39.996094 C 242.414062 39.765625 242.699219 39.433594 242.871094 39.039062 C 243.039062 38.648438 243.089844 38.210938 243.015625 37.792969 C 242.9375 37.371094 242.738281 36.980469 242.441406 36.671875 C 242.144531 36.367188 241.761719 36.15625 241.34375 36.066406 C 240.921875 35.976562 240.488281 36.015625 240.09375 36.175781 C 239.695312 36.332031 239.355469 36.609375 239.113281 36.960938 C 238.871094 37.316406 238.742188 37.734375 238.738281 38.160156 C 238.734375 38.441406 238.78125 38.722656 238.886719 38.984375 C 238.988281 39.25 239.144531 39.488281 239.339844 39.691406 C 239.535156 39.890625 239.769531 40.054688 240.027344 40.164062 C 240.289062 40.273438 240.566406 40.332031 240.847656 40.335938 Z M 240.847656 40.335938 " fill-opacity="1" fill-rule="nonzero"/><path fill="#ffffff" d="M 92.441406 102.550781 L 111.128906 102.550781 C 113.289062 102.542969 115.363281 101.675781 116.886719 100.140625 C 118.410156 98.601562 119.265625 96.523438 119.261719 94.359375 L 119.261719 79.171875 C 119.261719 77 118.40625 74.917969 116.886719 73.371094 C 115.363281 71.828125 113.296875 70.945312 111.128906 70.914062 L 92.441406 70.914062 C 91.355469 70.910156 90.28125 71.121094 89.28125 71.535156 C 88.277344 71.949219 87.367188 72.554688 86.601562 73.324219 C 85.835938 74.089844 85.230469 75.003906 84.816406 76.007812 C 84.402344 77.011719 84.191406 78.085938 84.195312 79.171875 L 84.195312 94.359375 C 84.199219 95.4375 84.417969 96.507812 84.832031 97.503906 C 85.25 98.5 85.859375 99.402344 86.625 100.164062 C 87.390625 100.925781 88.296875 101.527344 89.296875 101.9375 C 90.292969 102.347656 91.363281 102.554688 92.441406 102.550781 Z M 85.535156 79.171875 C 85.5625 77.347656 86.300781 75.613281 87.589844 74.328125 C 88.882812 73.046875 90.621094 72.316406 92.441406 72.300781 L 111.128906 72.300781 C 112.046875 72.289062 112.957031 72.464844 113.808594 72.808594 C 114.660156 73.152344 115.4375 73.660156 116.089844 74.308594 C 116.746094 74.953125 117.261719 75.722656 117.617188 76.570312 C 117.972656 77.417969 118.15625 78.328125 118.160156 79.25 L 118.160156 94.359375 C 118.15625 95.277344 117.96875 96.191406 117.613281 97.039062 C 117.257812 97.886719 116.742188 98.65625 116.085938 99.304688 C 115.433594 99.953125 114.660156 100.46875 113.808594 100.816406 C 112.957031 101.164062 112.046875 101.339844 111.128906 101.335938 L 92.441406 101.335938 C 91.527344 101.332031 90.628906 101.148438 89.789062 100.796875 C 88.949219 100.445312 88.183594 99.929688 87.542969 99.28125 C 86.902344 98.632812 86.394531 97.863281 86.050781 97.019531 C 85.707031 96.175781 85.53125 95.269531 85.535156 94.359375 Z M 142.96875 113.800781 C 143.28125 114.730469 144.070312 114.523438 144.289062 113.941406 C 144.589844 113.105469 146.335938 107.105469 146.554688 106.0625 C 147.765625 105.6875 144.351562 106.867188 154.90625 103.023438 C 155.015625 102.980469 155.113281 102.90625 155.179688 102.808594 C 155.242188 102.710938 155.28125 102.597656 155.28125 102.480469 C 155.28125 102.363281 155.242188 102.246094 155.179688 102.148438 C 155.113281 102.054688 155.015625 101.976562 154.90625 101.9375 L 138.738281 95.460938 C 138.636719 95.414062 138.527344 95.394531 138.417969 95.402344 C 138.308594 95.410156 138.203125 95.449219 138.113281 95.511719 C 138.023438 95.574219 137.949219 95.65625 137.902344 95.757812 C 137.851562 95.855469 137.832031 95.964844 137.839844 96.074219 C 137.839844 96.074219 142.101562 111.292969 142.96875 113.800781 Z M 139.460938 97.148438 L 153.082031 102.519531 C 151.257812 103.195312 148.175781 104.363281 146.695312 104.960938 C 146.035156 105.214844 145.769531 105.324219 145.609375 105.527344 C 145.453125 105.734375 146.003906 104.503906 143.691406 111.640625 Z M 176.585938 50.953125 C 176.605469 51.046875 176.65625 51.132812 176.730469 51.195312 C 176.804688 51.253906 176.898438 51.285156 176.996094 51.285156 C 177.324219 51.285156 187.503906 52.261719 189.578125 51.710938 C 190.917969 51.347656 191.152344 48.984375 191.277344 47.597656 C 191.4375 45.503906 191.277344 40.367188 190.398438 38.617188 C 189.203125 36.253906 180.375 37.042969 177.8125 37.5 C 177.132812 37.59375 176.480469 37.84375 175.910156 38.222656 C 175.574219 38.613281 175.382812 39.097656 175.359375 39.609375 C 175.34375 43.425781 175.753906 47.230469 176.585938 50.953125 Z M 177.042969 39.4375 C 179.527344 38.664062 186.605469 38.367188 188.855469 39.4375 C 189.625 41.484375 190.035156 48.527344 189.109375 50.167969 C 187.644531 50.542969 178.710938 50.542969 177.214844 50.558594 C 177.167969 49.332031 176.445312 42.699219 177.042969 39.4375 Z M 197.695312 50.890625 C 197.71875 50.984375 197.769531 51.066406 197.84375 51.128906 C 197.917969 51.1875 198.011719 51.21875 198.105469 51.222656 C 198.4375 51.222656 208.613281 52.199219 210.691406 51.648438 C 212.027344 51.285156 212.265625 48.921875 212.40625 47.535156 C 212.546875 45.441406 212.40625 40.304688 211.507812 38.554688 C 210.3125 36.175781 201.488281 36.980469 198.921875 37.4375 C 198.246094 37.539062 197.597656 37.785156 197.019531 38.160156 C 196.695312 38.550781 196.5 39.039062 196.46875 39.546875 C 196.453125 43.363281 196.867188 47.167969 197.695312 50.890625 Z M 198.152344 39.375 C 200.636719 38.585938 207.71875 38.300781 209.96875 39.375 C 210.738281 41.421875 211.148438 48.464844 210.21875 50.085938 C 208.753906 50.480469 199.820312 50.480469 198.324219 50.496094 C 198.277344 49.269531 197.554688 42.636719 198.152344 39.375 Z M 219.785156 51.582031 C 219.800781 51.679688 219.851562 51.761719 219.929688 51.824219 C 220.003906 51.882812 220.097656 51.917969 220.191406 51.914062 C 220.523438 51.914062 230.699219 52.890625 232.777344 52.339844 C 234.113281 51.976562 234.351562 49.613281 234.476562 48.226562 C 234.632812 46.132812 234.476562 40.996094 233.59375 39.246094 C 232.398438 36.886719 223.574219 37.671875 221.011719 38.128906 C 220.332031 38.230469 219.679688 38.476562 219.105469 38.855469 C 218.773438 39.242188 218.578125 39.730469 218.554688 40.242188 C 218.539062 44.054688 218.953125 47.859375 219.785156 51.582031 Z M 220.238281 40.066406 C 222.726562 39.296875 229.804688 38.996094 232.054688 40.066406 C 232.824219 42.117188 233.234375 49.15625 232.304688 50.796875 C 230.84375 51.175781 221.90625 51.175781 220.414062 51.191406 C 220.367188 49.960938 219.640625 43.328125 220.238281 40.066406 Z M 197.839844 75.121094 C 197.949219 75.4375 198.199219 75.46875 198.246094 75.453125 C 198.59375 75.453125 208.753906 76.429688 210.832031 75.878906 C 212.167969 75.515625 212.40625 73.152344 212.546875 71.765625 C 212.6875 69.671875 212.546875 64.535156 211.667969 62.800781 C 210.453125 60.421875 201.628906 61.226562 199.082031 61.667969 C 198.394531 61.765625 197.742188 62.011719 197.160156 62.390625 C 196.832031 62.789062 196.640625 63.28125 196.613281 63.792969 C 196.597656 67.605469 197.007812 71.402344 197.839844 75.121094 Z M 198.308594 63.605469 C 200.796875 62.832031 207.859375 62.535156 210.109375 63.605469 C 210.878906 65.652344 211.289062 72.695312 210.359375 74.332031 C 208.898438 74.710938 199.976562 74.710938 198.484375 74.726562 C 198.421875 73.5 197.695312 66.867188 198.308594 63.605469 Z M 234.617188 62.15625 C 237.132812 58.4375 239.335938 55.082031 239.414062 54.925781 C 239.496094 54.765625 238.347656 53.347656 237.667969 54.355469 C 232.855469 61.777344 233.515625 61.066406 233.171875 60.941406 C 230.402344 59.933594 221.464844 60.28125 220.066406 61.589844 C 219.121094 62.46875 219.484375 65.667969 219.59375 67.039062 C 218.585938 66.472656 217.816406 66.0625 217.535156 65.953125 C 216.808594 65.667969 216.855469 66.378906 217.25 66.628906 L 219.703125 68.207031 C 219.902344 70.277344 220.222656 72.332031 220.664062 74.367188 C 220.679688 74.460938 220.730469 74.546875 220.804688 74.609375 C 220.882812 74.671875 220.976562 74.703125 221.074219 74.695312 C 221.402344 74.695312 231.582031 75.671875 233.65625 75.121094 C 236.363281 74.367188 235.53125 64.425781 234.617188 62.15625 Z M 221.121094 62.800781 C 224.820312 61.957031 228.65625 61.886719 232.382812 62.597656 L 226.925781 71.214844 C 226.375 70.898438 223.433594 69.167969 220.980469 67.78125 C 220.875 66.136719 220.921875 64.484375 221.121094 62.847656 Z M 233.1875 73.515625 C 231.707031 73.910156 222.789062 73.910156 221.292969 73.925781 C 221.292969 73.292969 221.058594 71.230469 220.949219 68.945312 L 226.925781 72.664062 C 227.078125 72.679688 227.230469 72.652344 227.367188 72.585938 C 227.5 72.519531 227.617188 72.414062 227.695312 72.285156 C 228.199219 71.640625 230.730469 67.953125 233.3125 64.15625 C 233.800781 66.992188 233.957031 72.160156 233.21875 73.515625 Z M 170.640625 39.816406 C 171.066406 39.820312 171.484375 39.699219 171.84375 39.46875 C 172.203125 39.234375 172.484375 38.902344 172.652344 38.507812 C 172.820312 38.117188 172.867188 37.679688 172.789062 37.261719 C 172.710938 36.839844 172.507812 36.453125 172.210938 36.148438 C 171.914062 35.84375 171.53125 35.632812 171.113281 35.542969 C 170.695312 35.457031 170.261719 35.496094 169.863281 35.65625 C 169.46875 35.816406 169.128906 36.089844 168.886719 36.441406 C 168.648438 36.796875 168.519531 37.214844 168.515625 37.640625 C 168.515625 38.210938 168.738281 38.753906 169.132812 39.160156 C 169.53125 39.566406 170.070312 39.804688 170.640625 39.816406 Z M 170.640625 39.816406 " fill-opacity="1" fill-rule="nonzero"/></svg>