<svg xmlns="http://www.w3.org/2000/svg" xmlns:xlink="http://www.w3.org/1999/xlink" width="50" zoomAndPan="magnify" viewBox="0 0 37.5 37.499999" height="50" preserveAspectRatio="xMidYMid meet" version="1.0"><defs><clipPath id="c19a8e04d7"><path d="M 1.828125 4 L 35.132812 4 L 35.132812 10 L 1.828125 10 Z M 1.828125 4 " clip-rule="nonzero"/></clipPath><clipPath id="6d270291c8"><path d="M 3 7 L 34 7 L 34 37.007812 L 3 37.007812 Z M 3 7 " clip-rule="nonzero"/></clipPath></defs><g clip-path="url(#c19a8e04d7)"><path fill="#e82127" d="M 1.832031 7.59375 C 1.832031 7.59375 16.527344 0 35.128906 7.59375 L 34.378906 9.429688 C 34.378906 9.429688 19.214844 2.191406 3 9.429688 Z M 1.832031 7.59375 " fill-opacity="1" fill-rule="nonzero"/></g><g clip-path="url(#6d270291c8)"><path fill="#e82127" d="M 33.507812 10.414062 C 33.507812 10.414062 30.835938 13.207031 29.03125 13.671875 C 29.03125 13.671875 29.265625 11.171875 26.417969 11.171875 L 23.046875 11.171875 L 18.480469 37.007812 L 13.808594 11.171875 L 10.183594 11.171875 C 9.699219 11.171875 9.265625 11.316406 8.882812 11.613281 C 8.332031 12.039062 7.699219 12.761719 7.941406 13.730469 C 7.941406 13.730469 4.628906 12.277344 3.351562 10.414062 C 3.351562 10.414062 7.875 8.070312 14.847656 7.421875 L 18.480469 11.636719 L 21.871094 7.421875 C 25.464844 7.753906 29.402344 8.640625 33.507812 10.414062 Z M 33.507812 10.414062 " fill-opacity="1" fill-rule="nonzero"/></g></svg>