<svg xmlns="http://www.w3.org/2000/svg" xmlns:xlink="http://www.w3.org/1999/xlink" width="50" zoomAndPan="magnify" viewBox="0 0 37.5 37.499999" height="50" preserveAspectRatio="xMidYMid meet" version="1.0"><defs><clipPath id="988e3bd59c"><path d="M 9 11.035156 L 19 11.035156 L 19 24 L 9 24 Z M 9 11.035156 " clip-rule="nonzero"/></clipPath><clipPath id="18a82876a7"><path d="M 26 14 L 37 14 L 37 25.835938 L 26 25.835938 Z M 26 14 " clip-rule="nonzero"/></clipPath></defs><path fill="#f5af02" d="M 23.421875 18.871094 C 21.742188 18.925781 20.695312 19.226562 20.695312 20.328125 C 20.695312 21.042969 21.269531 21.8125 22.71875 21.8125 C 24.660156 21.8125 25.703125 20.761719 25.703125 19.035156 L 25.703125 18.847656 L 23.421875 18.875 Z M 27.5625 21.148438 L 27.625 22.6875 L 25.902344 22.6875 C 25.855469 22.296875 25.835938 21.910156 25.835938 21.53125 C 24.90625 22.667969 23.796875 22.992188 22.253906 22.992188 C 19.976562 22.992188 18.753906 21.800781 18.753906 20.417969 C 18.753906 18.410156 20.414062 17.707031 23.308594 17.640625 C 24.097656 17.625 24.980469 17.625 25.710938 17.625 L 25.710938 17.425781 C 25.710938 16.089844 24.84375 15.542969 23.339844 15.542969 C 22.226562 15.542969 21.398438 16.003906 21.316406 16.789062 L 19.367188 16.789062 C 19.574219 14.816406 21.664062 14.320312 23.496094 14.320312 C 25.707031 14.320312 27.550781 15.097656 27.550781 17.402344 L 27.550781 21.15625 Z M 27.5625 21.148438 " fill-opacity="1" fill-rule="nonzero"/><path fill="#e53238" d="M 7.386719 17.898438 C 7.3125 16.179688 6.058594 15.539062 4.722656 15.539062 C 3.28125 15.539062 2.125 16.261719 1.925781 17.898438 Z M 1.886719 19.117188 C 1.988281 20.789062 3.144531 21.773438 4.742188 21.773438 C 5.84375 21.773438 6.828125 21.335938 7.15625 20.355469 L 9.070312 20.355469 C 8.699219 22.324219 6.582031 22.996094 4.769531 22.996094 C 1.460938 22.996094 0 21.1875 0 18.753906 C 0 16.070312 1.515625 14.308594 4.804688 14.308594 C 7.421875 14.308594 9.335938 15.664062 9.335938 18.628906 L 9.335938 19.117188 Z M 1.886719 19.117188 " fill-opacity="1" fill-rule="nonzero"/><g clip-path="url(#988e3bd59c)"><path fill="#0064d2" d="M 14.085938 21.738281 C 15.808594 21.738281 16.984375 20.507812 16.984375 18.65625 C 16.984375 16.800781 15.808594 15.574219 14.085938 15.574219 C 12.371094 15.574219 11.1875 16.800781 11.1875 18.65625 C 11.1875 20.507812 12.371094 21.738281 14.085938 21.738281 Z M 9.335938 11.082031 L 11.1875 11.082031 L 11.1875 15.699219 C 12.097656 14.625 13.347656 14.316406 14.578125 14.316406 C 16.644531 14.316406 18.933594 15.699219 18.933594 18.683594 C 18.933594 21.179688 17.113281 23.003906 14.539062 23.003906 C 13.191406 23.003906 11.933594 22.523438 11.148438 21.574219 C 11.148438 21.953125 11.132812 22.335938 11.085938 22.695312 L 9.261719 22.695312 L 9.328125 20.796875 L 9.328125 11.082031 Z M 9.335938 11.082031 " fill-opacity="1" fill-rule="nonzero"/></g><g clip-path="url(#18a82876a7)"><path fill="#86b817" d="M 36.996094 14.613281 L 31.261719 25.777344 L 29.183594 25.777344 L 30.832031 22.679688 L 26.523438 14.613281 L 28.691406 14.613281 L 31.863281 20.914062 L 35.027344 14.613281 Z M 36.996094 14.613281 " fill-opacity="1" fill-rule="nonzero"/></g></svg>