<svg xmlns="http://www.w3.org/2000/svg" xmlns:xlink="http://www.w3.org/1999/xlink" width="50" zoomAndPan="magnify" viewBox="0 0 37.5 37.499999" height="50" preserveAspectRatio="xMidYMid meet" version="1.0"><defs><clipPath id="61a04b2e64"><path d="M 0 0 L 37.007812 0 L 37.007812 37.007812 L 0 37.007812 Z M 0 0 " clip-rule="nonzero"/></clipPath></defs><g clip-path="url(#61a04b2e64)"><path fill="#0061ff" d="M 5.550781 0 L 31.457031 0 C 31.820312 0 32.179688 0.0351562 32.539062 0.105469 C 32.894531 0.179688 33.242188 0.28125 33.578125 0.421875 C 33.917969 0.5625 34.238281 0.734375 34.539062 0.933594 C 34.84375 1.136719 35.121094 1.367188 35.378906 1.625 C 35.636719 1.882812 35.867188 2.164062 36.070312 2.46875 C 36.273438 2.769531 36.445312 3.089844 36.585938 3.425781 C 36.722656 3.761719 36.828125 4.109375 36.898438 4.46875 C 36.972656 4.824219 37.007812 5.1875 37.007812 5.550781 L 37.007812 31.457031 C 37.007812 31.820312 36.972656 32.179688 36.898438 32.539062 C 36.828125 32.894531 36.722656 33.242188 36.585938 33.578125 C 36.445312 33.917969 36.273438 34.238281 36.070312 34.539062 C 35.867188 34.84375 35.636719 35.121094 35.378906 35.378906 C 35.121094 35.636719 34.84375 35.867188 34.539062 36.070312 C 34.238281 36.273438 33.917969 36.445312 33.578125 36.585938 C 33.242188 36.722656 32.894531 36.828125 32.539062 36.898438 C 32.179688 36.972656 31.820312 37.007812 31.457031 37.007812 L 5.550781 37.007812 C 5.1875 37.007812 4.824219 36.972656 4.46875 36.898438 C 4.109375 36.828125 3.761719 36.722656 3.425781 36.585938 C 3.089844 36.445312 2.769531 36.273438 2.46875 36.070312 C 2.164062 35.867188 1.882812 35.636719 1.625 35.378906 C 1.367188 35.121094 1.136719 34.84375 0.933594 34.539062 C 0.734375 34.238281 0.5625 33.917969 0.421875 33.578125 C 0.28125 33.242188 0.179688 32.894531 0.105469 32.539062 C 0.0351562 32.179688 0 31.820312 0 31.457031 L 0 5.550781 C 0 5.1875 0.0351562 4.824219 0.105469 4.46875 C 0.179688 4.109375 0.28125 3.761719 0.421875 3.425781 C 0.5625 3.089844 0.734375 2.769531 0.933594 2.46875 C 1.136719 2.164062 1.367188 1.882812 1.625 1.625 C 1.882812 1.367188 2.164062 1.136719 2.46875 0.933594 C 2.769531 0.734375 3.089844 0.5625 3.425781 0.421875 C 3.761719 0.28125 4.109375 0.179688 4.46875 0.105469 C 4.824219 0.0351562 5.1875 0 5.550781 0 Z M 5.550781 0 " fill-opacity="1" fill-rule="nonzero"/></g><path fill="#ffffff" d="M 11.421875 26.886719 L 18.503906 31.441406 L 25.585938 26.886719 L 18.503906 22.40625 Z M 11.421875 7.300781 L 4.265625 11.855469 L 25.585938 25.441406 L 32.742188 20.886719 L 18.503906 11.855469 L 25.585938 7.300781 L 32.742188 11.855469 L 11.421875 25.441406 L 4.265625 20.886719 L 18.503906 11.855469 " fill-opacity="1" fill-rule="nonzero"/></svg>