<svg xmlns="http://www.w3.org/2000/svg" xmlns:xlink="http://www.w3.org/1999/xlink" width="50" zoomAndPan="magnify" viewBox="0 0 37.5 37.499999" height="50" preserveAspectRatio="xMidYMid meet" version="1.0"><defs><clipPath id="8253a963cb"><path d="M 0 0 L 37.007812 0 L 37.007812 37.007812 L 0 37.007812 Z M 0 0 " clip-rule="nonzero"/></clipPath></defs><g clip-path="url(#8253a963cb)"><path fill="#d2252d" d="M 37.007812 31.382812 C 37.007812 34.488281 34.488281 37.003906 31.386719 37.003906 L 5.621094 37.003906 C 2.511719 37.003906 0 34.484375 0 31.382812 L 0 5.625 C 0 2.523438 2.511719 0.00390625 5.621094 0.00390625 L 31.378906 0.00390625 C 34.488281 0.00390625 37 2.523438 37 5.625 Z M 37.007812 31.382812 " fill-opacity="1" fill-rule="nonzero"/></g><path fill="#ffffff" d="M 18.085938 6.851562 C 11.410156 6.851562 6.003906 12.261719 6.003906 18.933594 C 6.003906 23.882812 8.984375 28.128906 13.238281 30 C 13.207031 29.15625 13.230469 28.148438 13.449219 27.230469 C 13.683594 26.246094 15.003906 20.644531 15.003906 20.644531 C 15.003906 20.644531 14.613281 19.878906 14.613281 18.734375 C 14.613281 16.941406 15.65625 15.605469 16.941406 15.605469 C 18.035156 15.605469 18.570312 16.429688 18.570312 17.417969 C 18.570312 18.523438 17.859375 20.171875 17.503906 21.699219 C 17.195312 22.980469 18.140625 24.027344 19.40625 24.027344 C 21.699219 24.027344 23.238281 21.085938 23.238281 17.601562 C 23.238281 14.953125 21.453125 12.972656 18.210938 12.972656 C 14.546875 12.972656 12.265625 15.703125 12.265625 18.757812 C 12.265625 19.808594 12.578125 20.554688 13.066406 21.125 C 13.289062 21.394531 13.320312 21.496094 13.238281 21.796875 C 13.1875 22.019531 13.046875 22.558594 12.996094 22.761719 C 12.910156 23.070312 12.667969 23.179688 12.394531 23.070312 C 10.703125 22.386719 9.917969 20.535156 9.917969 18.457031 C 9.917969 15.023438 12.808594 10.90625 18.558594 10.90625 C 23.167969 10.90625 26.210938 14.25 26.210938 17.824219 C 26.210938 22.570312 23.578125 26.105469 19.691406 26.105469 C 18.386719 26.105469 17.15625 25.398438 16.734375 24.597656 C 16.734375 24.597656 16.03125 27.386719 15.882812 27.917969 C 15.628906 28.84375 15.125 29.785156 14.667969 30.507812 C 15.757812 30.824219 16.90625 31 18.097656 31 C 24.773438 31 30.175781 25.589844 30.175781 18.917969 C 30.171875 12.269531 24.753906 6.851562 18.085938 6.851562 Z M 18.085938 6.851562 " fill-opacity="1" fill-rule="nonzero"/></svg>